<?xml version="1.0" standalone="no"?>
<!DOCTYPE svg PUBLIC "-//W3C//DTD SVG 1.1//EN" "http://www.w3.org/Graphics/SVG/1.1/DTD/svg11.dtd" >
<svg xmlns="http://www.w3.org/2000/svg" xmlns:xlink="http://www.w3.org/1999/xlink" version="1.1">
<metadata>
Created by FontForge 20201107 at Thu Mar 16 16:37:57 2023
 By 
(c) 2011-2017, Copyright by Lineto GmbH. All rights reserved.
</metadata>
<defs>
<font id="RiformaRegular" horiz-adv-x="495" >
  <font-face 
    font-family="RiformaRegular"
    font-weight="500"
    font-stretch="normal"
    units-per-em="2048"
    panose-1="0 0 0 0 0 0 0 0 0 0"
    ascent="1638"
    descent="-410"
    x-height="1065"
    cap-height="1434"
    bbox="-131 -522 2193 1905"
    underline-thickness="102"
    underline-position="-307"
    unicode-range="U+0020-0244"
  />
<missing-glyph horiz-adv-x="935" 
d="M41 1382h854v-1382h-854v1382zM139 98h656v1186h-656v-1186z" />
    <glyph glyph-name=".notdef" horiz-adv-x="935" 
d="M41 1382h854v-1382h-854v1382zM139 98h656v1186h-656v-1186z" />
    <glyph glyph-name=".notdef" horiz-adv-x="935" 
d="M41 1382h854v-1382h-854v1382zM139 98h656v1186h-656v-1186z" />
    <glyph glyph-name=".null" horiz-adv-x="0" 
 />
    <glyph glyph-name="nonmarkingreturn" horiz-adv-x="682" 
 />
    <glyph glyph-name="space" unicode=" " 
 />
    <glyph glyph-name="exclam" unicode="!" horiz-adv-x="536" 
d="M145 0v276h246v-276h-246zM371 911l-41 -460h-123l-41 460v523h205v-523z" />
    <glyph glyph-name="quotedbl" unicode="&#x22;" horiz-adv-x="806" 
d="M139 809v625h205v-420zM498 809v625h204v-420z" />
    <glyph glyph-name="numbersign" unicode="#" horiz-adv-x="1601" 
d="M778 0l99 389h-314l-98 -389h-197l99 389h-308l41 164h308l81 328h-309l41 163h309l97 390h196l-96 -390h313l97 390h196l-96 -390h305l-41 -163h-305l-82 -328h307l-41 -164h-307l-98 -389h-197zM686 881l-82 -328h314l81 328h-313z" />
    <glyph glyph-name="dollar" unicode="$" horiz-adv-x="1245" 
d="M541 -205v176q-120 9 -201 43q-90 36 -143 84q-62 52 -91 115q-32 59 -38 135h202q6 -77 70 -135q64 -61 201 -76v527q-72 16 -164 47q-78 27 -141 77q-62 46 -99 117q-39 68 -39 170q0 70 29 139t82 119q49 46 139 84q81 34 193 43v178h164v-178q92 -8 176 -41
q83 -38 129 -78q53 -47 82 -104q28 -62 34 -121h-202q-9 58 -62 111q-52 52 -157 67v-469q82 -14 174 -43q88 -29 151 -75q70 -57 107 -127q41 -77 41 -191q0 -170 -121 -285q-118 -112 -352 -133v-176h-164zM977 379q0 58 -16 104q-18 41 -54 72q-39 31 -84 47
q-56 19 -118 33v-498q139 15 206 82q66 66 66 160zM299 1085q0 -98 61 -147q58 -52 181 -80v438q-66 -9 -113 -30q-49 -22 -76 -49q-31 -34 -41 -64q-12 -35 -12 -68z" />
    <glyph glyph-name="percent" unicode="%" horiz-adv-x="1880" 
d="M225 1014q0 -141 43 -223q41 -84 142 -84q99 0 143 84q41 84 41 223t-41 223q-44 84 -143 84q-101 0 -142 -84q-43 -82 -43 -223zM748 1014q0 -120 -27 -203q-28 -85 -72 -135q-50 -56 -106 -78q-67 -25 -133 -25q-70 0 -134 25q-56 22 -106 78q-44 50 -72 135
q-26 79 -26 203t26 203q29 88 72 137q47 53 106 76q62 24 134 24q68 0 133 -24q59 -23 106 -76q43 -49 72 -137q27 -83 27 -203zM453 0l798 1434h172l-798 -1434h-172zM1286 420q0 -141 43 -223q41 -84 141 -84t144 84q41 84 41 223t-41 223q-44 84 -144 84t-141 -84
q-43 -82 -43 -223zM1808 420q0 -124 -26 -203q-28 -85 -72 -135q-50 -56 -106 -78q-64 -24 -134 -24q-72 0 -133 24q-56 22 -106 78q-44 50 -72 135q-26 79 -26 203t26 203q29 88 72 137q47 53 106 76q61 24 133 24q70 0 134 -24q59 -23 106 -76q43 -49 72 -137
q26 -79 26 -203z" />
    <glyph glyph-name="ampersand" unicode="&#x26;" horiz-adv-x="1507" 
d="M1176 307l307 -307h-266l-160 160q-39 -42 -82 -74q-47 -35 -103 -59q-56 -26 -127 -41q-80 -17 -153 -17q-123 0 -213 33q-105 38 -162 90q-67 61 -100 137q-37 75 -37 170q0 140 72 244q71 103 245 176q-67 67 -110 148q-43 76 -43 170q0 67 24 125q19 53 70 104
q43 43 119 72q68 26 166 26q97 0 165 -26q66 -25 115 -74t68 -102q20 -56 20 -115q0 -131 -63 -217q-67 -92 -211 -164l327 -328l183 258h225zM285 399q0 -115 80 -186q79 -70 227 -70q118 0 192 39q84 41 144 107l-398 397q-52 -20 -116 -57q-47 -28 -76 -64
q-30 -38 -41 -76q-12 -41 -12 -90zM623 1300q-91 0 -138 -47t-47 -116q0 -56 39 -109q34 -52 111 -133q122 52 172 111q47 59 47 131q0 59 -41 112q-42 51 -143 51z" />
    <glyph glyph-name="quotesingle" unicode="'" horiz-adv-x="448" 
d="M139 809v625h205v-420z" />
    <glyph glyph-name="parenleft" unicode="(" horiz-adv-x="598" 
d="M80 532q0 80 8 132t31 129q21 72 55 161q53 137 90 226l103 254h163l-102 -308q-18 -53 -70 -211q-39 -124 -45 -149q-17 -71 -22 -119q-6 -53 -6 -115t6 -114q5 -44 22 -117q9 -40 45 -149q38 -120 70 -213l102 -308h-163l-103 254q-49 118 -90 228q-32 83 -55 159
q-23 77 -31 129t-8 131z" />
    <glyph glyph-name="parenright" unicode=")" horiz-adv-x="600" 
d="M518 532q0 -79 -8 -131q-10 -65 -29 -129q-16 -54 -57 -159q-41 -110 -90 -228l-103 -254h-163l102 308q56 161 72 213q29 88 43 149q17 73 22 117q6 52 6 114t-6 115q-5 48 -22 119q-11 49 -43 149q-15 47 -72 211l-102 308h163l103 -254q37 -89 90 -226
q43 -114 57 -161q19 -64 29 -129q8 -52 8 -132z" />
    <glyph glyph-name="asterisk" unicode="*" horiz-adv-x="1024" 
d="M244 1339l227 -227v322h82v-322l227 227l58 -57l-228 -227h322v-82h-322l228 -228l-58 -57l-227 227v-321h-82v321l-227 -227l-58 57l228 228h-322v82h322l-228 227z" />
    <glyph glyph-name="plus" unicode="+" horiz-adv-x="1179" 
d="M68 635v164h440v450h164v-450h440v-164h-440v-451h-164v451h-440z" />
    <glyph glyph-name="comma" unicode="," horiz-adv-x="507" 
d="M131 0v276h246v-276l-164 -276h-92l112 276h-102z" />
    <glyph glyph-name="hyphen" unicode="-" horiz-adv-x="811" 
d="M129 451v163h553v-163h-553z" />
    <glyph glyph-name="period" unicode="." horiz-adv-x="507" 
d="M131 0v276h246v-276h-246z" />
    <glyph glyph-name="slash" unicode="/" horiz-adv-x="1132" 
d="M41 0l829 1434h220l-830 -1434h-219z" />
    <glyph glyph-name="zero" unicode="0" horiz-adv-x="1331" 
d="M307 717q0 -294 99 -432q100 -142 260 -142t260 142q98 137 98 432q0 294 -98 434q-100 139 -260 139t-260 -139q-99 -141 -99 -434zM1229 717q0 -208 -45 -344q-47 -147 -121 -232q-78 -91 -180 -131q-103 -41 -217 -41t-217 41q-100 40 -179 131q-77 89 -123 232
q-45 136 -45 344q0 207 45 346q47 143 123 231t179 129t217 41t217 -41q104 -41 180 -129q72 -84 121 -231q45 -139 45 -346z" />
    <glyph glyph-name="one" unicode="1" horiz-adv-x="856" 
d="M672 0h-205v1188l-317 -328v256l317 318h205v-1434z" />
    <glyph glyph-name="two" unicode="2" horiz-adv-x="1140" 
d="M297 1085h-207q10 99 47 164q37 70 101 119q64 48 145 72q83 24 178 24q102 0 191 -28q85 -31 145 -82q56 -50 92 -127q33 -70 33 -162q0 -60 -10 -125q-12 -58 -39 -111q-25 -51 -72 -108q-58 -70 -108 -117l-447 -430h707v-174h-963v174l563 563q82 82 125 160
q39 68 39 158q0 101 -61 168q-64 67 -195 67q-118 0 -186 -51q-72 -54 -78 -154z" />
    <glyph glyph-name="three" unicode="3" horiz-adv-x="1175" 
d="M453 676v174h112q118 0 187 57t69 158q0 99 -65 164q-67 61 -191 61q-56 0 -106 -16q-45 -14 -78 -41q-32 -26 -47 -55q-18 -37 -21 -62h-209q9 73 43 137q34 63 97 111q60 47 141 74q77 26 180 26q102 0 191 -28q83 -27 145 -80q55 -49 92 -125q33 -67 33 -156
q0 -92 -43 -168q-47 -77 -131 -129q122 -52 174 -153q51 -99 51 -215q0 -99 -37 -177q-37 -81 -104 -139q-66 -57 -162 -92q-90 -33 -209 -33q-118 0 -209 31t-151 82q-66 54 -99 121q-34 66 -43 145h207q6 -41 27 -82q18 -40 55 -67q37 -33 88 -47q55 -19 125 -19
q71 0 135 23q56 20 97 61q37 40 57 90q18 49 18 103q0 123 -71 194q-72 72 -226 72h-122z" />
    <glyph glyph-name="four" unicode="4" horiz-adv-x="1212" 
d="M39 461l686 973h215v-973h205v-174h-205v-287h-205v287h-696v174zM254 461h481v266v147q0 78 2 113q1 17 2 48.5t2 47.5q1 14 3.5 45.5t3.5 49.5h-9q-33 -55 -43 -72q-18 -35 -55 -88q-13 -19 -41 -60.5t-35 -52.5q-69 -103 -104 -151z" />
    <glyph glyph-name="five" unicode="5" horiz-adv-x="1193" 
d="M322 645h-203l51 789h850v-174h-655l-27 -379q40 48 121 88q78 35 192 35q122 0 207 -39q82 -39 143 -109q58 -74 84 -164q27 -94 27 -200q0 -117 -33 -207q-34 -94 -100 -166q-63 -66 -164 -109q-100 -41 -225 -41q-93 0 -182 29q-87 29 -148 78q-64 49 -104 119
q-43 69 -58 153h211q15 -85 90 -145t191 -60q79 0 145 29q57 26 99 78q37 46 55 110q18 62 18 132q0 68 -16 137q-14 60 -51 110q-36 48 -92 74q-58 27 -138 27q-108 0 -184 -52t-104 -143z" />
    <glyph glyph-name="six" unicode="6" horiz-adv-x="1232" 
d="M647 1464q167 0 289 -84q116 -82 151 -223h-223q-20 55 -73 96q-52 37 -144 37q-163 0 -239 -129q-80 -130 -89 -352q45 68 138 123q86 51 221 51q112 0 199 -37q88 -40 149 -104q57 -65 92 -156q31 -91 31 -194q0 -114 -37 -207q-43 -100 -106 -166t-160 -109
q-93 -41 -199 -41q-158 0 -262 64q-105 61 -166 166q-64 104 -88 239q-27 132 -27 279q0 208 43 350t117 231q72 86 174 127q95 39 209 39zM647 143q69 0 129 29q51 25 92 76q37 45 58 108q18 58 18 125q0 63 -16 125q-18 57 -56 105q-35 43 -92 71q-58 27 -133 27
q-73 0 -129 -27q-57 -26 -96 -71q-41 -47 -62 -105q-20 -56 -20 -125t20 -125q18 -62 58 -108q42 -52 94 -76q63 -29 135 -29z" />
    <glyph glyph-name="seven" unicode="7" horiz-adv-x="1038" 
d="M997 1260l-643 -1260h-217l643 1260h-745v174h962v-174z" />
    <glyph glyph-name="eight" unicode="8" horiz-adv-x="1236" 
d="M618 -31q-104 0 -202 31q-97 31 -166 88q-75 62 -113 137q-41 77 -41 174q0 75 21 133q19 61 53 107q33 45 78 78q44 33 94 51q-88 45 -143 131q-52 82 -52 176q0 90 37 160q34 71 99 123q66 54 149 80q82 26 186 26q105 0 187 -26q83 -26 149 -80q63 -51 101 -123
q35 -72 35 -160q0 -94 -52 -176q-55 -86 -143 -131q50 -18 94 -51q49 -37 80 -78q28 -38 53 -107q19 -62 19 -133q0 -100 -39 -174q-40 -78 -111 -137q-69 -57 -166 -88q-98 -31 -207 -31zM618 676q-76 0 -135 -21t-100 -59q-40 -37 -61 -84q-21 -50 -21 -102q0 -58 21 -107
q20 -50 61 -88q36 -36 100 -59t135 -23q72 0 136 23t100 59q41 38 61 88q21 49 21 107q0 52 -21 102q-21 47 -61 84q-41 38 -100 59q-58 21 -136 21zM618 1300q-133 0 -202 -63q-74 -65 -74 -172q0 -99 78 -162q75 -63 198 -63q126 0 201 63q76 61 76 162q0 106 -72 172
q-72 63 -205 63z" />
    <glyph glyph-name="nine" unicode="9" horiz-adv-x="1232" 
d="M586 -31q-168 0 -287 84q-119 82 -154 223h224q20 -56 73 -94q51 -39 144 -39q162 0 241 129q77 130 86 353q-43 -65 -137 -121q-89 -53 -221 -53q-109 0 -199 41q-91 42 -147 106q-62 68 -92 160q-33 85 -33 194q0 114 39 205q38 95 104 164q63 63 160 106q87 37 199 37
q161 0 268 -61q106 -65 166 -168q62 -106 86 -240q22 -141 22 -278q0 -208 -43 -350q-44 -145 -116 -232q-71 -86 -172 -127q-98 -39 -211 -39zM586 1290q-76 0 -129 -26q-56 -27 -92 -72q-38 -48 -56 -105q-20 -56 -20 -124q0 -67 18 -125q15 -62 53 -109q41 -51 93 -76
q58 -28 133 -28q70 0 131 28q52 25 96 76q36 41 59 109q21 58 21 125q0 62 -19 124q-22 62 -57 105q-40 46 -96 72t-135 26z" />
    <glyph glyph-name="colon" unicode=":" horiz-adv-x="507" 
d="M131 0v276h246v-276h-246zM131 788v277h246v-277h-246z" />
    <glyph glyph-name="semicolon" unicode=";" horiz-adv-x="520" 
d="M139 788v277h246v-277h-246zM139 0v276h246v-276l-164 -276h-92l113 276h-103z" />
    <glyph glyph-name="less" unicode="&#x3c;" horiz-adv-x="1110" 
d="M66 799l901 430v-185l-727 -327l727 -328v-184l-901 430v164z" />
    <glyph glyph-name="equal" unicode="=" horiz-adv-x="1171" 
d="M135 850v164h901v-164h-901zM135 420v164h901v-164h-901z" />
    <glyph glyph-name="greater" unicode="&#x3e;" horiz-adv-x="1110" 
d="M143 1229l901 -430v-164l-901 -430v184l727 328l-727 327v185z" />
    <glyph glyph-name="question" unicode="?" horiz-adv-x="1019" 
d="M346 0v276h246v-276h-246zM264 1116h-205q3 78 37 141q35 66 92 111q55 44 138 72q76 24 174 24q108 0 190 -30t137 -82q59 -56 84 -121q29 -76 29 -146q0 -91 -27 -149q-26 -59 -71 -107q-37 -40 -90 -79q-50 -38 -93 -78q-42 -39 -69 -92q-29 -56 -29 -129h-184
q0 98 26 163q27 65 68 115q40 49 86 86q47 35 86 74q41 41 66 84q26 45 26 112q0 35 -12 72q-13 37 -39 66q-28 28 -74 49q-47 18 -110 18q-64 0 -105 -14q-37 -13 -69 -41q-29 -29 -43 -57q-16 -32 -19 -62z" />
    <glyph glyph-name="at" unicode="@" horiz-adv-x="1882" 
d="M926 236q64 0 114 24q44 23 80 68q33 44 47 94q15 53 15 110q0 58 -15 111q-14 48 -47 96q-38 44 -80 66q-50 24 -114 24q-60 0 -109 -22q-51 -25 -80 -64q-33 -39 -49 -94q-18 -55 -18 -117t18 -114q14 -53 49 -94q32 -44 80 -64q47 -24 109 -24zM926 -317
q-178 0 -330 67q-149 63 -266 180q-112 112 -178 271q-66 160 -66 331q0 172 66 332q64 152 180 271q116 116 268 182q157 65 336 65q184 0 336 -63q157 -65 270 -178q112 -112 178 -269t66 -329q0 -117 -29 -209q-27 -86 -74 -139q-49 -56 -104 -78q-61 -25 -121 -25
q-77 0 -141 37t-94 107q-46 -69 -131 -111q-85 -43 -187 -43q-91 0 -164 33q-80 36 -133 92q-52 52 -90 143q-33 79 -33 182q0 106 33 185q37 88 90 141q53 56 133 92q73 33 164 33q47 0 99 -10q28 -8 77 -29q35 -18 60 -37q32 -28 41 -37v82h184v-573q0 -76 29 -105
q28 -28 73 -28q69 0 113 84q41 84 41 213q0 144 -51 266q-51 123 -141 219q-93 93 -218 148q-127 53 -276 53t-274 -55q-132 -58 -218 -150q-88 -91 -143 -223q-51 -122 -51 -269q0 -146 51 -268q54 -129 143 -221q89 -95 218 -152q125 -55 274 -55q84 0 149 12t138 37v-153
q-137 -49 -297 -49z" />
    <glyph glyph-name="A" unicode="A" horiz-adv-x="1396" 
d="M1169 0l-133 338h-676l-133 -338h-215l584 1434h205l583 -1434h-215zM702 1208h-8q-9 -31 -57 -168q-24 -71 -76 -198l-131 -330h537l-131 330q-52 127 -76 198q-55 157 -58 168z" />
    <glyph glyph-name="B" unicode="B" horiz-adv-x="1443" 
d="M901 0h-717v1434h676q93 0 176 -25q78 -27 135 -76q60 -51 89 -119q30 -70 30 -159q0 -203 -174 -297q108 -47 168 -137q57 -86 57 -222q0 -93 -30 -166q-35 -75 -90 -124q-58 -52 -140 -80q-89 -29 -180 -29zM389 174h502q136 0 192 68q54 69 54 168q0 47 -15 94
q-14 45 -45 80q-25 29 -78 53q-50 18 -118 18h-492v-481zM389 829h451q123 0 184 58t61 157q0 100 -55 158q-58 58 -180 58h-461v-431z" />
    <glyph glyph-name="C" unicode="C" horiz-adv-x="1464" 
d="M1182 379h221q-29 -86 -84 -166q-55 -77 -129 -129q-81 -59 -174 -84q-102 -31 -217 -31q-163 0 -291 58q-135 57 -223 155q-94 101 -142 236q-51 134 -51 299t51 299q48 130 142 235q88 98 223 158q128 55 291 55q230 0 377 -102q147 -105 217 -277h-224
q-49 94 -139 150q-88 55 -231 55q-125 0 -221 -47q-94 -49 -156 -129q-63 -78 -94 -182q-31 -108 -31 -215q0 -108 31 -213q30 -107 94 -185q62 -79 156 -126q95 -50 221 -50q158 0 250 68q92 65 133 168z" />
    <glyph glyph-name="D" unicode="D" horiz-adv-x="1478" 
d="M1382 717q0 -170 -47 -303q-48 -136 -135 -226q-89 -92 -219 -139q-128 -49 -295 -49h-502v1434h502q165 0 295 -50q131 -50 219 -141t135 -225q47 -133 47 -301zM389 1260v-1086h277q253 0 383 145q129 144 129 398q0 255 -129 399t-383 144h-277z" />
    <glyph glyph-name="E" unicode="E" horiz-adv-x="1302" 
d="M184 0v1434h1004v-174h-799v-431h758v-174h-758v-481h799v-174h-1004z" />
    <glyph glyph-name="F" unicode="F" horiz-adv-x="1261" 
d="M184 0v1434h1004v-174h-799v-451h758v-174h-758v-635h-205z" />
    <glyph glyph-name="G" unicode="G" horiz-adv-x="1540" 
d="M799 1290q-125 0 -221 -47q-94 -49 -156 -129q-63 -78 -94 -182q-31 -108 -31 -215q0 -108 31 -213q30 -107 94 -185q62 -79 156 -126q95 -50 221 -50q116 0 200 41t134 103q52 64 73 141q23 84 23 156h-451v174h645v-758h-153l-21 174q-28 -41 -65 -76q-41 -38 -97 -65
q-66 -32 -126 -45q-74 -19 -162 -19q-163 0 -291 58q-135 57 -223 155q-94 101 -142 236q-51 134 -51 299t51 299q48 130 142 235q88 98 223 158q128 55 291 55q230 0 377 -102q147 -105 217 -277h-224q-49 94 -139 150q-88 55 -231 55z" />
    <glyph glyph-name="H" unicode="H" horiz-adv-x="1536" 
d="M1352 1434v-1434h-205v655h-758v-655h-205v1434h205v-605h758v605h205z" />
    <glyph glyph-name="I" unicode="I" horiz-adv-x="573" 
d="M389 0h-205v1434h205v-1434z" />
    <glyph glyph-name="J" unicode="J" horiz-adv-x="952" 
d="M49 174h273q145 0 200 70q56 68 56 207v983h204v-983q0 -234 -118 -340q-120 -111 -342 -111h-273v174z" />
    <glyph glyph-name="K" unicode="K" horiz-adv-x="1300" 
d="M389 0h-205v1434h205v-635l625 635h256l-697 -697l738 -737h-277l-645 666v-666z" />
    <glyph glyph-name="L" unicode="L" horiz-adv-x="1177" 
d="M184 0v1434h205v-1260h758v-174h-963z" />
    <glyph glyph-name="M" unicode="M" horiz-adv-x="1822" 
d="M911 399q5 12 45 101q7 16 21.5 46t21.5 46q4 8 19.5 41.5t23.5 52.5q8 17 26 51.5t26 50.5l319 646h225v-1434h-204v686q0 74 2 109q0 65 2 96q0 28 4 98q4 71 8 107h-8q-6 -14 -20 -49t-21 -52q-22 -53 -41 -94q-7 -15 -21.5 -47t-21.5 -47q-18 -39 -49 -100l-357 -707
l-356 707q-32 61 -49 100q-7 15 -21.5 47t-21.5 47q-25 55 -39 94q-23 50 -43 101h-8q9 -84 10 -107q1 -17 2 -49.5t2 -48.5q0 -63 2 -96v-109v-686h-205v1434h226l319 -646q27 -56 51 -102q8 -18 23.5 -49.5t21.5 -44.5q7 -16 21.5 -46t21.5 -46q23 -50 43 -101z" />
    <glyph glyph-name="N" unicode="N" horiz-adv-x="1556" 
d="M1157 0l-493 711q-131 187 -179 266q-59 91 -98 160h-8q2 -33 6 -95q1 -16 2 -47.5t2 -48.5v-112v-148v-686h-205v1434h215l494 -711q110 -156 180 -264q74 -122 96 -162h9q-1 18 -3.5 49t-3.5 45q-2 31 -2 96q-2 35 -2 115v146v686h205v-1434h-215z" />
    <glyph glyph-name="O" unicode="O" horiz-adv-x="1597" 
d="M92 717q0 165 51 299q52 133 146 235q88 98 223 158q128 55 287 55q157 0 288 -55q134 -61 224 -158q91 -102 143 -235q51 -134 51 -299t-51 -299q-53 -138 -143 -236q-90 -97 -224 -155q-131 -58 -288 -58q-159 0 -287 58q-135 57 -223 155q-93 98 -146 236
q-51 134 -51 299zM297 717q0 -115 33 -213q37 -112 96 -185q62 -79 156 -126q95 -50 217 -50t217 50q93 46 158 126q58 75 94 185q32 95 32 213t-32 215q-36 107 -94 182q-65 80 -158 129q-96 47 -217 47t-217 -47q-94 -49 -156 -129q-59 -73 -96 -182q-33 -100 -33 -215z
" />
    <glyph glyph-name="P" unicode="P" horiz-adv-x="1386" 
d="M870 614h-481v-614h-205v1434h686q216 0 340 -109q121 -109 121 -301t-121 -301q-124 -109 -340 -109zM389 788h481q131 0 195 64q61 64 61 172t-61 172q-64 64 -195 64h-481v-472z" />
    <glyph glyph-name="Q" unicode="Q" horiz-adv-x="1613" 
d="M92 717q0 165 51 299q52 133 146 235q88 98 223 158q128 55 287 55q157 0 288 -55q134 -61 224 -158q91 -102 143 -235q51 -134 51 -299q0 -158 -47 -291q-50 -134 -137 -231l195 -195h-246l-80 80q-90 -58 -180 -82q-106 -29 -211 -29q-159 0 -287 58q-135 57 -223 155
q-93 98 -146 236q-51 134 -51 299zM297 717q0 -115 33 -213q37 -112 96 -185q62 -79 156 -126q95 -50 217 -50q73 0 141 19t117 51l-330 330h246l211 -211q63 82 88 178q28 103 28 207q0 118 -32 215q-36 107 -94 182q-65 80 -158 129q-96 47 -217 47t-217 -47
q-94 -49 -156 -129q-59 -73 -96 -182q-33 -100 -33 -215z" />
    <glyph glyph-name="R" unicode="R" horiz-adv-x="1423" 
d="M389 788h481q131 0 195 64q61 64 61 172t-61 172q-64 64 -195 64h-481v-472zM870 614h-102l614 -614h-276l-604 614h-113v-614h-205v1434h686q216 0 340 -109q121 -109 121 -301t-121 -301q-124 -109 -340 -109z" />
    <glyph glyph-name="S" unicode="S" horiz-adv-x="1320" 
d="M664 1464q146 0 247 -34q98 -36 164 -93q64 -55 94 -120q31 -70 37 -132h-209q-3 38 -22 82q-20 39 -62 70q-43 32 -102 49q-70 17 -147 17q-91 0 -162 -19q-65 -17 -111 -49q-42 -29 -61 -72q-21 -43 -21 -88q0 -115 80 -168q79 -55 217 -76l164 -24q89 -13 191 -45
q80 -25 147 -76q60 -45 96 -119q33 -67 33 -172q0 -95 -37 -170q-38 -77 -108 -135q-73 -58 -181 -88q-103 -33 -247 -33q-149 0 -252 33q-116 37 -181 88q-71 56 -108 131q-40 72 -43 158h205q6 -116 102 -182q97 -66 277 -66q182 0 276 70q94 67 94 178q0 63 -20 102
t-62 64q-40 24 -96 39q-51 13 -127 26l-164 27q-217 35 -332 133q-122 101 -122 291q0 84 34 156q36 76 103 129q64 52 172 88q102 30 244 30z" />
    <glyph glyph-name="T" unicode="T" horiz-adv-x="1224" 
d="M1196 1434v-174h-481v-1260h-205v1260h-481v174h1167z" />
    <glyph glyph-name="U" unicode="U" horiz-adv-x="1482" 
d="M741 -31q-134 0 -241 43q-106 40 -181 115q-71 68 -112 172q-39 95 -39 213v922h205v-922q0 -171 100 -268q98 -101 268 -101t271 101q98 98 98 268v922h205v-922q0 -118 -39 -213q-41 -103 -113 -172q-76 -76 -180 -115q-107 -43 -242 -43z" />
    <glyph glyph-name="V" unicode="V" horiz-adv-x="1320" 
d="M236 1434l290 -801q11 -31 36 -103.5t38 -107.5q29 -92 57 -197h7q34 129 59 197q25 78 72 211l290 801h215l-542 -1434h-195l-543 1434h216z" />
    <glyph glyph-name="W" unicode="W" horiz-adv-x="1925" 
d="M967 1157h-9q-7 -34 -43 -196q-8 -33 -24 -93t-23 -86l-223 -782h-205l-409 1434h205l208 -762q64 -239 95 -406h8q12 63 43 193q21 104 55 215l215 760h205l215 -760q29 -95 57 -215q6 -29 20 -94.5t21 -98.5h8q31 167 95 406l209 762h204l-409 -1434h-205l-223 782
q-41 162 -45 179q-25 97 -45 196z" />
    <glyph glyph-name="X" unicode="X" horiz-adv-x="1294" 
d="M295 1434l354 -514l359 514h233l-479 -676l530 -758h-241l-406 588l-409 -588h-234l530 752l-479 682h242z" />
    <glyph glyph-name="Y" unicode="Y" horiz-adv-x="1220" 
d="M508 0v573l-481 861h229l354 -676l355 676h229l-481 -861v-573h-205z" />
    <glyph glyph-name="Z" unicode="Z" horiz-adv-x="1224" 
d="M1159 174v-174h-1085v174l809 1086h-789v174h1034v-174l-809 -1086h840z" />
    <glyph glyph-name="bracketleft" unicode="[" horiz-adv-x="667" 
d="M170 -369v1803h442v-164h-245v-1475h245v-164h-442z" />
    <glyph glyph-name="backslash" unicode="\" horiz-adv-x="1132" 
d="M262 1434l830 -1434h-220l-829 1434h219z" />
    <glyph glyph-name="bracketright" unicode="]" horiz-adv-x="667" 
d="M498 1434v-1803h-443v164h246v1475h-246v164h443z" />
    <glyph glyph-name="asciicircum" unicode="^" horiz-adv-x="1073" 
d="M66 532l389 902h163l390 -902h-179l-292 707l-293 -707h-178z" />
    <glyph glyph-name="underscore" unicode="_" horiz-adv-x="1224" 
d="M111 -143v143h1003v-143h-1003z" />
    <glyph glyph-name="grave" unicode="`" horiz-adv-x="552" 
d="M317 1434l164 -236h-194l-236 236h266z" />
    <glyph glyph-name="a" unicode="a" horiz-adv-x="1171" 
d="M498 123q67 0 131 22q59 20 108 66q45 42 72 106q27 65 27 144v82l-349 -31q-108 -9 -161 -59q-54 -51 -54 -136q0 -50 19 -90q14 -38 47 -61q36 -25 72 -33q45 -10 88 -10zM330 788h-203q9 62 39 121q31 58 88 97q57 42 137 65q83 25 189 25q135 0 239 -39
q103 -40 162 -135q51 -83 51 -215v-707h-196v133q-43 -56 -138 -113q-86 -51 -221 -51q-76 0 -153 23q-77 22 -129 63q-56 44 -86 109q-33 62 -33 153q0 139 96 232q97 91 295 106l369 31v21q0 48 -13 98q-11 41 -41 74q-33 33 -80 47q-53 16 -122 16q-117 0 -179 -41
q-62 -42 -71 -113z" />
    <glyph glyph-name="b" unicode="b" horiz-adv-x="1273" 
d="M336 532q0 -84 20 -151q21 -75 64 -129q41 -56 102 -86q59 -33 142 -33q77 0 141 31q58 28 104 84q41 53 62 127q20 70 20 157q0 88 -20 158q-21 71 -62 127q-46 56 -104 84q-64 31 -141 31q-78 0 -142 -31q-64 -36 -102 -88q-42 -54 -64 -127q-20 -70 -20 -154zM346 143
v-143h-196v1434h196v-512q46 76 137 127q89 47 211 47t211 -45q94 -48 156 -121q59 -70 96 -180q31 -105 31 -218q0 -112 -31 -217q-36 -107 -96 -178q-65 -77 -156 -123q-89 -45 -211 -45q-123 0 -211 49q-90 47 -137 125z" />
    <glyph glyph-name="c" unicode="c" horiz-adv-x="1144" 
d="M881 297h206q-48 -153 -161 -238q-122 -90 -310 -90q-127 0 -225 43q-101 43 -168 119q-68 77 -102 180q-37 101 -37 221t37 224q34 101 102 178q67 76 168 119q98 43 225 43q179 0 295 -84q111 -81 166 -224h-213q-27 60 -88 103q-62 41 -160 41q-84 0 -151 -31
q-67 -36 -105 -88q-41 -56 -59 -127q-20 -70 -20 -154t20 -151q18 -72 59 -129q41 -56 105 -86q62 -33 151 -33q108 0 170 45q66 47 95 119z" />
    <glyph glyph-name="d" unicode="d" horiz-adv-x="1271" 
d="M936 532q0 80 -21 154q-22 73 -61 127q-41 53 -104 88q-64 31 -142 31q-77 0 -141 -31q-60 -29 -102 -84q-42 -54 -64 -127q-20 -70 -20 -158q0 -87 20 -157q22 -76 64 -127q42 -55 102 -84q64 -31 141 -31q83 0 142 33q59 29 104 86q40 54 61 129q21 71 21 151zM926 0
v143q-48 -79 -135 -125q-88 -49 -213 -49t-211 45q-91 46 -156 123q-64 76 -94 178q-33 98 -33 217q0 120 33 218q31 105 94 180q62 73 156 121q86 45 211 45q124 0 213 -47q88 -49 135 -127v512h196v-1434h-196z" />
    <glyph glyph-name="e" unicode="e" horiz-adv-x="1196" 
d="M887 297h211q-19 -69 -58 -125q-38 -55 -100 -104q-58 -44 -141 -72q-83 -27 -183 -27q-123 0 -221 43t-168 119q-68 74 -106 180q-37 101 -37 221t37 224q39 105 106 178q65 73 164 119q93 43 215 43q192 0 309 -99q115 -97 168 -258q17 -57 27 -125q8 -57 8 -133v-20
h-837q3 -70 26 -125q24 -62 68 -109q47 -50 104 -75q63 -29 137 -29q60 0 113 16q44 13 82 43q31 24 51 58q18 28 25 57zM606 942q-76 0 -135 -27q-64 -29 -100 -71q-46 -49 -66 -105q-21 -58 -24 -125h641q-3 67 -25 129q-23 63 -59 105q-41 44 -97 70q-59 24 -135 24z" />
    <glyph glyph-name="f" unicode="f" horiz-adv-x="780" 
d="M27 901v164h256v113q0 256 276 256h197v-160h-185q-53 0 -71 -21q-21 -21 -21 -75v-113h277v-164h-277v-901h-196v901h-256z" />
    <glyph glyph-name="g" unicode="g" horiz-adv-x="1261" 
d="M926 553q0 68 -23 145q-19 64 -63 121q-43 52 -105 82q-64 31 -137 31q-71 0 -131 -31q-61 -31 -100 -82q-46 -59 -64 -121q-22 -74 -22 -145q0 -74 22 -145q18 -62 64 -121q39 -51 100 -82q60 -31 131 -31q73 0 137 31q62 30 105 82q44 57 63 121q23 74 23 145zM915 113
v51q-10 -14 -45 -49q-34 -34 -69 -52q-43 -21 -99 -36q-63 -17 -124 -17q-116 0 -203 43q-91 43 -156 117q-67 76 -100 174q-35 100 -35 209q0 108 35 211q34 96 100 172q65 74 156 117q87 43 203 43q68 0 124 -15q41 -11 99 -39q44 -26 69 -51q35 -35 45 -49v123h197v-952
q0 -126 -35 -222q-34 -93 -100 -159q-63 -63 -158 -99q-88 -32 -211 -32q-86 0 -166 22q-67 18 -133 64q-61 42 -98 96q-40 55 -55 125h204q6 -26 25 -55q20 -29 49 -50q32 -22 74 -34q44 -15 100 -15q168 0 238 99q69 97 69 260z" />
    <glyph glyph-name="h" unicode="h" horiz-adv-x="1224" 
d="M346 1434v-512q51 83 148 131q90 43 200 43q187 0 289 -105t102 -305v-686h-196v666q0 131 -58 198q-59 68 -188 68q-63 0 -115 -21q-53 -20 -94 -61q-43 -46 -63 -105q-25 -64 -25 -141v-604h-196v1434h196z" />
    <glyph glyph-name="i" unicode="i" 
d="M150 0v1065h196v-1065h-196zM150 1229v205h196v-205h-196z" />
    <glyph glyph-name="j" unicode="j" horiz-adv-x="503" 
d="M158 1229v205h196v-205h-196zM158 -92v1157h196v-1157q0 -139 -80 -207q-82 -70 -229 -70h-92v160h82q67 0 96 29q27 27 27 88z" />
    <glyph glyph-name="k" unicode="k" horiz-adv-x="1067" 
d="M150 0v1434h196v-824l445 455h253l-512 -512l553 -553h-268l-471 492v-492h-196z" />
    <glyph glyph-name="l" unicode="l" 
d="M150 0v1434h196v-1434h-196z" />
    <glyph glyph-name="m" unicode="m" horiz-adv-x="1878" 
d="M346 1065v-123q47 86 131 121q79 33 176 33q112 0 201 -45q90 -47 137 -140q47 86 133 136q85 49 226 49q82 0 155 -25t125 -74q54 -54 80 -125q29 -82 29 -176v-696h-197v666q0 131 -55 198q-56 68 -178 68q-44 0 -97 -17q-46 -14 -86 -51q-40 -34 -61 -92
q-23 -64 -23 -137v-635h-196v666q0 131 -55 198q-56 68 -179 68q-43 0 -96 -17q-46 -14 -86 -51q-40 -34 -61 -92q-23 -64 -23 -137v-635h-196v1065h196z" />
    <glyph glyph-name="n" unicode="n" horiz-adv-x="1222" 
d="M346 1065v-143q51 83 148 131q90 43 200 43q187 0 289 -105q100 -103 100 -305v-686h-196v666q0 131 -58 198q-59 68 -186 68q-63 0 -115 -21q-53 -20 -94 -61q-43 -46 -63 -105q-25 -64 -25 -141v-604h-196v1065h196z" />
    <glyph glyph-name="o" unicode="o" horiz-adv-x="1249" 
d="M82 532q0 123 39 224q41 103 110 178q71 77 170 119q101 43 224 43q122 0 223 -43q103 -44 172 -119q66 -71 108 -178q39 -101 39 -224t-39 -221q-42 -108 -108 -180q-69 -75 -172 -119q-101 -43 -223 -43q-123 0 -224 43q-99 42 -170 119q-70 76 -110 180
q-39 98 -39 221zM971 532q0 74 -23 154q-21 71 -65 127q-45 54 -109 88q-67 31 -149 31q-81 0 -148 -31q-67 -36 -108 -88q-47 -56 -68 -127q-22 -77 -22 -154t22 -151q21 -73 68 -129q44 -56 108 -86q62 -33 148 -33q87 0 149 33q61 28 109 86q44 57 65 129q23 77 23 151z
" />
    <glyph glyph-name="p" unicode="p" horiz-adv-x="1273" 
d="M336 532q0 -84 20 -151q21 -75 64 -129q41 -56 102 -86q59 -33 142 -33q77 0 141 31q58 28 104 84q41 53 62 127q20 70 20 157q0 88 -20 158q-21 71 -62 127q-46 56 -104 84q-64 31 -141 31q-78 0 -142 -31q-64 -36 -102 -88q-42 -54 -64 -127q-20 -70 -20 -154z
M346 1065v-143q46 76 137 127q89 47 211 47t211 -45q94 -48 156 -121q59 -70 96 -180q31 -105 31 -218q0 -112 -31 -217q-36 -107 -96 -178q-65 -77 -156 -123q-89 -45 -211 -45q-123 0 -211 49q-90 47 -137 125v-512h-196v1434h196z" />
    <glyph glyph-name="q" unicode="q" horiz-adv-x="1271" 
d="M936 532q0 80 -21 154q-22 73 -61 127q-41 53 -104 88q-64 31 -142 31q-77 0 -141 -31q-60 -29 -102 -84q-42 -54 -64 -127q-20 -70 -20 -158q0 -87 20 -157q22 -76 64 -127q42 -55 102 -84q64 -31 141 -31q83 0 142 33q59 29 104 86q40 54 61 129q21 71 21 151zM926 922
v143h196v-1434h-196v512q-48 -79 -135 -125q-88 -49 -213 -49t-211 45q-91 46 -156 123q-64 76 -94 178q-33 98 -33 217q0 120 33 218q31 105 94 180q62 73 156 121q86 45 211 45q124 0 213 -47q88 -49 135 -127z" />
    <glyph glyph-name="r" unicode="r" horiz-adv-x="727" 
d="M688 901h-106q-109 0 -172 -63q-64 -64 -64 -203v-635h-196v1065h196v-123q40 69 105 107q62 36 182 36h55v-184z" />
    <glyph glyph-name="s" unicode="s" horiz-adv-x="1067" 
d="M571 436l-96 15q-79 11 -151 36q-66 22 -119 66q-55 43 -80 96q-29 60 -29 133q0 138 113 226t328 88q111 0 190 -27q78 -27 133 -72q51 -45 78 -98q26 -61 29 -111h-193q-3 67 -63 115q-58 43 -179 43q-129 0 -184 -43q-57 -42 -57 -104q0 -79 59 -109q58 -34 160 -49
l98 -14q80 -12 150 -33q69 -22 119 -57q51 -36 81 -95q29 -63 29 -145q0 -149 -117 -238q-122 -90 -333 -90q-109 0 -195 25q-87 24 -143 69q-60 45 -90 103t-33 131h198q3 -92 72 -133q67 -43 191 -43q128 0 192 43t64 117q0 38 -17 69q-14 26 -45 43q-42 21 -69 27
q-49 11 -91 16z" />
    <glyph glyph-name="t" unicode="t" horiz-adv-x="811" 
d="M281 256v645h-256v164h256v246h196v-246h277v-164h-277v-645q0 -53 21 -74q19 -22 71 -22h185v-160h-226q-139 0 -192 68q-55 64 -55 188z" />
    <glyph glyph-name="u" unicode="u" horiz-adv-x="1212" 
d="M866 0v133q-45 -83 -137 -125q-88 -39 -201 -39q-184 0 -286 105q-103 106 -103 305v686h197v-666q0 -132 57 -198q59 -68 187 -68q120 0 204 84q82 82 82 244v604h197v-1065h-197z" />
    <glyph glyph-name="v" unicode="v" horiz-adv-x="1077" 
d="M446 0l-419 1065h204l183 -485q35 -89 65 -189q8 -28 27.5 -91.5t28.5 -94.5h8q9 33 29.5 100.5t25.5 85.5q27 88 66 189l182 485h205l-420 -1065h-185z" />
    <glyph glyph-name="w" unicode="w" horiz-adv-x="1568" 
d="M788 840h-8q-12 -58 -43 -185q-19 -73 -55 -190l-150 -465h-180l-317 1065h198l123 -459q46 -174 52 -203q17 -83 32 -178h9q12 60 43 178q16 70 55 201l143 461h189l143 -461q38 -129 57 -201q37 -156 41 -178h8q5 34 35 178q17 80 49 203l123 459h199l-317 -1065h-181
l-149 465q-36 119 -53 190q-31 113 -46 185z" />
    <glyph glyph-name="x" unicode="x" horiz-adv-x="1052" 
d="M283 1065l245 -358l250 358h230l-373 -508l403 -557h-237l-277 401l-280 -401h-230l404 551l-373 514h238z" />
    <glyph glyph-name="y" unicode="y" horiz-adv-x="1052" 
d="M420 -41l14 41l-401 1065h209l172 -471q39 -105 63 -191q25 -92 45 -170h10q31 104 54 170q29 95 65 191l172 471h203l-432 -1165q-16 -47 -51 -111q-29 -51 -76 -86q-49 -36 -109 -53q-68 -19 -157 -19h-115v160h104q49 0 80 8q38 7 64 27q27 18 47 51q23 37 39 82z" />
    <glyph glyph-name="z" unicode="z" horiz-adv-x="1048" 
d="M324 164h653v-164h-901v164l633 737h-613v164h860v-164z" />
    <glyph glyph-name="braceleft" unicode="{" horiz-adv-x="714" 
d="M61 614h21q30 0 65 7q31 3 56 22q24 17 35 49q11 41 8 86l-21 338q-6 82 19 146q20 56 65 98q43 37 105 55q62 19 129 19h112v-164h-80q-77 0 -116 -33q-40 -34 -37 -121l20 -338q9 -112 -39 -172q-50 -60 -124 -74q32 -7 71 -24q31 -18 53 -47q21 -30 33 -74
q9 -43 6 -100l-20 -338q-3 -85 37 -119q41 -35 116 -35h80v-164h-112q-67 0 -129 19q-62 15 -105 55q-45 42 -65 100q-25 61 -19 144l21 338q3 45 -8 86q-10 30 -35 51q-25 16 -56 22q-50 5 -65 5h-21v163z" />
    <glyph glyph-name="bar" unicode="|" horiz-adv-x="536" 
d="M170 -369v1803h197v-1803h-197z" />
    <glyph glyph-name="braceright" unicode="}" horiz-adv-x="714" 
d="M633 614h20v-163h-20q-16 0 -66 -5q-31 -6 -53 -22q-26 -20 -37 -51q-11 -32 -8 -86l20 -338q6 -83 -16 -144q-23 -59 -67 -100q-42 -39 -103 -55q-65 -19 -131 -19h-113v164h80q78 0 119 35q38 32 35 119l-21 338q-9 112 39 172q46 57 125 73q-78 15 -125 74
q-48 60 -39 172l21 338q3 89 -35 121q-39 33 -119 33h-80v164h113q66 0 131 -19q61 -19 103 -55q43 -40 67 -98q22 -64 16 -146l-20 -338q-3 -54 8 -86q11 -33 37 -49q22 -19 53 -22q35 -7 66 -7z" />
    <glyph glyph-name="asciitilde" unicode="~" horiz-adv-x="1269" 
d="M295 584h-154q0 132 74 215q73 82 213 82q74 0 139 -27q51 -22 117 -59q25 -17 100 -60q48 -28 95 -28q112 0 112 143h154q0 -130 -74 -213q-75 -84 -213 -84q-73 0 -139 29q-75 31 -117 59q-19 11 -53 31.5t-47 27.5q-50 27 -94 27q-113 0 -113 -143z" />
    <glyph glyph-name="nbsp" unicode="&#xa0;" 
 />
    <glyph glyph-name="exclamdown" unicode="&#xa1;" horiz-adv-x="516" 
d="M381 1065v-277h-246v277h246zM156 154l41 460h122l41 -460v-523h-204v523z" />
    <glyph glyph-name="cent" unicode="&#xa2;" horiz-adv-x="1179" 
d="M537 -205v180q-101 14 -187 66q-81 46 -141 121q-61 77 -90 168q-33 90 -33 202q0 113 33 203q29 91 90 168q59 73 141 123q89 50 187 64v180h163v-178q164 -15 269 -103q100 -87 141 -221h-209q-20 61 -72 104q-55 42 -129 54v-787q154 24 201 158h209
q-42 -136 -141 -219q-104 -90 -269 -105v-178h-163zM283 532q0 -64 16 -133q14 -61 49 -114q33 -50 80 -88q45 -36 109 -52v775q-125 -34 -189 -142q-65 -109 -65 -246z" />
    <glyph glyph-name="sterling" unicode="&#xa3;" horiz-adv-x="1189" 
d="M633 1300q-122 0 -193 -71t-71 -195q0 -50 12 -96q8 -40 29 -88q6 -14 41 -82q7 -13 22.5 -40.5t22.5 -41.5h475v-164h-410q12 -50 12 -102q0 -93 -34 -154q-31 -58 -88 -102h665v-164h-1020v164q55 0 111 16q48 14 90 45q37 27 63 78q23 51 23 107q0 21 -4 57
q-3 12 -17 55h-251v164h170q-45 84 -76 162q-37 81 -37 196q0 105 39 179q40 83 100 131q70 57 150 82q86 28 176 28q102 0 184 -28q73 -26 133 -76q51 -46 88 -111q33 -61 45 -133h-202q-9 69 -72 129q-61 55 -176 55z" />
    <glyph glyph-name="currency" unicode="&#xa4;" horiz-adv-x="1302" 
d="M397 532q0 -57 21 -106q18 -49 53 -84q34 -34 80 -55q47 -21 100 -21q55 0 101 21q49 22 82 55q30 30 53 84q18 49 18 106q0 58 -18 107q-23 54 -53 84q-33 33 -82 55q-47 21 -101 21q-53 0 -100 -21q-46 -21 -80 -55q-35 -35 -53 -84q-21 -49 -21 -107zM1102 532
q0 -68 -21 -133q-22 -67 -57 -116l190 -191l-122 -123l-195 195q-110 -72 -246 -72q-135 0 -245 72l-195 -195l-123 123l191 191q-37 52 -58 116q-20 61 -20 133q0 73 20 134q21 64 58 116l-191 191l123 123l195 -195q110 72 245 72q136 0 246 -72l195 195l122 -123
l-190 -191q35 -49 57 -116q21 -64 21 -134z" />
    <glyph glyph-name="yen" unicode="&#xa5;" horiz-adv-x="1236" 
d="M598 809h41l322 625h219l-338 -625h225v-164h-313l-35 -61v-62h266v-164h-266v-358h-201v358h-266v164h266v62l-35 61h-313v164h225l-338 625h219z" />
    <glyph glyph-name="brokenbar" unicode="&#xa6;" horiz-adv-x="536" 
d="M170 -369v707h197v-707h-197zM170 727v707h197v-707h-197z" />
    <glyph glyph-name="section" unicode="&#xa7;" horiz-adv-x="1255" 
d="M68 573q0 97 57 172q56 74 145 109q-53 47 -86 109q-34 61 -34 153q0 73 34 137q34 65 99 111q63 48 149 74q82 26 191 26q209 0 333 -92q122 -96 140 -256h-199q-5 32 -23 74q-18 34 -51 57q-36 25 -82 39t-118 14q-132 0 -203 -53q-74 -53 -74 -131q0 -54 29 -94
q25 -38 76 -64q41 -24 108 -40q53 -14 125 -27q48 -8 178 -39q92 -25 162 -68q78 -51 119 -114q45 -68 45 -178q0 -100 -58 -173q-58 -76 -145 -110q55 -46 88 -107q33 -62 33 -153q0 -72 -35 -137q-35 -64 -96 -111q-66 -47 -150 -74q-85 -26 -192 -26q-213 0 -332 94
q-123 92 -141 254h198q5 -34 25 -72q16 -36 49 -59q36 -25 82 -39q50 -15 119 -15q129 0 205 54q71 53 71 131q0 54 -28 96q-25 34 -76 64q-41 21 -107 38q-58 14 -127 27q-91 15 -178 39q-95 26 -162 70q-71 44 -116 112q-47 71 -47 178zM612 717q-43 8 -98 24
q-38 9 -104 35q-64 -24 -105 -74t-41 -108q0 -76 33 -115q36 -43 88 -65q55 -25 121 -37q26 -6 76.5 -16.5t60.5 -12.5q11 -2 98 -22q44 -12 105 -37q67 25 106 73t39 109q0 76 -33 115q-35 41 -88 65q-56 26 -120 37q-10 2 -138 29z" />
    <glyph glyph-name="dieresis" unicode="&#xa8;" horiz-adv-x="839" 
d="M113 1229v205h196v-205h-196zM530 1229v205h197v-205h-197z" />
    <glyph glyph-name="copyright" unicode="&#xa9;" horiz-adv-x="1671" 
d="M1217 911h-170q-12 44 -64 78q-53 35 -137 35q-58 0 -115 -23q-50 -20 -90 -63q-36 -36 -59 -96q-23 -64 -23 -125q0 -65 21 -121q21 -60 57 -98q41 -44 90 -64q53 -24 119 -24q91 0 139 36q52 36 66 86h166q-40 -124 -136 -190q-97 -66 -235 -66q-100 0 -176 33
q-83 35 -140 92q-58 57 -92 140q-32 74 -32 176q0 101 32 178q36 83 92 139q54 54 140 90q76 33 176 33q143 0 235 -63q95 -65 136 -183zM88 717q0 152 59 291q57 132 162 237q103 103 238 160q136 59 289 59q151 0 290 -59q138 -60 238 -160q101 -101 160 -237
q59 -139 59 -291q0 -153 -59 -289q-57 -135 -160 -238q-102 -102 -238 -161q-142 -60 -290 -60q-151 0 -289 60q-134 57 -238 161q-106 106 -162 238q-59 136 -59 289zM221 717q0 -127 49 -240q43 -106 131 -194q87 -87 195 -131q115 -50 240 -50q124 0 239 50
q111 45 197 131q83 83 131 194q47 115 47 240q0 124 -47 239q-51 117 -131 197t-197 131q-115 47 -239 47q-125 0 -240 -47q-113 -49 -195 -131q-86 -86 -131 -197q-49 -113 -49 -239z" />
    <glyph glyph-name="ordfeminine" unicode="&#xaa;" horiz-adv-x="960" 
d="M291 1219h-162q20 104 107 172q81 63 241 63q68 0 137 -16q60 -14 111 -52q48 -36 74 -92t26 -137v-563h-153v104q-38 -47 -109 -86q-65 -39 -168 -39q-53 0 -116 17q-60 16 -99 47q-45 36 -67 84q-25 52 -25 119q0 239 309 266l275 24v27q0 76 -41 123q-39 45 -154 45
q-81 0 -131 -29q-46 -27 -55 -77zM399 702q52 0 107 19q46 14 86 51t59 82q21 46 21 109v47l-273 -27q-79 -9 -116 -41q-41 -35 -41 -102q0 -62 43 -99q42 -39 114 -39z" />
    <glyph glyph-name="guillemotleft" unicode="&#xab;" horiz-adv-x="1236" 
d="M291 532l358 -348h-246l-348 348l348 349h246zM762 532l358 -348h-246l-348 348l348 349h246z" />
    <glyph glyph-name="logicalnot" unicode="&#xac;" horiz-adv-x="1243" 
d="M934 492v286h-819v164h983v-450h-164z" />
    <glyph glyph-name="uni00AD" unicode="&#xad;" horiz-adv-x="811" 
d="M129 451v163h553v-163h-553z" />
    <glyph glyph-name="registered" unicode="&#xae;" horiz-adv-x="1671" 
d="M88 717q0 152 59 291q57 132 162 237q103 103 238 160q136 59 289 59q151 0 290 -59q138 -60 238 -160q101 -101 160 -237q59 -139 59 -291q0 -153 -59 -289q-57 -135 -160 -238q-102 -102 -238 -161q-142 -60 -290 -60q-151 0 -289 60q-134 57 -238 161
q-106 106 -162 238q-59 136 -59 289zM221 717q0 -127 49 -240q43 -106 131 -194q87 -87 195 -131q115 -50 240 -50q124 0 239 50q111 45 197 131q83 83 131 194q47 115 47 240q0 124 -47 239q-51 117 -131 197t-197 131q-115 47 -239 47q-125 0 -240 -47q-113 -49 -195 -131
q-86 -86 -131 -197q-49 -113 -49 -239zM713 625h-41v-328h-154v840h430q125 0 195 -70q71 -71 71 -186q0 -116 -71 -187q-69 -69 -195 -69h-41l328 -328h-201zM672 758h266q62 0 92 35q31 36 31 88t-31 88q-30 35 -92 35h-266v-246z" />
    <glyph glyph-name="macron" unicode="&#xaf;" horiz-adv-x="880" 
d="M102 1249v154h676v-154h-676z" />
    <glyph glyph-name="degree" unicode="&#xb0;" horiz-adv-x="1036" 
d="M242 1034q0 -62 20 -112q22 -55 57 -93q31 -37 87 -59q55 -22 112 -22q58 0 113 22q53 21 88 59q34 39 55 93q21 52 21 112q0 62 -21 115q-19 48 -55 90q-38 41 -88 61q-52 21 -113 21q-60 0 -112 -21q-53 -21 -87 -61q-37 -40 -57 -90t-20 -115zM958 1034
q0 -95 -32 -166q-36 -83 -90 -137q-55 -55 -140 -92q-84 -35 -178 -35q-95 0 -176 35q-81 34 -139 92q-57 57 -92 137q-33 73 -33 166q0 92 33 168q37 82 92 137q60 60 139 93q74 32 176 32q101 0 178 -32q83 -36 140 -93q51 -51 90 -137q32 -74 32 -168z" />
    <glyph glyph-name="plusminus" unicode="&#xb1;" horiz-adv-x="1200" 
d="M150 819v164h368v266h164v-266h369v-164h-369v-266h-164v266h-368zM150 184v164h901v-164h-901z" />
    <glyph glyph-name="uni00B2" unicode="&#xb2;" horiz-adv-x="722" 
d="M221 1434h-155q3 44 24 84q14 32 53 71q34 29 88 51q55 19 121 19q132 0 209 -68q78 -72 78 -178q0 -86 -41 -145q-42 -64 -102 -121l-226 -215h389v-133h-593v133l327 317q52 48 72 82q20 33 20 82q0 37 -28 76q-27 37 -105 37q-58 0 -94 -25q-34 -27 -37 -67z" />
    <glyph glyph-name="uni00B3" unicode="&#xb3;" horiz-adv-x="735" 
d="M53 1018h156q6 -32 37 -68q30 -35 104 -35q85 0 125 37q39 36 39 90t-33 93q-33 36 -121 36h-71v123h71q68 0 103 35q31 36 31 82q0 45 -31 84q-30 35 -103 35q-70 0 -98 -31q-31 -39 -33 -61h-155q9 92 82 159q75 66 204 66q132 0 209 -68q78 -72 78 -178
q0 -62 -33 -106q-36 -49 -79 -68q60 -20 98 -74q35 -53 35 -131q0 -114 -84 -186q-85 -70 -234 -70q-68 0 -121 21q-55 19 -90 51q-38 32 -59 76q-24 47 -27 88z" />
    <glyph glyph-name="acute" unicode="&#xb4;" horiz-adv-x="552" 
d="M72 1198l164 236h266l-236 -236h-194z" />
    <glyph glyph-name="mu" unicode="&#xb5;" horiz-adv-x="1286" 
d="M918 0v82q-50 -56 -117 -82q-73 -31 -158 -31q-83 0 -156 31q-69 26 -118 82v-451h-197v1434h197v-666q0 -117 67 -190q67 -76 207 -76q131 0 203 72t72 194v666h196v-1065h-196z" />
    <glyph glyph-name="paragraph" unicode="&#xb6;" horiz-adv-x="1333" 
d="M684 -369h-197v983q-91 0 -170 31q-73 25 -137 82q-53 48 -90 129q-33 73 -33 168t33 168q37 81 90 129q62 56 137 84q82 29 170 29h762v-164h-164v-1639h-196v1639h-205v-1639z" />
    <glyph glyph-name="periodcentered" unicode="&#xb7;" horiz-adv-x="507" 
d="M131 399v277h246v-277h-246z" />
    <glyph glyph-name="cedilla" unicode="&#xb8;" horiz-adv-x="563" 
d="M266 -338q35 0 60 25q22 22 22 57q0 34 -22 59q-26 23 -60 23t-59 -25l-78 78l152 152h155l-121 -121q72 -3 115 -49q41 -47 41 -117q0 -35 -16 -72q-15 -34 -43 -59q-26 -23 -66 -39q-35 -14 -80 -14q-74 0 -127 41q-55 40 -67 102h129q15 -41 65 -41z" />
    <glyph glyph-name="uni00B9" unicode="&#xb9;" horiz-adv-x="540" 
d="M403 799h-153v655l-205 -215v195l205 204h153v-839z" />
    <glyph glyph-name="ordmasculine" unicode="&#xba;" horiz-adv-x="1003" 
d="M922 1014q0 -91 -29 -176q-30 -80 -84 -140q-53 -56 -133 -92q-73 -33 -174 -33t-174 33q-81 37 -131 92q-57 60 -84 140q-31 82 -31 176q0 91 31 176q27 79 84 139q50 55 131 92q73 33 174 33t174 -33q80 -36 133 -92q54 -61 84 -139q29 -89 29 -176zM236 1014
q0 -53 16 -109q16 -59 47 -98q29 -45 82 -72q51 -28 121 -28q67 0 121 28q49 25 84 72q34 49 47 98q14 49 14 109q0 58 -14 110q-13 47 -47 99q-37 47 -84 71q-52 27 -121 27q-72 0 -121 -27q-51 -26 -82 -71q-30 -41 -47 -99q-16 -59 -16 -110z" />
    <glyph glyph-name="guillemotright" unicode="&#xbb;" horiz-adv-x="1236" 
d="M117 184l358 348l-358 349h245l349 -349l-349 -348h-245zM588 184l358 348l-358 349h246l348 -349l-348 -348h-246z" />
    <glyph glyph-name="onequarter" unicode="&#xbc;" horiz-adv-x="1519" 
d="M403 594h-153v655l-205 -215v195l205 205h153v-840zM205 0l799 1434h172l-799 -1434h-172zM803 297l379 543h164v-543h122v-133h-122v-164h-154v164h-389v133zM1090 485l-129 -188h231v154v61q0 33 2 49q0 31 2 45q1 7 2 24t2 25h-8q-4 -7 -21 -41q-3 -6 -10 -18t-10 -18
q-9 -16 -27 -41q-4 -5 -15 -23.5t-19 -28.5z" />
    <glyph glyph-name="onehalf" unicode="&#xbd;" horiz-adv-x="1560" 
d="M403 594h-153v655l-205 -215v195l205 205h153v-840zM205 0l799 1434h172l-799 -1434h-172zM1059 635h-156q3 41 25 84q15 34 53 72q34 29 88 51q53 18 121 18q133 0 209 -67q78 -72 78 -179q0 -86 -41 -145q-41 -62 -103 -121l-225 -215h389v-133h-594v133l328 318
q53 50 72 81q20 33 20 82q0 36 -29 76q-27 37 -104 37q-58 0 -94 -25q-34 -27 -37 -67z" />
    <glyph glyph-name="threequarters" unicode="&#xbe;" horiz-adv-x="1701" 
d="M49 809h156q6 -32 37 -68q30 -34 104 -34q86 0 125 36t39 91q0 53 -33 92q-34 37 -121 37h-71v122h71q68 0 103 35q30 34 30 82q0 46 -30 84q-30 35 -103 35q-70 0 -98 -31q-31 -39 -33 -61h-155q9 93 82 160q74 65 204 65q132 0 209 -68q78 -72 78 -178q0 -62 -33 -106
q-36 -48 -80 -68q62 -21 99 -73q35 -53 35 -132q0 -114 -84 -186q-85 -70 -234 -70q-68 0 -121 21q-55 19 -90 51q-38 32 -59 76q-24 47 -27 88zM387 0l799 1434h172l-799 -1434h-172zM985 297l379 543h164v-543h123v-133h-123v-164h-154v164h-389v133zM1272 485l-129 -188
h231v154v61q0 33 2 49q0 31 2 45q1 7 2 24t2 25h-8q-5 -8 -12 -23.5t-8 -17.5q-3 -6 -10.5 -18t-10.5 -18q-13 -23 -26 -41q-3 -5 -15 -23.5t-20 -28.5z" />
    <glyph glyph-name="questiondown" unicode="&#xbf;" horiz-adv-x="1003" 
d="M664 1065v-277h-246v277h246zM745 -51h205q-3 -79 -37 -142t-90 -108q-60 -48 -137 -72q-77 -26 -176 -26q-108 0 -191 30q-82 30 -137 82q-59 56 -84 121q-28 70 -28 146q0 87 28 151q27 60 70 105q36 39 92 81q41 31 90 76q47 44 72 92q27 53 27 129h184
q0 -98 -27 -163q-30 -73 -65 -115q-42 -51 -86 -84q-52 -42 -86 -76q-46 -46 -68 -84q-27 -46 -27 -112q0 -33 13 -70q12 -37 41 -66q30 -33 71 -49q44 -20 111 -20q58 0 104 16q47 16 72 41q24 22 41 55q15 30 18 62z" />
    <glyph glyph-name="Agrave" unicode="&#xc0;" horiz-adv-x="1396" 
d="M1169 0l-133 338h-676l-133 -338h-215l584 1434h205l583 -1434h-215zM702 1208h-8q-9 -31 -57 -168q-24 -71 -76 -198l-131 -330h537l-131 330q-52 127 -76 198q-55 157 -58 168zM698 1802l164 -235h-194l-236 235h266z" />
    <glyph glyph-name="Aacute" unicode="&#xc1;" horiz-adv-x="1396" 
d="M1169 0l-133 338h-676l-133 -338h-215l584 1434h205l583 -1434h-215zM702 1208h-8q-9 -31 -57 -168q-24 -71 -76 -198l-131 -330h537l-131 330q-52 127 -76 198q-55 157 -58 168zM535 1567l163 235h267l-236 -235h-194z" />
    <glyph glyph-name="Acircumflex" unicode="&#xc2;" horiz-adv-x="1396" 
d="M1169 0l-133 338h-676l-133 -338h-215l584 1434h205l583 -1434h-215zM702 1208h-8q-9 -31 -57 -168q-24 -71 -76 -198l-131 -330h537l-131 330q-52 127 -76 198q-55 157 -58 168zM791 1567l-93 133l-92 -133h-256l236 235h225l236 -235h-256z" />
    <glyph glyph-name="Atilde" unicode="&#xc3;" horiz-adv-x="1396" 
d="M1169 0l-133 338h-676l-133 -338h-215l584 1434h205l583 -1434h-215zM702 1208h-8q-9 -31 -57 -168q-24 -71 -76 -198l-131 -330h537l-131 330q-52 127 -76 198q-55 157 -58 168zM463 1577h-144q0 63 21 109q18 46 51 75q40 34 76 47q41 15 88 15q51 0 98 -21
q40 -18 82 -45q39 -28 70 -47q29 -20 57 -20q42 0 56 26q16 29 16 66h143q0 -60 -18 -107q-24 -53 -53 -78q-36 -31 -76 -45q-46 -16 -88 -16q-55 0 -99 20q-38 17 -81 48q-43 28 -68 45q-33 20 -59 20q-41 0 -56 -27q-16 -29 -16 -65z" />
    <glyph glyph-name="Adieresis" unicode="&#xc4;" horiz-adv-x="1396" 
d="M1169 0l-133 338h-676l-133 -338h-215l584 1434h205l583 -1434h-215zM702 1208h-8q-9 -31 -57 -168q-24 -71 -76 -198l-131 -330h537l-131 330q-52 127 -76 198q-55 157 -58 168zM391 1597v205h197v-205h-197zM809 1597v205h197v-205h-197z" />
    <glyph glyph-name="Aring" unicode="&#xc5;" horiz-adv-x="1396" 
d="M1169 0l-133 338h-676l-133 -338h-215l580 1421q-72 28 -115 88q-45 57 -45 140q0 51 21 98q19 42 55 78q32 32 84 51q49 18 106 18q58 0 107 -18q52 -19 84 -51q36 -36 55 -78q21 -47 21 -98q0 -82 -43 -140q-46 -61 -117 -88l579 -1421h-215zM702 1208h-8
q-9 -31 -57 -168q-24 -71 -76 -198l-131 -330h537l-131 330q-52 127 -76 198q-55 157 -58 168zM831 1649q0 57 -36 96q-40 37 -97 37t-94 -37q-39 -39 -39 -96q0 -59 39 -95q35 -38 94 -38t97 38q36 36 36 95z" />
    <glyph glyph-name="AE" unicode="&#xc6;" horiz-adv-x="2136" 
d="M936 1434h1085v-174h-757v-431h716v-174h-716v-481h757v-174h-962v338h-615l-225 -338h-246zM1059 1260h-8q-6 -10 -36 -59t-50 -81q-19 -30 -67 -102t-71 -107l-266 -399h498v748z" />
    <glyph glyph-name="Ccedilla" unicode="&#xc7;" horiz-adv-x="1464" 
d="M788 -338q35 0 60 25q22 22 22 57q0 34 -22 59q-26 23 -60 23t-59 -25l-78 78l92 92q-144 9 -270 70q-125 61 -205 160q-82 99 -129 231q-47 133 -47 285q0 165 51 299q48 130 142 235q88 98 223 158q128 55 291 55q230 0 377 -102q147 -105 217 -277h-224
q-49 94 -139 150q-88 55 -231 55q-125 0 -221 -47q-94 -49 -156 -129q-63 -78 -94 -182q-31 -108 -31 -215q0 -108 31 -213q30 -107 94 -185q62 -79 156 -126q95 -50 221 -50q158 0 250 68q92 65 133 168h221q-57 -159 -178 -268q-124 -109 -322 -136l-65 -65q71 -3 114 -49
q41 -47 41 -117q0 -35 -16 -72q-15 -34 -43 -59q-26 -23 -66 -39q-35 -14 -80 -14q-73 0 -126 41q-56 41 -68 102h129q15 -41 65 -41z" />
    <glyph glyph-name="Egrave" unicode="&#xc8;" horiz-adv-x="1302" 
d="M184 0v1434h1004v-174h-799v-431h758v-174h-758v-481h799v-174h-1004zM696 1802l164 -235h-194l-236 235h266z" />
    <glyph glyph-name="Eacute" unicode="&#xc9;" horiz-adv-x="1302" 
d="M184 0v1434h1004v-174h-799v-431h758v-174h-758v-481h799v-174h-1004zM512 1567l164 235h266l-235 -235h-195z" />
    <glyph glyph-name="Ecircumflex" unicode="&#xca;" horiz-adv-x="1302" 
d="M184 0v1434h1004v-174h-799v-431h758v-174h-758v-481h799v-174h-1004zM778 1567l-92 133l-92 -133h-256l235 235h226l235 -235h-256z" />
    <glyph glyph-name="Edieresis" unicode="&#xcb;" horiz-adv-x="1302" 
d="M184 0v1434h1004v-174h-799v-431h758v-174h-758v-481h799v-174h-1004zM379 1597v205h196v-205h-196zM797 1597v205h196v-205h-196z" />
    <glyph glyph-name="Igrave" unicode="&#xcc;" horiz-adv-x="573" 
d="M389 0h-205v1434h205v-1434zM287 1802l164 -235h-195l-236 235h267z" />
    <glyph glyph-name="Iacute" unicode="&#xcd;" horiz-adv-x="573" 
d="M389 0h-205v1434h205v-1434zM123 1567l164 235h266l-236 -235h-194z" />
    <glyph glyph-name="Icircumflex" unicode="&#xce;" horiz-adv-x="573" 
d="M389 0h-205v1434h205v-1434zM379 1567l-92 133l-92 -133h-256l235 235h225l236 -235h-256z" />
    <glyph glyph-name="Idieresis" unicode="&#xcf;" horiz-adv-x="573" 
d="M389 0h-205v1434h205v-1434zM-20 1597v205h196v-205h-196zM397 1597v205h197v-205h-197z" />
    <glyph glyph-name="Eth" unicode="&#xd0;" horiz-adv-x="1523" 
d="M25 809h204v625h502q165 0 295 -50q131 -50 219 -141t135 -225q47 -133 47 -301q0 -170 -47 -303q-48 -136 -135 -226q-89 -92 -219 -139q-128 -49 -295 -49h-502v645h-204v164zM434 1260v-451h430v-164h-430v-471h277q253 0 383 145q129 144 129 398q0 255 -129 399
t-383 144h-277z" />
    <glyph glyph-name="Ntilde" unicode="&#xd1;" horiz-adv-x="1556" 
d="M1157 0l-493 711q-131 187 -179 266q-59 91 -98 160h-8q2 -33 6 -95q1 -16 2 -47.5t2 -48.5v-112v-148v-686h-205v1434h215l494 -711q110 -156 180 -264q74 -122 96 -162h9q-1 18 -3.5 49t-3.5 45q-2 31 -2 96q-2 35 -2 115v146v686h205v-1434h-215zM543 1577h-144
q0 63 21 109q18 46 51 75q40 34 76 47q41 15 88 15q51 0 98 -21q40 -18 82 -45q39 -28 70 -47q29 -20 57 -20q41 0 55 26q17 31 17 66h143q0 -60 -18 -107q-23 -51 -54 -78q-36 -32 -75 -45q-46 -16 -88 -16q-55 0 -99 20q-41 19 -82 48q-32 20 -67 45q-33 20 -60 20
q-40 0 -55 -27q-16 -29 -16 -65z" />
    <glyph glyph-name="Ograve" unicode="&#xd2;" horiz-adv-x="1597" 
d="M92 717q0 165 51 299q52 133 146 235q88 98 223 158q128 55 287 55q157 0 288 -55q134 -61 224 -158q91 -102 143 -235q51 -134 51 -299t-51 -299q-53 -138 -143 -236q-90 -97 -224 -155q-131 -58 -288 -58q-159 0 -287 58q-135 57 -223 155q-93 98 -146 236
q-51 134 -51 299zM297 717q0 -115 33 -213q37 -112 96 -185q62 -79 156 -126q95 -50 217 -50t217 50q93 46 158 126q58 75 94 185q32 95 32 213t-32 215q-36 107 -94 182q-65 80 -158 129q-96 47 -217 47t-217 -47q-94 -49 -156 -129q-59 -73 -96 -182q-33 -100 -33 -215z
M809 1802l164 -235h-195l-235 235h266z" />
    <glyph glyph-name="Oacute" unicode="&#xd3;" horiz-adv-x="1597" 
d="M92 717q0 165 51 299q52 133 146 235q88 98 223 158q128 55 287 55q157 0 288 -55q134 -61 224 -158q91 -102 143 -235q51 -134 51 -299t-51 -299q-53 -138 -143 -236q-90 -97 -224 -155q-131 -58 -288 -58q-159 0 -287 58q-135 57 -223 155q-93 98 -146 236
q-51 134 -51 299zM297 717q0 -115 33 -213q37 -112 96 -185q62 -79 156 -126q95 -50 217 -50t217 50q93 46 158 126q58 75 94 185q32 95 32 213t-32 215q-36 107 -94 182q-65 80 -158 129q-96 47 -217 47t-217 -47q-94 -49 -156 -129q-59 -73 -96 -182q-33 -100 -33 -215z
M625 1567l163 235h267l-236 -235h-194z" />
    <glyph glyph-name="Ocircumflex" unicode="&#xd4;" horiz-adv-x="1597" 
d="M92 717q0 165 51 299q52 133 146 235q88 98 223 158q128 55 287 55q157 0 288 -55q134 -61 224 -158q91 -102 143 -235q51 -134 51 -299t-51 -299q-53 -138 -143 -236q-90 -97 -224 -155q-131 -58 -288 -58q-159 0 -287 58q-135 57 -223 155q-93 98 -146 236
q-51 134 -51 299zM297 717q0 -115 33 -213q37 -112 96 -185q62 -79 156 -126q95 -50 217 -50t217 50q93 46 158 126q58 75 94 185q32 95 32 213t-32 215q-36 107 -94 182q-65 80 -158 129q-96 47 -217 47t-217 -47q-94 -49 -156 -129q-59 -73 -96 -182q-33 -100 -33 -215z
M891 1567l-92 133l-92 -133h-256l235 235h225l236 -235h-256z" />
    <glyph glyph-name="Otilde" unicode="&#xd5;" horiz-adv-x="1597" 
d="M92 717q0 165 51 299q52 133 146 235q88 98 223 158q128 55 287 55q157 0 288 -55q134 -61 224 -158q91 -102 143 -235q51 -134 51 -299t-51 -299q-53 -138 -143 -236q-90 -97 -224 -155q-131 -58 -288 -58q-159 0 -287 58q-135 57 -223 155q-93 98 -146 236
q-51 134 -51 299zM297 717q0 -115 33 -213q37 -112 96 -185q62 -79 156 -126q95 -50 217 -50t217 50q93 46 158 126q58 75 94 185q32 95 32 213t-32 215q-36 107 -94 182q-65 80 -158 129q-96 47 -217 47t-217 -47q-94 -49 -156 -129q-59 -73 -96 -182q-33 -100 -33 -215z
M563 1577h-143q0 65 20 109q17 45 52 75q40 35 75 47q41 15 88 15q53 0 99 -21q40 -18 82 -45q45 -32 69 -47q29 -20 58 -20q41 0 55 26q16 29 16 66h144q0 -58 -19 -107q-24 -53 -53 -78q-36 -31 -76 -45q-46 -16 -88 -16q-54 0 -98 20q-41 19 -82 48q-43 28 -68 45
q-33 20 -59 20q-40 0 -55 -27q-17 -31 -17 -65z" />
    <glyph glyph-name="Odieresis" unicode="&#xd6;" horiz-adv-x="1597" 
d="M92 717q0 165 51 299q52 133 146 235q88 98 223 158q128 55 287 55q157 0 288 -55q134 -61 224 -158q91 -102 143 -235q51 -134 51 -299t-51 -299q-53 -138 -143 -236q-90 -97 -224 -155q-131 -58 -288 -58q-159 0 -287 58q-135 57 -223 155q-93 98 -146 236
q-51 134 -51 299zM297 717q0 -115 33 -213q37 -112 96 -185q62 -79 156 -126q95 -50 217 -50t217 50q93 46 158 126q58 75 94 185q32 95 32 213t-32 215q-36 107 -94 182q-65 80 -158 129q-96 47 -217 47t-217 -47q-94 -49 -156 -129q-59 -73 -96 -182q-33 -100 -33 -215z
M492 1597v205h196v-205h-196zM909 1597v205h197v-205h-197z" />
    <glyph glyph-name="multiply" unicode="&#xd7;" horiz-adv-x="1126" 
d="M678 717l356 -357l-114 -114l-357 356l-356 -356l-115 114l357 357l-357 356l115 115l356 -357l357 357l114 -115z" />
    <glyph glyph-name="Oslash" unicode="&#xd8;" horiz-adv-x="1605" 
d="M76 -31l196 234q-85 98 -131 229q-45 128 -45 285q0 165 51 299q52 133 146 235q88 98 223 158q128 55 287 55q130 0 227 -32q102 -35 189 -97l106 129h205l-195 -235q83 -99 129 -228q45 -128 45 -284q0 -165 -51 -299q-53 -138 -143 -236q-91 -98 -223 -155
q-131 -58 -289 -58q-125 0 -223 33q-111 36 -191 94l-108 -127h-205zM301 717q0 -99 27 -191q24 -93 73 -168l697 834q-58 46 -131 74q-73 24 -164 24q-121 0 -217 -47q-94 -49 -156 -129q-59 -73 -96 -182q-33 -100 -33 -215zM1305 717q0 95 -25 190q-25 92 -74 168
l-698 -835q57 -45 133 -70q71 -27 162 -27q122 0 217 50q93 46 158 126q58 75 94 185q33 98 33 213z" />
    <glyph glyph-name="Ugrave" unicode="&#xd9;" horiz-adv-x="1482" 
d="M741 -31q-134 0 -241 43q-106 40 -181 115q-71 68 -112 172q-39 95 -39 213v922h205v-922q0 -171 100 -268q98 -101 268 -101t271 101q98 98 98 268v922h205v-922q0 -118 -39 -213q-41 -103 -113 -172q-76 -76 -180 -115q-107 -43 -242 -43zM752 1802l163 -235h-194
l-236 235h267z" />
    <glyph glyph-name="Uacute" unicode="&#xda;" horiz-adv-x="1482" 
d="M741 -31q-134 0 -241 43q-106 40 -181 115q-71 68 -112 172q-39 95 -39 213v922h205v-922q0 -171 100 -268q98 -101 268 -101t271 101q98 98 98 268v922h205v-922q0 -118 -39 -213q-41 -103 -113 -172q-76 -76 -180 -115q-107 -43 -242 -43zM567 1567l164 235h266
l-235 -235h-195z" />
    <glyph glyph-name="Ucircumflex" unicode="&#xdb;" horiz-adv-x="1482" 
d="M741 -31q-134 0 -241 43q-106 40 -181 115q-71 68 -112 172q-39 95 -39 213v922h205v-922q0 -171 100 -268q98 -101 268 -101t271 101q98 98 98 268v922h205v-922q0 -118 -39 -213q-41 -103 -113 -172q-76 -76 -180 -115q-107 -43 -242 -43zM834 1567l-93 133l-92 -133
h-256l236 235h225l236 -235h-256z" />
    <glyph glyph-name="Udieresis" unicode="&#xdc;" horiz-adv-x="1482" 
d="M741 -31q-134 0 -241 43q-106 40 -181 115q-71 68 -112 172q-39 95 -39 213v922h205v-922q0 -171 100 -268q98 -101 268 -101t271 101q98 98 98 268v922h205v-922q0 -118 -39 -213q-41 -103 -113 -172q-76 -76 -180 -115q-107 -43 -242 -43zM434 1597v205h197v-205h-197z
M852 1597v205h197v-205h-197z" />
    <glyph glyph-name="Yacute" unicode="&#xdd;" horiz-adv-x="1220" 
d="M508 0v573l-481 861h229l354 -676l355 676h229l-481 -861v-573h-205zM436 1567l164 235h266l-235 -235h-195z" />
    <glyph glyph-name="Thorn" unicode="&#xde;" horiz-adv-x="1409" 
d="M870 328h-481v-328h-205v1434h205v-287h481q216 0 340 -109q121 -109 121 -301t-121 -301q-123 -108 -340 -108zM389 502h481q132 0 195 63q61 64 61 172t-61 172q-64 64 -195 64h-481v-471z" />
    <glyph glyph-name="germandbls" unicode="&#xdf;" horiz-adv-x="1236" 
d="M674 0h-139v164h129q155 0 225 76q72 75 72 190q0 125 -70 201t-217 76h-113v153h72q114 0 170 68q55 64 55 157q0 33 -12 74q-10 30 -41 70q-25 28 -76 51q-44 20 -117 20q-145 0 -204 -71q-62 -74 -62 -205v-1024h-196v1024q0 92 28 178q28 83 84 139q52 55 144 91
q79 32 206 32q114 0 197 -30q80 -29 137 -80q55 -52 82 -117q27 -67 27 -141q0 -92 -41 -166q-41 -75 -135 -121q151 -42 213 -143q65 -106 65 -236q0 -91 -31 -170q-35 -81 -94 -137q-55 -53 -151 -90q-85 -33 -207 -33z" />
    <glyph glyph-name="agrave" unicode="&#xe0;" horiz-adv-x="1171" 
d="M498 123q67 0 131 22q59 20 108 66q45 42 72 106q27 65 27 144v82l-349 -31q-108 -9 -161 -59q-54 -51 -54 -136q0 -50 19 -90q14 -38 47 -61q36 -25 72 -33q45 -10 88 -10zM330 788h-203q9 62 39 121q31 58 88 97q57 42 137 65q83 25 189 25q135 0 239 -39
q103 -40 162 -135q51 -83 51 -215v-707h-196v133q-43 -56 -138 -113q-86 -51 -221 -51q-76 0 -153 23q-77 22 -129 63q-56 44 -86 109q-33 62 -33 153q0 139 96 232q97 91 295 106l369 31v21q0 48 -13 98q-11 41 -41 74q-33 33 -80 47q-53 16 -122 16q-117 0 -179 -41
q-62 -42 -71 -113zM594 1434l164 -236h-195l-235 236h266z" />
    <glyph glyph-name="aacute" unicode="&#xe1;" horiz-adv-x="1171" 
d="M498 123q67 0 131 22q59 20 108 66q45 42 72 106q27 65 27 144v82l-349 -31q-108 -9 -161 -59q-54 -51 -54 -136q0 -50 19 -90q14 -38 47 -61q36 -25 72 -33q45 -10 88 -10zM330 788h-203q9 62 39 121q31 58 88 97q57 42 137 65q83 25 189 25q135 0 239 -39
q103 -40 162 -135q51 -83 51 -215v-707h-196v133q-43 -56 -138 -113q-86 -51 -221 -51q-76 0 -153 23q-77 22 -129 63q-56 44 -86 109q-33 62 -33 153q0 139 96 232q97 91 295 106l369 31v21q0 48 -13 98q-11 41 -41 74q-33 33 -80 47q-53 16 -122 16q-117 0 -179 -41
q-62 -42 -71 -113zM399 1198l164 236h266l-235 -236h-195z" />
    <glyph glyph-name="acircumflex" unicode="&#xe2;" horiz-adv-x="1171" 
d="M498 123q67 0 131 22q59 20 108 66q45 42 72 106q27 65 27 144v82l-349 -31q-108 -9 -161 -59q-54 -51 -54 -136q0 -50 19 -90q14 -38 47 -61q36 -25 72 -33q45 -10 88 -10zM330 788h-203q9 62 39 121q31 58 88 97q57 42 137 65q83 25 189 25q135 0 239 -39
q103 -40 162 -135q51 -83 51 -215v-707h-196v133q-43 -56 -138 -113q-86 -51 -221 -51q-76 0 -153 23q-77 22 -129 63q-56 44 -86 109q-33 62 -33 153q0 139 96 232q97 91 295 106l369 31v21q0 48 -13 98q-11 41 -41 74q-33 33 -80 47q-53 16 -122 16q-117 0 -179 -41
q-62 -42 -71 -113zM672 1198l-92 133l-93 -133h-256l236 236h225l236 -236h-256z" />
    <glyph glyph-name="atilde" unicode="&#xe3;" horiz-adv-x="1171" 
d="M498 123q67 0 131 22q59 20 108 66q45 42 72 106q27 65 27 144v82l-349 -31q-108 -9 -161 -59q-54 -51 -54 -136q0 -50 19 -90q14 -38 47 -61q36 -25 72 -33q45 -10 88 -10zM330 788h-203q9 62 39 121q31 58 88 97q57 42 137 65q83 25 189 25q135 0 239 -39
q103 -40 162 -135q51 -83 51 -215v-707h-196v133q-43 -56 -138 -113q-86 -51 -221 -51q-76 0 -153 23q-77 22 -129 63q-56 44 -86 109q-33 62 -33 153q0 139 96 232q97 91 295 106l369 31v21q0 48 -13 98q-11 41 -41 74q-33 33 -80 47q-53 16 -122 16q-117 0 -179 -41
q-62 -42 -71 -113zM344 1208h-143q0 65 20 109q18 48 51 76q40 34 76 47q38 14 88 14q55 0 99 -20q36 -16 81 -45q48 -35 70 -48q29 -20 57 -20q41 0 56 27q16 29 16 65h143q0 -59 -18 -106q-24 -53 -53 -78q-36 -31 -76 -45q-49 -17 -88 -17q-51 0 -98 21q-45 20 -82 47
q-43 28 -68 45q-33 20 -59 20q-42 0 -56 -26q-16 -29 -16 -66z" />
    <glyph glyph-name="adieresis" unicode="&#xe4;" horiz-adv-x="1171" 
d="M498 123q67 0 131 22q59 20 108 66q45 42 72 106q27 65 27 144v82l-349 -31q-108 -9 -161 -59q-54 -51 -54 -136q0 -50 19 -90q14 -38 47 -61q36 -25 72 -33q45 -10 88 -10zM330 788h-203q9 62 39 121q31 58 88 97q57 42 137 65q83 25 189 25q135 0 239 -39
q103 -40 162 -135q51 -83 51 -215v-707h-196v133q-43 -56 -138 -113q-86 -51 -221 -51q-76 0 -153 23q-77 22 -129 63q-56 44 -86 109q-33 62 -33 153q0 139 96 232q97 91 295 106l369 31v21q0 48 -13 98q-11 41 -41 74q-33 33 -80 47q-53 16 -122 16q-117 0 -179 -41
q-62 -42 -71 -113zM272 1229v205h197v-205h-197zM690 1229v205h197v-205h-197z" />
    <glyph glyph-name="aring" unicode="&#xe5;" horiz-adv-x="1171" 
d="M498 123q67 0 131 22q59 20 108 66q45 42 72 106q27 65 27 144v82l-349 -31q-108 -9 -161 -59q-54 -51 -54 -136q0 -50 19 -90q14 -38 47 -61q36 -25 72 -33q45 -10 88 -10zM330 788h-203q9 62 39 121q31 58 88 97q57 42 137 65q83 25 189 25q135 0 239 -39
q103 -40 162 -135q51 -83 51 -215v-707h-196v133q-43 -56 -138 -113q-86 -51 -221 -51q-76 0 -153 23q-77 22 -129 63q-56 44 -86 109q-33 62 -33 153q0 139 96 232q97 91 295 106l369 31v21q0 48 -13 98q-11 41 -41 74q-33 33 -80 47q-53 16 -122 16q-117 0 -179 -41
q-62 -42 -71 -113zM713 1403q0 56 -37 96q-40 37 -96 37q-58 0 -95 -37q-39 -39 -39 -96q0 -58 39 -94q36 -39 95 -39q57 0 96 39q37 37 37 94zM846 1403q0 -51 -21 -98q-19 -42 -55 -78q-32 -32 -84 -51t-106 -19q-55 0 -107 19t-84 51q-36 36 -55 78q-21 47 -21 98t21 98
q19 42 55 78q32 32 84 51t107 19q54 0 106 -19t84 -51q36 -36 55 -78q21 -46 21 -98z" />
    <glyph glyph-name="ae" unicode="&#xe6;" horiz-adv-x="1947" 
d="M498 123q67 0 131 22q59 20 108 66q45 42 72 106q27 65 27 144v82l-349 -31q-108 -9 -161 -59q-54 -51 -54 -136q0 -50 19 -90q14 -38 47 -61q36 -25 72 -33q45 -10 88 -10zM1358 942q-76 0 -135 -27q-65 -30 -101 -71q-44 -47 -65 -105q-22 -61 -25 -125h641
q-3 70 -24 129q-22 61 -60 105q-42 45 -96 70q-59 24 -135 24zM1368 -31q-146 0 -258 62q-112 61 -180 166q-19 -31 -60 -80q-35 -38 -90 -74q-44 -29 -125 -53q-71 -21 -168 -21q-79 0 -159 23q-78 21 -131 63q-51 40 -88 109q-33 62 -33 153q0 139 96 232q97 91 295 106
l369 31v21q0 48 -13 98q-11 41 -41 74q-33 33 -80 47q-53 16 -122 16q-117 0 -179 -41q-62 -42 -71 -113h-203q9 62 39 121q31 58 88 97q57 42 137 65q83 25 189 25q129 0 233 -37q104 -40 162 -131q68 77 166 123q91 45 217 45q192 0 309 -99q115 -97 168 -258
q17 -57 27 -125q8 -57 8 -133v-20h-838q3 -67 27 -125q25 -64 67 -109q46 -49 105 -75q63 -29 137 -29q60 0 113 16q44 13 82 43q31 24 51 58q17 26 24 57h211q-20 -71 -57 -125q-38 -55 -100 -104q-57 -43 -142 -72q-82 -27 -182 -27z" />
    <glyph glyph-name="ccedilla" unicode="&#xe7;" horiz-adv-x="1144" 
d="M606 -338q35 0 60 25q22 22 22 57q0 34 -22 59q-26 23 -60 23t-59 -25l-78 78l92 92q-109 9 -203 58q-90 47 -149 121q-63 75 -92 172q-33 95 -33 210q0 120 37 224q34 101 102 178q67 76 168 119q98 43 225 43q179 0 295 -84q111 -81 166 -224h-213q-27 60 -88 103
q-62 41 -160 41q-84 0 -151 -31q-67 -36 -105 -88q-41 -56 -59 -127q-20 -70 -20 -154t20 -151q18 -72 59 -129q41 -56 105 -86q62 -33 151 -33q108 0 170 45q66 47 95 119h206q-42 -130 -129 -211q-91 -85 -235 -109l-68 -67q72 -3 115 -49q41 -47 41 -117q0 -35 -16 -72
q-15 -34 -43 -59q-26 -23 -66 -39q-35 -14 -80 -14q-74 0 -127 41q-55 40 -67 102h129q15 -41 65 -41z" />
    <glyph glyph-name="egrave" unicode="&#xe8;" horiz-adv-x="1196" 
d="M887 297h211q-19 -69 -58 -125q-38 -55 -100 -104q-58 -44 -141 -72q-83 -27 -183 -27q-123 0 -221 43t-168 119q-68 74 -106 180q-37 101 -37 221t37 224q39 105 106 178q65 73 164 119q93 43 215 43q192 0 309 -99q115 -97 168 -258q17 -57 27 -125q8 -57 8 -133v-20
h-837q3 -70 26 -125q24 -62 68 -109q47 -50 104 -75q63 -29 137 -29q60 0 113 16q44 13 82 43q31 24 51 58q18 28 25 57zM606 942q-76 0 -135 -27q-64 -29 -100 -71q-46 -49 -66 -105q-21 -58 -24 -125h641q-3 67 -25 129q-23 63 -59 105q-41 44 -97 70q-59 24 -135 24z
M616 1434l164 -236h-194l-236 236h266z" />
    <glyph glyph-name="eacute" unicode="&#xe9;" horiz-adv-x="1196" 
d="M887 297h211q-19 -69 -58 -125q-38 -55 -100 -104q-58 -44 -141 -72q-83 -27 -183 -27q-123 0 -221 43t-168 119q-68 74 -106 180q-37 101 -37 221t37 224q39 105 106 178q65 73 164 119q93 43 215 43q192 0 309 -99q115 -97 168 -258q17 -57 27 -125q8 -57 8 -133v-20
h-837q3 -70 26 -125q24 -62 68 -109q47 -50 104 -75q63 -29 137 -29q60 0 113 16q44 13 82 43q31 24 51 58q18 28 25 57zM606 942q-76 0 -135 -27q-64 -29 -100 -71q-46 -49 -66 -105q-21 -58 -24 -125h641q-3 67 -25 129q-23 63 -59 105q-41 44 -97 70q-59 24 -135 24z
M432 1198l164 236h266l-235 -236h-195z" />
    <glyph glyph-name="ecircumflex" unicode="&#xea;" horiz-adv-x="1196" 
d="M887 297h211q-19 -69 -58 -125q-38 -55 -100 -104q-58 -44 -141 -72q-83 -27 -183 -27q-123 0 -221 43t-168 119q-68 74 -106 180q-37 101 -37 221t37 224q39 105 106 178q65 73 164 119q93 43 215 43q192 0 309 -99q115 -97 168 -258q17 -57 27 -125q8 -57 8 -133v-20
h-837q3 -70 26 -125q24 -62 68 -109q47 -50 104 -75q63 -29 137 -29q60 0 113 16q44 13 82 43q31 24 51 58q18 28 25 57zM606 942q-76 0 -135 -27q-64 -29 -100 -71q-46 -49 -66 -105q-21 -58 -24 -125h641q-3 67 -25 129q-23 63 -59 105q-41 44 -97 70q-59 24 -135 24z
M698 1198l-92 133l-92 -133h-256l236 236h225l235 -236h-256z" />
    <glyph glyph-name="edieresis" unicode="&#xeb;" horiz-adv-x="1196" 
d="M887 297h211q-19 -69 -58 -125q-38 -55 -100 -104q-58 -44 -141 -72q-83 -27 -183 -27q-123 0 -221 43t-168 119q-68 74 -106 180q-37 101 -37 221t37 224q39 105 106 178q65 73 164 119q93 43 215 43q192 0 309 -99q115 -97 168 -258q17 -57 27 -125q8 -57 8 -133v-20
h-837q3 -70 26 -125q24 -62 68 -109q47 -50 104 -75q63 -29 137 -29q60 0 113 16q44 13 82 43q31 24 51 58q18 28 25 57zM606 942q-76 0 -135 -27q-64 -29 -100 -71q-46 -49 -66 -105q-21 -58 -24 -125h641q-3 67 -25 129q-23 63 -59 105q-41 44 -97 70q-59 24 -135 24z
M299 1229v205h197v-205h-197zM717 1229v205h196v-205h-196z" />
    <glyph glyph-name="igrave" unicode="&#xec;" 
d="M150 0v1065h196v-1065h-196zM254 1434l164 -236h-195l-235 236h266z" />
    <glyph glyph-name="iacute" unicode="&#xed;" 
d="M150 0v1065h196v-1065h-196zM78 1198l164 236h266l-236 -236h-194z" />
    <glyph glyph-name="icircumflex" unicode="&#xee;" 
d="M150 0v1065h196v-1065h-196zM340 1198l-92 133l-92 -133h-256l235 236h225l236 -236h-256z" />
    <glyph glyph-name="idieresis" unicode="&#xef;" 
d="M150 0v1065h196v-1065h-196zM-59 1229v205h196v-205h-196zM358 1229v205h197v-205h-197z" />
    <glyph glyph-name="eth" unicode="&#xf0;" horiz-adv-x="1187" 
d="M975 1300l-213 -83l18 -19q63 -65 127 -143q51 -62 101 -156q43 -81 67 -184q25 -106 25 -234q0 -107 -35 -200q-37 -95 -102 -162q-60 -65 -162 -109q-96 -41 -215 -41q-113 0 -201 39q-95 39 -160 107q-67 66 -104 161q-39 91 -39 205q0 105 35 195q36 92 96 155
t152 105q87 37 200 37q79 0 150 -27q65 -25 116 -76q-24 40 -36 58q-6 7 -21 25t-24 28q-8 9 -60 61l-84 84l-20 21l-369 -143v163l250 99l-168 168h256l94 -99l326 129v-164zM586 133q74 0 133 27q58 27 98 73q45 52 64 107q22 64 22 131q0 71 -22 135q-19 55 -64 107
q-38 43 -98 71q-61 25 -133 25q-76 0 -135 -27q-60 -28 -95 -71q-38 -43 -57 -109q-20 -59 -20 -131q0 -67 22 -131q19 -55 64 -107q42 -48 96 -73q56 -27 125 -27z" />
    <glyph glyph-name="ntilde" unicode="&#xf1;" horiz-adv-x="1222" 
d="M346 1065v-143q51 83 148 131q90 43 200 43q187 0 289 -105q100 -103 100 -305v-686h-196v666q0 131 -58 198q-59 68 -186 68q-63 0 -115 -21q-53 -20 -94 -61q-43 -46 -63 -105q-25 -64 -25 -141v-604h-196v1065h196zM381 1208h-143q0 65 20 109q18 48 51 76
q40 34 76 47q38 14 88 14q54 0 98 -20q40 -18 82 -45q48 -35 70 -48q29 -20 57 -20q41 0 56 27q16 29 16 65h143q0 -59 -18 -106q-24 -53 -53 -78q-36 -31 -76 -45q-49 -17 -88 -17q-52 0 -98 21q-45 20 -82 47q-43 28 -68 45q-33 20 -59 20q-42 0 -56 -26q-16 -29 -16 -66z
" />
    <glyph glyph-name="ograve" unicode="&#xf2;" horiz-adv-x="1249" 
d="M82 532q0 123 39 224q41 103 110 178q71 77 170 119q101 43 224 43q122 0 223 -43q103 -44 172 -119q66 -71 108 -178q39 -101 39 -224t-39 -221q-42 -108 -108 -180q-69 -75 -172 -119q-101 -43 -223 -43q-123 0 -224 43q-99 42 -170 119q-70 76 -110 180
q-39 98 -39 221zM971 532q0 74 -23 154q-21 71 -65 127q-45 54 -109 88q-67 31 -149 31q-81 0 -148 -31q-67 -36 -108 -88q-47 -56 -68 -127q-22 -77 -22 -154t22 -151q21 -73 68 -129q44 -56 108 -86q62 -33 148 -33q87 0 149 33q61 28 109 86q44 57 65 129q23 77 23 151z
M635 1434l164 -236h-195l-235 236h266z" />
    <glyph glyph-name="oacute" unicode="&#xf3;" horiz-adv-x="1249" 
d="M82 532q0 123 39 224q41 103 110 178q71 77 170 119q101 43 224 43q122 0 223 -43q103 -44 172 -119q66 -71 108 -178q39 -101 39 -224t-39 -221q-42 -108 -108 -180q-69 -75 -172 -119q-101 -43 -223 -43q-123 0 -224 43q-99 42 -170 119q-70 76 -110 180
q-39 98 -39 221zM971 532q0 74 -23 154q-21 71 -65 127q-45 54 -109 88q-67 31 -149 31q-81 0 -148 -31q-67 -36 -108 -88q-47 -56 -68 -127q-22 -77 -22 -154t22 -151q21 -73 68 -129q44 -56 108 -86q62 -33 148 -33q87 0 149 33q61 28 109 86q44 57 65 129q23 77 23 151z
M451 1198l163 236h267l-236 -236h-194z" />
    <glyph glyph-name="ocircumflex" unicode="&#xf4;" horiz-adv-x="1249" 
d="M82 532q0 123 39 224q41 103 110 178q71 77 170 119q101 43 224 43q122 0 223 -43q103 -44 172 -119q66 -71 108 -178q39 -101 39 -224t-39 -221q-42 -108 -108 -180q-69 -75 -172 -119q-101 -43 -223 -43q-123 0 -224 43q-99 42 -170 119q-70 76 -110 180
q-39 98 -39 221zM971 532q0 74 -23 154q-21 71 -65 127q-45 54 -109 88q-67 31 -149 31q-81 0 -148 -31q-67 -36 -108 -88q-47 -56 -68 -127q-22 -77 -22 -154t22 -151q21 -73 68 -129q44 -56 108 -86q62 -33 148 -33q87 0 149 33q61 28 109 86q44 57 65 129q23 77 23 151z
M717 1198l-92 133l-93 -133h-256l236 236h225l236 -236h-256z" />
    <glyph glyph-name="otilde" unicode="&#xf5;" horiz-adv-x="1249" 
d="M82 532q0 123 39 224q41 103 110 178q71 77 170 119q101 43 224 43q122 0 223 -43q103 -44 172 -119q66 -71 108 -178q39 -101 39 -224t-39 -221q-42 -108 -108 -180q-69 -75 -172 -119q-101 -43 -223 -43q-123 0 -224 43q-99 42 -170 119q-70 76 -110 180
q-39 98 -39 221zM971 532q0 74 -23 154q-21 71 -65 127q-45 54 -109 88q-67 31 -149 31q-81 0 -148 -31q-67 -36 -108 -88q-47 -56 -68 -127q-22 -77 -22 -154t22 -151q21 -73 68 -129q44 -56 108 -86q62 -33 148 -33q87 0 149 33q61 28 109 86q44 57 65 129q23 77 23 151z
M389 1208h-143q0 65 20 109q18 48 51 76q40 34 76 47q38 14 88 14q55 0 99 -20q40 -18 82 -45q54 -39 69 -48q29 -20 57 -20q41 0 56 27q16 29 16 65h144q0 -57 -19 -106q-24 -53 -53 -78q-36 -31 -76 -45q-49 -17 -88 -17q-52 0 -98 21q-45 20 -82 47q-43 28 -68 45
q-33 20 -59 20q-41 0 -55 -26q-17 -31 -17 -66z" />
    <glyph glyph-name="odieresis" unicode="&#xf6;" horiz-adv-x="1249" 
d="M82 532q0 123 39 224q41 103 110 178q71 77 170 119q101 43 224 43q122 0 223 -43q103 -44 172 -119q66 -71 108 -178q39 -101 39 -224t-39 -221q-42 -108 -108 -180q-69 -75 -172 -119q-101 -43 -223 -43q-123 0 -224 43q-99 42 -170 119q-70 76 -110 180
q-39 98 -39 221zM971 532q0 74 -23 154q-21 71 -65 127q-45 54 -109 88q-67 31 -149 31q-81 0 -148 -31q-67 -36 -108 -88q-47 -56 -68 -127q-22 -77 -22 -154t22 -151q21 -73 68 -129q44 -56 108 -86q62 -33 148 -33q87 0 149 33q61 28 109 86q44 57 65 129q23 77 23 151z
M317 1229v205h197v-205h-197zM735 1229v205h197v-205h-197z" />
    <glyph glyph-name="divide" unicode="&#xf7;" horiz-adv-x="1175" 
d="M96 635v164h983v-164h-983zM465 963v256h246v-256h-246zM465 215v256h246v-256h-246z" />
    <glyph glyph-name="oslash" unicode="&#xf8;" horiz-adv-x="1253" 
d="M84 532q0 123 39 224q41 103 110 178q71 77 170 119q101 43 224 43q86 0 170 -23q76 -24 137 -67l76 90h180l-152 -181q65 -74 99 -172q32 -92 32 -211q0 -123 -39 -221q-42 -108 -108 -180q-69 -75 -172 -119q-101 -43 -223 -43q-88 0 -168 25q-79 22 -140 65l-75 -90
h-181l152 183q-59 69 -96 172q-35 96 -35 208zM973 532q0 132 -58 236l-483 -575q78 -60 195 -60q87 0 149 33q61 28 109 86q44 57 65 129q23 77 23 151zM281 532q0 -69 14 -124q14 -58 43 -111l485 575q-51 34 -88 46q-46 14 -108 14q-81 0 -148 -31q-67 -36 -108 -88
q-47 -56 -68 -127q-22 -77 -22 -154z" />
    <glyph glyph-name="ugrave" unicode="&#xf9;" horiz-adv-x="1212" 
d="M866 0v133q-45 -83 -137 -125q-88 -39 -201 -39q-184 0 -286 105q-103 106 -103 305v686h197v-666q0 -132 57 -198q59 -68 187 -68q120 0 204 84q82 82 82 244v604h197v-1065h-197zM610 1434l164 -236h-194l-236 236h266z" />
    <glyph glyph-name="uacute" unicode="&#xfa;" horiz-adv-x="1212" 
d="M866 0v133q-45 -83 -137 -125q-88 -39 -201 -39q-184 0 -286 105q-103 106 -103 305v686h197v-666q0 -132 57 -198q59 -68 187 -68q120 0 204 84q82 82 82 244v604h197v-1065h-197zM428 1198l164 236h266l-235 -236h-195z" />
    <glyph glyph-name="ucircumflex" unicode="&#xfb;" horiz-adv-x="1212" 
d="M866 0v133q-45 -83 -137 -125q-88 -39 -201 -39q-184 0 -286 105q-103 106 -103 305v686h197v-666q0 -132 57 -198q59 -68 187 -68q120 0 204 84q82 82 82 244v604h197v-1065h-197zM692 1198l-92 133l-92 -133h-256l235 236h226l235 -236h-256z" />
    <glyph glyph-name="udieresis" unicode="&#xfc;" horiz-adv-x="1212" 
d="M866 0v133q-45 -83 -137 -125q-88 -39 -201 -39q-184 0 -286 105q-103 106 -103 305v686h197v-666q0 -132 57 -198q59 -68 187 -68q120 0 204 84q82 82 82 244v604h197v-1065h-197zM293 1229v205h196v-205h-196zM711 1229v205h196v-205h-196z" />
    <glyph glyph-name="yacute" unicode="&#xfd;" horiz-adv-x="1052" 
d="M360 1198l164 236h267l-236 -236h-195zM420 -41l14 41l-401 1065h209l172 -471q39 -105 63 -191q25 -92 45 -170h10q31 104 54 170q29 95 65 191l172 471h203l-432 -1165q-16 -47 -51 -111q-29 -51 -76 -86q-49 -36 -109 -53q-68 -19 -157 -19h-115v160h104q49 0 80 8
q38 7 64 27q27 18 47 51q23 37 39 82z" />
    <glyph glyph-name="thorn" unicode="&#xfe;" horiz-adv-x="1273" 
d="M336 532q0 -84 20 -151q21 -75 64 -129q41 -56 102 -86q59 -33 142 -33q77 0 141 31q58 28 104 84q41 53 62 127q20 70 20 157q0 88 -20 158q-21 71 -62 127q-46 56 -104 84q-64 31 -141 31q-78 0 -142 -31q-64 -36 -102 -88q-42 -54 -64 -127q-20 -70 -20 -154zM346 143
v-512h-196v1803h196v-512q46 76 137 127q89 47 211 47t211 -45q94 -48 156 -121q59 -70 96 -180q31 -105 31 -218q0 -112 -31 -217q-36 -107 -96 -178q-65 -77 -156 -123q-89 -45 -211 -45q-123 0 -211 49q-90 47 -137 125z" />
    <glyph glyph-name="ydieresis" unicode="&#xff;" horiz-adv-x="1052" 
d="M223 1229v205h197v-205h-197zM641 1229v205h197v-205h-197zM420 -41l14 41l-401 1065h209l172 -471q39 -105 63 -191q25 -92 45 -170h10q31 104 54 170q29 95 65 191l172 471h203l-432 -1165q-16 -47 -51 -111q-29 -51 -76 -86q-49 -36 -109 -53q-68 -19 -157 -19h-115
v160h104q49 0 80 8q38 7 64 27q27 18 47 51q23 37 39 82z" />
    <glyph glyph-name="Amacron" unicode="&#x100;" horiz-adv-x="1396" 
d="M1169 0l-133 338h-676l-133 -338h-215l584 1434h205l583 -1434h-215zM702 1208h-8q-9 -31 -57 -168q-24 -71 -76 -198l-131 -330h537l-131 330q-52 127 -76 198q-55 157 -58 168zM360 1618v154h676v-154h-676z" />
    <glyph glyph-name="amacron" unicode="&#x101;" horiz-adv-x="1171" 
d="M498 123q67 0 131 22q59 20 108 66q45 42 72 106q27 65 27 144v82l-349 -31q-108 -9 -161 -59q-54 -51 -54 -136q0 -50 19 -90q14 -38 47 -61q36 -25 72 -33q45 -10 88 -10zM330 788h-203q9 62 39 121q31 58 88 97q57 42 137 65q83 25 189 25q135 0 239 -39
q103 -40 162 -135q51 -83 51 -215v-707h-196v133q-43 -56 -138 -113q-86 -51 -221 -51q-76 0 -153 23q-77 22 -129 63q-56 44 -86 109q-33 62 -33 153q0 139 96 232q97 91 295 106l369 31v21q0 48 -13 98q-11 41 -41 74q-33 33 -80 47q-53 16 -122 16q-117 0 -179 -41
q-62 -42 -71 -113zM242 1249v154h676v-154h-676z" />
    <glyph glyph-name="Abreve" unicode="&#x102;" horiz-adv-x="1396" 
d="M1169 0l-133 338h-676l-133 -338h-215l584 1434h205l583 -1434h-215zM702 1208h-8q-9 -31 -57 -168q-24 -71 -76 -198l-131 -330h537l-131 330q-52 127 -76 198q-55 157 -58 168zM698 1546q-140 0 -225 82q-89 80 -104 205h145q15 -59 61 -96t123 -37t123 37q47 38 62 96
h145q-15 -124 -102 -205q-88 -82 -228 -82z" />
    <glyph glyph-name="abreve" unicode="&#x103;" horiz-adv-x="1171" 
d="M498 123q67 0 131 22q59 20 108 66q45 42 72 106q27 65 27 144v82l-349 -31q-108 -9 -161 -59q-54 -51 -54 -136q0 -50 19 -90q14 -38 47 -61q36 -25 72 -33q45 -10 88 -10zM330 788h-203q9 62 39 121q31 58 88 97q57 42 137 65q83 25 189 25q135 0 239 -39
q103 -40 162 -135q51 -83 51 -215v-707h-196v133q-43 -56 -138 -113q-86 -51 -221 -51q-76 0 -153 23q-77 22 -129 63q-56 44 -86 109q-33 62 -33 153q0 139 96 232q97 91 295 106l369 31v21q0 48 -13 98q-11 41 -41 74q-33 33 -80 47q-53 16 -122 16q-117 0 -179 -41
q-62 -42 -71 -113zM580 1178q-141 0 -226 82q-89 80 -104 204h145q15 -58 62 -96q46 -37 123 -37q76 0 122 37q47 38 62 96h145q-15 -123 -102 -204q-88 -82 -227 -82z" />
    <glyph glyph-name="Aogonek" unicode="&#x104;" horiz-adv-x="1396" 
d="M1313 -287q31 0 45 2q24 3 47 11l-55 -142q-14 -6 -50 -10t-49 -4q-102 0 -168 57q-67 55 -67 148q0 87 47 143q48 57 104 86l-131 334h-676l-133 -338h-215l584 1434h205l583 -1434q-101 -52 -141 -98q-43 -46 -43 -99t37 -71q40 -19 76 -19zM702 1208h-8
q-9 -31 -57 -168q-24 -71 -76 -198l-131 -330h537l-131 330q-52 127 -76 198q-55 157 -58 168z" />
    <glyph glyph-name="aogonek" unicode="&#x105;" horiz-adv-x="1171" 
d="M498 123q67 0 131 22q59 20 108 66q45 42 72 106q27 65 27 144v82l-349 -31q-108 -9 -161 -59q-54 -51 -54 -136q0 -50 19 -90q14 -38 47 -61q36 -25 72 -33q45 -10 88 -10zM580 1096q135 0 239 -39q103 -40 162 -135q51 -83 51 -215v-707q-101 -52 -141 -98
q-43 -46 -43 -99t37 -71q40 -19 76 -19q31 0 45 2q25 3 47 11l-56 -142q-14 -6 -49 -10q-36 -4 -49 -4q-102 0 -168 57q-67 55 -67 148q0 90 53 149q48 54 119 90v119q-43 -56 -138 -113q-86 -51 -221 -51q-76 0 -153 23q-77 22 -129 63q-56 44 -86 109q-33 62 -33 153
q0 139 96 232q97 91 295 106l369 31v21q0 48 -13 98q-11 41 -41 74q-33 33 -80 47q-53 16 -122 16q-117 0 -179 -41q-62 -42 -71 -113h-203q9 62 39 121q31 58 88 97q57 42 137 65q83 25 189 25z" />
    <glyph glyph-name="Cacute" unicode="&#x106;" horiz-adv-x="1464" 
d="M1182 379h221q-29 -86 -84 -166q-55 -77 -129 -129q-81 -59 -174 -84q-102 -31 -217 -31q-163 0 -291 58q-135 57 -223 155q-94 101 -142 236q-51 134 -51 299t51 299q48 130 142 235q88 98 223 158q128 55 291 55q230 0 377 -102q147 -105 217 -277h-224
q-49 94 -139 150q-88 55 -231 55q-125 0 -221 -47q-94 -49 -156 -129q-63 -78 -94 -182q-31 -108 -31 -215q0 -108 31 -213q30 -107 94 -185q62 -79 156 -126q95 -50 221 -50q158 0 250 68q92 65 133 168zM604 1567l164 235h266l-235 -235h-195z" />
    <glyph glyph-name="cacute" unicode="&#x107;" horiz-adv-x="1144" 
d="M881 297h206q-48 -153 -161 -238q-122 -90 -310 -90q-127 0 -225 43q-101 43 -168 119q-68 77 -102 180q-37 101 -37 221t37 224q34 101 102 178q67 76 168 119q98 43 225 43q179 0 295 -84q111 -81 166 -224h-213q-27 60 -88 103q-62 41 -160 41q-84 0 -151 -31
q-67 -36 -105 -88q-41 -56 -59 -127q-20 -70 -20 -154t20 -151q18 -72 59 -129q41 -56 105 -86q62 -33 151 -33q108 0 170 45q66 47 95 119zM442 1198l164 236h266l-235 -236h-195z" />
    <glyph glyph-name="Ccircumflex" unicode="&#x108;" horiz-adv-x="1464" 
d="M1182 379h221q-29 -86 -84 -166q-55 -77 -129 -129q-81 -59 -174 -84q-102 -31 -217 -31q-163 0 -291 58q-135 57 -223 155q-94 101 -142 236q-51 134 -51 299t51 299q48 130 142 235q88 98 223 158q128 55 291 55q230 0 377 -102q147 -105 217 -277h-224
q-49 94 -139 150q-88 55 -231 55q-125 0 -221 -47q-94 -49 -156 -129q-63 -78 -94 -182q-31 -108 -31 -215q0 -108 31 -213q30 -107 94 -185q62 -79 156 -126q95 -50 221 -50q158 0 250 68q92 65 133 168zM881 1567l-93 133l-92 -133h-256l236 235h225l236 -235h-256z" />
    <glyph glyph-name="ccircumflex" unicode="&#x109;" horiz-adv-x="1144" 
d="M881 297h206q-48 -153 -161 -238q-122 -90 -310 -90q-127 0 -225 43q-101 43 -168 119q-68 77 -102 180q-37 101 -37 221t37 224q34 101 102 178q67 76 168 119q98 43 225 43q179 0 295 -84q111 -81 166 -224h-213q-27 60 -88 103q-62 41 -160 41q-84 0 -151 -31
q-67 -36 -105 -88q-41 -56 -59 -127q-20 -70 -20 -154t20 -151q18 -72 59 -129q41 -56 105 -86q62 -33 151 -33q108 0 170 45q66 47 95 119zM709 1198l-93 133l-92 -133h-256l236 236h225l236 -236h-256z" />
    <glyph glyph-name="Cdotaccent" unicode="&#x10a;" horiz-adv-x="1464" 
d="M1182 379h221q-29 -86 -84 -166q-55 -77 -129 -129q-81 -59 -174 -84q-102 -31 -217 -31q-163 0 -291 58q-135 57 -223 155q-94 101 -142 236q-51 134 -51 299t51 299q48 130 142 235q88 98 223 158q128 55 291 55q230 0 377 -102q147 -105 217 -277h-224
q-49 94 -139 150q-88 55 -231 55q-125 0 -221 -47q-94 -49 -156 -129q-63 -78 -94 -182q-31 -108 -31 -215q0 -108 31 -213q30 -107 94 -185q62 -79 156 -126q95 -50 221 -50q158 0 250 68q92 65 133 168zM686 1597v205h197v-205h-197z" />
    <glyph glyph-name="cdotaccent" unicode="&#x10b;" horiz-adv-x="1144" 
d="M881 297h206q-48 -153 -161 -238q-122 -90 -310 -90q-127 0 -225 43q-101 43 -168 119q-68 77 -102 180q-37 101 -37 221t37 224q34 101 102 178q67 76 168 119q98 43 225 43q179 0 295 -84q111 -81 166 -224h-213q-27 60 -88 103q-62 41 -160 41q-84 0 -151 -31
q-67 -36 -105 -88q-41 -56 -59 -127q-20 -70 -20 -154t20 -151q18 -72 59 -129q41 -56 105 -86q62 -33 151 -33q108 0 170 45q66 47 95 119zM508 1229v205h197v-205h-197z" />
    <glyph glyph-name="Ccaron" unicode="&#x10c;" horiz-adv-x="1464" 
d="M1182 379h221q-29 -86 -84 -166q-55 -77 -129 -129q-81 -59 -174 -84q-102 -31 -217 -31q-163 0 -291 58q-135 57 -223 155q-94 101 -142 236q-51 134 -51 299t51 299q48 130 142 235q88 98 223 158q128 55 291 55q230 0 377 -102q147 -105 217 -277h-224
q-49 94 -139 150q-88 55 -231 55q-125 0 -221 -47q-94 -49 -156 -129q-63 -78 -94 -182q-31 -108 -31 -215q0 -108 31 -213q30 -107 94 -185q62 -79 156 -126q95 -50 221 -50q158 0 250 68q92 65 133 168zM788 1669l93 133h256l-236 -235h-225l-236 235h256z" />
    <glyph glyph-name="ccaron" unicode="&#x10d;" horiz-adv-x="1144" 
d="M881 297h206q-48 -153 -161 -238q-122 -90 -310 -90q-127 0 -225 43q-101 43 -168 119q-68 77 -102 180q-37 101 -37 221t37 224q34 101 102 178q67 76 168 119q98 43 225 43q179 0 295 -84q111 -81 166 -224h-213q-27 60 -88 103q-62 41 -160 41q-84 0 -151 -31
q-67 -36 -105 -88q-41 -56 -59 -127q-20 -70 -20 -154t20 -151q18 -72 59 -129q41 -56 105 -86q62 -33 151 -33q108 0 170 45q66 47 95 119zM616 1300l93 134h256l-236 -236h-225l-236 236h256z" />
    <glyph glyph-name="Dcaron" unicode="&#x10e;" horiz-adv-x="1478" 
d="M1382 717q0 -170 -47 -303q-48 -136 -135 -226q-89 -92 -219 -139q-128 -49 -295 -49h-502v1434h502q165 0 295 -50q131 -50 219 -141t135 -225q47 -133 47 -301zM389 1260v-1086h277q253 0 383 145q129 144 129 398q0 255 -129 399t-383 144h-277zM717 1669l92 133h256
l-236 -235h-225l-235 235h256z" />
    <glyph glyph-name="dcaron" unicode="&#x10f;" horiz-adv-x="1370" 
d="M936 532q0 80 -21 154q-22 73 -61 127q-41 53 -104 88q-64 31 -142 31q-77 0 -141 -31q-60 -29 -102 -84q-42 -54 -64 -127q-20 -70 -20 -158q0 -87 20 -157q22 -76 64 -127q42 -55 102 -84q64 -31 141 -31q83 0 142 33q59 29 104 86q40 54 61 129q21 71 21 151zM926 0
v143q-48 -79 -135 -125q-88 -49 -213 -49t-211 45q-91 46 -156 123q-64 76 -94 178q-33 98 -33 217q0 120 33 218q31 105 94 180q62 73 156 121q86 45 211 45q124 0 213 -47q88 -49 135 -127v512h196v-1434h-196zM1225 1055l61 379h205l-113 -379h-153z" />
    <glyph glyph-name="Dcroat" unicode="&#x110;" horiz-adv-x="1523" 
d="M25 809h204v625h502q165 0 295 -50q131 -50 219 -141t135 -225q47 -133 47 -301q0 -170 -47 -303q-48 -136 -135 -226q-89 -92 -219 -139q-128 -49 -295 -49h-502v645h-204v164zM434 1260v-451h430v-164h-430v-471h277q253 0 383 145q129 144 129 398q0 255 -129 399
t-383 144h-277z" />
    <glyph glyph-name="dcroat" unicode="&#x111;" horiz-adv-x="1202" 
d="M856 0v123q-39 -60 -123 -107q-86 -47 -194 -47q-119 0 -201 43q-86 40 -141 111q-55 70 -82 158q-29 95 -29 180t29 180q27 88 82 158q53 67 141 112q84 41 201 41q111 0 194 -45q83 -47 123 -108v286h-430v154h430v195h197v-195h143v-154h-143v-1085h-197zM866 461
q0 63 -16 125q-18 58 -55 104q-36 44 -93 72q-56 26 -133 26q-76 0 -127 -26q-56 -29 -88 -72q-39 -48 -53 -104q-18 -58 -18 -125t18 -125q15 -58 53 -105q31 -42 88 -71q52 -27 127 -27t133 27q59 29 93 71q37 45 55 105q16 62 16 125z" />
    <glyph glyph-name="Emacron" unicode="&#x112;" horiz-adv-x="1302" 
d="M184 0v1434h1004v-174h-799v-431h758v-174h-758v-481h799v-174h-1004zM348 1618v154h676v-154h-676z" />
    <glyph glyph-name="emacron" unicode="&#x113;" horiz-adv-x="1196" 
d="M887 297h211q-19 -69 -58 -125q-38 -55 -100 -104q-58 -44 -141 -72q-83 -27 -183 -27q-123 0 -221 43t-168 119q-68 74 -106 180q-37 101 -37 221t37 224q39 105 106 178q65 73 164 119q93 43 215 43q192 0 309 -99q115 -97 168 -258q17 -57 27 -125q8 -57 8 -133v-20
h-837q3 -70 26 -125q24 -62 68 -109q47 -50 104 -75q63 -29 137 -29q60 0 113 16q44 13 82 43q31 24 51 58q18 28 25 57zM606 942q-76 0 -135 -27q-64 -29 -100 -71q-46 -49 -66 -105q-21 -58 -24 -125h641q-3 67 -25 129q-23 63 -59 105q-41 44 -97 70q-59 24 -135 24z
M268 1249v154h676v-154h-676z" />
    <glyph glyph-name="Ebreve" unicode="&#x114;" horiz-adv-x="1302" 
d="M184 0v1434h1004v-174h-799v-431h758v-174h-758v-481h799v-174h-1004zM686 1546q-140 0 -225 82q-90 81 -105 205h146q15 -59 61 -96t123 -37t123 37t61 96h146q-15 -123 -103 -205t-227 -82z" />
    <glyph glyph-name="ebreve" unicode="&#x115;" horiz-adv-x="1196" 
d="M887 297h211q-19 -69 -58 -125q-38 -55 -100 -104q-58 -44 -141 -72q-83 -27 -183 -27q-123 0 -221 43t-168 119q-68 74 -106 180q-37 101 -37 221t37 224q39 105 106 178q65 73 164 119q93 43 215 43q192 0 309 -99q115 -97 168 -258q17 -57 27 -125q8 -57 8 -133v-20
h-837q3 -70 26 -125q24 -62 68 -109q47 -50 104 -75q63 -29 137 -29q60 0 113 16q44 13 82 43q31 24 51 58q18 28 25 57zM606 942q-76 0 -135 -27q-64 -29 -100 -71q-46 -49 -66 -105q-21 -58 -24 -125h641q-3 67 -25 129q-23 63 -59 105q-41 44 -97 70q-59 24 -135 24z
M606 1178q-140 0 -225 82q-90 81 -105 204h146q15 -59 61 -96t123 -37t123 37q47 38 62 96h145q-15 -123 -102 -204q-88 -82 -228 -82z" />
    <glyph glyph-name="Edotaccent" unicode="&#x116;" horiz-adv-x="1302" 
d="M184 0v1434h1004v-174h-799v-431h758v-174h-758v-481h799v-174h-1004zM588 1597v205h196v-205h-196z" />
    <glyph glyph-name="edotaccent" unicode="&#x117;" horiz-adv-x="1196" 
d="M887 297h211q-19 -69 -58 -125q-38 -55 -100 -104q-58 -44 -141 -72q-83 -27 -183 -27q-123 0 -221 43t-168 119q-68 74 -106 180q-37 101 -37 221t37 224q39 105 106 178q65 73 164 119q93 43 215 43q192 0 309 -99q115 -97 168 -258q17 -57 27 -125q8 -57 8 -133v-20
h-837q3 -70 26 -125q24 -62 68 -109q47 -50 104 -75q63 -29 137 -29q60 0 113 16q44 13 82 43q31 24 51 58q18 28 25 57zM606 942q-76 0 -135 -27q-64 -29 -100 -71q-46 -49 -66 -105q-21 -58 -24 -125h641q-3 67 -25 129q-23 63 -59 105q-41 44 -97 70q-59 24 -135 24z
M508 1229v205h197v-205h-197z" />
    <glyph glyph-name="Eogonek" unicode="&#x118;" horiz-adv-x="1302" 
d="M184 0v1434h1004v-174h-799v-431h758v-174h-758v-481h799v-174q-101 -52 -141 -98q-43 -46 -43 -99q0 -54 36 -71q40 -19 76 -19q31 0 45 2q24 3 47 11l-55 -142q-14 -6 -49 -10q-36 -4 -49 -4q-102 0 -168 57q-68 56 -68 148q0 87 45 141q46 55 99 84h-779z" />
    <glyph glyph-name="eogonek" unicode="&#x119;" horiz-adv-x="1196" 
d="M606 942q-76 0 -135 -27q-64 -29 -100 -71q-46 -49 -66 -105q-21 -58 -24 -125h641q-3 67 -25 129q-23 63 -59 105q-41 44 -97 70q-59 24 -135 24zM666 -29q-10 -2 -27 -2h-23q-123 0 -221 43t-168 119q-68 74 -106 180q-37 101 -37 221t37 224q39 105 106 178
q65 73 164 119q93 43 215 43q192 0 309 -99q115 -97 168 -258q17 -57 27 -125q8 -57 8 -133v-20h-837q3 -70 26 -125q24 -62 68 -109q47 -50 104 -75q63 -29 137 -29q60 0 113 16q44 13 82 43q31 24 51 58q18 28 25 57h211q-27 -101 -84 -166q-58 -71 -117 -123
q-53 -47 -102 -100q-45 -45 -45 -105q0 -54 36 -71q40 -19 76 -19q31 0 45 2q25 3 47 11l-55 -142q-14 -6 -49 -10q-36 -4 -49 -4q-102 0 -168 57q-68 56 -68 148q0 63 29 116q25 42 72 80z" />
    <glyph glyph-name="Ecaron" unicode="&#x11a;" horiz-adv-x="1302" 
d="M184 0v1434h1004v-174h-799v-431h758v-174h-758v-481h799v-174h-1004zM686 1669l92 133h256l-235 -235h-226l-235 235h256z" />
    <glyph glyph-name="ecaron" unicode="&#x11b;" horiz-adv-x="1196" 
d="M887 297h211q-19 -69 -58 -125q-38 -55 -100 -104q-58 -44 -141 -72q-83 -27 -183 -27q-123 0 -221 43t-168 119q-68 74 -106 180q-37 101 -37 221t37 224q39 105 106 178q65 73 164 119q93 43 215 43q192 0 309 -99q115 -97 168 -258q17 -57 27 -125q8 -57 8 -133v-20
h-837q3 -70 26 -125q24 -62 68 -109q47 -50 104 -75q63 -29 137 -29q60 0 113 16q44 13 82 43q31 24 51 58q18 28 25 57zM606 942q-76 0 -135 -27q-64 -29 -100 -71q-46 -49 -66 -105q-21 -58 -24 -125h641q-3 67 -25 129q-23 63 -59 105q-41 44 -97 70q-59 24 -135 24z
M606 1300l92 134h256l-235 -236h-225l-236 236h256z" />
    <glyph glyph-name="Gcircumflex" unicode="&#x11c;" horiz-adv-x="1540" 
d="M881 1567l-93 133l-92 -133h-256l236 235h225l236 -235h-256zM799 1290q-125 0 -221 -47q-94 -49 -156 -129q-63 -78 -94 -182q-31 -108 -31 -215q0 -108 31 -213q30 -107 94 -185q62 -79 156 -126q95 -50 221 -50q116 0 200 41t134 103q52 64 73 141q23 84 23 156h-451
v174h645v-758h-153l-21 174q-28 -41 -65 -76q-41 -38 -97 -65q-66 -32 -126 -45q-74 -19 -162 -19q-163 0 -291 58q-135 57 -223 155q-94 101 -142 236q-51 134 -51 299t51 299q48 130 142 235q88 98 223 158q128 55 291 55q230 0 377 -102q147 -105 217 -277h-224
q-49 94 -139 150q-88 55 -231 55z" />
    <glyph glyph-name="gcircumflex" unicode="&#x11d;" horiz-adv-x="1261" 
d="M926 553q0 68 -23 145q-19 64 -63 121q-43 52 -105 82q-64 31 -137 31q-71 0 -131 -31q-61 -31 -100 -82q-46 -59 -64 -121q-22 -74 -22 -145q0 -74 22 -145q18 -62 64 -121q39 -51 100 -82q60 -31 131 -31q73 0 137 31q62 30 105 82q44 57 63 121q23 74 23 145zM915 113
v51q-10 -14 -45 -49q-34 -34 -69 -52q-43 -21 -99 -36q-63 -17 -124 -17q-116 0 -203 43q-91 43 -156 117q-67 76 -100 174q-35 100 -35 209q0 108 35 211q34 96 100 172q65 74 156 117q87 43 203 43q68 0 124 -15q41 -11 99 -39q44 -26 69 -51q35 -35 45 -49v123h197v-952
q0 -126 -35 -222q-34 -93 -100 -159q-63 -63 -158 -99q-88 -32 -211 -32q-86 0 -166 22q-67 18 -133 64q-61 42 -98 96q-40 55 -55 125h204q6 -26 25 -55q20 -29 49 -50q32 -22 74 -34q44 -15 100 -15q168 0 238 99q69 97 69 260zM711 1198l-93 133l-92 -133h-256l236 236
h225l236 -236h-256z" />
    <glyph glyph-name="Gbreve" unicode="&#x11e;" horiz-adv-x="1540" 
d="M788 1546q-140 0 -225 82q-89 80 -104 205h145q15 -58 62 -96q46 -37 122 -37q77 0 123 37q47 38 62 96h145q-15 -124 -102 -205q-88 -82 -228 -82zM799 1290q-125 0 -221 -47q-94 -49 -156 -129q-63 -78 -94 -182q-31 -108 -31 -215q0 -108 31 -213q30 -107 94 -185
q62 -79 156 -126q95 -50 221 -50q116 0 200 41t134 103q52 64 73 141q23 84 23 156h-451v174h645v-758h-153l-21 174q-28 -41 -65 -76q-41 -38 -97 -65q-66 -32 -126 -45q-74 -19 -162 -19q-163 0 -291 58q-135 57 -223 155q-94 101 -142 236q-51 134 -51 299t51 299
q48 130 142 235q88 98 223 158q128 55 291 55q230 0 377 -102q147 -105 217 -277h-224q-49 94 -139 150q-88 55 -231 55z" />
    <glyph glyph-name="gbreve" unicode="&#x11f;" horiz-adv-x="1261" 
d="M926 553q0 68 -23 145q-19 64 -63 121q-43 52 -105 82q-64 31 -137 31q-71 0 -131 -31q-61 -31 -100 -82q-46 -59 -64 -121q-22 -74 -22 -145q0 -74 22 -145q18 -62 64 -121q39 -51 100 -82q60 -31 131 -31q73 0 137 31q62 30 105 82q44 57 63 121q23 74 23 145zM915 113
v51q-10 -14 -45 -49q-34 -34 -69 -52q-43 -21 -99 -36q-63 -17 -124 -17q-116 0 -203 43q-91 43 -156 117q-67 76 -100 174q-35 100 -35 209q0 108 35 211q34 96 100 172q65 74 156 117q87 43 203 43q68 0 124 -15q41 -11 99 -39q44 -26 69 -51q35 -35 45 -49v123h197v-952
q0 -126 -35 -222q-34 -93 -100 -159q-63 -63 -158 -99q-88 -32 -211 -32q-86 0 -166 22q-67 18 -133 64q-61 42 -98 96q-40 55 -55 125h204q6 -26 25 -55q20 -29 49 -50q32 -22 74 -34q44 -15 100 -15q168 0 238 99q69 97 69 260zM618 1178q-140 0 -225 82q-89 80 -104 204
h145q15 -58 62 -96q46 -37 122 -37q77 0 123 37q47 38 62 96h145q-15 -123 -102 -204q-88 -82 -228 -82z" />
    <glyph glyph-name="Gdotaccent" unicode="&#x120;" horiz-adv-x="1540" 
d="M690 1597v205h197v-205h-197zM799 1290q-125 0 -221 -47q-94 -49 -156 -129q-63 -78 -94 -182q-31 -108 -31 -215q0 -108 31 -213q30 -107 94 -185q62 -79 156 -126q95 -50 221 -50q116 0 200 41t134 103q52 64 73 141q23 84 23 156h-451v174h645v-758h-153l-21 174
q-28 -41 -65 -76q-41 -38 -97 -65q-66 -32 -126 -45q-74 -19 -162 -19q-163 0 -291 58q-135 57 -223 155q-94 101 -142 236q-51 134 -51 299t51 299q48 130 142 235q88 98 223 158q128 55 291 55q230 0 377 -102q147 -105 217 -277h-224q-49 94 -139 150q-88 55 -231 55z
" />
    <glyph glyph-name="gdotaccent" unicode="&#x121;" horiz-adv-x="1261" 
d="M926 553q0 68 -23 145q-19 64 -63 121q-43 52 -105 82q-64 31 -137 31q-71 0 -131 -31q-61 -31 -100 -82q-46 -59 -64 -121q-22 -74 -22 -145q0 -74 22 -145q18 -62 64 -121q39 -51 100 -82q60 -31 131 -31q73 0 137 31q62 30 105 82q44 57 63 121q23 74 23 145zM915 113
v51q-10 -14 -45 -49q-34 -34 -69 -52q-43 -21 -99 -36q-63 -17 -124 -17q-116 0 -203 43q-91 43 -156 117q-67 76 -100 174q-35 100 -35 209q0 108 35 211q34 96 100 172q65 74 156 117q87 43 203 43q68 0 124 -15q41 -11 99 -39q44 -26 69 -51q35 -35 45 -49v123h197v-952
q0 -126 -35 -222q-34 -93 -100 -159q-63 -63 -158 -99q-88 -32 -211 -32q-86 0 -166 22q-67 18 -133 64q-61 42 -98 96q-40 55 -55 125h204q6 -26 25 -55q20 -29 49 -50q32 -22 74 -34q44 -15 100 -15q168 0 238 99q69 97 69 260zM516 1229v205h197v-205h-197z" />
    <glyph glyph-name="uni0122" unicode="&#x122;" horiz-adv-x="1540" 
d="M696 -317v204h197v-204l-133 -205h-74l92 205h-82zM799 1290q-125 0 -221 -47q-94 -49 -156 -129q-63 -78 -94 -182q-31 -108 -31 -215q0 -108 31 -213q30 -107 94 -185q62 -79 156 -126q95 -50 221 -50q116 0 200 41t134 103q52 64 73 141q23 84 23 156h-451v174h645
v-758h-153l-21 174q-28 -41 -65 -76q-41 -38 -97 -65q-66 -32 -126 -45q-74 -19 -162 -19q-163 0 -291 58q-135 57 -223 155q-94 101 -142 236q-51 134 -51 299t51 299q48 130 142 235q88 98 223 158q128 55 291 55q230 0 377 -102q147 -105 217 -277h-224q-49 94 -139 150
q-88 55 -231 55z" />
    <glyph glyph-name="uni0123" unicode="&#x123;" horiz-adv-x="1261" 
d="M926 553q0 68 -23 145q-19 64 -63 121q-43 52 -105 82q-64 31 -137 31q-71 0 -131 -31q-61 -31 -100 -82q-46 -59 -64 -121q-22 -74 -22 -145q0 -74 22 -145q18 -62 64 -121q39 -51 100 -82q60 -31 131 -31q73 0 137 31q62 30 105 82q44 57 63 121q23 74 23 145zM915 113
v51q-10 -14 -45 -49q-34 -34 -69 -52q-43 -21 -99 -36q-63 -17 -124 -17q-116 0 -203 43q-91 43 -156 117q-67 76 -100 174q-35 100 -35 209q0 108 35 211q34 96 100 172q65 74 156 117q87 43 203 43q68 0 124 -15q41 -11 99 -39q44 -26 69 -51q35 -35 45 -49v123h197v-952
q0 -126 -35 -222q-34 -93 -100 -159q-63 -63 -158 -99q-88 -32 -211 -32q-86 0 -166 22q-67 18 -133 64q-61 42 -98 96q-40 55 -55 125h204q6 -26 25 -55q20 -29 49 -50q32 -22 74 -34q44 -15 100 -15q168 0 238 99q69 97 69 260zM721 1403v-205h-197v205l133 205h74
l-92 -205h82z" />
    <glyph glyph-name="Hcircumflex" unicode="&#x124;" horiz-adv-x="1536" 
d="M1352 1434v-1434h-205v655h-758v-655h-205v1434h205v-605h758v605h205zM860 1567l-92 133l-92 -133h-256l235 235h226l235 -235h-256z" />
    <glyph glyph-name="hcircumflex" unicode="&#x125;" horiz-adv-x="1224" 
d="M346 1434v-512q51 83 148 131q90 43 200 43q187 0 289 -105t102 -305v-686h-196v666q0 131 -58 198q-59 68 -188 68q-63 0 -115 -21q-53 -20 -94 -61q-43 -46 -63 -105q-25 -64 -25 -141v-604h-196v1434h196zM342 1567l-92 133l-92 -133h-256l235 235h225l236 -235h-256z
" />
    <glyph glyph-name="Hbar" unicode="&#x126;" horiz-adv-x="1560" 
d="M43 1044v164h154v226h204v-226h758v226h205v-226h154v-164h-154v-1044h-205v655h-758v-655h-204v1044h-154zM401 829h758v215h-758v-215z" />
    <glyph glyph-name="hbar" unicode="&#x127;" horiz-adv-x="1234" 
d="M358 1434v-195h428v-154h-428v-307q51 83 148 131q90 43 201 43q187 0 288 -104q103 -106 103 -305v-543h-197v522q0 133 -57 199q-58 67 -189 67q-64 0 -114 -20q-55 -21 -95 -61q-43 -46 -63 -105q-25 -64 -25 -141v-461h-196v1085h-144v154h144v195h196z" />
    <glyph glyph-name="Itilde" unicode="&#x128;" horiz-adv-x="573" 
d="M389 0h-205v1434h205v-1434zM51 1577h-143q0 65 20 109q17 45 52 75q40 35 75 47q41 15 88 15q53 0 99 -21q40 -18 82 -45q45 -32 69 -47q29 -20 58 -20q41 0 55 26q16 29 16 66h144q0 -58 -19 -107q-24 -53 -53 -78q-36 -31 -76 -45q-46 -16 -88 -16q-54 0 -98 20
q-41 19 -82 48q-43 28 -68 45q-33 20 -59 20q-40 0 -55 -27q-17 -31 -17 -65z" />
    <glyph glyph-name="itilde" unicode="&#x129;" 
d="M150 0v1065h196v-1065h-196zM12 1208h-143q0 65 20 109q18 46 52 76q40 35 75 47q38 14 88 14q55 0 99 -20q40 -18 82 -45q54 -39 69 -48q29 -20 58 -20q40 0 55 27q16 29 16 65h144q0 -57 -19 -106q-24 -53 -53 -78q-36 -31 -76 -45q-49 -17 -88 -17q-51 0 -98 21
q-45 20 -82 47q-43 28 -68 45q-33 20 -59 20q-41 0 -55 -26q-17 -31 -17 -66z" />
    <glyph glyph-name="Imacron" unicode="&#x12a;" horiz-adv-x="573" 
d="M389 0h-205v1434h205v-1434zM-51 1618v154h676v-154h-676z" />
    <glyph glyph-name="imacron" unicode="&#x12b;" 
d="M150 0v1065h196v-1065h-196zM-90 1249v154h676v-154h-676z" />
    <glyph glyph-name="Ibreve" unicode="&#x12c;" horiz-adv-x="573" 
d="M389 0h-205v1434h205v-1434zM287 1546q-141 0 -226 82q-89 80 -104 205h145q15 -58 62 -96q46 -37 123 -37t123 37t61 96h145q-15 -124 -102 -205q-88 -82 -227 -82z" />
    <glyph glyph-name="ibreve" unicode="&#x12d;" 
d="M150 0v1065h196v-1065h-196zM248 1178q-140 0 -225 82q-90 81 -105 204h145q15 -58 62 -96q46 -37 123 -37t123 37t61 96h146q-14 -122 -103 -204q-88 -82 -227 -82z" />
    <glyph glyph-name="Iogonek" unicode="&#x12e;" horiz-adv-x="573" 
d="M317 -287q31 0 45 2q26 4 48 11l-56 -142q-14 -6 -49 -10q-36 -4 -49 -4q-102 0 -168 57q-68 56 -68 148q0 91 52 149q55 58 112 86v1424h205v-1434q-101 -52 -141 -98q-43 -46 -43 -99t37 -71q40 -19 75 -19z" />
    <glyph glyph-name="iogonek" unicode="&#x12f;" 
d="M274 -287q31 0 45 2q26 4 48 11l-56 -142q-14 -6 -49 -10q-36 -4 -49 -4q-102 0 -168 57q-68 56 -68 148q0 91 52 149q54 57 121 90v1051h196v-1065q-101 -52 -141 -98q-43 -46 -43 -99t37 -71q40 -19 75 -19zM150 1229v205h196v-205h-196z" />
    <glyph glyph-name="Idotaccent" unicode="&#x130;" horiz-adv-x="573" 
d="M389 0h-205v1434h205v-1434zM190 1597v205h197v-205h-197z" />
    <glyph glyph-name="dotlessi" unicode="&#x131;" 
d="M150 0v1065h196v-1065h-196z" />
    <glyph glyph-name="IJ" unicode="&#x132;" horiz-adv-x="1318" 
d="M567 0h119q146 0 201 70q55 67 55 206v1158h205v-1158q0 -232 -119 -339q-120 -111 -342 -111h-119v174zM389 0h-205v1434h205v-1434z" />
    <glyph glyph-name="ij" unicode="&#x133;" horiz-adv-x="976" 
d="M150 0v1065h196v-1065h-196zM150 1229v205h194v-205h-194zM631 1229v205h196v-205h-196zM631 -92v1157h196v-1157q0 -140 -79 -207q-82 -70 -230 -70h-172v160h162q67 0 96 29q27 27 27 88z" />
    <glyph glyph-name="Jcircumflex" unicode="&#x134;" horiz-adv-x="952" 
d="M772 1567l-92 133l-92 -133h-256l235 235h226l235 -235h-256zM49 174h273q145 0 200 70q56 68 56 207v983h204v-983q0 -234 -118 -340q-120 -111 -342 -111h-273v174z" />
    <glyph glyph-name="jcircumflex" unicode="&#x135;" horiz-adv-x="503" 
d="M348 1198l-92 133l-92 -133h-256l235 236h226l235 -236h-256zM158 -92v1157h196v-1157q0 -139 -80 -207q-82 -70 -229 -70h-92v160h82q67 0 96 29q27 27 27 88z" />
    <glyph glyph-name="uni0136" unicode="&#x136;" horiz-adv-x="1300" 
d="M389 0h-205v1434h205v-635l625 635h256l-697 -697l738 -737h-277l-645 666v-666zM604 -317v204h197v-204l-133 -205h-74l92 205h-82z" />
    <glyph glyph-name="uni0137" unicode="&#x137;" horiz-adv-x="1067" 
d="M150 0v1434h196v-824l445 455h253l-512 -512l553 -553h-268l-471 492v-492h-196zM463 -317v204h196v-204l-133 -205h-73l92 205h-82z" />
    <glyph glyph-name="kgreenlandic" unicode="&#x138;" horiz-adv-x="1067" 
d="M150 0v1065h196v-455l445 455h253l-512 -512l553 -553h-268l-471 492v-492h-196z" />
    <glyph glyph-name="Lacute" unicode="&#x139;" horiz-adv-x="1177" 
d="M184 0v1434h205v-1260h758v-174h-963zM123 1567l164 235h266l-236 -235h-194z" />
    <glyph glyph-name="lacute" unicode="&#x13a;" 
d="M150 0v1434h196v-1434h-196zM98 1567l164 235h266l-235 -235h-195z" />
    <glyph glyph-name="uni013B" unicode="&#x13b;" horiz-adv-x="1177" 
d="M184 0v1434h205v-1260h758v-174h-963zM573 -317v204h197v-204l-133 -205h-74l92 205h-82z" />
    <glyph glyph-name="uni013C" unicode="&#x13c;" 
d="M150 0v1434h196v-1434h-196zM150 -317v204h196v-204l-133 -205h-74l92 205h-81z" />
    <glyph glyph-name="Lcaron" unicode="&#x13d;" horiz-adv-x="1177" 
d="M184 0v1434h205v-1260h758v-174h-963zM584 1055l61 379h205l-113 -379h-153z" />
    <glyph glyph-name="lcaron" unicode="&#x13e;" horiz-adv-x="593" 
d="M150 0v1434h196v-1434h-196zM449 1055l61 379h205l-113 -379h-153z" />
    <glyph glyph-name="Ldot" unicode="&#x13f;" horiz-adv-x="1179" 
d="M184 0v1434h205v-1260h758v-174h-963zM782 637v205h197v-205h-197z" />
    <glyph glyph-name="ldot" unicode="&#x140;" horiz-adv-x="708" 
d="M150 0v1434h196v-1434h-196zM504 616v205h196v-205h-196z" />
    <glyph glyph-name="Lslash" unicode="&#x141;" horiz-adv-x="1247" 
d="M59 563l195 129v742h205v-605l368 246v-215l-368 -246v-440h758v-174h-963v477l-195 -129v215z" />
    <glyph glyph-name="lslash" unicode="&#x142;" horiz-adv-x="753" 
d="M61 645l205 137v652h197v-521l244 162v-215l-244 -162v-698h-197v567l-205 -137v215z" />
    <glyph glyph-name="Nacute" unicode="&#x143;" horiz-adv-x="1556" 
d="M1157 0l-493 711q-131 187 -179 266q-59 91 -98 160h-8q2 -33 6 -95q1 -16 2 -47.5t2 -48.5v-112v-148v-686h-205v1434h215l494 -711q110 -156 180 -264q74 -122 96 -162h9q-1 18 -3.5 49t-3.5 45q-2 31 -2 96q-2 35 -2 115v146v686h205v-1434h-215zM604 1567l164 235
h266l-235 -235h-195z" />
    <glyph glyph-name="nacute" unicode="&#x144;" horiz-adv-x="1222" 
d="M346 1065v-143q51 83 148 131q90 43 200 43q187 0 289 -105q100 -103 100 -305v-686h-196v666q0 131 -58 198q-59 68 -186 68q-63 0 -115 -21q-53 -20 -94 -61q-43 -46 -63 -105q-25 -64 -25 -141v-604h-196v1065h196zM446 1198l164 236h267l-236 -236h-195z" />
    <glyph glyph-name="uni0145" unicode="&#x145;" horiz-adv-x="1556" 
d="M1157 0l-493 711q-131 187 -179 266q-59 91 -98 160h-8q2 -33 6 -95q1 -16 2 -47.5t2 -48.5v-112v-148v-686h-205v1434h215l494 -711q110 -156 180 -264q74 -122 96 -162h9q-1 18 -3.5 49t-3.5 45q-2 31 -2 96q-2 35 -2 115v146v686h205v-1434h-215zM682 -317v204h197
v-204l-134 -205h-73l92 205h-82z" />
    <glyph glyph-name="uni0146" unicode="&#x146;" horiz-adv-x="1222" 
d="M346 1065v-143q51 83 148 131q90 43 200 43q187 0 289 -105q100 -103 100 -305v-686h-196v666q0 131 -58 198q-59 68 -186 68q-63 0 -115 -21q-53 -20 -94 -61q-43 -46 -63 -105q-25 -64 -25 -141v-604h-196v1065h196zM518 -317v204h197v-204l-133 -205h-74l92 205h-82z
" />
    <glyph glyph-name="Ncaron" unicode="&#x147;" horiz-adv-x="1556" 
d="M1157 0l-493 711q-131 187 -179 266q-59 91 -98 160h-8q2 -33 6 -95q1 -16 2 -47.5t2 -48.5v-112v-148v-686h-205v1434h215l494 -711q110 -156 180 -264q74 -122 96 -162h9q-1 18 -3.5 49t-3.5 45q-2 31 -2 96q-2 35 -2 115v146v686h205v-1434h-215zM778 1669l92 133h256
l-235 -235h-225l-236 235h256z" />
    <glyph glyph-name="ncaron" unicode="&#x148;" horiz-adv-x="1222" 
d="M346 1065v-143q51 83 148 131q90 43 200 43q187 0 289 -105q100 -103 100 -305v-686h-196v666q0 131 -58 198q-59 68 -186 68q-63 0 -115 -21q-53 -20 -94 -61q-43 -46 -63 -105q-25 -64 -25 -141v-604h-196v1065h196zM616 1300l93 134h256l-236 -236h-225l-236 236h256z
" />
    <glyph glyph-name="napostrophe" unicode="&#x149;" horiz-adv-x="1339" 
d="M463 1065v-143q52 84 147 131q90 43 201 43q187 0 289 -105q100 -103 100 -305v-686h-196v666q0 131 -58 198q-59 68 -186 68q-62 0 -115 -21q-53 -20 -94 -61q-44 -48 -64 -105q-24 -61 -24 -141v-604h-197v1065h197zM70 1229v205h196v-205l-133 -205h-74l93 205h-82z
" />
    <glyph glyph-name="Eng" unicode="&#x14a;" horiz-adv-x="1556" 
d="M410 1434l485 -695q59 -83 102 -147q13 -19 38.5 -58t37.5 -57q40 -60 55 -90q6 -12 41 -70h9q-4 66 -4 95q-1 17 -2.5 49t-2.5 47q-2 35 -2 115v145v666h205v-1465q0 -103 -26 -168q-27 -70 -76 -110q-50 -44 -121 -62q-74 -18 -166 -18h-190v174h190q57 0 90 8
q35 9 57 31q20 20 29 57q8 31 8 88v31l-505 725q-51 72 -103 149q-50 69 -76 115q-37 53 -55 88q-6 12 -41 70h-8q1 -16 2 -47t2 -47t2 -48t2 -49q2 -35 2 -112v-148v-696h-205v1434h226z" />
    <glyph glyph-name="eng" unicode="&#x14b;" horiz-adv-x="1222" 
d="M887 -92v758q0 131 -58 198q-59 68 -186 68q-63 0 -115 -21q-53 -20 -94 -61q-43 -46 -63 -105q-25 -64 -25 -141v-604h-196v1065h196v-143q51 83 148 131q90 43 200 43q187 0 289 -105q100 -103 100 -305v-778q0 -140 -79 -207q-82 -70 -230 -70h-92v160h82q67 0 96 29
q27 27 27 88z" />
    <glyph glyph-name="Omacron" unicode="&#x14c;" horiz-adv-x="1597" 
d="M92 717q0 165 51 299q52 133 146 235q88 98 223 158q128 55 287 55q157 0 288 -55q134 -61 224 -158q91 -102 143 -235q51 -134 51 -299t-51 -299q-53 -138 -143 -236q-90 -97 -224 -155q-131 -58 -288 -58q-159 0 -287 58q-135 57 -223 155q-93 98 -146 236
q-51 134 -51 299zM297 717q0 -115 33 -213q37 -112 96 -185q62 -79 156 -126q95 -50 217 -50t217 50q93 46 158 126q58 75 94 185q32 95 32 213t-32 215q-36 107 -94 182q-65 80 -158 129q-96 47 -217 47t-217 -47q-94 -49 -156 -129q-59 -73 -96 -182q-33 -100 -33 -215z
M461 1618v154h676v-154h-676z" />
    <glyph glyph-name="omacron" unicode="&#x14d;" horiz-adv-x="1249" 
d="M82 532q0 123 39 224q41 103 110 178q71 77 170 119q101 43 224 43q122 0 223 -43q103 -44 172 -119q66 -71 108 -178q39 -101 39 -224t-39 -221q-42 -108 -108 -180q-69 -75 -172 -119q-101 -43 -223 -43q-123 0 -224 43q-99 42 -170 119q-70 76 -110 180
q-39 98 -39 221zM971 532q0 74 -23 154q-21 71 -65 127q-45 54 -109 88q-67 31 -149 31q-81 0 -148 -31q-67 -36 -108 -88q-47 -56 -68 -127q-22 -77 -22 -154t22 -151q21 -73 68 -129q44 -56 108 -86q62 -33 148 -33q87 0 149 33q61 28 109 86q44 57 65 129q23 77 23 151z
M287 1249v154h676v-154h-676z" />
    <glyph glyph-name="Obreve" unicode="&#x14e;" horiz-adv-x="1597" 
d="M92 717q0 165 51 299q52 133 146 235q88 98 223 158q128 55 287 55q157 0 288 -55q134 -61 224 -158q91 -102 143 -235q51 -134 51 -299t-51 -299q-53 -138 -143 -236q-90 -97 -224 -155q-131 -58 -288 -58q-159 0 -287 58q-135 57 -223 155q-93 98 -146 236
q-51 134 -51 299zM297 717q0 -115 33 -213q37 -112 96 -185q62 -79 156 -126q95 -50 217 -50t217 50q93 46 158 126q58 75 94 185q32 95 32 213t-32 215q-36 107 -94 182q-65 80 -158 129q-96 47 -217 47t-217 -47q-94 -49 -156 -129q-59 -73 -96 -182q-33 -100 -33 -215z
M799 1546q-141 0 -226 82q-89 80 -104 205h145q15 -58 62 -96q46 -37 123 -37t123 37t61 96h145q-15 -124 -102 -205q-88 -82 -227 -82z" />
    <glyph glyph-name="obreve" unicode="&#x14f;" horiz-adv-x="1249" 
d="M82 532q0 123 39 224q41 103 110 178q71 77 170 119q101 43 224 43q122 0 223 -43q103 -44 172 -119q66 -71 108 -178q39 -101 39 -224t-39 -221q-42 -108 -108 -180q-69 -75 -172 -119q-101 -43 -223 -43q-123 0 -224 43q-99 42 -170 119q-70 76 -110 180
q-39 98 -39 221zM971 532q0 74 -23 154q-21 71 -65 127q-45 54 -109 88q-67 31 -149 31q-81 0 -148 -31q-67 -36 -108 -88q-47 -56 -68 -127q-22 -77 -22 -154t22 -151q21 -73 68 -129q44 -56 108 -86q62 -33 148 -33q87 0 149 33q61 28 109 86q44 57 65 129q23 77 23 151z
M625 1178q-141 0 -226 82q-89 80 -104 204h145q15 -58 62 -96q46 -37 123 -37t123 37t61 96h145q-15 -123 -102 -204q-88 -82 -227 -82z" />
    <glyph glyph-name="Ohungarumlaut" unicode="&#x150;" horiz-adv-x="1597" 
d="M92 717q0 165 51 299q52 133 146 235q88 98 223 158q128 55 287 55q157 0 288 -55q134 -61 224 -158q91 -102 143 -235q51 -134 51 -299t-51 -299q-53 -138 -143 -236q-90 -97 -224 -155q-131 -58 -288 -58q-159 0 -287 58q-135 57 -223 155q-93 98 -146 236
q-51 134 -51 299zM297 717q0 -115 33 -213q37 -112 96 -185q62 -79 156 -126q95 -50 217 -50t217 50q93 46 158 126q58 75 94 185q32 95 32 213t-32 215q-36 107 -94 182q-65 80 -158 129q-96 47 -217 47t-217 -47q-94 -49 -156 -129q-59 -73 -96 -182q-33 -100 -33 -215z
M481 1567l133 235h236l-184 -235h-185zM819 1567l133 235h236l-184 -235h-185z" />
    <glyph glyph-name="ohungarumlaut" unicode="&#x151;" horiz-adv-x="1249" 
d="M82 532q0 123 39 224q41 103 110 178q71 77 170 119q101 43 224 43q122 0 223 -43q103 -44 172 -119q66 -71 108 -178q39 -101 39 -224t-39 -221q-42 -108 -108 -180q-69 -75 -172 -119q-101 -43 -223 -43q-123 0 -224 43q-99 42 -170 119q-70 76 -110 180
q-39 98 -39 221zM971 532q0 74 -23 154q-21 71 -65 127q-45 54 -109 88q-67 31 -149 31q-81 0 -148 -31q-67 -36 -108 -88q-47 -56 -68 -127q-22 -77 -22 -154t22 -151q21 -73 68 -129q44 -56 108 -86q62 -33 148 -33q87 0 149 33q61 28 109 86q44 57 65 129q23 77 23 151z
M307 1198l133 236h236l-184 -236h-185zM645 1198l133 236h236l-185 -236h-184z" />
    <glyph glyph-name="OE" unicode="&#x152;" horiz-adv-x="2308" 
d="M1231 0v174q-76 -91 -197 -147q-119 -58 -274 -58t-277 58q-127 57 -209 155q-86 96 -133 236q-47 139 -47 299t47 299q47 136 133 235q82 97 209 158q122 55 277 55t274 -55q122 -60 197 -149v174h962v-174h-757v-431h716v-174h-716v-481h757v-174h-962zM299 717
q0 -103 29 -213q28 -109 84 -185q58 -79 147 -126q89 -50 211 -50q124 0 213 50q85 45 145 126q59 80 86 185q27 102 27 213q0 110 -27 215q-27 102 -86 182q-60 81 -145 129q-89 47 -213 47q-122 0 -211 -47q-89 -49 -147 -129q-56 -76 -84 -182q-29 -113 -29 -215z" />
    <glyph glyph-name="oe" unicode="&#x153;" horiz-adv-x="2084" 
d="M1495 942q-77 0 -135 -27q-64 -29 -100 -71q-46 -49 -66 -105q-22 -61 -25 -125h641q-3 70 -24 129q-22 61 -60 105q-42 45 -96 70q-58 24 -135 24zM971 532q0 74 -23 154q-21 71 -65 127q-45 54 -109 88q-67 31 -149 31q-81 0 -148 -31q-67 -36 -108 -88
q-47 -56 -68 -127q-22 -77 -22 -154t22 -151q21 -73 68 -129q44 -56 108 -86q62 -33 148 -33q87 0 149 33q61 28 109 86q44 57 65 129q23 77 23 151zM1505 -31q-145 0 -256 60q-111 59 -182 164q-70 -105 -180 -162q-115 -62 -262 -62q-123 0 -224 43q-99 42 -170 119
q-70 76 -110 180q-39 98 -39 221t39 224q41 103 110 178q71 77 170 119q101 43 224 43q145 0 262 -60q112 -61 180 -166q64 104 176 166q114 60 252 60q192 0 309 -99q115 -97 168 -258q17 -57 27 -125q8 -57 8 -133v-20h-838q3 -67 27 -125q24 -62 68 -109q47 -50 104 -75
q63 -29 137 -29q112 0 174 45q63 42 90 98h218q-52 -130 -179 -213q-128 -84 -303 -84z" />
    <glyph glyph-name="Racute" unicode="&#x154;" horiz-adv-x="1423" 
d="M389 788h481q131 0 195 64q61 64 61 172t-61 172q-64 64 -195 64h-481v-472zM870 614h-102l614 -614h-276l-604 614h-113v-614h-205v1434h686q216 0 340 -109q121 -109 121 -301t-121 -301q-124 -109 -340 -109zM543 1567l164 235h266l-236 -235h-194z" />
    <glyph glyph-name="racute" unicode="&#x155;" horiz-adv-x="727" 
d="M203 1198l164 236h266l-236 -236h-194zM688 901h-106q-109 0 -172 -63q-64 -64 -64 -203v-635h-196v1065h196v-123q40 69 105 107q62 36 182 36h55v-184z" />
    <glyph glyph-name="uni0156" unicode="&#x156;" horiz-adv-x="1423" 
d="M389 788h481q131 0 195 64q61 64 61 172t-61 172q-64 64 -195 64h-481v-472zM870 614h-102l614 -614h-276l-604 614h-113v-614h-205v1434h686q216 0 340 -109q121 -109 121 -301t-121 -301q-124 -109 -340 -109zM645 -317v204h197v-204l-133 -205h-74l92 205h-82z" />
    <glyph glyph-name="uni0157" unicode="&#x157;" horiz-adv-x="727" 
d="M150 -317v204h196v-204l-133 -205h-74l92 205h-81zM688 901h-106q-109 0 -172 -63q-64 -64 -64 -203v-635h-196v1065h196v-123q40 69 105 107q62 36 182 36h55v-184z" />
    <glyph glyph-name="Rcaron" unicode="&#x158;" horiz-adv-x="1423" 
d="M389 788h481q131 0 195 64q61 64 61 172t-61 172q-64 64 -195 64h-481v-472zM870 614h-102l614 -614h-276l-604 614h-113v-614h-205v1434h686q216 0 340 -109q121 -109 121 -301t-121 -301q-124 -109 -340 -109zM707 1669l92 133h256l-236 -235h-225l-236 235h256z" />
    <glyph glyph-name="rcaron" unicode="&#x159;" horiz-adv-x="727" 
d="M387 1300l92 134h256l-235 -236h-226l-235 236h256zM688 901h-106q-109 0 -172 -63q-64 -64 -64 -203v-635h-196v1065h196v-123q40 69 105 107q62 36 182 36h55v-184z" />
    <glyph glyph-name="Sacute" unicode="&#x15a;" horiz-adv-x="1320" 
d="M664 1464q146 0 247 -34q98 -36 164 -93q64 -55 94 -120q31 -70 37 -132h-209q-3 38 -22 82q-20 39 -62 70q-43 32 -102 49q-70 17 -147 17q-91 0 -162 -19q-65 -17 -111 -49q-42 -29 -61 -72q-21 -43 -21 -88q0 -115 80 -168q79 -55 217 -76l164 -24q89 -13 191 -45
q80 -25 147 -76q60 -45 96 -119q33 -67 33 -172q0 -95 -37 -170q-38 -77 -108 -135q-73 -58 -181 -88q-103 -33 -247 -33q-149 0 -252 33q-116 37 -181 88q-71 56 -108 131q-40 72 -43 158h205q6 -116 102 -182q97 -66 277 -66q182 0 276 70q94 67 94 178q0 63 -20 102
t-62 64q-40 24 -96 39q-51 13 -127 26l-164 27q-217 35 -332 133q-122 101 -122 291q0 84 34 156q36 76 103 129q64 52 172 88q102 30 244 30zM463 1567l164 235h266l-236 -235h-194z" />
    <glyph glyph-name="sacute" unicode="&#x15b;" horiz-adv-x="1067" 
d="M571 436l-96 15q-79 11 -151 36q-66 22 -119 66q-55 43 -80 96q-29 60 -29 133q0 138 113 226t328 88q111 0 190 -27q78 -27 133 -72q51 -45 78 -98q26 -61 29 -111h-193q-3 67 -63 115q-58 43 -179 43q-129 0 -184 -43q-57 -42 -57 -104q0 -79 59 -109q58 -34 160 -49
l98 -14q80 -12 150 -33q69 -22 119 -57q51 -36 81 -95q29 -63 29 -145q0 -149 -117 -238q-122 -90 -333 -90q-109 0 -195 25q-87 24 -143 69q-60 45 -90 103t-33 131h198q3 -92 72 -133q67 -43 191 -43q128 0 192 43t64 117q0 38 -17 69q-14 26 -45 43q-42 21 -69 27
q-49 11 -91 16zM365 1198l163 236h267l-236 -236h-194z" />
    <glyph glyph-name="Scircumflex" unicode="&#x15c;" horiz-adv-x="1320" 
d="M664 1464q146 0 247 -34q98 -36 164 -93q64 -55 94 -120q31 -70 37 -132h-209q-3 38 -22 82q-20 39 -62 70q-43 32 -102 49q-70 17 -147 17q-91 0 -162 -19q-65 -17 -111 -49q-42 -29 -61 -72q-21 -43 -21 -88q0 -115 80 -168q79 -55 217 -76l164 -24q89 -13 191 -45
q80 -25 147 -76q60 -45 96 -119q33 -67 33 -172q0 -95 -37 -170q-38 -77 -108 -135q-73 -58 -181 -88q-103 -33 -247 -33q-149 0 -252 33q-116 37 -181 88q-71 56 -108 131q-40 72 -43 158h205q6 -116 102 -182q97 -66 277 -66q182 0 276 70q94 67 94 178q0 63 -20 102
t-62 64q-40 24 -96 39q-51 13 -127 26l-164 27q-217 35 -332 133q-122 101 -122 291q0 84 34 156q36 76 103 129q64 52 172 88q102 30 244 30zM735 1567l-92 133l-92 -133h-256l235 235h226l235 -235h-256z" />
    <glyph glyph-name="scircumflex" unicode="&#x15d;" horiz-adv-x="1067" 
d="M571 436l-96 15q-79 11 -151 36q-66 22 -119 66q-55 43 -80 96q-29 60 -29 133q0 138 113 226t328 88q111 0 190 -27q78 -27 133 -72q51 -45 78 -98q26 -61 29 -111h-193q-3 67 -63 115q-58 43 -179 43q-129 0 -184 -43q-57 -42 -57 -104q0 -79 59 -109q58 -34 160 -49
l98 -14q80 -12 150 -33q69 -22 119 -57q51 -36 81 -95q29 -63 29 -145q0 -149 -117 -238q-122 -90 -333 -90q-109 0 -195 25q-87 24 -143 69q-60 45 -90 103t-33 131h198q3 -92 72 -133q67 -43 191 -43q128 0 192 43t64 117q0 38 -17 69q-14 26 -45 43q-42 21 -69 27
q-49 11 -91 16zM631 1198l-92 133l-93 -133h-256l236 236h225l236 -236h-256z" />
    <glyph glyph-name="Scedilla" unicode="&#x15e;" horiz-adv-x="1320" 
d="M664 1464q146 0 247 -34q98 -36 164 -93q64 -55 94 -120q31 -70 37 -132h-209q-3 38 -22 82q-20 39 -62 70q-43 32 -102 49q-70 17 -147 17q-91 0 -162 -19q-65 -17 -111 -49q-42 -29 -61 -72q-21 -43 -21 -88q0 -115 80 -168q79 -55 217 -76l164 -24q89 -13 191 -45
q80 -25 147 -76q60 -45 96 -119q33 -67 33 -172q0 -77 -29 -153q-31 -73 -88 -127t-143 -90q-87 -38 -199 -50l-65 -65q71 -3 114 -49q41 -47 41 -117q0 -35 -16 -72q-15 -34 -43 -59q-26 -23 -66 -39q-35 -14 -79 -14q-74 0 -127 41q-56 41 -68 102h129q15 -41 66 -41
q34 0 59 25q22 22 22 57q0 34 -22 59q-26 23 -59 23q-35 0 -60 -25l-78 78l90 90q-130 6 -231 41q-104 36 -164 88q-67 55 -102 127q-36 74 -39 154h205q6 -116 102 -182q97 -66 277 -66q182 0 276 70q94 67 94 178q0 63 -20 102t-62 64q-40 24 -96 39q-51 13 -127 26
l-164 27q-217 35 -332 133q-122 101 -122 291q0 84 34 156q36 76 103 129q64 52 172 88q102 30 244 30z" />
    <glyph glyph-name="scedilla" unicode="&#x15f;" horiz-adv-x="1067" 
d="M535 -338q34 0 59 25q22 22 22 57q0 34 -22 59q-26 23 -59 23q-35 0 -60 -25l-78 78l92 92q-194 9 -303 101q-107 88 -110 225h198q3 -92 72 -133q67 -43 191 -43q128 0 192 43t64 117q0 38 -17 69q-14 26 -45 43q-42 21 -69 27q-49 11 -91 16l-96 15q-79 11 -151 36
q-66 22 -119 66q-55 43 -80 96q-29 60 -29 133q0 138 113 226t328 88q111 0 190 -27q78 -27 133 -72q51 -45 78 -98q26 -61 29 -111h-193q-3 67 -63 115q-58 43 -179 43q-129 0 -184 -43q-57 -42 -57 -104q0 -79 59 -109q58 -34 160 -49l98 -14q80 -12 150 -33
q69 -22 119 -57q51 -36 81 -95q29 -63 29 -145q0 -131 -88 -213q-93 -87 -248 -107l-67 -67q71 -3 114 -49q41 -47 41 -117q0 -35 -16 -72q-15 -34 -43 -59q-26 -23 -66 -39q-35 -14 -79 -14q-74 0 -127 41q-56 41 -68 102h129q15 -41 66 -41z" />
    <glyph glyph-name="Scaron" unicode="&#x160;" horiz-adv-x="1320" 
d="M664 1464q146 0 247 -34q98 -36 164 -93q64 -55 94 -120q31 -70 37 -132h-209q-3 38 -22 82q-20 39 -62 70q-43 32 -102 49q-70 17 -147 17q-91 0 -162 -19q-65 -17 -111 -49q-42 -29 -61 -72q-21 -43 -21 -88q0 -115 80 -168q79 -55 217 -76l164 -24q89 -13 191 -45
q80 -25 147 -76q60 -45 96 -119q33 -67 33 -172q0 -95 -37 -170q-38 -77 -108 -135q-73 -58 -181 -88q-103 -33 -247 -33q-149 0 -252 33q-116 37 -181 88q-71 56 -108 131q-40 72 -43 158h205q6 -116 102 -182q97 -66 277 -66q182 0 276 70q94 67 94 178q0 63 -20 102
t-62 64q-40 24 -96 39q-51 13 -127 26l-164 27q-217 35 -332 133q-122 101 -122 291q0 84 34 156q36 76 103 129q64 52 172 88q102 30 244 30zM643 1669l92 133h256l-235 -235h-226l-235 235h256z" />
    <glyph glyph-name="scaron" unicode="&#x161;" horiz-adv-x="1067" 
d="M571 436l-96 15q-79 11 -151 36q-66 22 -119 66q-55 43 -80 96q-29 60 -29 133q0 138 113 226t328 88q111 0 190 -27q78 -27 133 -72q51 -45 78 -98q26 -61 29 -111h-193q-3 67 -63 115q-58 43 -179 43q-129 0 -184 -43q-57 -42 -57 -104q0 -79 59 -109q58 -34 160 -49
l98 -14q80 -12 150 -33q69 -22 119 -57q51 -36 81 -95q29 -63 29 -145q0 -149 -117 -238q-122 -90 -333 -90q-109 0 -195 25q-87 24 -143 69q-60 45 -90 103t-33 131h198q3 -92 72 -133q67 -43 191 -43q128 0 192 43t64 117q0 38 -17 69q-14 26 -45 43q-42 21 -69 27
q-49 11 -91 16zM539 1300l92 134h256l-236 -236h-225l-236 236h256z" />
    <glyph glyph-name="uni0162" unicode="&#x162;" horiz-adv-x="1224" 
d="M575 -338q35 0 60 25q22 22 22 57q0 34 -22 59q-26 23 -60 23t-59 -25l-78 78l121 121h-49v1260h-481v174h1167v-174h-481v-1260l-90 -90q71 -3 114 -49q41 -47 41 -117q0 -35 -16 -72q-15 -34 -43 -59q-26 -23 -66 -39q-35 -14 -80 -14q-73 0 -126 41q-56 41 -68 102
h129q15 -41 65 -41z" />
    <glyph glyph-name="uni0163" unicode="&#x163;" horiz-adv-x="811" 
d="M451 -338q34 0 59 25q22 22 22 57q0 34 -22 59q-26 23 -59 23q-35 0 -60 -25l-78 78l129 129q-92 22 -125 84q-36 59 -36 164v645h-256v164h256v246h196v-246h277v-164h-277v-645q0 -53 21 -74q19 -22 71 -22h185v-160h-164l-90 -90q71 -3 114 -49q41 -47 41 -117
q0 -35 -16 -72q-15 -34 -43 -59q-26 -23 -66 -39q-35 -14 -79 -14q-74 0 -127 41q-56 41 -68 102h129q15 -41 66 -41z" />
    <glyph glyph-name="Tcaron" unicode="&#x164;" horiz-adv-x="1224" 
d="M1196 1434v-174h-481v-1260h-205v1260h-481v174h1167zM612 1669l93 133h256l-236 -235h-225l-236 235h256z" />
    <glyph glyph-name="tcaron" unicode="&#x165;" horiz-adv-x="811" 
d="M569 1188l62 379h205l-113 -379h-154zM281 256v645h-256v164h256v246h196v-246h277v-164h-277v-645q0 -53 21 -74q19 -22 71 -22h185v-160h-226q-139 0 -192 68q-55 64 -55 188z" />
    <glyph glyph-name="Tbar" unicode="&#x166;" horiz-adv-x="1261" 
d="M211 676v164h317v420h-481v174h1167v-174h-481v-420h318v-164h-318v-676h-205v676h-317z" />
    <glyph glyph-name="tbar" unicode="&#x167;" horiz-adv-x="815" 
d="M78 717h205v184h-256v164h256v246h196v-246h277v-164h-277v-184h226v-154h-226v-307q0 -53 21 -74q19 -22 71 -22h185v-160h-226q-139 0 -192 68q-55 64 -55 188v307h-205v154z" />
    <glyph glyph-name="Utilde" unicode="&#x168;" horiz-adv-x="1482" 
d="M741 -31q-134 0 -241 43q-106 40 -181 115q-71 68 -112 172q-39 95 -39 213v922h205v-922q0 -171 100 -268q98 -101 268 -101t271 101q98 98 98 268v922h205v-922q0 -118 -39 -213q-41 -103 -113 -172q-76 -76 -180 -115q-107 -43 -242 -43zM506 1577h-144q0 63 21 109
q18 46 51 75q40 34 76 47q41 15 88 15q52 0 98 -21q40 -18 82 -45q39 -28 70 -47q29 -20 57 -20q42 0 56 26q16 29 16 66h143q0 -60 -18 -107q-24 -53 -53 -78q-36 -31 -76 -45q-46 -16 -88 -16q-55 0 -99 20q-38 17 -81 48q-43 28 -68 45q-33 20 -59 20q-41 0 -56 -27
q-16 -29 -16 -65z" />
    <glyph glyph-name="utilde" unicode="&#x169;" horiz-adv-x="1212" 
d="M866 0v133q-45 -83 -137 -125q-88 -39 -201 -39q-184 0 -286 105q-103 106 -103 305v686h197v-666q0 -132 57 -198q59 -68 187 -68q120 0 204 84q82 82 82 244v604h197v-1065h-197zM365 1208h-144q0 62 21 109q18 48 51 76q40 34 76 47q38 14 88 14q54 0 98 -20
q40 -18 82 -45q48 -35 70 -48q29 -20 57 -20q40 0 55 27q17 31 17 65h143q0 -59 -18 -106q-23 -51 -54 -78q-36 -31 -76 -45q-49 -17 -88 -17q-51 0 -98 21q-45 20 -82 47q-32 20 -67 45q-33 20 -60 20q-41 0 -55 -26q-16 -29 -16 -66z" />
    <glyph glyph-name="Umacron" unicode="&#x16a;" horiz-adv-x="1482" 
d="M741 -31q-134 0 -241 43q-106 40 -181 115q-71 68 -112 172q-39 95 -39 213v922h205v-922q0 -171 100 -268q98 -101 268 -101t271 101q98 98 98 268v922h205v-922q0 -118 -39 -213q-41 -103 -113 -172q-76 -76 -180 -115q-107 -43 -242 -43zM403 1618v154h676v-154h-676z
" />
    <glyph glyph-name="umacron" unicode="&#x16b;" horiz-adv-x="1212" 
d="M866 0v133q-45 -83 -137 -125q-88 -39 -201 -39q-184 0 -286 105q-103 106 -103 305v686h197v-666q0 -132 57 -198q59 -68 187 -68q120 0 204 84q82 82 82 244v604h197v-1065h-197zM262 1249v154h676v-154h-676z" />
    <glyph glyph-name="Ubreve" unicode="&#x16c;" horiz-adv-x="1482" 
d="M741 -31q-134 0 -241 43q-106 40 -181 115q-71 68 -112 172q-39 95 -39 213v922h205v-922q0 -171 100 -268q98 -101 268 -101t271 101q98 98 98 268v922h205v-922q0 -118 -39 -213q-41 -103 -113 -172q-76 -76 -180 -115q-107 -43 -242 -43zM741 1546q-140 0 -225 82
q-89 80 -104 205h145q15 -59 61 -96t123 -37t123 37q47 38 62 96h145q-15 -124 -102 -205q-88 -82 -228 -82z" />
    <glyph glyph-name="ubreve" unicode="&#x16d;" horiz-adv-x="1212" 
d="M866 0v133q-45 -83 -137 -125q-88 -39 -201 -39q-184 0 -286 105q-103 106 -103 305v686h197v-666q0 -132 57 -198q59 -68 187 -68q120 0 204 84q82 82 82 244v604h197v-1065h-197zM600 1178q-140 0 -225 82q-90 81 -105 204h146q15 -59 61 -96t123 -37t123 37t61 96h146
q-14 -122 -103 -204q-88 -82 -227 -82z" />
    <glyph glyph-name="Uring" unicode="&#x16e;" horiz-adv-x="1482" 
d="M741 -31q-134 0 -241 43q-106 40 -181 115q-71 68 -112 172q-39 95 -39 213v922h205v-922q0 -171 100 -268q98 -101 268 -101t271 101q98 98 98 268v922h205v-922q0 -118 -39 -213q-41 -103 -113 -172q-76 -76 -180 -115q-107 -43 -242 -43zM874 1651q0 57 -36 96
q-40 37 -97 37t-94 -37q-39 -39 -39 -96q0 -59 39 -95q35 -38 94 -38t97 38q36 36 36 95zM1008 1651q0 -53 -21 -99q-18 -40 -55 -77q-34 -34 -84 -52q-49 -18 -107 -18q-57 0 -106 18q-50 18 -84 52q-37 37 -55 77q-21 46 -21 99q0 51 21 98q19 42 55 78q32 32 84 51
q50 18 106 18q57 0 107 -18q52 -19 84 -51q36 -36 55 -78q21 -46 21 -98z" />
    <glyph glyph-name="uring" unicode="&#x16f;" horiz-adv-x="1212" 
d="M866 0v133q-45 -83 -137 -125q-88 -39 -201 -39q-184 0 -286 105q-103 106 -103 305v686h197v-666q0 -132 57 -198q59 -68 187 -68q120 0 204 84q82 82 82 244v604h197v-1065h-197zM733 1403q0 56 -37 96q-40 37 -96 37q-57 0 -94 -37q-39 -39 -39 -96q0 -58 39 -94
q36 -39 94 -39q57 0 96 39q37 37 37 94zM866 1403q0 -54 -20 -98q-19 -42 -55 -78q-32 -32 -84 -51t-107 -19q-54 0 -106 19t-84 51q-38 38 -56 78q-20 44 -20 98t20 98q18 40 56 78q32 32 84 51t106 19q55 0 107 -19t84 -51q36 -36 55 -78q20 -44 20 -98z" />
    <glyph glyph-name="Uhungarumlaut" unicode="&#x170;" horiz-adv-x="1482" 
d="M741 -31q-134 0 -241 43q-106 40 -181 115q-71 68 -112 172q-39 95 -39 213v922h205v-922q0 -171 100 -268q98 -101 268 -101t271 101q98 98 98 268v922h205v-922q0 -118 -39 -213q-41 -103 -113 -172q-76 -76 -180 -115q-107 -43 -242 -43zM428 1567l133 235h236
l-185 -235h-184zM766 1567l133 235h236l-185 -235h-184z" />
    <glyph glyph-name="uhungarumlaut" unicode="&#x171;" horiz-adv-x="1212" 
d="M866 0v133q-45 -83 -137 -125q-88 -39 -201 -39q-184 0 -286 105q-103 106 -103 305v686h197v-666q0 -132 57 -198q59 -68 187 -68q120 0 204 84q82 82 82 244v604h197v-1065h-197zM293 1198l133 236h236l-185 -236h-184zM631 1198l133 236h235l-184 -236h-184z" />
    <glyph glyph-name="Uogonek" unicode="&#x172;" horiz-adv-x="1482" 
d="M1008 -287q31 0 45 2q24 3 47 11l-56 -142q-14 -6 -49 -10q-36 -4 -49 -4q-102 0 -168 57q-67 55 -67 148q0 69 30 119q29 48 74 79q-32 -4 -43 -4h-31q-134 0 -241 43q-106 40 -181 115q-71 68 -112 172q-39 95 -39 213v922h205v-922q0 -171 100 -268q98 -101 268 -101
t271 101q98 98 98 268v922h205v-922q0 -110 -31 -195q-28 -77 -78 -143q-40 -53 -100 -106q-25 -21 -102 -88q-49 -42 -78 -82q-31 -45 -31 -95q0 -53 37 -71q40 -19 76 -19z" />
    <glyph glyph-name="uogonek" unicode="&#x173;" horiz-adv-x="1212" 
d="M991 -287q31 0 45 2q24 3 47 11l-55 -142q-14 -6 -49 -10q-36 -4 -49 -4q-102 0 -168 57q-68 56 -68 148q0 89 54 149q49 55 118 90v119q-45 -83 -137 -125q-88 -39 -201 -39q-184 0 -286 105q-103 106 -103 305v686h197v-666q0 -132 57 -198q59 -68 187 -68
q120 0 204 84q82 82 82 244v604h197v-1065q-101 -52 -141 -98q-43 -46 -43 -99q0 -54 36 -71q40 -19 76 -19z" />
    <glyph glyph-name="Wcircumflex" unicode="&#x174;" horiz-adv-x="1925" 
d="M967 1157h-9q-7 -34 -43 -196q-8 -33 -24 -93t-23 -86l-223 -782h-205l-409 1434h205l208 -762q64 -239 95 -406h8q12 63 43 193q21 104 55 215l215 760h205l215 -760q29 -95 57 -215q6 -29 20 -94.5t21 -98.5h8q31 167 95 406l209 762h204l-409 -1434h-205l-223 782
q-41 162 -45 179q-25 97 -45 196zM1055 1567l-92 133l-93 -133h-256l236 235h225l236 -235h-256z" />
    <glyph glyph-name="wcircumflex" unicode="&#x175;" horiz-adv-x="1568" 
d="M788 840h-8q-12 -58 -43 -185q-19 -73 -55 -190l-150 -465h-180l-317 1065h198l123 -459q46 -174 52 -203q17 -83 32 -178h9q12 60 43 178q16 70 55 201l143 461h189l143 -461q38 -129 57 -201q37 -156 41 -178h8q5 34 35 178q17 80 49 203l123 459h199l-317 -1065h-181
l-149 465q-36 119 -53 190q-31 113 -46 185zM877 1198l-93 133l-92 -133h-256l236 236h225l236 -236h-256z" />
    <glyph glyph-name="Ycircumflex" unicode="&#x176;" horiz-adv-x="1220" 
d="M508 0v573l-481 861h229l354 -676l355 676h229l-481 -861v-573h-205zM702 1567l-92 133l-92 -133h-256l236 235h225l235 -235h-256z" />
    <glyph glyph-name="ycircumflex" unicode="&#x177;" horiz-adv-x="1052" 
d="M621 1198l-93 133l-92 -133h-256l236 236h225l236 -236h-256zM420 -41l14 41l-401 1065h209l172 -471q39 -105 63 -191q25 -92 45 -170h10q31 104 54 170q29 95 65 191l172 471h203l-432 -1165q-16 -47 -51 -111q-29 -51 -76 -86q-49 -36 -109 -53q-68 -19 -157 -19h-115
v160h104q49 0 80 8q38 7 64 27q27 18 47 51q23 37 39 82z" />
    <glyph glyph-name="Ydieresis" unicode="&#x178;" horiz-adv-x="1220" 
d="M508 0v573l-481 861h229l354 -676l355 676h229l-481 -861v-573h-205zM303 1597v205h197v-205h-197zM721 1597v205h197v-205h-197z" />
    <glyph glyph-name="Zacute" unicode="&#x179;" horiz-adv-x="1224" 
d="M1159 174v-174h-1085v174l809 1086h-789v174h1034v-174l-809 -1086h840zM442 1567l164 235h266l-235 -235h-195z" />
    <glyph glyph-name="zacute" unicode="&#x17a;" horiz-adv-x="1048" 
d="M324 164h653v-164h-901v164l633 737h-613v164h860v-164zM352 1198l164 236h266l-235 -236h-195z" />
    <glyph glyph-name="Zdotaccent" unicode="&#x17b;" horiz-adv-x="1224" 
d="M1159 174v-174h-1085v174l809 1086h-789v174h1034v-174l-809 -1086h840zM514 1597v205h197v-205h-197z" />
    <glyph glyph-name="zdotaccent" unicode="&#x17c;" horiz-adv-x="1048" 
d="M324 164h653v-164h-901v164l633 737h-613v164h860v-164zM424 1229v205h197v-205h-197z" />
    <glyph glyph-name="Zcaron" unicode="&#x17d;" horiz-adv-x="1224" 
d="M1159 174v-174h-1085v174l809 1086h-789v174h1034v-174l-809 -1086h840zM606 1669l92 133h256l-235 -235h-225l-236 235h256z" />
    <glyph glyph-name="zcaron" unicode="&#x17e;" horiz-adv-x="1048" 
d="M324 164h653v-164h-901v164l633 737h-613v164h860v-164zM526 1300l92 134h256l-235 -236h-225l-236 236h256z" />
    <glyph glyph-name="longs" unicode="&#x17f;" horiz-adv-x="632" 
d="M31 901v164h215v113q0 256 276 256h166v-160h-153q-54 0 -72 -21q-21 -21 -21 -75v-1178h-196v901h-215z" />
    <glyph glyph-name="uni018F" unicode="&#x18f;" horiz-adv-x="1546" 
d="M358 1085h-227q35 79 90 150q51 65 133 121q79 54 174 80q103 28 217 28q158 0 289 -55q129 -55 223 -154q93 -100 144 -235q51 -134 51 -303q0 -162 -49 -299q-52 -136 -141 -236q-86 -96 -220 -155q-128 -58 -286 -58t-287 60q-131 61 -213 159q-83 99 -131 244
q-45 134 -45 305v51h1163q-6 101 -43 191q-40 94 -100 160q-64 67 -152 110q-90 41 -203 41q-69 0 -135 -16q-60 -17 -112 -45q-47 -25 -84 -66q-41 -44 -56 -78zM756 143q112 0 194 39q86 42 146 105t98 149q36 90 45 178h-944q10 -102 41 -176q31 -88 88 -151
q58 -65 141 -105q79 -39 191 -39z" />
    <glyph glyph-name="uni0190" unicode="&#x190;" horiz-adv-x="1333" 
d="M819 829v-174h-186q-87 0 -156 -16q-66 -18 -104 -51q-44 -37 -58 -82q-18 -46 -18 -107q0 -112 94 -188q93 -78 281 -78q98 0 172 19t117 51q50 37 71 78q25 49 31 98h205q-9 -86 -51 -166q-44 -78 -119 -129q-80 -58 -187 -84q-115 -31 -256 -31q-124 0 -229 31
q-105 30 -178 88q-75 57 -115 135q-41 80 -41 176q0 111 58 209q61 99 190 144q-109 53 -152 141q-45 83 -45 188q0 88 39 156q40 70 109 121q72 54 168 80q95 26 217 26t217 -26q96 -27 168 -78q70 -49 113 -119q44 -71 53 -156h-209q-9 85 -92 150q-81 63 -250 63
q-158 0 -242 -63q-86 -65 -86 -170q0 -111 76 -172q73 -64 215 -64h180z" />
    <glyph glyph-name="florin" unicode="&#x192;" horiz-adv-x="886" 
d="M145 -123l181 1024h-263v164h291l23 123q23 129 92 188q64 58 197 58h176v-164h-162q-54 0 -72 -21q-19 -19 -28 -61l-23 -123h285v-164h-314l-180 -1024q-20 -128 -90 -188q-67 -58 -199 -58h-139v164h125q51 0 74 23q17 20 26 59z" />
    <glyph glyph-name="uni0194" unicode="&#x194;" horiz-adv-x="1300" 
d="M225 1434l258 -600q44 -108 86 -193q32 -70 76 -190h6q44 120 76 190q26 57 86 193l262 600h215l-538 -1168q50 -114 61 -139q35 -85 41 -104q22 -67 25 -80q8 -33 8 -72q0 -100 -64 -170t-174 -70t-174 70q-63 69 -63 168q0 39 8 72q10 40 24 82q12 36 43 104
q8 20 28.5 67.5t31.5 73.5l-537 1166h215zM649 84q-38 -92 -47 -125q-16 -56 -16 -94q0 -40 16 -62q15 -24 47 -24q29 0 47 24q17 24 17 62q0 34 -17 94q-9 33 -47 125z" />
    <glyph glyph-name="uni0197" unicode="&#x197;" horiz-adv-x="667" 
d="M14 674v164h170v596h205v-596h170v-164h-170v-674h-205v674h-170z" />
    <glyph glyph-name="uni019D" unicode="&#x19d;" horiz-adv-x="1556" 
d="M387 1137h-8q2 -33 6 -95q1 -16 2 -47.5t2 -48.5v-112v-148v-778q0 -139 -80 -207q-82 -70 -229 -70h-84v174h65q68 0 97 29q26 26 26 88v1512h215l494 -711q110 -156 180 -264q74 -122 96 -162h9q-1 18 -3.5 49t-3.5 45q-2 31 -2 96q-2 35 -2 115v146v686h205v-1434
h-215l-493 711q-131 187 -179 266q-59 91 -98 160z" />
    <glyph glyph-name="uni01B5" unicode="&#x1b5;" horiz-adv-x="1251" 
d="M147 655v164h420l328 441h-789v174h1035v-174l-328 -441h297v-164h-418l-360 -481h839v-174h-1085v174l358 481h-297z" />
    <glyph glyph-name="uni01B6" unicode="&#x1b6;" horiz-adv-x="1062" 
d="M133 461v153h336l246 287h-613v164h861v-164l-246 -287h225v-153h-358l-254 -297h653v-164h-901v164l254 297h-203z" />
    <glyph glyph-name="uni01CD" unicode="&#x1cd;" horiz-adv-x="1396" 
d="M1169 0l-133 338h-676l-133 -338h-215l584 1434h205l583 -1434h-215zM702 1208h-8q-9 -31 -57 -168q-24 -71 -76 -198l-131 -330h537l-131 330q-52 127 -76 198q-55 157 -58 168zM698 1669l93 133h256l-236 -235h-225l-236 235h256z" />
    <glyph glyph-name="uni01CE" unicode="&#x1ce;" horiz-adv-x="1171" 
d="M498 123q67 0 131 22q59 20 108 66q45 42 72 106q27 65 27 144v82l-349 -31q-108 -9 -161 -59q-54 -51 -54 -136q0 -50 19 -90q14 -38 47 -61q36 -25 72 -33q45 -10 88 -10zM330 788h-203q9 62 39 121q31 58 88 97q57 42 137 65q83 25 189 25q135 0 239 -39
q103 -40 162 -135q51 -83 51 -215v-707h-196v133q-43 -56 -138 -113q-86 -51 -221 -51q-76 0 -153 23q-77 22 -129 63q-56 44 -86 109q-33 62 -33 153q0 139 96 232q97 91 295 106l369 31v21q0 48 -13 98q-11 41 -41 74q-33 33 -80 47q-53 16 -122 16q-117 0 -179 -41
q-62 -42 -71 -113zM594 1300l92 134h256l-235 -236h-226l-235 236h256z" />
    <glyph glyph-name="uni01CF" unicode="&#x1cf;" horiz-adv-x="573" 
d="M389 0h-205v1434h205v-1434zM287 1669l92 133h256l-236 -235h-225l-235 235h256z" />
    <glyph glyph-name="uni01D0" unicode="&#x1d0;" 
d="M150 0v1065h196v-1065h-196zM248 1300l92 134h256l-236 -236h-225l-235 236h256z" />
    <glyph glyph-name="uni01D1" unicode="&#x1d1;" horiz-adv-x="1597" 
d="M92 717q0 165 51 299q52 133 146 235q88 98 223 158q128 55 287 55q157 0 288 -55q134 -61 224 -158q91 -102 143 -235q51 -134 51 -299t-51 -299q-53 -138 -143 -236q-90 -97 -224 -155q-131 -58 -288 -58q-159 0 -287 58q-135 57 -223 155q-93 98 -146 236
q-51 134 -51 299zM297 717q0 -115 33 -213q37 -112 96 -185q62 -79 156 -126q95 -50 217 -50t217 50q93 46 158 126q58 75 94 185q32 95 32 213t-32 215q-36 107 -94 182q-65 80 -158 129q-96 47 -217 47t-217 -47q-94 -49 -156 -129q-59 -73 -96 -182q-33 -100 -33 -215z
M799 1669l92 133h256l-236 -235h-225l-235 235h256z" />
    <glyph glyph-name="uni01D2" unicode="&#x1d2;" horiz-adv-x="1249" 
d="M82 532q0 123 39 224q41 103 110 178q71 77 170 119q101 43 224 43q122 0 223 -43q103 -44 172 -119q66 -71 108 -178q39 -101 39 -224t-39 -221q-42 -108 -108 -180q-69 -75 -172 -119q-101 -43 -223 -43q-123 0 -224 43q-99 42 -170 119q-70 76 -110 180
q-39 98 -39 221zM971 532q0 74 -23 154q-21 71 -65 127q-45 54 -109 88q-67 31 -149 31q-81 0 -148 -31q-67 -36 -108 -88q-47 -56 -68 -127q-22 -77 -22 -154t22 -151q21 -73 68 -129q44 -56 108 -86q62 -33 148 -33q87 0 149 33q61 28 109 86q44 57 65 129q23 77 23 151z
M625 1300l92 134h256l-236 -236h-225l-236 236h256z" />
    <glyph glyph-name="uni01D3" unicode="&#x1d3;" horiz-adv-x="1482" 
d="M741 -31q-134 0 -241 43q-106 40 -181 115q-71 68 -112 172q-39 95 -39 213v922h205v-922q0 -171 100 -268q98 -101 268 -101t271 101q98 98 98 268v922h205v-922q0 -118 -39 -213q-41 -103 -113 -172q-76 -76 -180 -115q-107 -43 -242 -43zM737 1669l92 133h256
l-235 -235h-225l-236 235h256z" />
    <glyph glyph-name="uni01D4" unicode="&#x1d4;" horiz-adv-x="1212" 
d="M866 0v133q-45 -83 -137 -125q-88 -39 -201 -39q-184 0 -286 105q-103 106 -103 305v686h197v-666q0 -132 57 -198q59 -68 187 -68q120 0 204 84q82 82 82 244v604h197v-1065h-197zM594 1300l92 134h256l-235 -236h-226l-235 236h256z" />
    <glyph glyph-name="Gcaron" unicode="&#x1e6;" horiz-adv-x="1540" 
d="M799 1290q-125 0 -221 -47q-94 -49 -156 -129q-63 -78 -94 -182q-31 -108 -31 -215q0 -108 31 -213q30 -107 94 -185q62 -79 156 -126q95 -50 221 -50q116 0 200 41t134 103q52 64 73 141q23 84 23 156h-451v174h645v-758h-153l-21 174q-28 -41 -65 -76q-41 -38 -97 -65
q-66 -32 -126 -45q-74 -19 -162 -19q-163 0 -291 58q-135 57 -223 155q-94 101 -142 236q-51 134 -51 299t51 299q48 130 142 235q88 98 223 158q128 55 291 55q230 0 377 -102q147 -105 217 -277h-224q-49 94 -139 150q-88 55 -231 55zM809 1669l92 133h256l-235 -235h-226
l-235 235h256z" />
    <glyph glyph-name="gcaron" unicode="&#x1e7;" horiz-adv-x="1261" 
d="M926 553q0 68 -23 145q-19 64 -63 121q-43 52 -105 82q-64 31 -137 31q-71 0 -131 -31q-61 -31 -100 -82q-46 -59 -64 -121q-22 -74 -22 -145q0 -74 22 -145q18 -62 64 -121q39 -51 100 -82q60 -31 131 -31q73 0 137 31q62 30 105 82q44 57 63 121q23 74 23 145zM915 113
v51q-10 -14 -45 -49q-34 -34 -69 -52q-43 -21 -99 -36q-63 -17 -124 -17q-116 0 -203 43q-91 43 -156 117q-67 76 -100 174q-35 100 -35 209q0 108 35 211q34 96 100 172q65 74 156 117q87 43 203 43q68 0 124 -15q41 -11 99 -39q44 -26 69 -51q35 -35 45 -49v123h197v-952
q0 -126 -35 -222q-34 -93 -100 -159q-63 -63 -158 -99q-88 -32 -211 -32q-86 0 -166 22q-67 18 -133 64q-61 42 -98 96q-40 55 -55 125h204q6 -26 25 -55q20 -29 49 -50q32 -22 74 -34q44 -15 100 -15q168 0 238 99q69 97 69 260zM676 1300l92 134h256l-236 -236h-225
l-235 236h256z" />
    <glyph glyph-name="uni01E8" unicode="&#x1e8;" horiz-adv-x="1300" 
d="M389 0h-205v1434h205v-635l625 635h256l-697 -697l738 -737h-277l-645 666v-666zM666 1669l92 133h256l-236 -235h-225l-236 235h256z" />
    <glyph glyph-name="uni01E9" unicode="&#x1e9;" horiz-adv-x="1067" 
d="M150 0v1434h196v-824l445 455h253l-512 -512l553 -553h-268l-471 492v-492h-196zM573 1669l93 133h256l-236 -235h-225l-236 235h256z" />
    <glyph glyph-name="uni01EA" unicode="&#x1ea;" horiz-adv-x="1597" 
d="M942 -287q31 0 45 2q24 3 47 11l-55 -142q-14 -6 -49 -10q-36 -4 -49 -4q-102 0 -168 57q-68 56 -68 148q0 63 29 116q26 44 74 80q-150 9 -269 70q-122 59 -207 158q-87 101 -133 231q-47 133 -47 287q0 165 51 299q52 133 146 235q88 98 223 158q128 55 287 55
q157 0 288 -55q134 -61 224 -158q91 -102 143 -235q51 -134 51 -299q0 -220 -88 -383q-87 -164 -237 -260q-54 -35 -121 -64q-15 -6 -113 -57q-41 -21 -84 -64q-33 -33 -33 -86t37 -71q40 -19 76 -19zM297 717q0 -115 33 -213q37 -112 96 -185q62 -79 156 -126
q95 -50 217 -50t217 50q93 46 158 126q58 75 94 185q32 95 32 213t-32 215q-36 107 -94 182q-65 80 -158 129q-96 47 -217 47t-217 -47q-94 -49 -156 -129q-59 -73 -96 -182q-33 -100 -33 -215z" />
    <glyph glyph-name="uni01EB" unicode="&#x1eb;" horiz-adv-x="1249" 
d="M748 -287q31 0 45 2q25 3 47 11l-56 -142q-14 -6 -49 -10q-36 -4 -49 -4q-102 0 -168 57q-67 55 -67 148q0 69 30 119q25 42 74 79q-106 12 -195 60q-87 46 -149 123q-57 68 -94 170q-35 96 -35 206q0 123 39 224q41 103 110 178q71 77 170 119q101 43 224 43
q122 0 223 -43q103 -44 172 -119q66 -71 108 -178q39 -101 39 -224q0 -139 -53 -260q-55 -119 -158 -196q-63 -49 -112 -72q-24 -11 -103 -57q-49 -28 -75 -62q-31 -36 -31 -82q0 -53 37 -71q40 -19 76 -19zM971 532q0 74 -23 154q-21 71 -65 127q-45 54 -109 88
q-67 31 -149 31q-81 0 -148 -31q-67 -36 -108 -88q-47 -56 -68 -127q-22 -77 -22 -154t22 -151q21 -73 68 -129q44 -56 108 -86q62 -33 148 -33q87 0 149 33q61 28 109 86q44 57 65 129q23 77 23 151z" />
    <glyph glyph-name="uni01F8" unicode="&#x1f8;" horiz-adv-x="1556" 
d="M1157 0l-493 711q-131 187 -179 266q-59 91 -98 160h-8q2 -33 6 -95q1 -16 2 -47.5t2 -48.5v-112v-148v-686h-205v1434h215l494 -711q110 -156 180 -264q74 -122 96 -162h9q-1 18 -3.5 49t-3.5 45q-2 31 -2 96q-2 35 -2 115v146v686h205v-1434h-215zM758 1802l164 -235
h-195l-235 235h266z" />
    <glyph glyph-name="uni01F9" unicode="&#x1f9;" horiz-adv-x="1222" 
d="M346 1065v-143q51 83 148 131q90 43 200 43q187 0 289 -105q100 -103 100 -305v-686h-196v666q0 131 -58 198q-59 68 -186 68q-63 0 -115 -21q-53 -20 -94 -61q-43 -46 -63 -105q-25 -64 -25 -141v-604h-196v1065h196zM645 1434l164 -236h-195l-235 236h266z" />
    <glyph glyph-name="Aringacute" unicode="&#x1fa;" horiz-adv-x="1400" 
d="M1171 0l-133 338h-676l-133 -338h-215l490 1202q-70 64 -70 170q0 52 21 98q19 42 55 78q32 32 84 51t106 19q55 0 107 -19t84 -51q36 -36 55 -78q21 -46 21 -98q0 -48 -19 -94q-18 -43 -51 -76l489 -1202h-215zM700 1126h-12q-10 0 -16 2q0 -1 -51 -139
q-10 -29 -31 -80.5t-27 -66.5l-131 -330h537l-131 330q-36 84 -58 147q-51 138 -51 139q-6 -2 -16 -2h-13zM537 1669l163 236h267l-236 -236h-194zM834 1372q0 56 -37 96q-40 37 -97 37t-94 -37q-39 -39 -39 -96q0 -58 39 -94q36 -39 94 -39t97 39q37 37 37 94z" />
    <glyph glyph-name="aringacute" unicode="&#x1fb;" horiz-adv-x="1171" 
d="M846 1270q0 -57 -25 -109q-26 -51 -71 -84q78 -15 135 -55q61 -42 96 -100q51 -83 51 -215v-707h-196v133q-43 -56 -138 -113q-86 -51 -221 -51q-76 0 -153 23q-77 22 -129 63q-56 44 -86 109q-33 62 -33 153q0 139 96 232q97 91 295 106l369 31v21q0 48 -13 98
q-11 41 -41 74q-33 33 -80 47q-53 16 -122 16q-117 0 -179 -41q-62 -42 -71 -113h-203q12 100 82 179q66 75 201 110q-48 35 -70 84q-27 49 -27 109q0 52 21 98q19 42 55 78q32 32 84 51t107 19q54 0 106 -19t84 -51q36 -36 55 -78q21 -46 21 -98zM498 123q67 0 131 22
q59 20 108 66q45 42 72 106q27 65 27 144v82l-349 -31q-108 -9 -161 -59q-54 -51 -54 -136q0 -50 19 -90q14 -38 47 -61q36 -25 72 -33q45 -10 88 -10zM713 1270q0 56 -37 96q-40 37 -96 37q-58 0 -95 -37q-39 -39 -39 -96q0 -58 39 -94q36 -39 95 -39q57 0 96 39
q37 37 37 94zM399 1567l164 235h266l-235 -235h-195z" />
    <glyph glyph-name="AEacute" unicode="&#x1fc;" horiz-adv-x="2136" 
d="M936 1434h1085v-174h-757v-431h716v-174h-716v-481h757v-174h-962v338h-615l-225 -338h-246zM1059 1260h-8q-6 -10 -36 -59t-50 -81q-19 -30 -67 -102t-71 -107l-266 -399h498v748zM1253 1567l164 235h266l-235 -235h-195z" />
    <glyph glyph-name="aeacute" unicode="&#x1fd;" horiz-adv-x="1947" 
d="M498 123q67 0 131 22q59 20 108 66q45 42 72 106q27 65 27 144v82l-349 -31q-108 -9 -161 -59q-54 -51 -54 -136q0 -50 19 -90q14 -38 47 -61q36 -25 72 -33q45 -10 88 -10zM1358 942q-76 0 -135 -27q-65 -30 -101 -71q-44 -47 -65 -105q-22 -61 -25 -125h641
q-3 70 -24 129q-22 61 -60 105q-42 45 -96 70q-59 24 -135 24zM1368 -31q-146 0 -258 62q-112 61 -180 166q-19 -31 -60 -80q-35 -38 -90 -74q-44 -29 -125 -53q-71 -21 -168 -21q-79 0 -159 23q-78 21 -131 63q-51 40 -88 109q-33 62 -33 153q0 139 96 232q97 91 295 106
l369 31v21q0 48 -13 98q-11 41 -41 74q-33 33 -80 47q-53 16 -122 16q-117 0 -179 -41q-62 -42 -71 -113h-203q9 62 39 121q31 58 88 97q57 42 137 65q83 25 189 25q129 0 233 -37q104 -40 162 -131q68 77 166 123q91 45 217 45q192 0 309 -99q115 -97 168 -258
q17 -57 27 -125q8 -57 8 -133v-20h-838q3 -67 27 -125q25 -64 67 -109q46 -49 105 -75q63 -29 137 -29q60 0 113 16q44 13 82 43q31 24 51 58q17 26 24 57h211q-20 -71 -57 -125q-38 -55 -100 -104q-57 -43 -142 -72q-82 -27 -182 -27zM805 1198l164 236h266l-236 -236h-194
z" />
    <glyph glyph-name="Oslashacute" unicode="&#x1fe;" horiz-adv-x="1605" 
d="M629 1567l164 235h266l-236 -235h-194zM76 -31l196 234q-85 98 -131 229q-45 128 -45 285q0 165 51 299q52 133 146 235q88 98 223 158q128 55 287 55q130 0 227 -32q102 -35 189 -97l106 129h205l-195 -235q83 -99 129 -228q45 -128 45 -284q0 -165 -51 -299
q-53 -138 -143 -236q-91 -98 -223 -155q-131 -58 -289 -58q-125 0 -223 33q-111 36 -191 94l-108 -127h-205zM301 717q0 -99 27 -191q24 -93 73 -168l697 834q-58 46 -131 74q-73 24 -164 24q-121 0 -217 -47q-94 -49 -156 -129q-59 -73 -96 -182q-33 -100 -33 -215z
M1305 717q0 95 -25 190q-25 92 -74 168l-698 -835q57 -45 133 -70q71 -27 162 -27q122 0 217 50q93 46 158 126q58 75 94 185q33 98 33 213z" />
    <glyph glyph-name="oslashacute" unicode="&#x1ff;" horiz-adv-x="1253" 
d="M84 532q0 123 39 224q41 103 110 178q71 77 170 119q101 43 224 43q86 0 170 -23q76 -24 137 -67l76 90h180l-152 -181q65 -74 99 -172q32 -92 32 -211q0 -123 -39 -221q-42 -108 -108 -180q-69 -75 -172 -119q-101 -43 -223 -43q-88 0 -168 25q-79 22 -140 65l-75 -90
h-181l152 183q-59 69 -96 172q-35 96 -35 208zM973 532q0 132 -58 236l-483 -575q78 -60 195 -60q87 0 149 33q61 28 109 86q44 57 65 129q23 77 23 151zM281 532q0 -69 14 -124q14 -58 43 -111l485 575q-51 34 -88 46q-46 14 -108 14q-81 0 -148 -31q-67 -36 -108 -88
q-47 -56 -68 -127q-22 -77 -22 -154zM453 1198l163 236h267l-236 -236h-194z" />
    <glyph glyph-name="uni0218" unicode="&#x218;" horiz-adv-x="1320" 
d="M664 1464q146 0 247 -34q98 -36 164 -93q64 -55 94 -120q31 -70 37 -132h-209q-3 38 -22 82q-20 39 -62 70q-43 32 -102 49q-70 17 -147 17q-91 0 -162 -19q-65 -17 -111 -49q-42 -29 -61 -72q-21 -43 -21 -88q0 -115 80 -168q79 -55 217 -76l164 -24q89 -13 191 -45
q80 -25 147 -76q60 -45 96 -119q33 -67 33 -172q0 -95 -37 -170q-38 -77 -108 -135q-73 -58 -181 -88q-103 -33 -247 -33q-149 0 -252 33q-116 37 -181 88q-71 56 -108 131q-40 72 -43 158h205q6 -116 102 -182q97 -66 277 -66q182 0 276 70q94 67 94 178q0 63 -20 102
t-62 64q-40 24 -96 39q-51 13 -127 26l-164 27q-217 35 -332 133q-122 101 -122 291q0 84 34 156q36 76 103 129q64 52 172 88q102 30 244 30zM588 -317v204h196v-204l-133 -205h-73l92 205h-82z" />
    <glyph glyph-name="uni0219" unicode="&#x219;" horiz-adv-x="1067" 
d="M571 436l-96 15q-79 11 -151 36q-66 22 -119 66q-55 43 -80 96q-29 60 -29 133q0 138 113 226t328 88q111 0 190 -27q78 -27 133 -72q51 -45 78 -98q26 -61 29 -111h-193q-3 67 -63 115q-58 43 -179 43q-129 0 -184 -43q-57 -42 -57 -104q0 -79 59 -109q58 -34 160 -49
l98 -14q80 -12 150 -33q69 -22 119 -57q51 -36 81 -95q29 -63 29 -145q0 -149 -117 -238q-122 -90 -333 -90q-109 0 -195 25q-87 24 -143 69q-60 45 -90 103t-33 131h198q3 -92 72 -133q67 -43 191 -43q128 0 192 43t64 117q0 38 -17 69q-14 26 -45 43q-42 21 -69 27
q-49 11 -91 16zM457 -317v204h196v-204l-133 -205h-74l93 205h-82z" />
    <glyph glyph-name="uni021A" unicode="&#x21a;" horiz-adv-x="1224" 
d="M1196 1434v-174h-481v-1260h-205v1260h-481v174h1167zM516 -317v204h197v-204l-133 -205h-74l92 205h-82z" />
    <glyph glyph-name="uni021B" unicode="&#x21b;" horiz-adv-x="811" 
d="M385 -317v204h197v-204l-133 -205h-74l92 205h-82zM281 256v645h-256v164h256v246h196v-246h277v-164h-277v-645q0 -53 21 -74q19 -22 71 -22h185v-160h-226q-139 0 -192 68q-55 64 -55 188z" />
    <glyph glyph-name="uni021E" unicode="&#x21e;" horiz-adv-x="1536" 
d="M1352 1434v-1434h-205v655h-758v-655h-205v1434h205v-605h758v605h205zM768 1669l92 133h256l-235 -235h-226l-235 235h256z" />
    <glyph glyph-name="uni021F" unicode="&#x21f;" horiz-adv-x="1224" 
d="M346 1434v-512q51 83 148 131q90 43 200 43q187 0 289 -105t102 -305v-686h-196v666q0 131 -58 198q-59 68 -188 68q-63 0 -115 -21q-53 -20 -94 -61q-43 -46 -63 -105q-25 -64 -25 -141v-604h-196v1434h196zM635 1669l92 133h256l-235 -235h-226l-235 235h256z" />
    <glyph glyph-name="uni022E" unicode="&#x22e;" horiz-adv-x="1597" 
d="M92 717q0 165 51 299q52 133 146 235q88 98 223 158q128 55 287 55q157 0 288 -55q134 -61 224 -158q91 -102 143 -235q51 -134 51 -299t-51 -299q-53 -138 -143 -236q-90 -97 -224 -155q-131 -58 -288 -58q-159 0 -287 58q-135 57 -223 155q-93 98 -146 236
q-51 134 -51 299zM297 717q0 -115 33 -213q37 -112 96 -185q62 -79 156 -126q95 -50 217 -50t217 50q93 46 158 126q58 75 94 185q32 95 32 213t-32 215q-36 107 -94 182q-65 80 -158 129q-96 47 -217 47t-217 -47q-94 -49 -156 -129q-59 -73 -96 -182q-33 -100 -33 -215z
M700 1597v205h197v-205h-197z" />
    <glyph glyph-name="uni022F" unicode="&#x22f;" horiz-adv-x="1249" 
d="M82 532q0 123 39 224q41 103 110 178q71 77 170 119q101 43 224 43q122 0 223 -43q103 -44 172 -119q66 -71 108 -178q39 -101 39 -224t-39 -221q-42 -108 -108 -180q-69 -75 -172 -119q-101 -43 -223 -43q-123 0 -224 43q-99 42 -170 119q-70 76 -110 180
q-39 98 -39 221zM971 532q0 74 -23 154q-21 71 -65 127q-45 54 -109 88q-67 31 -149 31q-81 0 -148 -31q-67 -36 -108 -88q-47 -56 -68 -127q-22 -77 -22 -154t22 -151q21 -73 68 -129q44 -56 108 -86q62 -33 148 -33q87 0 149 33q61 28 109 86q44 57 65 129q23 77 23 151z
M526 1229v205h197v-205h-197z" />
    <glyph glyph-name="uni0232" unicode="&#x232;" horiz-adv-x="1220" 
d="M508 0v573l-481 861h229l354 -676l355 676h229l-481 -861v-573h-205zM272 1618v154h676v-154h-676z" />
    <glyph glyph-name="uni0233" unicode="&#x233;" horiz-adv-x="1052" 
d="M420 -41l14 41l-401 1065h209l172 -471q39 -105 63 -191q25 -92 45 -170h10q31 104 54 170q29 95 65 191l172 471h203l-432 -1165q-16 -47 -51 -111q-29 -51 -76 -86q-49 -36 -109 -53q-68 -19 -157 -19h-115v160h104q49 0 80 8q38 7 64 27q27 18 47 51q23 37 39 82z
M190 1249v154h676v-154h-676z" />
    <glyph glyph-name="uni0237" unicode="&#x237;" horiz-adv-x="503" 
d="M158 -92v1157h196v-1157q0 -139 -80 -207q-82 -70 -229 -70h-92v160h82q67 0 96 29q27 27 27 88z" />
    <glyph glyph-name="uni0244" unicode="&#x244;" horiz-adv-x="1515" 
d="M31 674v164h153v596h205v-596h737v596h205v-596h154v-164h-154v-162q0 -118 -39 -213q-41 -104 -112 -172q-75 -75 -181 -115q-107 -43 -241 -43q-135 0 -242 43q-104 39 -180 115q-72 69 -113 172q-39 95 -39 213v162h-153zM758 143q169 0 270 101q98 98 98 268v162
h-737v-162q0 -171 100 -268q98 -101 269 -101z" />
  </font>
</defs>
</svg>
