<?xml version="1.0" standalone="no"?>
<!DOCTYPE svg PUBLIC "-//W3C//DTD SVG 1.1//EN" "http://www.w3.org/Graphics/SVG/1.1/DTD/svg11.dtd" >
<svg xmlns="http://www.w3.org/2000/svg" xmlns:xlink="http://www.w3.org/1999/xlink" version="1.1">
<metadata>
Created by FontForge 20201107 at Thu Mar 16 16:37:57 2023
 By 
(c) 2011-2017, Copyright by Lineto GmbH. All rights reserved.
</metadata>
<defs>
<font id="RiformaBlod" horiz-adv-x="1261" >
  <font-face 
    font-family="RiformaBlod"
    font-weight="500"
    font-stretch="normal"
    units-per-em="2048"
    panose-1="0 0 0 0 0 0 0 0 0 0"
    ascent="1638"
    descent="-410"
    x-height="1065"
    cap-height="1434"
    bbox="-125 -532 2206 1907"
    underline-thickness="102"
    underline-position="-307"
    unicode-range="U+0020-0244"
  />
<missing-glyph horiz-adv-x="935" 
d="M41 1382h854v-1382h-854v1382zM139 98h656v1186h-656v-1186z" />
    <glyph glyph-name=".notdef" horiz-adv-x="935" 
d="M41 1382h854v-1382h-854v1382zM139 98h656v1186h-656v-1186z" />
    <glyph glyph-name=".notdef" horiz-adv-x="935" 
d="M41 1382h854v-1382h-854v1382zM139 98h656v1186h-656v-1186z" />
    <glyph glyph-name=".null" horiz-adv-x="0" 
 />
    <glyph glyph-name="nonmarkingreturn" horiz-adv-x="682" 
 />
    <glyph glyph-name="space" unicode=" " horiz-adv-x="475" 
 />
    <glyph glyph-name="exclam" unicode="!" horiz-adv-x="573" 
d="M420 922l-51 -451h-164l-51 451v512h266v-512zM133 0v307h307v-307h-307z" />
    <glyph glyph-name="quotedbl" unicode="&#x22;" horiz-adv-x="874" 
d="M129 758v676h256v-420zM528 758v676h256v-420z" />
    <glyph glyph-name="numbersign" unicode="#" horiz-adv-x="1681" 
d="M797 0l92 369h-268l-93 -369h-254l93 369h-308l52 204h307l71 287h-307l51 205h308l92 369h254l-92 -369h268l92 369h254l-92 -369h307l-51 -205h-307l-72 -287h307l-51 -204h-307l-92 -369h-254zM743 860l-71 -287h268l72 287h-269z" />
    <glyph glyph-name="dollar" unicode="$" horiz-adv-x="1277" 
d="M549 -205v180q-118 12 -205 50q-86 35 -141 90q-57 51 -88 118t-37 136h258q9 -70 61 -119q50 -53 152 -68v445q-88 16 -162 45q-79 27 -141 80q-63 54 -99 127q-38 72 -38 186q0 76 26 141q29 69 82 119q51 48 139 88q84 35 193 47v178h205v-180q103 -9 178 -43
q70 -32 127 -82q54 -51 80 -110q29 -67 35 -127h-259q-8 44 -45 94q-35 44 -116 59v-397q76 -11 172 -41q83 -27 151 -80q67 -55 107 -133q41 -84 41 -199q0 -81 -27 -151q-27 -73 -86 -129q-55 -55 -147 -94q-90 -41 -211 -50v-180h-205zM969 389q0 89 -49 135t-166 70
v-414q119 18 168 76q47 56 47 133zM365 1075q0 -76 43 -119q39 -45 141 -69v364q-103 -18 -143 -67q-41 -53 -41 -109z" />
    <glyph glyph-name="percent" unicode="%" horiz-adv-x="1908" 
d="M248 1014q0 -142 39 -213q41 -74 125 -74t125 74q38 69 38 213t-38 213q-40 73 -125 73t-125 -73q-39 -71 -39 -213zM760 1014q0 -120 -27 -203q-27 -82 -74 -135q-49 -55 -110 -78q-67 -25 -137 -25q-71 0 -138 25q-61 23 -110 78q-47 53 -74 135q-27 83 -27 203t27 203
q28 85 74 137t110 76t138 24q72 0 137 -24q64 -24 110 -76t74 -137q27 -83 27 -203zM453 0l798 1434h205l-799 -1434h-204zM1333 420q0 -142 39 -213q41 -74 125 -74t125 74q39 71 39 213t-39 213q-41 74 -125 74t-125 -74q-39 -71 -39 -213zM1845 420q0 -124 -26 -203
q-27 -82 -74 -135q-48 -55 -111 -78q-64 -24 -137 -24t-137 24q-63 23 -111 78q-46 52 -73 135q-27 82 -27 203q0 120 27 203q28 87 73 137q46 52 111 76q64 24 137 24t137 -24q65 -24 111 -76t74 -137q26 -79 26 -203z" />
    <glyph glyph-name="ampersand" unicode="&#x26;" horiz-adv-x="1554" 
d="M1221 317l317 -317h-348l-129 129q-72 -63 -187 -113q-112 -47 -258 -47q-124 0 -227 35q-102 34 -170 94q-69 57 -108 140q-37 78 -37 172q0 141 69 241q71 103 228 168q-63 66 -103 142q-41 74 -41 165q0 66 27 127q26 62 76 107q53 50 127 76q79 28 180 28t180 -28
q71 -29 123 -78q50 -47 74 -105q22 -61 22 -116q0 -121 -57 -207q-60 -90 -205 -166l275 -275l161 228h297zM330 410q0 -93 71 -158q71 -68 215 -68q95 0 160 33q62 28 119 78l-363 362q-109 -47 -153 -102q-49 -58 -49 -145zM637 1260q-79 0 -115 -39q-39 -39 -39 -95
q0 -52 37 -98q42 -52 98 -108q98 46 136 96q37 49 37 110q0 24 -9 48q-11 25 -26 43q-16 16 -47 30q-29 13 -72 13z" />
    <glyph glyph-name="quotesingle" unicode="'" horiz-adv-x="475" 
d="M129 758v676h256v-420z" />
    <glyph glyph-name="parenleft" unicode="(" horiz-adv-x="643" 
d="M338 532q0 -62 6 -114q4 -36 23 -117q9 -40 45 -149q49 -154 69 -213l103 -308h-215l-103 242q-22 53 -56.5 138.5t-35.5 86.5q-38 86 -61 166q-23 77 -31 135q-10 68 -10 133q0 64 10 136q8 54 31 135q24 80 61 164q1 1 35.5 86.5t56.5 138.5l103 242h215l-103 -308
q-13 -37 -25.5 -76t-25 -78.5t-18.5 -56.5q-39 -124 -45 -149q-18 -79 -23 -119q-6 -53 -6 -115z" />
    <glyph glyph-name="parenright" unicode=")" horiz-adv-x="645" 
d="M305 532q0 62 -6 115q-5 40 -23 119q-11 49 -43 149q-34 103 -71 211l-103 308h215l103 -242q12 -27 45 -108.5t49 -116.5q37 -91 59 -164q27 -95 33 -135q8 -57 8 -136q0 -78 -8 -133q-6 -46 -33 -135q-21 -73 -59 -166q-16 -35 -49 -116.5t-45 -108.5l-103 -242h-215
l103 308q44 127 71 213q29 88 43 149q19 81 23 117q6 52 6 114z" />
    <glyph glyph-name="asterisk" unicode="*" horiz-adv-x="1003" 
d="M233 1339l228 -227v322h82v-322l227 227l57 -57l-227 -227h322v-82h-322l227 -228l-57 -57l-227 227v-321h-82v321l-228 -227l-57 57l227 228h-321v82h321l-227 227z" />
    <glyph glyph-name="plus" unicode="+" horiz-adv-x="1196" 
d="M66 614v205h430v430h204v-430h430v-205h-430v-430h-204v430h-430z" />
    <glyph glyph-name="comma" unicode="," horiz-adv-x="548" 
d="M121 0v307h307v-307l-184 -307h-123l123 307h-123z" />
    <glyph glyph-name="hyphen" unicode="-" horiz-adv-x="856" 
d="M121 430v205h614v-205h-614z" />
    <glyph glyph-name="period" unicode="." horiz-adv-x="548" 
d="M121 0v307h307v-307h-307z" />
    <glyph glyph-name="slash" unicode="/" horiz-adv-x="1193" 
d="M39 0l829 1434h285l-829 -1434h-285z" />
    <glyph glyph-name="zero" unicode="0" horiz-adv-x="1335" 
d="M360 717q0 -130 23 -238q20 -93 63 -162q42 -67 97 -92q55 -30 125 -30q68 0 127 30q55 27 96 92q40 64 61 162q23 108 23 238q0 125 -23 237q-21 98 -61 162t-96 94q-63 29 -127 29q-65 0 -125 -29q-56 -29 -97 -94q-43 -69 -63 -162q-23 -112 -23 -237zM1241 717
q0 -208 -45 -344q-46 -143 -123 -232q-79 -91 -182 -131q-106 -41 -223 -41q-118 0 -224 41q-103 40 -182 131q-77 89 -123 232q-45 136 -45 344q0 207 45 346q47 143 123 231t182 129t224 41q117 0 223 -41t182 -129t123 -231q45 -139 45 -346z" />
    <glyph glyph-name="one" unicode="1" horiz-adv-x="821" 
d="M651 0h-266v1106l-328 -338v338l328 328h266v-1434z" />
    <glyph glyph-name="two" unicode="2" horiz-adv-x="1173" 
d="M354 1065h-266q10 98 47 166q41 75 105 127q66 54 149 80q82 26 191 26q118 0 200 -32q89 -35 152 -89q63 -60 96 -133t33 -166q0 -71 -14 -126q-15 -59 -43 -113q-32 -60 -76 -109q-46 -55 -109 -112l-383 -359h656v-225h-1004v225l553 533q90 87 121 145q33 59 33 131
q0 38 -13 82q-15 42 -41 70q-31 31 -67 47q-43 16 -94 16q-95 0 -156 -49t-70 -135z" />
    <glyph glyph-name="three" unicode="3" horiz-adv-x="1198" 
d="M465 655v215h113q98 0 157 50q58 49 58 135q0 91 -58 143q-57 51 -157 51q-51 0 -89 -14q-40 -15 -63 -35q-24 -19 -41 -49q-17 -31 -20 -55h-269q9 77 45 141q34 63 97 117q63 50 147 80q83 30 193 30q112 0 200 -30q91 -35 152 -88q61 -55 96 -127q33 -70 33 -154
q0 -86 -41 -160t-133 -127q116 -52 172 -147q53 -95 53 -211q0 -97 -37 -178q-39 -87 -106 -142q-71 -62 -168 -96q-100 -35 -221 -35q-126 0 -222 35q-95 35 -157 88q-67 58 -101 127q-33 68 -43 150h269q16 -82 71 -131q57 -54 183 -54q67 0 120 21q49 18 82 51
q35 35 49 76q15 40 15 88q0 99 -60 168q-58 67 -196 67h-123z" />
    <glyph glyph-name="four" unicode="4" horiz-adv-x="1263" 
d="M39 492l666 942h286v-942h205v-226h-205v-266h-266v266h-686v226zM315 492h410v174q0 104 2 147q0 78 2 113q0 34 4 96q5 78 6 94h-8q-7 -13 -22.5 -38.5t-22.5 -39.5q-2 -4 -53 -88q-14 -22 -74 -112q-10 -14 -106 -152z" />
    <glyph glyph-name="five" unicode="5" horiz-adv-x="1220" 
d="M371 625h-260l51 809h891v-226h-645l-21 -317q42 54 115 84q76 29 172 29q118 0 203 -39q87 -40 147 -109q61 -74 90 -164q31 -98 31 -200q0 -111 -35 -207q-39 -99 -106 -166q-69 -69 -170 -109q-103 -41 -232 -41q-102 0 -190 31q-85 26 -154 82q-66 53 -108 125
q-44 70 -60 162h266q15 -78 78 -125q58 -49 168 -49q137 0 209 84q68 83 68 213q0 139 -62 219q-65 77 -194 77q-96 0 -160 -43q-65 -44 -92 -120z" />
    <glyph glyph-name="six" unicode="6" horiz-adv-x="1257" 
d="M657 1464q186 0 308 -90q118 -87 153 -237h-276q-22 54 -74 84q-54 28 -121 28q-132 0 -205 -98q-76 -98 -82 -322q51 68 142 113q87 41 186 41q117 0 207 -37q92 -42 154 -104q63 -66 98 -156q33 -85 33 -194q0 -116 -39 -207q-41 -96 -111 -166q-66 -66 -166 -109
q-96 -41 -207 -41q-163 0 -270 64q-108 61 -172 166q-66 107 -92 239q-29 142 -29 279q0 211 45 350q46 142 123 231q74 86 178 127q98 39 217 39zM657 184q57 0 105 25q46 21 82 63q33 38 51 95q18 53 18 114q0 122 -65 205q-67 82 -191 82q-115 0 -190 -78
q-76 -76 -76 -209q0 -59 19 -114q17 -53 53 -95q37 -43 84 -63q52 -25 110 -25z" />
    <glyph glyph-name="seven" unicode="7" horiz-adv-x="1083" 
d="M1040 1208l-628 -1208h-283l629 1208h-721v226h1003v-226z" />
    <glyph glyph-name="eight" unicode="8" 
d="M631 -31q-122 0 -217 33q-103 35 -172 92q-73 58 -113 139q-41 80 -41 177q0 123 59 215q60 90 177 143q-91 46 -138 127q-47 77 -47 170q0 89 37 162q38 74 103 127q63 52 153 82q92 28 199 28q103 0 198 -28q95 -32 156 -82q60 -49 100 -127q37 -73 37 -162
q0 -96 -45 -170q-47 -80 -139 -127q116 -52 176 -143q60 -94 60 -215q0 -100 -39 -177q-37 -76 -113 -139q-72 -57 -172 -92q-98 -33 -219 -33zM354 420q0 -106 78 -172q76 -64 199 -64q124 0 200 64t76 172q0 51 -20 92q-19 39 -56 76q-41 33 -88 49q-53 18 -112 18
q-61 0 -113 -18q-49 -17 -86 -49q-37 -34 -57 -76q-21 -44 -21 -92zM395 1055q0 -91 68 -144q66 -51 168 -51t168 51q67 52 67 144t-63 143t-172 51t-172 -51q-64 -52 -64 -143z" />
    <glyph glyph-name="nine" unicode="9" horiz-adv-x="1257" 
d="M598 -31q-184 0 -303 90q-118 89 -148 238h277q40 -113 184 -113q124 0 203 99q78 101 84 321q-51 -68 -139 -110q-87 -43 -189 -43q-115 0 -205 41q-93 41 -155 106q-59 62 -96 160q-35 90 -35 194q0 109 41 205t112 164q67 64 172 106q98 37 217 37q162 0 269 -61
q106 -65 166 -168q62 -106 86 -240q22 -141 22 -278q0 -211 -45 -350q-47 -147 -121 -232q-73 -85 -180 -127q-98 -39 -217 -39zM608 1249q-124 0 -194 -82q-72 -84 -72 -204q0 -63 18 -115q14 -52 50 -94q33 -44 79 -64q47 -24 109 -24q55 0 107 22q47 20 83 62
q37 43 56 94q20 50 20 119q0 121 -65 204q-67 82 -191 82z" />
    <glyph glyph-name="colon" unicode=":" horiz-adv-x="552" 
d="M123 0v307h307v-307h-307zM123 758v307h307v-307h-307z" />
    <glyph glyph-name="semicolon" unicode=";" horiz-adv-x="552" 
d="M123 758v307h307v-307h-307zM123 0v307h307v-307l-184 -307h-123l123 307h-123z" />
    <glyph glyph-name="less" unicode="&#x3c;" horiz-adv-x="1140" 
d="M63 819l943 430v-225l-707 -307l707 -307v-226l-943 430v205z" />
    <glyph glyph-name="equal" unicode="=" horiz-adv-x="1200" 
d="M129 840v204h942v-204h-942zM129 389v205h942v-205h-942z" />
    <glyph glyph-name="greater" unicode="&#x3e;" horiz-adv-x="1140" 
d="M135 1249l942 -430v-205l-942 -430v226l707 307l-707 307v225z" />
    <glyph glyph-name="question" unicode="?" horiz-adv-x="1056" 
d="M334 0v307h307v-307h-307zM324 1096h-267q3 76 39 147q34 66 97 117q60 51 143 78q79 26 182 26q112 0 197 -30q88 -31 145 -82q56 -51 88 -125q31 -73 31 -152q0 -91 -27 -149q-27 -61 -71 -105q-34 -37 -90 -78q-56 -39 -93 -71q-44 -41 -69 -84q-29 -50 -29 -117h-225
q0 97 24 162q25 67 64 112q42 53 82 82q32 25 82 68q36 34 61 78q25 42 25 102q0 70 -47 123q-45 51 -148 51q-94 0 -139 -45q-46 -46 -55 -108z" />
    <glyph glyph-name="at" unicode="@" horiz-adv-x="1884" 
d="M936 266q110 0 168 76q57 72 57 190t-57 193q-59 74 -168 74q-99 0 -162 -72q-63 -69 -63 -195q0 -125 63 -194q63 -72 162 -72zM926 -328q-179 0 -336 68q-152 63 -268 182q-117 120 -181 275q-65 157 -65 335q0 181 65 338q63 152 181 273q112 115 272 184
q160 66 342 66q187 0 342 -64q164 -68 272 -176q119 -119 181 -266q65 -154 65 -334q0 -123 -27 -209q-28 -92 -71 -143q-45 -57 -109 -82q-61 -27 -131 -27q-77 0 -141 37q-64 34 -94 96q-47 -61 -123 -102q-77 -41 -195 -41q-91 0 -164 33q-80 36 -133 92q-52 52 -90 143
q-33 79 -33 182q0 106 33 185q37 88 90 141q53 56 133 92q73 33 164 33q99 0 164 -35q64 -39 92 -67v71h225v-553q0 -67 19 -96q15 -27 63 -27q61 0 99 74q35 72 35 203q0 137 -50 258q-51 123 -137 209q-85 85 -211 139q-122 49 -268 49q-144 0 -268 -53
q-122 -55 -211 -147q-88 -91 -138 -215q-49 -122 -49 -261q0 -140 49 -262q50 -124 138 -215q90 -94 211 -145q124 -53 268 -53q80 0 149 14q73 15 138 39v-186q-140 -52 -297 -52z" />
    <glyph glyph-name="A" unicode="A" horiz-adv-x="1437" 
d="M1159 0l-125 317h-631l-124 -317h-277l584 1434h266l584 -1434h-277zM588 782l-94 -239h450l-94 239q-46 120 -72 201q-29 80 -55 174h-8q-20 -72 -56 -176q-50 -147 -71 -199z" />
    <glyph glyph-name="B" unicode="B" horiz-adv-x="1454" 
d="M918 0h-748v1434h707q95 0 178 -27q80 -27 139 -80q53 -48 90 -123q33 -67 33 -160q0 -99 -41 -170q-43 -70 -113 -116q89 -51 150 -140q55 -85 55 -208q0 -95 -33 -168q-35 -78 -92 -129q-63 -56 -141 -82q-85 -31 -184 -31zM436 225h461q108 0 158 56q47 53 47 139
q0 84 -49 145q-51 60 -156 60h-461v-400zM436 850h420q91 0 143 49t52 135q0 85 -52 131q-52 43 -143 43h-420v-358z" />
    <glyph glyph-name="C" unicode="C" horiz-adv-x="1478" 
d="M1139 399h288q-29 -92 -84 -172q-49 -74 -131 -137q-76 -58 -178 -88q-98 -33 -231 -33q-166 0 -297 58q-138 58 -225 155q-95 100 -144 236q-51 134 -51 299t51 299q48 132 144 235q87 97 225 158q131 55 297 55q119 0 225 -28q92 -28 174 -84q75 -54 129 -127
q49 -69 86 -160h-293q-41 75 -114 125q-76 49 -207 49q-113 0 -195 -43q-84 -43 -141 -115q-59 -71 -86 -166q-29 -102 -29 -198q0 -97 29 -199q27 -95 86 -166q55 -70 141 -114q82 -43 195 -43q66 0 125 16q48 13 96 45q47 32 70 63q33 46 45 80z" />
    <glyph glyph-name="D" unicode="D" horiz-adv-x="1497" 
d="M1409 717q0 -170 -47 -303q-50 -134 -139 -226t-219 -139q-128 -49 -291 -49h-543v1434h543q161 0 291 -50q131 -50 219 -141q89 -92 139 -225q47 -133 47 -301zM436 1208v-983h256q230 0 342 127q109 127 109 365q0 239 -109 366q-110 125 -342 125h-256z" />
    <glyph glyph-name="E" unicode="E" horiz-adv-x="1325" 
d="M170 0v1434h1044v-226h-778v-358h738v-225h-738v-400h778v-225h-1044z" />
    <glyph glyph-name="F" unicode="F" horiz-adv-x="1288" 
d="M170 0v1434h1044v-226h-778v-379h738v-225h-738v-604h-266z" />
    <glyph glyph-name="G" unicode="G" horiz-adv-x="1548" 
d="M803 1239q-113 0 -195 -43q-84 -43 -141 -115q-59 -71 -86 -166q-29 -102 -29 -198q0 -97 29 -199q27 -95 86 -166q55 -70 141 -114q82 -43 195 -43q159 0 266 90q104 88 113 268h-379v225h635v-778h-205l-21 143q-64 -80 -163 -125q-101 -49 -256 -49q-163 0 -291 58
q-135 57 -223 155q-94 101 -142 236q-51 134 -51 299t51 299q48 132 144 235q87 97 225 158q131 55 297 55q119 0 225 -28q92 -28 174 -84q75 -54 129 -127q49 -69 86 -160h-293q-41 75 -114 125q-76 49 -207 49z" />
    <glyph glyph-name="H" unicode="H" horiz-adv-x="1568" 
d="M1399 1434v-1434h-266v625h-697v-625h-266v1434h266v-584h697v584h266z" />
    <glyph glyph-name="I" unicode="I" horiz-adv-x="606" 
d="M436 0h-266v1434h266v-1434z" />
    <glyph glyph-name="J" unicode="J" horiz-adv-x="997" 
d="M45 225h293q131 0 184 68q51 63 51 188v953h267v-953q0 -123 -35 -213t-100 -149q-66 -63 -158 -90q-101 -29 -209 -29h-293v225z" />
    <glyph glyph-name="K" unicode="K" horiz-adv-x="1390" 
d="M436 0h-266v1434h266v-605l594 605h338l-696 -697l737 -737h-358l-615 635v-635z" />
    <glyph glyph-name="L" unicode="L" horiz-adv-x="1198" 
d="M170 0v1434h266v-1209h738v-225h-1004z" />
    <glyph glyph-name="M" unicode="M" horiz-adv-x="1855" 
d="M928 0l-326 625q-48 93 -51 100q-7 15 -21.5 46.5t-21.5 47.5q-19 41 -41 94q-5 12 -41 101h-8q1 -21 4 -57t4 -50q2 -44 6 -98q1 -16 2 -48t2 -48v-109v-604h-266v1434h297l278 -545q10 -22 30 -58.5t24 -44.5q7 -16 22.5 -46.5t22.5 -45.5t20.5 -45.5t20.5 -46.5
q26 -58 43 -100q17 42 43 100q7 15 21.5 45.5t21.5 46.5q17 38 45 92q8 18 26.5 54t24.5 49l279 545h297v-1434h-267v604q0 74 2 109q0 65 2 96q1 12 3.5 45.5t3.5 52.5q1 14 4 50t4 57h-8q-5 -14 -19.5 -49t-21.5 -52q-23 -53 -41 -94q-7 -16 -21.5 -47.5t-21.5 -46.5
q-8 -18 -28 -55.5t-24 -44.5z" />
    <glyph glyph-name="N" unicode="N" horiz-adv-x="1589" 
d="M1153 829v605h266v-1434h-286l-431 625q-56 79 -100 149q-47 69 -74 117q-33 47 -55 90q-37 62 -43 74h-8q1 -17 4 -48t4 -46q1 -16 2 -48t2 -49q0 -71 2 -112v-148v-604h-266v1434h287l430 -625q23 -32 58.5 -86.5t41.5 -63.5q12 -17 37.5 -56.5t38.5 -57.5
q11 -20 30 -50t25 -40q7 -14 21 -39.5t20 -36.5h8q-1 16 -6 94q-4 62 -4 96q-2 35 -2 115q-2 41 -2 145z" />
    <glyph glyph-name="O" unicode="O" horiz-adv-x="1601" 
d="M350 717q0 -101 31 -199q26 -91 88 -166q59 -70 141 -114q82 -43 191 -43q108 0 190 43q88 46 144 114q57 69 88 166q28 98 28 199q0 100 -28 198q-31 97 -88 166q-58 69 -144 115q-82 43 -190 43q-109 0 -191 -43q-81 -43 -141 -115q-62 -75 -88 -166q-31 -98 -31 -198z
M1518 717q0 -162 -52 -299q-53 -140 -145 -236q-92 -99 -225 -155q-131 -58 -295 -58q-162 0 -293 58q-137 57 -227 155q-93 98 -146 236q-51 134 -51 299t51 299q52 133 146 235q90 97 227 158q131 55 293 55q164 0 295 -55q133 -59 225 -158q92 -100 145 -235
q52 -137 52 -299z" />
    <glyph glyph-name="P" unicode="P" horiz-adv-x="1425" 
d="M907 573h-471v-573h-266v1434h737q104 0 195 -31q86 -30 147 -88q63 -60 97 -135q32 -74 32 -176q0 -104 -32 -175q-33 -76 -97 -137q-61 -58 -147 -88q-91 -31 -195 -31zM436 799h471q93 0 150 57q55 55 55 148q0 91 -55 149q-58 55 -150 55h-471v-409z" />
    <glyph glyph-name="Q" unicode="Q" horiz-adv-x="1619" 
d="M1518 717q0 -155 -43 -283q-45 -129 -132 -229l205 -205h-317l-62 61q-74 -45 -170 -67q-98 -25 -198 -25q-162 0 -293 58q-137 57 -227 155q-93 98 -146 236q-51 134 -51 299t51 299q52 133 146 235q90 97 227 158q131 55 293 55q164 0 295 -55q133 -59 225 -158
q92 -100 145 -235q52 -137 52 -299zM350 717q0 -101 31 -199q26 -91 88 -166q59 -70 141 -114q82 -43 191 -43q107 0 192 43l-305 305h318l153 -154q45 65 70 152q22 86 22 176q0 100 -28 198q-31 97 -88 166q-58 69 -144 115q-82 43 -190 43q-109 0 -191 -43
q-81 -43 -141 -115q-62 -75 -88 -166q-31 -98 -31 -198z" />
    <glyph glyph-name="R" unicode="R" horiz-adv-x="1462" 
d="M436 573v-573h-266v1434h737q104 0 195 -31q86 -30 147 -88q63 -60 97 -135q32 -74 32 -176q0 -104 -32 -175q-33 -76 -97 -137q-61 -58 -147 -88q-91 -31 -195 -31h-61l573 -573h-358l-563 573h-62zM436 799h471q93 0 150 57q55 55 55 148q0 91 -55 149q-58 55 -150 55
h-471v-409z" />
    <glyph glyph-name="S" unicode="S" horiz-adv-x="1345" 
d="M72 399h270q3 -106 88 -166q83 -59 246 -59q162 0 248 62t86 153q0 55 -21 90q-19 31 -61 53q-41 21 -92 33q-13 2 -54 10t-65 11l-123 18q-117 15 -203 49q-91 35 -153 86q-68 55 -101 129q-35 75 -35 176q0 91 37 166q33 72 109 133q67 53 180 89q100 32 248 32
q147 0 250 -34q106 -38 172 -95q68 -59 102 -129q33 -67 39 -141h-270q-3 35 -19 76q-17 33 -53 61q-36 29 -90 43q-55 15 -131 15q-84 0 -154 -17q-62 -18 -96 -45q-34 -25 -51 -63q-17 -39 -17 -70q0 -51 21 -86q23 -39 59 -57q38 -24 90 -39q59 -17 117 -25l123 -18
q101 -14 199 -43q93 -27 159 -76q66 -48 107 -123q37 -75 37 -188q0 -100 -39 -177q-39 -79 -117 -139q-75 -58 -186 -92q-106 -33 -252 -33t-252 33q-116 35 -188 90q-81 62 -119 137q-42 79 -45 170z" />
    <glyph glyph-name="T" unicode="T" horiz-adv-x="1257" 
d="M1233 1434v-226h-471v-1208h-266v1208h-471v226h1208z" />
    <glyph glyph-name="U" unicode="U" horiz-adv-x="1499" 
d="M750 -31q-141 0 -248 43q-112 44 -187 119q-78 75 -118 176q-41 103 -41 215v912h266v-912q0 -78 24 -137q20 -59 66 -102q46 -46 104 -66q61 -22 134 -22q71 0 135 22q56 20 102 66q44 41 68 102q22 61 22 137v912h266v-912q0 -114 -40 -215q-41 -103 -117 -176
q-74 -74 -189 -119q-110 -43 -247 -43z" />
    <glyph glyph-name="V" unicode="V" horiz-adv-x="1345" 
d="M799 700l258 734h276l-532 -1434h-256l-533 1434h277l258 -732q40 -111 67 -204q9 -34 28 -100.5t28 -100.5h6q19 72 57 201q20 73 66 202z" />
    <glyph glyph-name="W" unicode="W" horiz-adv-x="1957" 
d="M983 1085h-8q-18 -100 -39 -196q-14 -68 -47 -184l-197 -705h-266l-410 1434h267l182 -680q42 -160 53 -213q26 -128 37 -193h8q7 33 21 98.5t20 94.5q26 125 53 215l189 678h266l188 -678q37 -121 56 -215q23 -113 39 -193h8q3 18 39 193q18 88 51 213l182 680h267
l-410 -1434h-266l-197 705q-24 87 -45 184q-31 140 -41 196z" />
    <glyph glyph-name="X" unicode="X" horiz-adv-x="1339" 
d="M1294 1434l-477 -676l529 -758h-312l-368 543l-371 -543h-301l528 750l-477 684h311l318 -469l319 469h301z" />
    <glyph glyph-name="Y" unicode="Y" 
d="M498 0v563l-482 871h287l328 -635l327 635h287l-481 -871v-563h-266z" />
    <glyph glyph-name="Z" unicode="Z" horiz-adv-x="1269" 
d="M1202 225v-225h-1126v225l768 983h-748v226h1075v-226l-768 -983h799z" />
    <glyph glyph-name="bracketleft" unicode="[" horiz-adv-x="718" 
d="M158 -369v1803h506v-205h-252v-1393h252v-205h-506z" />
    <glyph glyph-name="backslash" unicode="\" horiz-adv-x="1193" 
d="M326 1434l829 -1434h-285l-829 1434h285z" />
    <glyph glyph-name="bracketright" unicode="]" horiz-adv-x="718" 
d="M561 1434v-1803h-506v205h252v1393h-252v205h506z" />
    <glyph glyph-name="asciicircum" unicode="^" horiz-adv-x="1110" 
d="M63 532l390 902h204l390 -902h-226l-266 656l-266 -656h-226z" />
    <glyph glyph-name="underscore" unicode="_" horiz-adv-x="1269" 
d="M102 -164v164h1065v-164h-1065z" />
    <glyph glyph-name="grave" unicode="`" horiz-adv-x="593" 
d="M369 1434l163 -246h-245l-246 246h328z" />
    <glyph glyph-name="a" unicode="a" horiz-adv-x="1193" 
d="M379 778h-262q24 146 145 232t330 86q130 0 233 -35q102 -34 162 -107q80 -92 80 -247v-707h-254v123q-18 -25 -53 -57q-34 -31 -74 -50q-48 -23 -98 -34q-60 -13 -129 -13q-75 0 -152 23q-76 23 -125 63q-56 44 -86 109q-30 64 -30 153q0 155 108 238q112 85 295 100
l344 31v21q0 91 -49 143q-48 51 -172 51q-99 0 -150 -31q-51 -34 -63 -92zM500 164q67 0 123 20q54 17 100 56q42 39 65 92q25 58 25 129v41l-334 -31q-72 -6 -114 -45q-46 -40 -46 -109q0 -77 52 -114q48 -39 129 -39z" />
    <glyph glyph-name="b" unicode="b" horiz-adv-x="1296" 
d="M381 532q0 -77 22 -145q22 -72 60 -115q42 -49 94 -71q53 -27 117 -27q139 0 215 94q78 96 78 264q0 169 -78 265q-76 94 -215 94q-62 0 -117 -25q-53 -26 -94 -73q-37 -43 -60 -113q-22 -71 -22 -148zM391 133v-133h-254v1434h254v-502q47 70 129 117q83 47 205 47
t211 -45q94 -48 156 -121q59 -70 96 -180q33 -98 33 -218q0 -119 -33 -217q-36 -107 -96 -178q-64 -77 -156 -123q-89 -45 -211 -45t-205 47q-82 46 -129 117z" />
    <glyph glyph-name="c" unicode="c" horiz-adv-x="1157" 
d="M838 307h270q-47 -153 -168 -246q-121 -92 -317 -92q-131 0 -232 43q-103 44 -172 119q-68 74 -106 180q-37 101 -37 221t37 224q39 105 106 178q69 75 172 119q101 43 232 43q190 0 309 -88t166 -230h-273q-20 49 -69 86q-51 31 -133 31q-83 0 -140 -31q-57 -34 -90 -84
q-34 -52 -49 -116q-14 -60 -14 -132q0 -69 14 -129q15 -64 49 -116q38 -57 90 -84q53 -33 140 -33q94 0 145 39q52 40 70 98z" />
    <glyph glyph-name="d" unicode="d" horiz-adv-x="1296" 
d="M915 532q0 84 -20 148q-22 69 -61 113q-40 46 -93 73q-58 25 -118 25q-139 0 -215 -94q-78 -96 -78 -265q0 -168 78 -264q76 -94 215 -94q63 0 118 27q52 24 93 71q39 45 61 115q20 61 20 145zM905 0v133q-47 -71 -129 -117q-83 -47 -205 -47t-211 45q-90 46 -155 123
q-60 71 -96 178q-33 98 -33 217q0 120 33 218q37 110 96 180q62 74 155 121q89 45 211 45t205 -47q82 -47 129 -117v502h254v-1434h-254z" />
    <glyph glyph-name="e" unicode="e" horiz-adv-x="1230" 
d="M864 307h275q-19 -65 -66 -131q-43 -60 -106 -106t-150 -74q-83 -27 -188 -27q-129 0 -230 43q-106 45 -174 119q-70 76 -110 180q-39 98 -39 221t39 224q42 105 112 178q69 75 172 119q101 43 224 43q204 0 327 -99q121 -97 174 -258q17 -57 27 -125q8 -57 8 -133v-41
h-819q3 -54 22 -98q19 -48 58 -90q33 -39 88 -64q52 -24 121 -24q103 0 162 47q55 46 73 96zM623 901q-64 0 -111 -20q-45 -19 -86 -60q-35 -35 -57 -84q-24 -56 -29 -102h555q-3 53 -21 102q-23 52 -53 84q-37 40 -84 60q-50 20 -114 20z" />
    <glyph glyph-name="f" unicode="f" horiz-adv-x="845" 
d="M25 860v205h256v82q0 148 81 217q79 70 230 70h229v-199h-205q-48 0 -63 -21q-18 -21 -18 -67v-82h286v-205h-286v-860h-254v860h-256z" />
    <glyph glyph-name="g" unicode="g" horiz-adv-x="1286" 
d="M905 563q0 76 -20 135q-21 57 -60 103q-40 43 -92 67q-61 23 -121 23q-54 0 -112 -23q-53 -24 -90 -67q-36 -42 -58 -103q-22 -64 -22 -135q0 -72 22 -133q21 -61 58 -104q39 -46 90 -66q52 -24 112 -24q66 0 121 24q49 19 92 66q41 47 60 104q20 56 20 133zM571 31
q-109 0 -202 41q-91 40 -156 114q-66 72 -100 170q-37 93 -37 207q0 111 37 209q35 96 100 170q68 74 156 113q93 41 202 41q67 0 119 -15q50 -14 94 -37q36 -19 68 -47q33 -33 43 -45v113h254v-942q0 -127 -41 -223q-41 -100 -111 -164q-67 -64 -168 -101q-93 -34 -206 -34
q-193 0 -318 82q-128 84 -158 235h261q23 -68 77 -96q53 -27 138 -27q130 0 202 84q70 82 70 244v51q-15 -18 -43 -43q-24 -24 -68 -47t-94 -37q-56 -16 -119 -16z" />
    <glyph glyph-name="h" unicode="h" horiz-adv-x="1265" 
d="M391 1434v-502q53 77 139 121q85 43 195 43q192 0 303 -111t111 -319v-666h-254v645q0 119 -51 176q-54 60 -170 60q-55 0 -107 -19q-52 -21 -88 -57t-57 -92q-21 -55 -21 -129v-584h-254v1434h254z" />
    <glyph glyph-name="i" unicode="i" horiz-adv-x="528" 
d="M137 0v1065h254v-1065h-254zM137 1208v226h254v-226h-254z" />
    <glyph glyph-name="j" unicode="j" horiz-adv-x="536" 
d="M145 1208v226h254v-226h-254zM145 -61v1126h254v-1126q0 -152 -96 -230q-101 -78 -260 -78h-113v199h103q59 0 88 29q24 27 24 80z" />
    <glyph glyph-name="k" unicode="k" horiz-adv-x="1142" 
d="M391 453v-453h-254v1434h254v-791l412 422h325l-512 -512l553 -553h-346z" />
    <glyph glyph-name="l" unicode="l" horiz-adv-x="528" 
d="M137 0v1434h254v-1434h-254z" />
    <glyph glyph-name="m" unicode="m" horiz-adv-x="1931" 
d="M391 1065v-123q53 86 133 121q73 33 170 33q132 0 217 -49q85 -51 131 -136q46 85 134 136q85 49 225 49q81 0 158 -25q74 -27 129 -76q52 -52 86 -127q30 -76 30 -182v-686h-254v645q0 117 -47 176q-48 60 -164 60q-47 0 -90 -15q-39 -13 -75 -45q-37 -37 -56 -82
q-20 -50 -20 -125v-614h-254v645q0 117 -47 176q-48 60 -164 60q-47 0 -90 -15q-40 -14 -76 -45q-35 -35 -55 -82q-21 -53 -21 -125v-614h-254v1065h254z" />
    <glyph glyph-name="n" unicode="n" horiz-adv-x="1265" 
d="M391 1065v-133q53 77 139 121q85 43 195 43q192 0 303 -111t111 -319v-666h-254v645q0 119 -51 176q-54 60 -170 60q-55 0 -107 -19q-52 -21 -88 -57t-57 -92q-21 -55 -21 -129v-584h-254v1065h254z" />
    <glyph glyph-name="o" unicode="o" 
d="M328 532q0 -64 18 -129q15 -64 53 -114q38 -53 95 -82q56 -33 137 -33t137 33q56 29 94 82q38 51 56 114q16 69 16 129q0 63 -16 132q-16 58 -56 114q-36 48 -94 82q-60 31 -137 31t-137 -31q-59 -35 -95 -82q-39 -55 -53 -114q-18 -64 -18 -132zM1188 532
q0 -123 -39 -221q-38 -99 -113 -180q-72 -74 -176 -119q-101 -43 -229 -43q-129 0 -230 43q-106 45 -174 119q-71 74 -112 180q-41 103 -41 221t41 224q42 105 112 178q68 74 174 119q101 43 230 43q128 0 229 -43q104 -45 176 -119q74 -81 113 -178q39 -101 39 -224z" />
    <glyph glyph-name="p" unicode="p" horiz-adv-x="1296" 
d="M381 532q0 -77 22 -145q22 -72 60 -115q42 -49 94 -71q53 -27 117 -27q139 0 215 94q78 96 78 264q0 169 -78 265q-76 94 -215 94q-62 0 -117 -25q-53 -26 -94 -73q-37 -43 -60 -113q-22 -71 -22 -148zM391 1065v-133q47 70 129 117q83 47 205 47t211 -45
q94 -48 156 -121q59 -70 96 -180q33 -98 33 -218q0 -119 -33 -217q-36 -107 -96 -178q-64 -77 -156 -123q-89 -45 -211 -45t-205 47q-82 46 -129 117v-502h-254v1434h254z" />
    <glyph glyph-name="q" unicode="q" horiz-adv-x="1296" 
d="M915 532q0 84 -20 148q-22 69 -61 113q-40 46 -93 73q-58 25 -118 25q-139 0 -215 -94q-78 -96 -78 -265q0 -168 78 -264q76 -94 215 -94q63 0 118 27q52 24 93 71q39 45 61 115q20 61 20 145zM905 932v133h254v-1434h-254v502q-47 -71 -129 -117q-83 -47 -205 -47
t-211 45q-90 46 -155 123q-60 71 -96 178q-33 98 -33 217q0 120 33 218q37 110 96 180q62 74 155 121q89 45 211 45t205 -47q82 -47 129 -117z" />
    <glyph glyph-name="r" unicode="r" horiz-adv-x="784" 
d="M752 860h-125q-109 0 -172 -57q-64 -58 -64 -199v-604h-254v1065h254v-123q40 70 107 107q65 36 190 36h64v-225z" />
    <glyph glyph-name="s" unicode="s" horiz-adv-x="1089" 
d="M569 412l-71 8q-76 8 -158 35q-76 24 -131 67q-52 38 -88 105q-33 59 -33 147q0 148 123 236q124 86 338 86q109 0 192 -27q80 -26 140 -74q59 -49 86 -102q29 -64 32 -115h-256q-3 57 -51 99q-44 38 -147 38q-113 0 -158 -36t-45 -82q0 -65 53 -92q57 -32 144 -41l71 -9
q71 -8 156 -28q75 -22 131 -60q55 -41 90 -102q33 -62 33 -158q0 -80 -33 -139q-35 -62 -94 -107q-60 -45 -148 -67q-92 -25 -196 -25q-223 0 -348 94q-127 92 -133 244h258q3 -82 61 -119q56 -36 162 -36q114 0 164 36q53 38 53 97q0 39 -14 59q-16 23 -39 37
q-27 12 -64 18q-4 1 -33.5 6t-46.5 7z" />
    <glyph glyph-name="t" unicode="t" horiz-adv-x="876" 
d="M281 287v573h-256v205h256v246h254v-246h286v-205h-286v-573q0 -47 18 -68q14 -20 63 -20h205v-199h-266q-147 0 -211 70q-63 69 -63 217z" />
    <glyph glyph-name="u" unicode="u" horiz-adv-x="1255" 
d="M864 0v123q-47 -77 -131 -115q-79 -39 -192 -39q-192 0 -303 111t-111 319v666h254v-645q0 -117 53 -176q54 -60 168 -60q118 0 191 76q71 74 71 221v584h254v-1065h-254z" />
    <glyph glyph-name="v" unicode="v" horiz-adv-x="1114" 
d="M430 0l-410 1065h271l147 -410q44 -117 64 -192q7 -27 25 -91t26 -96h8q8 32 26 96t25 91q20 75 64 192l147 410h271l-410 -1065h-254z" />
    <glyph glyph-name="w" unicode="w" horiz-adv-x="1609" 
d="M809 778h-8q0 -1 -39 -184q-16 -66 -53 -193l-125 -401h-244l-317 1065h260l104 -418q28 -114 43 -201q25 -141 31 -180h8q1 6 37 180q10 49 51 199l125 420h246l125 -420q41 -150 51 -199q36 -174 37 -180h8q6 39 31 180q15 87 43 201l104 418h260l-317 -1065h-244
l-125 401q-37 126 -51 193q-32 130 -41 184z" />
    <glyph glyph-name="x" unicode="x" horiz-adv-x="1085" 
d="M1049 1065l-367 -510l397 -555h-303l-235 356l-236 -356h-299l397 551l-366 514h301l207 -315l207 315h297z" />
    <glyph glyph-name="y" unicode="y" horiz-adv-x="1085" 
d="M414 -29l10 29l-399 1065h268l149 -410q39 -106 60 -190q6 -24 15 -59.5t15.5 -61.5t10.5 -47h8q3 14 45 168q23 80 63 190l146 410h262l-430 -1161q-19 -50 -53 -113q-29 -51 -76 -86q-44 -36 -113 -55q-71 -19 -164 -19h-143v199h123q77 0 127 29q46 27 76 112z" />
    <glyph glyph-name="z" unicode="z" horiz-adv-x="1085" 
d="M399 205h617v-205h-942v205l596 655h-576v205h901v-205z" />
    <glyph glyph-name="braceleft" unicode="{" horiz-adv-x="768" 
d="M51 635h35q40 0 70 6q30 3 53 23q22 16 31 49q9 34 6 86l-21 297q-6 92 21 157t76 105q43 38 112 57q68 19 133 19h144v-205h-103q-68 0 -102 -27q-33 -26 -27 -106l21 -297q9 -116 -41 -181q-53 -65 -144 -86q91 -21 144 -86q50 -65 41 -180l-21 -297q-6 -78 27 -104
q37 -29 102 -29h103v-205h-144q-65 0 -133 19q-65 18 -112 59q-49 40 -76 105q-27 64 -21 155l21 297q3 52 -6 86q-8 31 -31 51q-24 17 -53 23q-40 4 -70 4h-35v205z" />
    <glyph glyph-name="bar" unicode="|" horiz-adv-x="569" 
d="M158 -369v1803h254v-1803h-254z" />
    <glyph glyph-name="braceright" unicode="}" horiz-adv-x="768" 
d="M682 635h35v-205h-35q-30 0 -70 -4q-26 -5 -51 -23q-25 -22 -33 -51q-9 -34 -6 -86l21 -297q6 -91 -21 -155q-27 -65 -73 -105q-51 -42 -113 -59q-68 -19 -135 -19h-144v205h103q65 0 102 29q33 26 27 104l-21 297q-9 116 43 180q50 65 142 86q-92 21 -142 86
q-52 64 -43 181l21 297q6 80 -27 106q-35 27 -102 27h-103v205h144q67 0 135 -19q66 -18 113 -57q46 -40 73 -105t21 -157l-21 -297q-3 -52 6 -86q8 -31 33 -49q24 -20 51 -23q30 -6 70 -6z" />
    <glyph glyph-name="asciitilde" unicode="~" horiz-adv-x="1257" 
d="M309 573h-184q0 149 80 238q81 90 227 90q76 0 137 -27q42 -18 113 -59q18 -12 94 -59q47 -29 86 -29q50 0 76 33q27 30 27 100h184q0 -148 -80 -237q-82 -91 -227 -91q-74 0 -137 29q-65 29 -113 60q-21 12 -55 34t-39 25q-44 27 -86 27q-46 0 -74 -31q-29 -37 -29 -103
z" />
    <glyph glyph-name="nbsp" unicode="&#xa0;" horiz-adv-x="475" 
 />
    <glyph glyph-name="exclamdown" unicode="&#xa1;" horiz-adv-x="552" 
d="M143 143l52 451h163l52 -451v-512h-267v512zM430 1065v-307h-307v307h307z" />
    <glyph glyph-name="cent" unicode="&#xa2;" horiz-adv-x="1206" 
d="M524 -205v185q-102 18 -184 67t-141 123q-57 69 -88 166q-31 95 -31 196t31 199q31 94 88 166q60 72 141 121q82 49 184 67v185h205v-180q165 -20 270 -115q104 -93 144 -227h-269q-13 41 -51 79q-42 39 -94 52v-693q52 13 94 52q38 38 51 79h269q-40 -135 -144 -229
q-103 -92 -270 -113v-180h-205zM334 532q0 -52 12 -104q6 -37 33 -96q21 -47 59 -82q37 -37 86 -55v675q-49 -21 -86 -55q-40 -40 -59 -82q-27 -59 -33 -96q-12 -53 -12 -105z" />
    <glyph glyph-name="sterling" unicode="&#xa3;" horiz-adv-x="1228" 
d="M653 1249q-93 0 -157 -55q-68 -56 -68 -170q0 -41 10 -86q5 -24 27 -78q13 -33 37 -72q10 -20 39 -71h471v-205h-396q7 -35 7 -72q0 -57 -25 -118q-25 -62 -82 -107h639v-215h-1065v215q122 0 205 59q82 58 82 166q0 34 -10 72h-256v205h155q-41 70 -65 139
q-29 79 -29 178q0 103 39 180q38 81 102 136q65 56 154 86q89 28 186 28q107 0 193 -30q83 -30 145 -80q59 -52 96 -117q37 -72 48 -141h-256q-21 75 -80 116q-58 37 -146 37z" />
    <glyph glyph-name="currency" unicode="&#xa4;" horiz-adv-x="1294" 
d="M182 532q0 62 19 127q19 61 53 113l-170 170l154 154l174 -174q65 33 110 45q62 16 125 16t125 -16q47 -12 111 -45l174 174l153 -154l-170 -170q36 -55 54 -113q18 -61 18 -127t-18 -124q-17 -59 -54 -115l170 -170l-153 -154l-174 174q-64 -33 -111 -45
q-62 -16 -125 -16t-125 16q-45 12 -110 45l-174 -174l-154 154l170 170q-35 53 -53 115q-19 62 -19 124zM436 532q0 -42 17 -88q15 -39 43 -71q31 -34 65 -47q43 -19 86 -19t86 19q39 14 68 47q28 32 43 71q14 38 14 88q0 48 -14 86q-15 41 -43 72t-68 49q-43 19 -86 19
t-86 -19q-35 -15 -65 -49q-28 -31 -43 -72q-17 -46 -17 -86z" />
    <glyph glyph-name="yen" unicode="&#xa5;" horiz-adv-x="1288" 
d="M147 635v205h228l-320 594h277l297 -594h30l297 594h277l-320 -594h228v-205h-336l-33 -62v-61h266v-205h-266v-307h-256v307h-266v205h266v61l-33 62h-336z" />
    <glyph glyph-name="brokenbar" unicode="&#xa6;" horiz-adv-x="569" 
d="M158 -369v717h254v-717h-254zM158 717v717h254v-717h-254z" />
    <glyph glyph-name="section" unicode="&#xa7;" horiz-adv-x="1300" 
d="M68 563q0 99 55 172q50 70 131 113q-51 47 -76 108q-28 67 -28 150q0 76 34 143q37 70 97 113q71 51 153 76q85 26 201 26q223 0 354 -98q131 -104 152 -270h-254q-15 75 -76 121q-61 43 -176 43q-113 0 -172 -41q-60 -45 -60 -113q0 -44 23 -74q20 -29 66 -51
q41 -21 98 -33q68 -14 127 -24q49 -8 184 -39q92 -21 166 -68t121 -121q45 -74 45 -194q0 -100 -53 -174q-55 -73 -133 -111q51 -51 75 -108q29 -69 29 -150t-33 -143q-37 -69 -98 -113q-66 -48 -152 -74q-92 -28 -202 -28q-229 0 -355 100q-130 100 -151 268h254
q15 -76 78 -121q58 -43 174 -43t174 43q57 39 57 111q0 43 -23 76q-24 30 -65 51q-46 20 -98 31q-68 14 -127 24q-97 16 -185 39q-92 21 -166 68q-72 46 -118 121q-47 74 -47 194zM676 371q18 -3 53 -12t45 -11q25 -6 96 -29q26 16 35 23q25 21 35 35q21 30 29 47
q10 27 10 57q0 63 -29 103q-28 35 -80 57q-54 23 -112 31q-21 3 -133 22q-21 4 -101 23q-37 9 -96 28q-29 -13 -70 -57q-36 -39 -36 -104q0 -66 30 -101q25 -34 78 -57q54 -23 113 -31q86 -16 133 -24z" />
    <glyph glyph-name="dieresis" unicode="&#xa8;" horiz-adv-x="901" 
d="M98 1208v226h254v-226h-254zM549 1208v226h254v-226h-254z" />
    <glyph glyph-name="copyright" unicode="&#xa9;" horiz-adv-x="1654" 
d="M1219 901h-201q-12 35 -53 70q-39 33 -127 33q-120 0 -187 -82q-69 -81 -69 -205t69 -205q67 -82 187 -82q85 0 129 35q43 34 55 78h197q-40 -126 -136 -197q-94 -70 -245 -70q-100 0 -176 33q-82 35 -140 92t-92 140q-33 76 -33 176q0 99 33 178q36 83 92 139
q54 54 140 90q76 33 176 33q153 0 247 -70q95 -73 134 -186zM80 717q0 152 59 291q57 132 162 237q103 103 238 160q136 59 288 59t291 -59q138 -60 238 -160q101 -101 160 -237q59 -139 59 -291q0 -153 -59 -289q-57 -135 -160 -238q-102 -102 -238 -161q-142 -60 -291 -60
q-150 0 -288 60q-134 57 -238 161q-106 106 -162 238q-59 136 -59 289zM233 717q0 -121 48 -232q46 -107 127 -188t188 -127q109 -47 231 -47q123 0 232 47q107 46 188 127t127 188q47 109 47 232q0 122 -47 231t-127 189q-81 81 -188 127q-109 47 -232 47q-122 0 -231 -47
q-107 -46 -188 -127q-80 -80 -127 -189q-48 -111 -48 -231z" />
    <glyph glyph-name="ordfeminine" unicode="&#xaa;" horiz-adv-x="962" 
d="M311 1208h-190q21 117 115 183q86 63 243 63q72 0 144 -16q61 -14 112 -52t76 -92q27 -58 27 -137v-563h-185v92q-41 -47 -106 -80t-160 -33q-54 0 -117 17q-55 15 -98 49q-46 37 -68 84q-24 49 -24 121q0 115 78 184q76 67 235 82l260 23v24q0 70 -41 111
q-40 37 -133 37q-77 0 -117 -27q-42 -28 -51 -70zM408 723q44 0 94 16q45 14 80 45q29 23 53 72q18 44 18 96v41l-252 -22q-55 -3 -98 -35q-39 -29 -39 -92q0 -52 37 -86q38 -35 107 -35z" />
    <glyph glyph-name="guillemotleft" unicode="&#xab;" horiz-adv-x="1341" 
d="M350 532l359 -348h-308l-348 348l348 349h308zM872 532l359 -348h-307l-349 348l349 349h307z" />
    <glyph glyph-name="logicalnot" unicode="&#xac;" 
d="M920 471v287h-820v205h1024v-492h-204z" />
    <glyph glyph-name="uni00AD" unicode="&#xad;" horiz-adv-x="856" 
d="M121 430v205h614v-205h-614z" />
    <glyph glyph-name="registered" unicode="&#xae;" horiz-adv-x="1654" 
d="M80 717q0 152 59 291q57 132 162 237q103 103 238 160q136 59 288 59t291 -59q138 -60 238 -160q101 -101 160 -237q59 -139 59 -291q0 -153 -59 -289q-57 -135 -160 -238q-102 -102 -238 -161q-142 -60 -291 -60q-150 0 -288 60q-134 57 -238 161q-106 106 -162 238
q-59 136 -59 289zM233 717q0 -121 48 -232q46 -107 127 -188t188 -127q109 -47 231 -47q123 0 232 47q107 46 188 127t127 188q47 109 47 232q0 122 -47 231t-127 189q-81 81 -188 127q-109 47 -232 47q-122 0 -231 -47q-107 -46 -188 -127q-80 -80 -127 -189
q-48 -111 -48 -231zM705 604h-21v-307h-184v840h440q61 0 113 -21q50 -20 88 -55q34 -34 55 -84q21 -49 21 -107q0 -56 -21 -106t-55 -84q-38 -35 -88 -55q-52 -21 -113 -21h-10l307 -307h-231zM684 758h236q55 0 84 33q28 36 28 79q0 44 -28 80q-29 33 -84 33h-236v-225z
" />
    <glyph glyph-name="macron" unicode="&#xaf;" horiz-adv-x="901" 
d="M92 1229v184h717v-184h-717z" />
    <glyph glyph-name="degree" unicode="&#xb0;" horiz-adv-x="1036" 
d="M272 1024q0 -57 21 -104q17 -44 53 -80q39 -39 78 -54q46 -18 94 -18t94 18q42 16 80 54q31 31 53 80q19 49 19 104t-19 104q-24 53 -53 82q-34 34 -80 52t-94 18t-94 -18q-42 -16 -78 -52q-35 -35 -53 -82q-21 -46 -21 -104zM969 1024q0 -91 -35 -172q-34 -80 -94 -139
q-60 -60 -144 -95q-81 -34 -178 -34t-178 34q-84 35 -141 95q-62 59 -97 139q-34 78 -34 172t34 172t97 141q62 62 141 95q77 32 178 32t178 -32q79 -33 144 -95q60 -63 94 -141q35 -81 35 -172z" />
    <glyph glyph-name="plusminus" unicode="&#xb1;" horiz-adv-x="1216" 
d="M137 799v205h369v245h205v-245h368v-205h-368v-246h-205v246h-369zM137 184v205h942v-205h-942z" />
    <glyph glyph-name="uni00B2" unicode="&#xb2;" horiz-adv-x="733" 
d="M248 1423h-187q3 42 25 88q17 41 55 76q33 30 90 53q55 19 127 19q70 0 129 -19q56 -21 93 -55q34 -31 57 -82q18 -47 18 -100q0 -89 -45 -154q-51 -74 -108 -123l-195 -174h369v-153h-615v153l318 297q52 48 72 82q20 33 20 72q0 36 -25 72q-27 30 -88 30q-51 0 -79 -22
t-31 -60z" />
    <glyph glyph-name="uni00B3" unicode="&#xb3;" horiz-adv-x="741" 
d="M45 1024h186q3 -30 31 -61t96 -31q72 0 105 33t33 79q0 44 -31 80q-33 33 -103 33h-71v143h71q61 0 87 33q26 29 26 70q0 39 -26 72q-27 30 -87 30q-58 0 -81 -26q-26 -26 -29 -56h-186q9 101 88 168q77 68 208 68q133 0 216 -68q81 -69 81 -178q0 -63 -32 -106
q-36 -48 -80 -68q60 -20 98 -74q35 -53 35 -131q0 -56 -25 -104q-23 -45 -67 -80q-45 -36 -101 -53q-62 -19 -129 -19q-70 0 -125 21q-56 17 -98 53q-45 38 -63 78q-24 47 -27 94z" />
    <glyph glyph-name="acute" unicode="&#xb4;" horiz-adv-x="593" 
d="M61 1188l164 246h328l-246 -246h-246z" />
    <glyph glyph-name="mu" unicode="&#xb5;" horiz-adv-x="1306" 
d="M895 0v72q-49 -56 -109 -78q-67 -25 -133 -25t-133 25q-58 22 -108 78v-441h-254v1434h254v-645q0 -108 59 -176q58 -70 182 -70q117 0 181 70q61 67 61 176v645h254v-1065h-254z" />
    <glyph glyph-name="paragraph" unicode="&#xb6;" horiz-adv-x="1427" 
d="M733 -369h-254v983q-91 0 -170 31q-74 26 -133 82q-53 48 -90 129q-33 73 -33 168t33 168q37 81 90 129q58 54 133 84q82 29 170 29h864v-215h-159v-1588h-254v1588h-197v-1588z" />
    <glyph glyph-name="periodcentered" unicode="&#xb7;" horiz-adv-x="548" 
d="M121 379v307h307v-307h-307z" />
    <glyph glyph-name="cedilla" unicode="&#xb8;" horiz-adv-x="573" 
d="M61 -287h148q15 -41 67 -41q31 0 54 23q18 21 18 49q0 30 -18 51q-21 21 -54 21q-16 0 -28 -6t-23 -17l-94 94l143 144h189l-123 -123q71 -3 111 -49q41 -47 41 -115q0 -37 -17 -76q-15 -29 -47 -61q-25 -25 -68 -41q-46 -17 -84 -17q-81 0 -141 48q-59 47 -74 116z" />
    <glyph glyph-name="uni00B9" unicode="&#xb9;" horiz-adv-x="559" 
d="M432 799h-184v624l-205 -215v226l205 204h184v-839z" />
    <glyph glyph-name="ordmasculine" unicode="&#xba;" horiz-adv-x="1007" 
d="M258 1014q0 -56 14 -105q15 -51 45 -92q26 -39 76 -65q48 -25 111 -25q64 0 112 25q45 23 76 65q29 44 43 92q15 53 15 105q0 54 -15 106q-14 48 -43 92q-30 40 -76 64t-112 24q-60 0 -107 -24q-50 -26 -78 -64q-30 -41 -45 -92q-16 -56 -16 -106zM934 1014
q0 -91 -29 -176q-29 -80 -86 -140q-54 -57 -135 -92q-76 -33 -180 -33t-180 33q-83 36 -136 92q-58 61 -84 140q-30 80 -30 176t30 178q30 80 89 139q54 54 137 90q73 33 174 33q104 0 180 -33q81 -35 135 -92q56 -59 86 -139q29 -89 29 -176z" />
    <glyph glyph-name="guillemotright" unicode="&#xbb;" horiz-adv-x="1341" 
d="M111 184l358 348l-358 349h307l348 -349l-348 -348h-307zM633 184l358 348l-358 349h307l348 -349l-348 -348h-307z" />
    <glyph glyph-name="onequarter" unicode="&#xbc;" horiz-adv-x="1574" 
d="M430 594h-184v625l-205 -215v225l205 205h184v-840zM217 0l799 1434h205l-799 -1434h-205zM821 307l379 533h205v-533h123v-153h-123v-154h-184v154h-400v153zM1001 307h220v133q0 47 4 109q5 70 6 96h-8q-6 -13 -21 -40t-18 -34q-14 -24 -68 -100z" />
    <glyph glyph-name="onehalf" unicode="&#xbd;" horiz-adv-x="1607" 
d="M430 594h-184v625l-205 -215v225l205 205h184v-840zM217 0l799 1434h205l-799 -1434h-205zM1122 625h-186q3 42 25 88q16 39 55 75q35 32 90 54q52 18 127 18q73 0 129 -18q53 -20 92 -56q35 -32 57 -81q19 -49 19 -101q0 -88 -45 -153q-49 -72 -109 -123l-194 -174h368
v-154h-614v154l317 297q53 50 72 81q21 34 21 72q0 36 -25 72q-28 31 -88 31q-50 0 -80 -23q-28 -22 -31 -59z" />
    <glyph glyph-name="threequarters" unicode="&#xbe;" horiz-adv-x="1746" 
d="M43 819h186q3 -30 31 -61t96 -31q72 0 105 33t33 80q0 44 -31 80q-32 32 -103 32h-71v144h71q61 0 86 32q27 30 27 70q0 38 -27 72q-27 30 -86 30q-58 0 -81 -26q-26 -26 -29 -55h-187q9 99 89 167q77 68 208 68q132 0 215 -68q82 -70 82 -178q0 -63 -32 -106
q-36 -48 -80 -68q61 -21 98 -73q35 -53 35 -132q0 -56 -25 -104q-23 -45 -67 -80q-45 -36 -101 -53q-62 -19 -129 -19q-70 0 -125 21q-56 17 -98 53q-45 38 -63 78q-24 47 -27 94zM389 0l799 1434h205l-799 -1434h-205zM993 307l379 533h205v-533h123v-153h-123v-154h-184
v154h-400v153zM1174 307h219v133q0 47 4 109q5 70 6 96h-8q-6 -13 -21 -40t-18 -34q-14 -24 -68 -100z" />
    <glyph glyph-name="questiondown" unicode="&#xbf;" horiz-adv-x="1040" 
d="M713 1065v-307h-307v307h307zM723 -31h266q-3 -76 -39 -147q-34 -66 -94 -117q-61 -49 -143 -76q-86 -28 -185 -28q-110 0 -196 30q-83 29 -144 84t-90 123q-30 70 -30 152q0 87 28 151q27 60 70 105q46 46 92 78q68 50 90 71q47 40 72 84q26 45 26 115h226
q0 -95 -25 -162q-26 -69 -61 -113q-39 -45 -82 -79q-31 -23 -82 -70q-38 -33 -64 -76q-24 -44 -24 -104q0 -68 47 -121t147 -53q93 0 140 47q46 46 55 106z" />
    <glyph glyph-name="Agrave" unicode="&#xc0;" horiz-adv-x="1437" 
d="M1159 0l-125 317h-631l-124 -317h-277l584 1434h266l584 -1434h-277zM588 782l-94 -239h450l-94 239q-46 120 -72 201q-29 80 -55 174h-8q-20 -72 -56 -176q-50 -147 -71 -199zM760 1802l164 -246h-246l-246 246h328z" />
    <glyph glyph-name="Aacute" unicode="&#xc1;" horiz-adv-x="1437" 
d="M1159 0l-125 317h-631l-124 -317h-277l584 1434h266l584 -1434h-277zM588 782l-94 -239h450l-94 239q-46 120 -72 201q-29 80 -55 174h-8q-20 -72 -56 -176q-50 -147 -71 -199zM514 1556l164 246h328l-246 -246h-246z" />
    <glyph glyph-name="Acircumflex" unicode="&#xc2;" horiz-adv-x="1437" 
d="M1159 0l-125 317h-631l-124 -317h-277l584 1434h266l584 -1434h-277zM588 782l-94 -239h450l-94 239q-46 120 -72 201q-29 80 -55 174h-8q-20 -72 -56 -176q-50 -147 -71 -199zM801 1556l-82 134l-82 -134h-307l245 246h287l246 -246h-307z" />
    <glyph glyph-name="Atilde" unicode="&#xc3;" horiz-adv-x="1437" 
d="M1159 0l-125 317h-631l-124 -317h-277l584 1434h266l584 -1434h-277zM588 782l-94 -239h450l-94 239q-46 120 -72 201q-29 80 -55 174h-8q-20 -72 -56 -176q-50 -147 -71 -199zM494 1567h-164q0 125 69 194q69 72 176 72q53 0 99 -18q27 -12 82 -43q11 -6 34 -20.5
t35 -20.5q30 -21 58 -21q61 0 61 82h164q0 -124 -68 -195q-71 -71 -178 -71q-54 0 -98 20q-28 11 -82 41q-33 18 -68 43q-36 19 -59 19q-61 0 -61 -82z" />
    <glyph glyph-name="Adieresis" unicode="&#xc4;" horiz-adv-x="1437" 
d="M1159 0l-125 317h-631l-124 -317h-277l584 1434h266l584 -1434h-277zM588 782l-94 -239h450l-94 239q-46 120 -72 201q-29 80 -55 174h-8q-20 -72 -56 -176q-50 -147 -71 -199zM367 1577v225h254v-225h-254zM817 1577v225h254v-225h-254z" />
    <glyph glyph-name="Aring" unicode="&#xc5;" horiz-adv-x="1437" 
d="M442 1649q0 51 23 102q21 47 57 80q38 35 88 55q52 19 109 19q55 0 110 -19q49 -21 86 -55q41 -38 60 -80q20 -44 20 -102q0 -75 -37 -133q-42 -61 -102 -93l580 -1423h-277l-125 317h-631l-124 -317h-277l580 1423q-63 34 -101 93q-39 56 -39 133zM842 1649q0 53 -35 88
t-88 35t-88 -35t-35 -88t35 -88t88 -35t88 35t35 88zM588 782l-94 -239h450l-94 239q-46 120 -72 201q-29 80 -55 174h-8q-20 -72 -56 -176q-50 -147 -71 -199z" />
    <glyph glyph-name="AE" unicode="&#xc6;" horiz-adv-x="2185" 
d="M1071 0v317h-590l-209 -317h-307l963 1434h1147v-226h-738v-358h697v-225h-697v-400h738v-225h-1004zM840 860l-209 -317h440v665h-10q-3 -5 -34 -55.5t-52 -83.5q-64 -100 -135 -209z" />
    <glyph glyph-name="Ccedilla" unicode="&#xc7;" horiz-adv-x="1478" 
d="M598 -287h147q15 -41 68 -41q30 0 53 23q19 22 19 49q0 29 -19 51q-21 21 -53 21q-28 0 -51 -23l-94 94l84 84q-153 9 -277 68q-125 59 -209 160q-85 95 -133 231q-47 133 -47 287q0 165 51 299q48 132 144 235q87 97 225 158q131 55 297 55q119 0 225 -28
q92 -28 174 -84q75 -54 129 -127q49 -69 86 -160h-293q-41 75 -114 125q-76 49 -207 49q-113 0 -195 -43q-84 -43 -141 -115q-59 -71 -86 -166q-29 -102 -29 -198q0 -97 29 -199q27 -95 86 -166q55 -70 141 -114q82 -43 195 -43q66 0 125 16q48 13 96 45q47 32 70 63
q33 46 45 80h288q-52 -157 -170 -272q-113 -110 -307 -145l-73 -74q70 -3 110 -49q41 -47 41 -115q0 -39 -16 -76q-15 -29 -47 -61q-25 -25 -68 -41q-46 -17 -84 -17q-81 0 -141 48q-59 47 -74 116z" />
    <glyph glyph-name="Egrave" unicode="&#xc8;" horiz-adv-x="1325" 
d="M170 0v1434h1044v-226h-778v-358h738v-225h-738v-400h778v-225h-1044zM733 1802l164 -246h-246l-245 246h327z" />
    <glyph glyph-name="Eacute" unicode="&#xc9;" horiz-adv-x="1325" 
d="M170 0v1434h1044v-226h-778v-358h738v-225h-738v-400h778v-225h-1044zM487 1556l164 246h328l-246 -246h-246z" />
    <glyph glyph-name="Ecircumflex" unicode="&#xca;" horiz-adv-x="1325" 
d="M170 0v1434h1044v-226h-778v-358h738v-225h-738v-400h778v-225h-1044zM774 1556l-82 134l-82 -134h-307l246 246h287l245 -246h-307z" />
    <glyph glyph-name="Edieresis" unicode="&#xcb;" horiz-adv-x="1325" 
d="M170 0v1434h1044v-226h-778v-358h738v-225h-738v-400h778v-225h-1044zM340 1577v225h254v-225h-254zM791 1577v225h253v-225h-253z" />
    <glyph glyph-name="Igrave" unicode="&#xcc;" horiz-adv-x="606" 
d="M436 0h-266v1434h266v-1434zM344 1802l164 -246h-246l-246 246h328z" />
    <glyph glyph-name="Iacute" unicode="&#xcd;" horiz-adv-x="606" 
d="M436 0h-266v1434h266v-1434zM98 1556l164 246h328l-246 -246h-246z" />
    <glyph glyph-name="Icircumflex" unicode="&#xce;" horiz-adv-x="606" 
d="M436 0h-266v1434h266v-1434zM385 1556l-82 134l-82 -134h-307l246 246h286l246 -246h-307z" />
    <glyph glyph-name="Idieresis" unicode="&#xcf;" horiz-adv-x="606" 
d="M436 0h-266v1434h266v-1434zM-49 1577v225h254v-225h-254zM401 1577v225h254v-225h-254z" />
    <glyph glyph-name="Eth" unicode="&#xd0;" horiz-adv-x="1556" 
d="M496 225h256q230 0 342 127q108 126 108 365q0 240 -108 366q-110 125 -342 125h-256v-379h409v-215h-409v-389zM772 0h-543v614h-204v215h204v605h543q161 0 291 -50q131 -50 219 -141q89 -92 139 -225q47 -133 47 -301q0 -170 -47 -303q-50 -134 -139 -226t-219 -139
q-128 -49 -291 -49z" />
    <glyph glyph-name="Ntilde" unicode="&#xd1;" horiz-adv-x="1589" 
d="M1153 829v605h266v-1434h-286l-431 625q-56 79 -100 149q-47 69 -74 117q-33 47 -55 90q-37 62 -43 74h-8q1 -17 4 -48t4 -46q1 -16 2 -48t2 -49q0 -71 2 -112v-148v-604h-266v1434h287l430 -625q23 -32 58.5 -86.5t41.5 -63.5q12 -17 37.5 -56.5t38.5 -57.5
q11 -20 30 -50t25 -40q7 -14 21 -39.5t20 -36.5h8q-1 16 -6 94q-4 62 -4 96q-2 35 -2 115q-2 41 -2 145zM569 1567h-163q0 125 69 194q69 72 176 72q53 0 99 -18q22 -10 81 -43q10 -6 33.5 -20t36.5 -21q30 -21 57 -21q62 0 62 82h164q0 -124 -68 -195q-71 -71 -178 -71
q-54 0 -98 20q-28 11 -82 41q-33 18 -68 43q-36 19 -59 19q-62 0 -62 -82z" />
    <glyph glyph-name="Ograve" unicode="&#xd2;" horiz-adv-x="1601" 
d="M350 717q0 -101 31 -199q26 -91 88 -166q59 -70 141 -114q82 -43 191 -43q108 0 190 43q88 46 144 114q57 69 88 166q28 98 28 199q0 100 -28 198q-31 97 -88 166q-58 69 -144 115q-82 43 -190 43q-109 0 -191 -43q-81 -43 -141 -115q-62 -75 -88 -166q-31 -98 -31 -198z
M1518 717q0 -162 -52 -299q-53 -140 -145 -236q-92 -99 -225 -155q-131 -58 -295 -58q-162 0 -293 58q-137 57 -227 155q-93 98 -146 236q-51 134 -51 299t51 299q52 133 146 235q90 97 227 158q131 55 293 55q164 0 295 -55q133 -59 225 -158q92 -100 145 -235
q52 -137 52 -299zM842 1802l164 -246h-246l-246 246h328z" />
    <glyph glyph-name="Oacute" unicode="&#xd3;" horiz-adv-x="1601" 
d="M350 717q0 -101 31 -199q26 -91 88 -166q59 -70 141 -114q82 -43 191 -43q108 0 190 43q88 46 144 114q57 69 88 166q28 98 28 199q0 100 -28 198q-31 97 -88 166q-58 69 -144 115q-82 43 -190 43q-109 0 -191 -43q-81 -43 -141 -115q-62 -75 -88 -166q-31 -98 -31 -198z
M1518 717q0 -162 -52 -299q-53 -140 -145 -236q-92 -99 -225 -155q-131 -58 -295 -58q-162 0 -293 58q-137 57 -227 155q-93 98 -146 236q-51 134 -51 299t51 299q52 133 146 235q90 97 227 158q131 55 293 55q164 0 295 -55q133 -59 225 -158q92 -100 145 -235
q52 -137 52 -299zM596 1556l164 246h327l-245 -246h-246z" />
    <glyph glyph-name="Ocircumflex" unicode="&#xd4;" horiz-adv-x="1601" 
d="M350 717q0 -101 31 -199q26 -91 88 -166q59 -70 141 -114q82 -43 191 -43q108 0 190 43q88 46 144 114q57 69 88 166q28 98 28 199q0 100 -28 198q-31 97 -88 166q-58 69 -144 115q-82 43 -190 43q-109 0 -191 -43q-81 -43 -141 -115q-62 -75 -88 -166q-31 -98 -31 -198z
M1518 717q0 -162 -52 -299q-53 -140 -145 -236q-92 -99 -225 -155q-131 -58 -295 -58q-162 0 -293 58q-137 57 -227 155q-93 98 -146 236q-51 134 -51 299t51 299q52 133 146 235q90 97 227 158q131 55 293 55q164 0 295 -55q133 -59 225 -158q92 -100 145 -235
q52 -137 52 -299zM883 1556l-82 134l-82 -134h-307l245 246h287l246 -246h-307z" />
    <glyph glyph-name="Otilde" unicode="&#xd5;" horiz-adv-x="1601" 
d="M350 717q0 -101 31 -199q26 -91 88 -166q59 -70 141 -114q82 -43 191 -43q108 0 190 43q88 46 144 114q57 69 88 166q28 98 28 199q0 100 -28 198q-31 97 -88 166q-58 69 -144 115q-82 43 -190 43q-109 0 -191 -43q-81 -43 -141 -115q-62 -75 -88 -166q-31 -98 -31 -198z
M1518 717q0 -162 -52 -299q-53 -140 -145 -236q-92 -99 -225 -155q-131 -58 -295 -58q-162 0 -293 58q-137 57 -227 155q-93 98 -146 236q-51 134 -51 299t51 299q52 133 146 235q90 97 227 158q131 55 293 55q164 0 295 -55q133 -59 225 -158q92 -100 145 -235
q52 -137 52 -299zM575 1567h-163q0 125 69 194q69 72 176 72q53 0 99 -18q27 -12 82 -43q11 -6 34 -20.5t35 -20.5q30 -21 58 -21q61 0 61 82h164q0 -124 -68 -195q-71 -71 -178 -71q-54 0 -98 20q-28 11 -82 41q-33 18 -68 43q-36 19 -59 19q-62 0 -62 -82z" />
    <glyph glyph-name="Odieresis" unicode="&#xd6;" horiz-adv-x="1601" 
d="M350 717q0 -101 31 -199q26 -91 88 -166q59 -70 141 -114q82 -43 191 -43q108 0 190 43q88 46 144 114q57 69 88 166q28 98 28 199q0 100 -28 198q-31 97 -88 166q-58 69 -144 115q-82 43 -190 43q-109 0 -191 -43q-81 -43 -141 -115q-62 -75 -88 -166q-31 -98 -31 -198z
M1518 717q0 -162 -52 -299q-53 -140 -145 -236q-92 -99 -225 -155q-131 -58 -295 -58q-162 0 -293 58q-137 57 -227 155q-93 98 -146 236q-51 134 -51 299t51 299q52 133 146 235q90 97 227 158q131 55 293 55q164 0 295 -55q133 -59 225 -158q92 -100 145 -235
q52 -137 52 -299zM449 1577v225h253v-225h-253zM899 1577v225h254v-225h-254z" />
    <glyph glyph-name="multiply" unicode="&#xd7;" horiz-adv-x="1191" 
d="M739 717l359 -359l-144 -143l-358 358l-358 -358l-144 143l359 359l-359 358l144 144l358 -359l358 359l144 -144z" />
    <glyph glyph-name="Oslash" unicode="&#xd8;" horiz-adv-x="1609" 
d="M57 -31l201 242q-81 98 -125 227q-45 122 -45 279q0 165 51 299q52 133 146 235q90 97 227 158q131 55 293 55q113 0 219 -28q98 -29 186 -86l97 114h245l-202 -241q82 -99 129 -228q43 -128 43 -278q0 -162 -52 -299q-53 -140 -145 -236q-92 -99 -225 -155
q-131 -58 -295 -58q-114 0 -219 31q-102 27 -187 84l-96 -115h-246zM1255 717q0 172 -75 301l-625 -746q50 -36 115 -57q59 -20 135 -20q108 0 190 43q88 46 144 114q57 69 88 166q28 98 28 199zM354 717q0 -79 19 -160t55 -143l625 747q-52 37 -113 58q-61 20 -135 20
q-109 0 -191 -43q-81 -43 -141 -115q-62 -75 -88 -166q-31 -98 -31 -198z" />
    <glyph glyph-name="Ugrave" unicode="&#xd9;" horiz-adv-x="1499" 
d="M750 -31q-141 0 -248 43q-112 44 -187 119q-78 75 -118 176q-41 103 -41 215v912h266v-912q0 -78 24 -137q20 -59 66 -102q46 -46 104 -66q61 -22 134 -22q71 0 135 22q56 20 102 66q44 41 68 102q22 61 22 137v912h266v-912q0 -114 -40 -215q-41 -103 -117 -176
q-74 -74 -189 -119q-110 -43 -247 -43zM791 1802l163 -246h-245l-246 246h328z" />
    <glyph glyph-name="Uacute" unicode="&#xda;" horiz-adv-x="1499" 
d="M750 -31q-141 0 -248 43q-112 44 -187 119q-78 75 -118 176q-41 103 -41 215v912h266v-912q0 -78 24 -137q20 -59 66 -102q46 -46 104 -66q61 -22 134 -22q71 0 135 22q56 20 102 66q44 41 68 102q22 61 22 137v912h266v-912q0 -114 -40 -215q-41 -103 -117 -176
q-74 -74 -189 -119q-110 -43 -247 -43zM545 1556l164 246h327l-245 -246h-246z" />
    <glyph glyph-name="Ucircumflex" unicode="&#xdb;" horiz-adv-x="1499" 
d="M750 -31q-141 0 -248 43q-112 44 -187 119q-78 75 -118 176q-41 103 -41 215v912h266v-912q0 -78 24 -137q20 -59 66 -102q46 -46 104 -66q61 -22 134 -22q71 0 135 22q56 20 102 66q44 41 68 102q22 61 22 137v912h266v-912q0 -114 -40 -215q-41 -103 -117 -176
q-74 -74 -189 -119q-110 -43 -247 -43zM831 1556l-81 134l-82 -134h-308l246 246h287l246 -246h-308z" />
    <glyph glyph-name="Udieresis" unicode="&#xdc;" horiz-adv-x="1499" 
d="M750 -31q-141 0 -248 43q-112 44 -187 119q-78 75 -118 176q-41 103 -41 215v912h266v-912q0 -78 24 -137q20 -59 66 -102q46 -46 104 -66q61 -22 134 -22q71 0 135 22q56 20 102 66q44 41 68 102q22 61 22 137v912h266v-912q0 -114 -40 -215q-41 -103 -117 -176
q-74 -74 -189 -119q-110 -43 -247 -43zM397 1577v225h254v-225h-254zM848 1577v225h254v-225h-254z" />
    <glyph glyph-name="Yacute" unicode="&#xdd;" 
d="M498 0v563l-482 871h287l328 -635l327 635h287l-481 -871v-563h-266zM426 1556l164 246h328l-246 -246h-246z" />
    <glyph glyph-name="Thorn" unicode="&#xde;" horiz-adv-x="1447" 
d="M907 307h-471v-307h-266v1434h266v-267h471q107 0 195 -30q86 -30 147 -88q62 -59 97 -136q32 -74 32 -176q0 -103 -32 -174q-33 -76 -97 -137q-61 -58 -147 -88q-91 -31 -195 -31zM436 532h471q92 0 150 58q55 55 55 147t-55 150q-58 55 -150 55h-471v-410z" />
    <glyph glyph-name="germandbls" unicode="&#xdf;" 
d="M903 809q76 -19 127 -55q54 -39 90 -86q38 -54 54 -107q16 -62 16 -121q0 -96 -33 -172q-35 -80 -100 -139q-59 -56 -162 -94q-96 -35 -221 -35h-123v205h113q137 0 204 67q68 68 68 168q0 117 -66 183q-66 63 -196 63h-103v195h72q48 0 88 16q39 15 60 43q24 31 32 61
q11 42 11 74q0 79 -52 131q-54 54 -159 54q-232 0 -232 -246v-1014h-254v1014q0 99 31 184q30 82 92 141q60 57 152 93q82 32 211 32q114 0 202 -30q90 -31 146 -82q59 -53 88 -121q28 -73 28 -146q0 -95 -45 -163q-45 -71 -139 -113z" />
    <glyph glyph-name="agrave" unicode="&#xe0;" horiz-adv-x="1193" 
d="M379 778h-262q24 146 145 232t330 86q130 0 233 -35q102 -34 162 -107q80 -92 80 -247v-707h-254v123q-18 -25 -53 -57q-34 -31 -74 -50q-48 -23 -98 -34q-60 -13 -129 -13q-75 0 -152 23q-76 23 -125 63q-56 44 -86 109q-30 64 -30 153q0 155 108 238q112 85 295 100
l344 31v21q0 91 -49 143q-48 51 -172 51q-99 0 -150 -31q-51 -34 -63 -92zM500 164q67 0 123 20q54 17 100 56q42 39 65 92q25 58 25 129v41l-334 -31q-72 -6 -114 -45q-46 -40 -46 -109q0 -77 52 -114q48 -39 129 -39zM633 1434l164 -246h-246l-246 246h328z" />
    <glyph glyph-name="aacute" unicode="&#xe1;" horiz-adv-x="1193" 
d="M379 778h-262q24 146 145 232t330 86q130 0 233 -35q102 -34 162 -107q80 -92 80 -247v-707h-254v123q-18 -25 -53 -57q-34 -31 -74 -50q-48 -23 -98 -34q-60 -13 -129 -13q-75 0 -152 23q-76 23 -125 63q-56 44 -86 109q-30 64 -30 153q0 155 108 238q112 85 295 100
l344 31v21q0 91 -49 143q-48 51 -172 51q-99 0 -150 -31q-51 -34 -63 -92zM500 164q67 0 123 20q54 17 100 56q42 39 65 92q25 58 25 129v41l-334 -31q-72 -6 -114 -45q-46 -40 -46 -109q0 -77 52 -114q48 -39 129 -39zM387 1188l164 246h328l-246 -246h-246z" />
    <glyph glyph-name="acircumflex" unicode="&#xe2;" horiz-adv-x="1193" 
d="M379 778h-262q24 146 145 232t330 86q130 0 233 -35q102 -34 162 -107q80 -92 80 -247v-707h-254v123q-18 -25 -53 -57q-34 -31 -74 -50q-48 -23 -98 -34q-60 -13 -129 -13q-75 0 -152 23q-76 23 -125 63q-56 44 -86 109q-30 64 -30 153q0 155 108 238q112 85 295 100
l344 31v21q0 91 -49 143q-48 51 -172 51q-99 0 -150 -31q-51 -34 -63 -92zM500 164q67 0 123 20q54 17 100 56q42 39 65 92q25 58 25 129v41l-334 -31q-72 -6 -114 -45q-46 -40 -46 -109q0 -77 52 -114q48 -39 129 -39zM674 1188l-82 133l-82 -133h-307l246 246h286
l246 -246h-307z" />
    <glyph glyph-name="atilde" unicode="&#xe3;" horiz-adv-x="1193" 
d="M379 778h-262q24 146 145 232t330 86q130 0 233 -35q102 -34 162 -107q80 -92 80 -247v-707h-254v123q-18 -25 -53 -57q-34 -31 -74 -50q-48 -23 -98 -34q-60 -13 -129 -13q-75 0 -152 23q-76 23 -125 63q-56 44 -86 109q-30 64 -30 153q0 155 108 238q112 85 295 100
l344 31v21q0 91 -49 143q-48 51 -172 51q-99 0 -150 -31q-51 -34 -63 -92zM500 164q67 0 123 20q54 17 100 56q42 39 65 92q25 58 25 129v41l-334 -31q-72 -6 -114 -45q-46 -40 -46 -109q0 -77 52 -114q48 -39 129 -39zM367 1198h-164q0 126 69 195q68 71 177 71
q52 0 98 -18q27 -12 82 -43q11 -6 34 -20.5t35 -20.5q30 -21 58 -21q61 0 61 82h164q0 -123 -68 -194q-72 -72 -178 -72q-51 0 -98 21q-28 11 -82 41q-33 18 -68 43q-35 18 -59 18q-61 0 -61 -82z" />
    <glyph glyph-name="adieresis" unicode="&#xe4;" horiz-adv-x="1193" 
d="M379 778h-262q24 146 145 232t330 86q130 0 233 -35q102 -34 162 -107q80 -92 80 -247v-707h-254v123q-18 -25 -53 -57q-34 -31 -74 -50q-48 -23 -98 -34q-60 -13 -129 -13q-75 0 -152 23q-76 23 -125 63q-56 44 -86 109q-30 64 -30 153q0 155 108 238q112 85 295 100
l344 31v21q0 91 -49 143q-48 51 -172 51q-99 0 -150 -31q-51 -34 -63 -92zM500 164q67 0 123 20q54 17 100 56q42 39 65 92q25 58 25 129v41l-334 -31q-72 -6 -114 -45q-46 -40 -46 -109q0 -77 52 -114q48 -39 129 -39zM240 1208v226h254v-226h-254zM690 1208v226h254v-226
h-254z" />
    <glyph glyph-name="aring" unicode="&#xe5;" horiz-adv-x="1193" 
d="M379 778h-262q24 146 145 232t330 86q130 0 233 -35q102 -34 162 -107q80 -92 80 -247v-707h-254v123q-18 -25 -53 -57q-34 -31 -74 -50q-48 -23 -98 -34q-60 -13 -129 -13q-75 0 -152 23q-76 23 -125 63q-56 44 -86 109q-30 64 -30 153q0 155 108 238q112 85 295 100
l344 31v21q0 91 -49 143q-48 51 -172 51q-99 0 -150 -31q-51 -34 -63 -92zM500 164q67 0 123 20q54 17 100 56q42 39 65 92q25 58 25 129v41l-334 -31q-72 -6 -114 -45q-46 -40 -46 -109q0 -77 52 -114q48 -39 129 -39zM715 1403q0 53 -35 88t-88 35t-88 -35t-35 -88t35 -88
t88 -35t88 35t35 88zM315 1403q0 51 23 102q21 47 57 80q38 35 88 55q52 19 109 19q55 0 110 -19q49 -21 86 -55q41 -38 60 -80q20 -44 20 -102q0 -56 -20 -100q-21 -46 -60 -82q-41 -38 -86 -54q-50 -20 -110 -20q-62 0 -109 20q-47 16 -88 54q-34 31 -57 82t-23 100z" />
    <glyph glyph-name="ae" unicode="&#xe6;" horiz-adv-x="1955" 
d="M500 164q67 0 123 20q54 17 100 56q42 39 65 92q25 58 25 129v41l-334 -31q-72 -6 -114 -45q-46 -40 -46 -109q0 -77 52 -114q48 -39 129 -39zM1348 901q-64 0 -111 -20q-45 -19 -86 -60q-35 -35 -57 -84q-24 -56 -29 -102h555q-3 53 -21 102q-23 52 -53 84
q-37 40 -84 60q-50 20 -114 20zM1354 -31q-140 0 -244 49q-106 49 -178 136q-77 -86 -189 -136q-110 -49 -274 -49q-77 0 -158 23q-78 22 -127 63q-56 44 -86 109q-32 60 -32 153q0 155 108 238q112 85 295 100l344 31v21q0 91 -49 143q-48 51 -172 51q-99 0 -150 -31
q-51 -34 -63 -92h-262q24 146 145 232t330 86q131 0 229 -33q98 -34 160 -105q72 66 162 103q90 35 205 35q204 0 327 -99q121 -97 174 -258q17 -57 27 -125q8 -57 8 -133v-41h-819q3 -54 22 -98q19 -48 58 -90q33 -39 88 -64q53 -24 121 -24q103 0 162 47q55 46 73 96h275
q-19 -65 -66 -131q-43 -60 -106 -106t-150 -74q-82 -27 -188 -27z" />
    <glyph glyph-name="ccedilla" unicode="&#xe7;" horiz-adv-x="1157" 
d="M401 -287h148q15 -41 67 -41q31 0 54 23q18 21 18 49q0 30 -18 51q-21 21 -54 21q-28 0 -51 -23l-94 94l86 86q-111 9 -205 58q-89 47 -151 121q-63 75 -92 172q-33 95 -33 208q0 120 37 224q39 105 106 178q69 75 172 119q101 43 232 43q190 0 309 -88t166 -230h-273
q-20 49 -69 86q-51 31 -133 31q-83 0 -140 -31q-57 -34 -90 -84q-34 -52 -49 -116q-14 -60 -14 -132q0 -69 14 -129q15 -64 49 -116q38 -57 90 -84q53 -33 140 -33q94 0 145 39q52 40 70 98h270q-40 -124 -127 -211t-227 -114l-74 -74q71 -3 111 -49t40 -115q0 -39 -16 -76
q-15 -29 -47 -61q-25 -25 -68 -41q-46 -17 -84 -17q-81 0 -141 48q-59 47 -74 116z" />
    <glyph glyph-name="egrave" unicode="&#xe8;" horiz-adv-x="1230" 
d="M864 307h275q-19 -65 -66 -131q-43 -60 -106 -106t-150 -74q-83 -27 -188 -27q-129 0 -230 43q-106 45 -174 119q-70 76 -110 180q-39 98 -39 221t39 224q42 105 112 178q69 75 172 119q101 43 224 43q204 0 327 -99q121 -97 174 -258q17 -57 27 -125q8 -57 8 -133v-41
h-819q3 -54 22 -98q19 -48 58 -90q33 -39 88 -64q52 -24 121 -24q103 0 162 47q55 46 73 96zM623 901q-64 0 -111 -20q-45 -19 -86 -60q-35 -35 -57 -84q-24 -56 -29 -102h555q-3 53 -21 102q-23 52 -53 84q-37 40 -84 60q-50 20 -114 20zM664 1434l163 -246h-245l-246 246
h328z" />
    <glyph glyph-name="eacute" unicode="&#xe9;" horiz-adv-x="1230" 
d="M864 307h275q-19 -65 -66 -131q-43 -60 -106 -106t-150 -74q-83 -27 -188 -27q-129 0 -230 43q-106 45 -174 119q-70 76 -110 180q-39 98 -39 221t39 224q42 105 112 178q69 75 172 119q101 43 224 43q204 0 327 -99q121 -97 174 -258q17 -57 27 -125q8 -57 8 -133v-41
h-819q3 -54 22 -98q19 -48 58 -90q33 -39 88 -64q52 -24 121 -24q103 0 162 47q55 46 73 96zM623 901q-64 0 -111 -20q-45 -19 -86 -60q-35 -35 -57 -84q-24 -56 -29 -102h555q-3 53 -21 102q-23 52 -53 84q-37 40 -84 60q-50 20 -114 20zM418 1188l164 246h327l-245 -246
h-246z" />
    <glyph glyph-name="ecircumflex" unicode="&#xea;" horiz-adv-x="1230" 
d="M864 307h275q-19 -65 -66 -131q-43 -60 -106 -106t-150 -74q-83 -27 -188 -27q-129 0 -230 43q-106 45 -174 119q-70 76 -110 180q-39 98 -39 221t39 224q42 105 112 178q69 75 172 119q101 43 224 43q204 0 327 -99q121 -97 174 -258q17 -57 27 -125q8 -57 8 -133v-41
h-819q3 -54 22 -98q19 -48 58 -90q33 -39 88 -64q52 -24 121 -24q103 0 162 47q55 46 73 96zM623 901q-64 0 -111 -20q-45 -19 -86 -60q-35 -35 -57 -84q-24 -56 -29 -102h555q-3 53 -21 102q-23 52 -53 84q-37 40 -84 60q-50 20 -114 20zM705 1188l-82 133l-82 -133h-308
l246 246h287l246 -246h-307z" />
    <glyph glyph-name="edieresis" unicode="&#xeb;" horiz-adv-x="1230" 
d="M864 307h275q-19 -65 -66 -131q-43 -60 -106 -106t-150 -74q-83 -27 -188 -27q-129 0 -230 43q-106 45 -174 119q-70 76 -110 180q-39 98 -39 221t39 224q42 105 112 178q69 75 172 119q101 43 224 43q204 0 327 -99q121 -97 174 -258q17 -57 27 -125q8 -57 8 -133v-41
h-819q3 -54 22 -98q19 -48 58 -90q33 -39 88 -64q52 -24 121 -24q103 0 162 47q55 46 73 96zM623 901q-64 0 -111 -20q-45 -19 -86 -60q-35 -35 -57 -84q-24 -56 -29 -102h555q-3 53 -21 102q-23 52 -53 84q-37 40 -84 60q-50 20 -114 20zM270 1208v226h254v-226h-254z
M721 1208v226h254v-226h-254z" />
    <glyph glyph-name="igrave" unicode="&#xec;" horiz-adv-x="528" 
d="M137 0v1065h254v-1065h-254zM305 1434l164 -246h-246l-246 246h328z" />
    <glyph glyph-name="iacute" unicode="&#xed;" horiz-adv-x="528" 
d="M137 0v1065h254v-1065h-254zM59 1188l164 246h328l-246 -246h-246z" />
    <glyph glyph-name="icircumflex" unicode="&#xee;" horiz-adv-x="528" 
d="M137 0v1065h254v-1065h-254zM346 1188l-82 133l-82 -133h-307l246 246h287l245 -246h-307z" />
    <glyph glyph-name="idieresis" unicode="&#xef;" horiz-adv-x="528" 
d="M137 0v1065h254v-1065h-254zM-88 1208v226h254v-226h-254zM362 1208v226h254v-226h-254z" />
    <glyph glyph-name="eth" unicode="&#xf0;" horiz-adv-x="1196" 
d="M586 1120l-385 -137v195l241 86l-170 170h318l82 -86l327 116v-194l-188 -68q54 -57 119 -139q48 -61 98 -156q43 -91 66 -188q22 -110 22 -238q0 -107 -35 -200q-38 -96 -104 -162t-166 -109q-100 -41 -221 -41q-114 0 -205 39q-99 39 -164 107q-66 63 -108 161
q-39 91 -39 205q0 105 35 195q36 92 96 155q65 65 153 105q87 37 201 37q77 0 133 -21q50 -20 92 -51q-19 33 -26 43q-13 15 -37 43l-55 55q-15 13 -80 78zM590 174q57 0 112 25q46 19 86 63q37 43 56 94q18 52 18 115q0 132 -74 215q-76 82 -198 82q-61 0 -115 -23
q-48 -23 -82 -63q-33 -39 -49 -94q-16 -59 -16 -117q0 -65 20 -115q17 -51 53 -94q37 -43 84 -63q48 -25 105 -25z" />
    <glyph glyph-name="ntilde" unicode="&#xf1;" horiz-adv-x="1265" 
d="M391 1065v-133q53 77 139 121q85 43 195 43q192 0 303 -111t111 -319v-666h-254v645q0 119 -51 176q-54 60 -170 60q-55 0 -107 -19q-52 -21 -88 -57t-57 -92q-21 -55 -21 -129v-584h-254v1065h254zM408 1198h-164q0 126 69 195q68 71 176 71q53 0 99 -18q27 -12 82 -43
q11 -6 34 -20.5t35 -20.5q30 -21 58 -21q61 0 61 82h164q0 -123 -68 -194q-72 -72 -178 -72q-52 0 -98 21q-28 11 -82 41q-33 18 -68 43q-34 18 -59 18q-61 0 -61 -82z" />
    <glyph glyph-name="ograve" unicode="&#xf2;" 
d="M328 532q0 -64 18 -129q15 -64 53 -114q38 -53 95 -82q56 -33 137 -33t137 33q56 29 94 82q38 51 56 114q16 69 16 129q0 63 -16 132q-16 58 -56 114q-36 48 -94 82q-60 31 -137 31t-137 -31q-59 -35 -95 -82q-39 -55 -53 -114q-18 -64 -18 -132zM1188 532
q0 -123 -39 -221q-38 -99 -113 -180q-72 -74 -176 -119q-101 -43 -229 -43q-129 0 -230 43q-106 45 -174 119q-71 74 -112 180q-41 103 -41 221t41 224q42 105 112 178q68 74 174 119q101 43 230 43q128 0 229 -43q104 -45 176 -119q74 -81 113 -178q39 -101 39 -224z
M672 1434l164 -246h-246l-246 246h328z" />
    <glyph glyph-name="oacute" unicode="&#xf3;" 
d="M328 532q0 -64 18 -129q15 -64 53 -114q38 -53 95 -82q56 -33 137 -33t137 33q56 29 94 82q38 51 56 114q16 69 16 129q0 63 -16 132q-16 58 -56 114q-36 48 -94 82q-60 31 -137 31t-137 -31q-59 -35 -95 -82q-39 -55 -53 -114q-18 -64 -18 -132zM1188 532
q0 -123 -39 -221q-38 -99 -113 -180q-72 -74 -176 -119q-101 -43 -229 -43q-129 0 -230 43q-106 45 -174 119q-71 74 -112 180q-41 103 -41 221t41 224q42 105 112 178q68 74 174 119q101 43 230 43q128 0 229 -43q104 -45 176 -119q74 -81 113 -178q39 -101 39 -224z
M426 1188l164 246h328l-246 -246h-246z" />
    <glyph glyph-name="ocircumflex" unicode="&#xf4;" 
d="M328 532q0 -64 18 -129q15 -64 53 -114q38 -53 95 -82q56 -33 137 -33t137 33q56 29 94 82q38 51 56 114q16 69 16 129q0 63 -16 132q-16 58 -56 114q-36 48 -94 82q-60 31 -137 31t-137 -31q-59 -35 -95 -82q-39 -55 -53 -114q-18 -64 -18 -132zM1188 532
q0 -123 -39 -221q-38 -99 -113 -180q-72 -74 -176 -119q-101 -43 -229 -43q-129 0 -230 43q-106 45 -174 119q-71 74 -112 180q-41 103 -41 221t41 224q42 105 112 178q68 74 174 119q101 43 230 43q128 0 229 -43q104 -45 176 -119q74 -81 113 -178q39 -101 39 -224z
M713 1188l-82 133l-82 -133h-307l245 246h287l246 -246h-307z" />
    <glyph glyph-name="otilde" unicode="&#xf5;" 
d="M328 532q0 -64 18 -129q15 -64 53 -114q38 -53 95 -82q56 -33 137 -33t137 33q56 29 94 82q38 51 56 114q16 69 16 129q0 63 -16 132q-16 58 -56 114q-36 48 -94 82q-60 31 -137 31t-137 -31q-59 -35 -95 -82q-39 -55 -53 -114q-18 -64 -18 -132zM1188 532
q0 -123 -39 -221q-38 -99 -113 -180q-72 -74 -176 -119q-101 -43 -229 -43q-129 0 -230 43q-106 45 -174 119q-71 74 -112 180q-41 103 -41 221t41 224q42 105 112 178q68 74 174 119q101 43 230 43q128 0 229 -43q104 -45 176 -119q74 -81 113 -178q39 -101 39 -224z
M406 1198h-164q0 126 69 195q68 71 176 71q53 0 99 -18q27 -12 82 -43q11 -6 34 -20.5t35 -20.5q30 -21 58 -21q61 0 61 82h164q0 -123 -68 -194q-72 -72 -178 -72q-52 0 -98 21q-28 11 -82 41q-33 18 -68 43q-35 18 -59 18q-61 0 -61 -82z" />
    <glyph glyph-name="odieresis" unicode="&#xf6;" 
d="M328 532q0 -64 18 -129q15 -64 53 -114q38 -53 95 -82q56 -33 137 -33t137 33q56 29 94 82q38 51 56 114q16 69 16 129q0 63 -16 132q-16 58 -56 114q-36 48 -94 82q-60 31 -137 31t-137 -31q-59 -35 -95 -82q-39 -55 -53 -114q-18 -64 -18 -132zM1188 532
q0 -123 -39 -221q-38 -99 -113 -180q-72 -74 -176 -119q-101 -43 -229 -43q-129 0 -230 43q-106 45 -174 119q-71 74 -112 180q-41 103 -41 221t41 224q42 105 112 178q68 74 174 119q101 43 230 43q128 0 229 -43q104 -45 176 -119q74 -81 113 -178q39 -101 39 -224z
M279 1208v226h253v-226h-253zM729 1208v226h254v-226h-254z" />
    <glyph glyph-name="divide" unicode="&#xf7;" horiz-adv-x="1183" 
d="M80 614v205h1024v-205h-1024zM438 963v286h307v-286h-307zM438 184v287h307v-287h-307z" />
    <glyph glyph-name="oslash" unicode="&#xf8;" horiz-adv-x="1265" 
d="M1190 532q0 -123 -39 -221q-38 -99 -113 -180q-72 -74 -176 -119q-101 -43 -229 -43q-82 0 -166 23q-86 24 -137 59l-70 -82h-201l152 181q-66 76 -100 172q-35 100 -35 210q0 118 41 224q42 105 112 178q68 74 174 119q101 43 230 43q174 0 305 -82l68 82h200l-151 -181
q66 -78 100 -172q35 -100 35 -211zM330 532q0 -46 10 -98q8 -42 31 -94l424 506q-65 45 -162 45q-77 0 -137 -31q-59 -35 -95 -82q-39 -55 -53 -114q-18 -64 -18 -132zM936 532q0 55 -8 99q-6 35 -33 94l-424 -506q65 -45 162 -45q81 0 137 33q56 29 94 82q38 51 56 114
q16 69 16 129z" />
    <glyph glyph-name="ugrave" unicode="&#xf9;" horiz-adv-x="1255" 
d="M864 0v123q-47 -77 -131 -115q-79 -39 -192 -39q-192 0 -303 111t-111 319v666h254v-645q0 -117 53 -176q54 -60 168 -60q118 0 191 76q71 74 71 221v584h254v-1065h-254zM664 1434l163 -246h-245l-246 246h328z" />
    <glyph glyph-name="uacute" unicode="&#xfa;" horiz-adv-x="1255" 
d="M864 0v123q-47 -77 -131 -115q-79 -39 -192 -39q-192 0 -303 111t-111 319v666h254v-645q0 -117 53 -176q54 -60 168 -60q118 0 191 76q71 74 71 221v584h254v-1065h-254zM418 1188l164 246h327l-245 -246h-246z" />
    <glyph glyph-name="ucircumflex" unicode="&#xfb;" horiz-adv-x="1255" 
d="M864 0v123q-47 -77 -131 -115q-79 -39 -192 -39q-192 0 -303 111t-111 319v666h254v-645q0 -117 53 -176q54 -60 168 -60q118 0 191 76q71 74 71 221v584h254v-1065h-254zM705 1188l-82 133l-82 -133h-308l246 246h287l246 -246h-307z" />
    <glyph glyph-name="udieresis" unicode="&#xfc;" horiz-adv-x="1255" 
d="M864 0v123q-47 -77 -131 -115q-79 -39 -192 -39q-192 0 -303 111t-111 319v666h254v-645q0 -117 53 -176q54 -60 168 -60q118 0 191 76q71 74 71 221v584h254v-1065h-254zM270 1208v226h254v-226h-254zM721 1208v226h254v-226h-254z" />
    <glyph glyph-name="yacute" unicode="&#xfd;" horiz-adv-x="1085" 
d="M346 1188l164 246h328l-246 -246h-246zM414 -29l10 29l-399 1065h268l149 -410q39 -106 60 -190q6 -24 15 -59.5t15.5 -61.5t10.5 -47h8q3 14 45 168q23 80 63 190l146 410h262l-430 -1161q-19 -50 -53 -113q-29 -51 -76 -86q-44 -36 -113 -55q-71 -19 -164 -19h-143v199
h123q77 0 127 29q46 27 76 112z" />
    <glyph glyph-name="thorn" unicode="&#xfe;" horiz-adv-x="1296" 
d="M381 532q0 -77 22 -145q22 -72 60 -115q42 -49 94 -71q53 -27 117 -27q139 0 215 94q78 96 78 264q0 169 -78 265q-76 94 -215 94q-62 0 -117 -25q-53 -26 -94 -73q-37 -43 -60 -113q-22 -71 -22 -148zM391 133v-502h-254v1803h254v-502q47 70 129 117q83 47 205 47
t211 -45q94 -48 156 -121q59 -70 96 -180q33 -98 33 -218q0 -119 -33 -217q-36 -107 -96 -178q-64 -77 -156 -123q-89 -45 -211 -45t-205 47q-82 46 -129 117z" />
    <glyph glyph-name="ydieresis" unicode="&#xff;" horiz-adv-x="1085" 
d="M193 1208v226h253v-226h-253zM643 1208v226h254v-226h-254zM414 -29l10 29l-399 1065h268l149 -410q39 -106 60 -190q6 -24 15 -59.5t15.5 -61.5t10.5 -47h8q3 14 45 168q23 80 63 190l146 410h262l-430 -1161q-19 -50 -53 -113q-29 -51 -76 -86q-44 -36 -113 -55
q-71 -19 -164 -19h-143v199h123q77 0 127 29q46 27 76 112z" />
    <glyph glyph-name="Amacron" unicode="&#x100;" horiz-adv-x="1437" 
d="M1159 0l-125 317h-631l-124 -317h-277l584 1434h266l584 -1434h-277zM588 782l-94 -239h450l-94 239q-46 120 -72 201q-29 80 -55 174h-8q-20 -72 -56 -176q-50 -147 -71 -199zM360 1597v185h717v-185h-717z" />
    <glyph glyph-name="amacron" unicode="&#x101;" horiz-adv-x="1193" 
d="M379 778h-262q24 146 145 232t330 86q130 0 233 -35q102 -34 162 -107q80 -92 80 -247v-707h-254v123q-18 -25 -53 -57q-34 -31 -74 -50q-48 -23 -98 -34q-60 -13 -129 -13q-75 0 -152 23q-76 23 -125 63q-56 44 -86 109q-30 64 -30 153q0 155 108 238q112 85 295 100
l344 31v21q0 91 -49 143q-48 51 -172 51q-99 0 -150 -31q-51 -34 -63 -92zM500 164q67 0 123 20q54 17 100 56q42 39 65 92q25 58 25 129v41l-334 -31q-72 -6 -114 -45q-46 -40 -46 -109q0 -77 52 -114q48 -39 129 -39zM233 1229v184h717v-184h-717z" />
    <glyph glyph-name="Abreve" unicode="&#x102;" horiz-adv-x="1437" 
d="M1159 0l-125 317h-631l-124 -317h-277l584 1434h266l584 -1434h-277zM588 782l-94 -239h450l-94 239q-46 120 -72 201q-29 80 -55 174h-8q-20 -72 -56 -176q-50 -147 -71 -199zM719 1720q71 0 115 33t59 90h178q-9 -66 -35 -119q-29 -59 -71 -96q-46 -43 -107 -67
q-67 -25 -139 -25q-75 0 -139 25q-61 24 -107 67q-44 38 -72 96q-24 50 -34 119h178q15 -57 59 -90t115 -33z" />
    <glyph glyph-name="abreve" unicode="&#x103;" horiz-adv-x="1193" 
d="M379 778h-262q24 146 145 232t330 86q130 0 233 -35q102 -34 162 -107q80 -92 80 -247v-707h-254v123q-18 -25 -53 -57q-34 -31 -74 -50q-48 -23 -98 -34q-60 -13 -129 -13q-75 0 -152 23q-76 23 -125 63q-56 44 -86 109q-30 64 -30 153q0 155 108 238q112 85 295 100
l344 31v21q0 91 -49 143q-48 51 -172 51q-99 0 -150 -31q-51 -34 -63 -92zM500 164q67 0 123 20q54 17 100 56q42 39 65 92q25 58 25 129v41l-334 -31q-72 -6 -114 -45q-46 -40 -46 -109q0 -77 52 -114q48 -39 129 -39zM592 1352q72 0 115 32q44 33 59 91h178
q-9 -66 -35 -119q-29 -59 -71 -96q-48 -45 -107 -68q-67 -25 -139 -25q-75 0 -139 25q-59 23 -107 68q-44 38 -72 96q-24 50 -34 119h178q15 -58 59 -91q43 -32 115 -32z" />
    <glyph glyph-name="Aogonek" unicode="&#x104;" horiz-adv-x="1437" 
d="M1354 -276q25 0 53 4q33 5 49 10l-67 -176q-63 -13 -117 -13q-48 0 -101 17q-43 14 -81 47q-36 28 -54 72q-20 39 -20 90q0 90 45 147q48 60 94 88l-121 307h-631l-124 -317h-277l584 1434h266l584 -1434q-94 -48 -144 -92q-51 -45 -51 -98q0 -49 33 -66q33 -20 80 -20z
M588 782l-94 -239h450l-94 239q-46 120 -72 201q-29 80 -55 174h-8q-20 -72 -56 -176q-50 -147 -71 -199z" />
    <glyph glyph-name="aogonek" unicode="&#x105;" horiz-adv-x="1193" 
d="M592 901q-99 0 -150 -31q-51 -34 -63 -92h-262q24 146 145 232t330 86q130 0 233 -35q102 -34 162 -107q80 -92 80 -247v-707q-92 -47 -143 -92q-52 -46 -52 -98q0 -49 33 -66q33 -20 80 -20q25 0 53 4q33 5 49 10l-67 -176q-63 -13 -117 -13q-47 0 -100 17
q-44 14 -82 47q-34 27 -53 72q-21 41 -21 90q0 92 51 149q50 59 115 86v113q-18 -25 -53 -57q-34 -31 -74 -50q-48 -23 -98 -34q-60 -13 -129 -13q-75 0 -152 23q-76 23 -125 63q-56 44 -86 109q-30 64 -30 153q0 155 108 238q112 85 295 100l344 31v21q0 91 -49 143
q-48 51 -172 51zM500 164q67 0 123 20q54 17 100 56q42 39 65 92q25 58 25 129v41l-334 -31q-72 -6 -114 -45q-46 -40 -46 -109q0 -77 52 -114q48 -39 129 -39z" />
    <glyph glyph-name="Cacute" unicode="&#x106;" horiz-adv-x="1478" 
d="M1139 399h288q-29 -92 -84 -172q-49 -74 -131 -137q-76 -58 -178 -88q-98 -33 -231 -33q-166 0 -297 58q-138 58 -225 155q-95 100 -144 236q-51 134 -51 299t51 299q48 132 144 235q87 97 225 158q131 55 297 55q119 0 225 -28q92 -28 174 -84q75 -54 129 -127
q49 -69 86 -160h-293q-41 75 -114 125q-76 49 -207 49q-113 0 -195 -43q-84 -43 -141 -115q-59 -71 -86 -166q-29 -102 -29 -198q0 -97 29 -199q27 -95 86 -166q55 -70 141 -114q82 -43 195 -43q66 0 125 16q48 13 96 45q47 32 70 63q33 46 45 80zM588 1556l164 246h327
l-245 -246h-246z" />
    <glyph glyph-name="cacute" unicode="&#x107;" horiz-adv-x="1157" 
d="M838 307h270q-47 -153 -168 -246q-121 -92 -317 -92q-131 0 -232 43q-103 44 -172 119q-68 74 -106 180q-37 101 -37 221t37 224q39 105 106 178q69 75 172 119q101 43 232 43q190 0 309 -88t166 -230h-273q-20 49 -69 86q-51 31 -133 31q-83 0 -140 -31q-57 -34 -90 -84
q-34 -52 -49 -116q-14 -60 -14 -132q0 -69 14 -129q15 -64 49 -116q38 -57 90 -84q53 -33 140 -33q94 0 145 39q52 40 70 98zM412 1188l163 246h328l-246 -246h-245z" />
    <glyph glyph-name="Ccircumflex" unicode="&#x108;" horiz-adv-x="1478" 
d="M1139 399h288q-29 -92 -84 -172q-49 -74 -131 -137q-76 -58 -178 -88q-98 -33 -231 -33q-166 0 -297 58q-138 58 -225 155q-95 100 -144 236q-51 134 -51 299t51 299q48 132 144 235q87 97 225 158q131 55 297 55q119 0 225 -28q92 -28 174 -84q75 -54 129 -127
q49 -69 86 -160h-293q-41 75 -114 125q-76 49 -207 49q-113 0 -195 -43q-84 -43 -141 -115q-59 -71 -86 -166q-29 -102 -29 -198q0 -97 29 -199q27 -95 86 -166q55 -70 141 -114q82 -43 195 -43q66 0 125 16q48 13 96 45q47 32 70 63q33 46 45 80zM874 1556l-81 134
l-82 -134h-308l246 246h287l246 -246h-308z" />
    <glyph glyph-name="ccircumflex" unicode="&#x109;" horiz-adv-x="1157" 
d="M838 307h270q-47 -153 -168 -246q-121 -92 -317 -92q-131 0 -232 43q-103 44 -172 119q-68 74 -106 180q-37 101 -37 221t37 224q39 105 106 178q69 75 172 119q101 43 232 43q190 0 309 -88t166 -230h-273q-20 49 -69 86q-51 31 -133 31q-83 0 -140 -31q-57 -34 -90 -84
q-34 -52 -49 -116q-14 -60 -14 -132q0 -69 14 -129q15 -64 49 -116q38 -57 90 -84q53 -33 140 -33q94 0 145 39q52 40 70 98zM698 1188l-82 133l-81 -133h-308l246 246h287l246 -246h-308z" />
    <glyph glyph-name="Cdotaccent" unicode="&#x10a;" horiz-adv-x="1478" 
d="M1139 399h288q-29 -92 -84 -172q-49 -74 -131 -137q-76 -58 -178 -88q-98 -33 -231 -33q-166 0 -297 58q-138 58 -225 155q-95 100 -144 236q-51 134 -51 299t51 299q48 132 144 235q87 97 225 158q131 55 297 55q119 0 225 -28q92 -28 174 -84q75 -54 129 -127
q49 -69 86 -160h-293q-41 75 -114 125q-76 49 -207 49q-113 0 -195 -43q-84 -43 -141 -115q-59 -71 -86 -166q-29 -102 -29 -198q0 -97 29 -199q27 -95 86 -166q55 -70 141 -114q82 -43 195 -43q66 0 125 16q48 13 96 45q47 32 70 63q33 46 45 80zM666 1577v225h254v-225
h-254z" />
    <glyph glyph-name="cdotaccent" unicode="&#x10b;" horiz-adv-x="1157" 
d="M838 307h270q-47 -153 -168 -246q-121 -92 -317 -92q-131 0 -232 43q-103 44 -172 119q-68 74 -106 180q-37 101 -37 221t37 224q39 105 106 178q69 75 172 119q101 43 232 43q190 0 309 -88t166 -230h-273q-20 49 -69 86q-51 31 -133 31q-83 0 -140 -31q-57 -34 -90 -84
q-34 -52 -49 -116q-14 -60 -14 -132q0 -69 14 -129q15 -64 49 -116q38 -57 90 -84q53 -33 140 -33q94 0 145 39q52 40 70 98zM479 1208v226h254v-226h-254z" />
    <glyph glyph-name="Ccaron" unicode="&#x10c;" horiz-adv-x="1478" 
d="M1139 399h288q-29 -92 -84 -172q-49 -74 -131 -137q-76 -58 -178 -88q-98 -33 -231 -33q-166 0 -297 58q-138 58 -225 155q-95 100 -144 236q-51 134 -51 299t51 299q48 132 144 235q87 97 225 158q131 55 297 55q119 0 225 -28q92 -28 174 -84q75 -54 129 -127
q49 -69 86 -160h-293q-41 75 -114 125q-76 49 -207 49q-113 0 -195 -43q-84 -43 -141 -115q-59 -71 -86 -166q-29 -102 -29 -198q0 -97 29 -199q27 -95 86 -166q55 -70 141 -114q82 -43 195 -43q66 0 125 16q48 13 96 45q47 32 70 63q33 46 45 80zM711 1802l82 -133l81 133
h308l-246 -246h-287l-246 246h308z" />
    <glyph glyph-name="ccaron" unicode="&#x10d;" horiz-adv-x="1157" 
d="M838 307h270q-47 -153 -168 -246q-121 -92 -317 -92q-131 0 -232 43q-103 44 -172 119q-68 74 -106 180q-37 101 -37 221t37 224q39 105 106 178q69 75 172 119q101 43 232 43q190 0 309 -88t166 -230h-273q-20 49 -69 86q-51 31 -133 31q-83 0 -140 -31q-57 -34 -90 -84
q-34 -52 -49 -116q-14 -60 -14 -132q0 -69 14 -129q15 -64 49 -116q38 -57 90 -84q53 -33 140 -33q94 0 145 39q52 40 70 98zM535 1434l81 -134l82 134h308l-246 -246h-287l-246 246h308z" />
    <glyph glyph-name="Dcaron" unicode="&#x10e;" horiz-adv-x="1497" 
d="M1409 717q0 -170 -47 -303q-50 -134 -139 -226t-219 -139q-128 -49 -291 -49h-543v1434h543q161 0 291 -50q131 -50 219 -141q89 -92 139 -225q47 -133 47 -301zM436 1208v-983h256q230 0 342 127q109 127 109 365q0 239 -109 366q-110 125 -342 125h-256zM641 1802
l82 -133l82 133h307l-246 -246h-286l-246 246h307z" />
    <glyph glyph-name="dcaron" unicode="&#x10f;" horiz-adv-x="1437" 
d="M915 532q0 84 -20 148q-22 69 -61 113q-40 46 -93 73q-58 25 -118 25q-139 0 -215 -94q-78 -96 -78 -265q0 -168 78 -264q76 -94 215 -94q63 0 118 27q52 24 93 71q39 45 61 115q20 61 20 145zM905 0v133q-47 -71 -129 -117q-83 -47 -205 -47t-211 45q-90 46 -155 123
q-60 71 -96 178q-33 98 -33 217q0 120 33 218q37 110 96 180q62 74 155 121q89 45 211 45t205 -47q82 -47 129 -117v502h254v-1434h-254zM1251 1024l62 410h256l-123 -410h-195z" />
    <glyph glyph-name="Dcroat" unicode="&#x110;" horiz-adv-x="1556" 
d="M496 225h256q230 0 342 127q108 126 108 365q0 240 -108 366q-110 125 -342 125h-256v-379h409v-215h-409v-389zM772 0h-543v614h-204v215h204v605h543q161 0 291 -50q131 -50 219 -141q89 -92 139 -225q47 -133 47 -301q0 -170 -47 -303q-50 -134 -139 -226t-219 -139
q-128 -49 -291 -49z" />
    <glyph glyph-name="dcroat" unicode="&#x111;" horiz-adv-x="1263" 
d="M840 809v256h-437v195h437v174h254v-174h143v-195h-143v-1065h-254v113q-42 -63 -117 -103q-77 -41 -186 -41q-121 0 -207 45q-88 43 -146 113q-57 68 -84 158q-28 92 -28 176q0 87 30 176q25 82 88 158q55 66 146 114q85 43 201 43q109 0 186 -41t117 -102zM850 461
q0 57 -14 106q-13 44 -48 92q-36 42 -81 64q-52 25 -119 25q-61 0 -115 -23q-48 -23 -82 -63q-35 -41 -49 -91q-16 -56 -16 -110q0 -53 16 -109q15 -52 49 -92q35 -41 82 -61q52 -25 115 -25q67 0 119 25q44 21 81 65q35 48 48 92q14 49 14 105z" />
    <glyph glyph-name="Emacron" unicode="&#x112;" horiz-adv-x="1325" 
d="M170 0v1434h1044v-226h-778v-358h738v-225h-738v-400h778v-225h-1044zM334 1597v185h717v-185h-717z" />
    <glyph glyph-name="emacron" unicode="&#x113;" horiz-adv-x="1230" 
d="M864 307h275q-19 -65 -66 -131q-43 -60 -106 -106t-150 -74q-83 -27 -188 -27q-129 0 -230 43q-106 45 -174 119q-70 76 -110 180q-39 98 -39 221t39 224q42 105 112 178q69 75 172 119q101 43 224 43q204 0 327 -99q121 -97 174 -258q17 -57 27 -125q8 -57 8 -133v-41
h-819q3 -54 22 -98q19 -48 58 -90q33 -39 88 -64q52 -24 121 -24q103 0 162 47q55 46 73 96zM623 901q-64 0 -111 -20q-45 -19 -86 -60q-35 -35 -57 -84q-24 -56 -29 -102h555q-3 53 -21 102q-23 52 -53 84q-37 40 -84 60q-50 20 -114 20zM264 1229v184h717v-184h-717z" />
    <glyph glyph-name="Ebreve" unicode="&#x114;" horiz-adv-x="1325" 
d="M170 0v1434h1044v-226h-778v-358h738v-225h-738v-400h778v-225h-1044zM692 1720q71 0 115 33t59 90h178q-10 -69 -34 -119q-28 -58 -72 -96q-46 -43 -107 -67q-67 -25 -139 -25q-75 0 -139 25q-61 24 -107 67q-42 37 -71 96q-26 53 -35 119h178q14 -56 60 -90
q44 -33 114 -33z" />
    <glyph glyph-name="ebreve" unicode="&#x115;" horiz-adv-x="1230" 
d="M864 307h275q-19 -65 -66 -131q-43 -60 -106 -106t-150 -74q-83 -27 -188 -27q-129 0 -230 43q-106 45 -174 119q-70 76 -110 180q-39 98 -39 221t39 224q42 105 112 178q69 75 172 119q101 43 224 43q204 0 327 -99q121 -97 174 -258q17 -57 27 -125q8 -57 8 -133v-41
h-819q3 -54 22 -98q19 -48 58 -90q33 -39 88 -64q52 -24 121 -24q103 0 162 47q55 46 73 96zM623 901q-64 0 -111 -20q-45 -19 -86 -60q-35 -35 -57 -84q-24 -56 -29 -102h555q-3 53 -21 102q-23 52 -53 84q-37 40 -84 60q-50 20 -114 20zM623 1352q71 0 114 32q45 34 60 91
h178q-9 -66 -35 -119q-28 -58 -72 -96q-49 -46 -106 -68q-67 -25 -139 -25q-76 0 -140 25q-57 22 -106 68q-44 38 -72 96q-26 53 -35 119h179q15 -58 59 -91q43 -32 115 -32z" />
    <glyph glyph-name="Edotaccent" unicode="&#x116;" horiz-adv-x="1325" 
d="M170 0v1434h1044v-226h-778v-358h738v-225h-738v-400h778v-225h-1044zM565 1577v225h254v-225h-254z" />
    <glyph glyph-name="edotaccent" unicode="&#x117;" horiz-adv-x="1230" 
d="M864 307h275q-19 -65 -66 -131q-43 -60 -106 -106t-150 -74q-83 -27 -188 -27q-129 0 -230 43q-106 45 -174 119q-70 76 -110 180q-39 98 -39 221t39 224q42 105 112 178q69 75 172 119q101 43 224 43q204 0 327 -99q121 -97 174 -258q17 -57 27 -125q8 -57 8 -133v-41
h-819q3 -54 22 -98q19 -48 58 -90q33 -39 88 -64q52 -24 121 -24q103 0 162 47q55 46 73 96zM623 901q-64 0 -111 -20q-45 -19 -86 -60q-35 -35 -57 -84q-24 -56 -29 -102h555q-3 53 -21 102q-23 52 -53 84q-37 40 -84 60q-50 20 -114 20zM496 1208v226h254v-226h-254z" />
    <glyph glyph-name="Eogonek" unicode="&#x118;" horiz-adv-x="1325" 
d="M170 0v1434h1044v-226h-778v-358h738v-225h-738v-400h778v-225q-92 -47 -143 -92t-51 -98q0 -49 33 -66q33 -20 80 -20q25 0 53 4q33 5 49 10l-68 -176q-63 -13 -116 -13q-48 0 -101 17q-44 14 -82 47q-34 27 -53 72q-20 39 -20 90q0 86 43 141q47 57 92 84h-760z" />
    <glyph glyph-name="eogonek" unicode="&#x119;" horiz-adv-x="1230" 
d="M864 307h275q-36 -102 -92 -170q-62 -71 -121 -127q-62 -56 -105 -102q-45 -45 -45 -98q0 -49 33 -66q33 -20 80 -20q25 0 53 4q33 5 49 10l-67 -176q-63 -13 -117 -13q-47 0 -100 17q-44 14 -82 47q-36 28 -54 72q-20 39 -20 90q0 64 29 114q28 49 65 80h-16
q-129 0 -230 43q-106 45 -174 119q-70 76 -110 180q-39 98 -39 221t39 224q42 105 112 178q69 75 172 119q101 43 224 43q204 0 327 -99q121 -97 174 -258q17 -57 27 -125q8 -57 8 -133v-41h-819q3 -54 22 -98q19 -48 58 -90q33 -39 88 -64q52 -24 121 -24q103 0 162 47
q55 46 73 96zM623 901q-64 0 -111 -20q-45 -19 -86 -60q-35 -35 -57 -84q-24 -56 -29 -102h555q-3 53 -21 102q-23 52 -53 84q-37 40 -84 60q-50 20 -114 20z" />
    <glyph glyph-name="Ecaron" unicode="&#x11a;" horiz-adv-x="1325" 
d="M170 0v1434h1044v-226h-778v-358h738v-225h-738v-400h778v-225h-1044zM610 1802l82 -133l82 133h307l-245 -246h-287l-246 246h307z" />
    <glyph glyph-name="ecaron" unicode="&#x11b;" horiz-adv-x="1230" 
d="M864 307h275q-19 -65 -66 -131q-43 -60 -106 -106t-150 -74q-83 -27 -188 -27q-129 0 -230 43q-106 45 -174 119q-70 76 -110 180q-39 98 -39 221t39 224q42 105 112 178q69 75 172 119q101 43 224 43q204 0 327 -99q121 -97 174 -258q17 -57 27 -125q8 -57 8 -133v-41
h-819q3 -54 22 -98q19 -48 58 -90q33 -39 88 -64q52 -24 121 -24q103 0 162 47q55 46 73 96zM623 901q-64 0 -111 -20q-45 -19 -86 -60q-35 -35 -57 -84q-24 -56 -29 -102h555q-3 53 -21 102q-23 52 -53 84q-37 40 -84 60q-50 20 -114 20zM541 1434l82 -134l82 134h307
l-246 -246h-287l-246 246h308z" />
    <glyph glyph-name="Gcircumflex" unicode="&#x11c;" horiz-adv-x="1548" 
d="M803 1239q-113 0 -195 -43q-84 -43 -141 -115q-59 -71 -86 -166q-29 -102 -29 -198q0 -97 29 -199q27 -95 86 -166q55 -70 141 -114q82 -43 195 -43q159 0 266 90q104 88 113 268h-379v225h635v-778h-205l-21 143q-64 -80 -163 -125q-101 -49 -256 -49q-163 0 -291 58
q-135 57 -223 155q-94 101 -142 236q-51 134 -51 299t51 299q48 132 144 235q87 97 225 158q131 55 297 55q119 0 225 -28q92 -28 174 -84q75 -54 129 -127q49 -69 86 -160h-293q-41 75 -114 125q-76 49 -207 49zM874 1556l-81 134l-82 -134h-308l246 246h287l246 -246h-308
z" />
    <glyph glyph-name="gcircumflex" unicode="&#x11d;" horiz-adv-x="1286" 
d="M905 563q0 76 -20 135q-21 57 -60 103q-40 43 -92 67q-61 23 -121 23q-54 0 -112 -23q-53 -24 -90 -67q-36 -42 -58 -103q-22 -64 -22 -135q0 -72 22 -133q21 -61 58 -104q39 -46 90 -66q52 -24 112 -24q66 0 121 24q49 19 92 66q41 47 60 104q20 56 20 133zM571 31
q-109 0 -202 41q-91 40 -156 114q-66 72 -100 170q-37 93 -37 207q0 111 37 209q35 96 100 170q68 74 156 113q93 41 202 41q67 0 119 -15q50 -14 94 -37q36 -19 68 -47q33 -33 43 -45v113h254v-942q0 -127 -41 -223q-41 -100 -111 -164q-67 -64 -168 -101q-93 -34 -206 -34
q-193 0 -318 82q-128 84 -158 235h261q23 -68 77 -96q53 -27 138 -27q130 0 202 84q70 82 70 244v51q-15 -18 -43 -43q-24 -24 -68 -47t-94 -37q-56 -16 -119 -16zM715 1188l-82 133l-82 -133h-307l245 246h287l246 -246h-307z" />
    <glyph glyph-name="Gbreve" unicode="&#x11e;" horiz-adv-x="1548" 
d="M803 1239q-113 0 -195 -43q-84 -43 -141 -115q-59 -71 -86 -166q-29 -102 -29 -198q0 -97 29 -199q27 -95 86 -166q55 -70 141 -114q82 -43 195 -43q159 0 266 90q104 88 113 268h-379v225h635v-778h-205l-21 143q-64 -80 -163 -125q-101 -49 -256 -49q-163 0 -291 58
q-135 57 -223 155q-94 101 -142 236q-51 134 -51 299t51 299q48 132 144 235q87 97 225 158q131 55 297 55q119 0 225 -28q92 -28 174 -84q75 -54 129 -127q49 -69 86 -160h-293q-41 75 -114 125q-76 49 -207 49zM793 1720q70 0 114 33q46 34 60 90h178q-9 -66 -35 -119
q-28 -58 -72 -96q-47 -44 -106 -67q-67 -25 -139 -25q-76 0 -140 25q-59 23 -106 67q-44 38 -72 96q-26 53 -35 119h178q14 -56 60 -90q44 -33 115 -33z" />
    <glyph glyph-name="gbreve" unicode="&#x11f;" horiz-adv-x="1286" 
d="M905 563q0 76 -20 135q-21 57 -60 103q-40 43 -92 67q-61 23 -121 23q-54 0 -112 -23q-53 -24 -90 -67q-36 -42 -58 -103q-22 -64 -22 -135q0 -72 22 -133q21 -61 58 -104q39 -46 90 -66q52 -24 112 -24q66 0 121 24q49 19 92 66q41 47 60 104q20 56 20 133zM571 31
q-109 0 -202 41q-91 40 -156 114q-66 72 -100 170q-37 93 -37 207q0 111 37 209q35 96 100 170q68 74 156 113q93 41 202 41q67 0 119 -15q50 -14 94 -37q36 -19 68 -47q33 -33 43 -45v113h254v-942q0 -127 -41 -223q-41 -100 -111 -164q-67 -64 -168 -101q-93 -34 -206 -34
q-193 0 -318 82q-128 84 -158 235h261q23 -68 77 -96q53 -27 138 -27q130 0 202 84q70 82 70 244v51q-15 -18 -43 -43q-24 -24 -68 -47t-94 -37q-56 -16 -119 -16zM633 1352q72 0 115 32q44 33 59 91h178q-9 -66 -35 -119q-29 -59 -71 -96q-48 -45 -107 -68
q-67 -25 -139 -25q-75 0 -139 25q-59 23 -107 68q-44 38 -72 96q-24 50 -34 119h178q15 -58 59 -91q43 -32 115 -32z" />
    <glyph glyph-name="Gdotaccent" unicode="&#x120;" horiz-adv-x="1548" 
d="M803 1239q-113 0 -195 -43q-84 -43 -141 -115q-59 -71 -86 -166q-29 -102 -29 -198q0 -97 29 -199q27 -95 86 -166q55 -70 141 -114q82 -43 195 -43q159 0 266 90q104 88 113 268h-379v225h635v-778h-205l-21 143q-64 -80 -163 -125q-101 -49 -256 -49q-163 0 -291 58
q-135 57 -223 155q-94 101 -142 236q-51 134 -51 299t51 299q48 132 144 235q87 97 225 158q131 55 297 55q119 0 225 -28q92 -28 174 -84q75 -54 129 -127q49 -69 86 -160h-293q-41 75 -114 125q-76 49 -207 49zM666 1577v225h254v-225h-254z" />
    <glyph glyph-name="gdotaccent" unicode="&#x121;" horiz-adv-x="1286" 
d="M905 563q0 76 -20 135q-21 57 -60 103q-40 43 -92 67q-61 23 -121 23q-54 0 -112 -23q-53 -24 -90 -67q-36 -42 -58 -103q-22 -64 -22 -135q0 -72 22 -133q21 -61 58 -104q39 -46 90 -66q52 -24 112 -24q66 0 121 24q49 19 92 66q41 47 60 104q20 56 20 133zM571 31
q-109 0 -202 41q-91 40 -156 114q-66 72 -100 170q-37 93 -37 207q0 111 37 209q35 96 100 170q68 74 156 113q93 41 202 41q67 0 119 -15q50 -14 94 -37q36 -19 68 -47q33 -33 43 -45v113h254v-942q0 -127 -41 -223q-41 -100 -111 -164q-67 -64 -168 -101q-93 -34 -206 -34
q-193 0 -318 82q-128 84 -158 235h261q23 -68 77 -96q53 -27 138 -27q130 0 202 84q70 82 70 244v51q-15 -18 -43 -43q-24 -24 -68 -47t-94 -37q-56 -16 -119 -16zM506 1208v226h254v-226h-254z" />
    <glyph glyph-name="uni0122" unicode="&#x122;" horiz-adv-x="1548" 
d="M803 1239q-113 0 -195 -43q-84 -43 -141 -115q-59 -71 -86 -166q-29 -102 -29 -198q0 -97 29 -199q27 -95 86 -166q55 -70 141 -114q82 -43 195 -43q159 0 266 90q104 88 113 268h-379v225h635v-778h-205l-21 143q-64 -80 -163 -125q-101 -49 -256 -49q-163 0 -291 58
q-135 57 -223 155q-94 101 -142 236q-51 134 -51 299t51 299q48 132 144 235q87 97 225 158q131 55 297 55q119 0 225 -28q92 -28 174 -84q75 -54 129 -127q49 -69 86 -160h-293q-41 75 -114 125q-76 49 -207 49zM666 -317v215h254v-215l-144 -215h-100l92 215h-102z" />
    <glyph glyph-name="uni0123" unicode="&#x123;" horiz-adv-x="1286" 
d="M905 563q0 76 -20 135q-21 57 -60 103q-40 43 -92 67q-61 23 -121 23q-54 0 -112 -23q-53 -24 -90 -67q-36 -42 -58 -103q-22 -64 -22 -135q0 -72 22 -133q21 -61 58 -104q39 -46 90 -66q52 -24 112 -24q66 0 121 24q49 19 92 66q41 47 60 104q20 56 20 133zM571 31
q-109 0 -202 41q-91 40 -156 114q-66 72 -100 170q-37 93 -37 207q0 111 37 209q35 96 100 170q68 74 156 113q93 41 202 41q67 0 119 -15q50 -14 94 -37q36 -19 68 -47q33 -33 43 -45v113h254v-942q0 -127 -41 -223q-41 -100 -111 -164q-67 -64 -168 -101q-93 -34 -206 -34
q-193 0 -318 82q-128 84 -158 235h261q23 -68 77 -96q53 -27 138 -27q130 0 202 84q70 82 70 244v51q-15 -18 -43 -43q-24 -24 -68 -47t-94 -37q-56 -16 -119 -16zM760 1403v-215h-254v215l143 215h101l-93 -215h103z" />
    <glyph glyph-name="Hcircumflex" unicode="&#x124;" horiz-adv-x="1568" 
d="M1399 1434v-1434h-266v625h-697v-625h-266v1434h266v-584h697v584h266zM866 1556l-82 134l-82 -134h-307l246 246h287l246 -246h-308z" />
    <glyph glyph-name="hcircumflex" unicode="&#x125;" horiz-adv-x="1265" 
d="M391 1434v-502q53 77 139 121q85 43 195 43q192 0 303 -111t111 -319v-666h-254v645q0 119 -51 176q-54 60 -170 60q-55 0 -107 -19q-52 -21 -88 -57t-57 -92q-21 -55 -21 -129v-584h-254v1434h254zM346 1556l-82 134l-82 -134h-307l246 246h287l245 -246h-307z" />
    <glyph glyph-name="Hbar" unicode="&#x126;" horiz-adv-x="1601" 
d="M43 1034v215h143v185h267v-185h696v185h266v-185h144v-215h-144v-1034h-266v625h-696v-625h-267v1034h-143zM453 850h696v184h-696v-184z" />
    <glyph glyph-name="hbar" unicode="&#x127;" horiz-adv-x="1282" 
d="M27 1065v195h143v174h254v-174h436v-195h-436v-277q53 77 139 121q85 43 195 43q193 0 303 -110t110 -320v-522h-253v502q0 118 -52 176q-53 59 -170 59q-56 0 -106 -18q-52 -21 -88 -57q-37 -37 -58 -93q-20 -53 -20 -129v-440h-254v1065h-143z" />
    <glyph glyph-name="Itilde" unicode="&#x128;" horiz-adv-x="606" 
d="M436 0h-266v1434h266v-1434zM78 1567h-164q0 124 70 194q69 72 176 72q52 0 98 -18q27 -12 82 -43q10 -6 33.5 -20t36.5 -21q30 -21 57 -21q61 0 61 82h164q0 -125 -67 -195q-71 -71 -179 -71q-54 0 -98 20q-28 11 -82 41q-28 16 -67 43q-36 19 -60 19q-61 0 -61 -82z
" />
    <glyph glyph-name="itilde" unicode="&#x129;" horiz-adv-x="528" 
d="M137 0v1065h254v-1065h-254zM39 1198h-164q0 125 70 195q68 71 176 71q51 0 98 -18q27 -12 82 -43q10 -6 33.5 -20t36.5 -21q30 -21 57 -21q61 0 61 82h164q0 -124 -67 -194q-72 -72 -178 -72q-52 0 -99 21q-28 11 -82 41q-28 16 -67 43q-34 18 -60 18q-61 0 -61 -82z
" />
    <glyph glyph-name="Imacron" unicode="&#x12a;" horiz-adv-x="606" 
d="M436 0h-266v1434h266v-1434zM-55 1597v185h717v-185h-717z" />
    <glyph glyph-name="imacron" unicode="&#x12b;" horiz-adv-x="528" 
d="M137 0v1065h254v-1065h-254zM-94 1229v184h717v-184h-717z" />
    <glyph glyph-name="Ibreve" unicode="&#x12c;" horiz-adv-x="606" 
d="M436 0h-266v1434h266v-1434zM303 1720q71 0 115 33t59 90h178q-10 -69 -34 -119q-28 -58 -72 -96q-46 -43 -107 -67q-67 -25 -139 -25q-75 0 -139 25q-61 24 -107 67q-42 37 -71 96q-26 53 -35 119h178q15 -57 59 -90t115 -33z" />
    <glyph glyph-name="ibreve" unicode="&#x12d;" horiz-adv-x="528" 
d="M137 0v1065h254v-1065h-254zM264 1352q72 0 115 32q44 33 59 91h178q-10 -69 -34 -119q-28 -58 -72 -96q-48 -45 -107 -68q-67 -25 -139 -25q-75 0 -139 25q-59 23 -107 68q-42 37 -71 96q-26 53 -35 119h178q15 -57 60 -91q43 -32 114 -32z" />
    <glyph glyph-name="Iogonek" unicode="&#x12e;" horiz-adv-x="606" 
d="M354 -276q26 0 54 4q33 5 49 10l-68 -176q-63 -13 -117 -13q-47 0 -100 17q-44 14 -82 47q-34 27 -53 72q-21 41 -21 90q0 45 15 82q13 33 37 67q21 28 49 49q34 26 53 37v1424h266v-1434q-92 -47 -143 -92t-51 -98q0 -49 32 -66q33 -20 80 -20z" />
    <glyph glyph-name="iogonek" unicode="&#x12f;" horiz-adv-x="528" 
d="M137 1208v226h254v-226h-254zM137 10v1055h254v-1065q-92 -47 -143 -92t-51 -98q0 -49 32 -66q33 -20 80 -20q25 0 53 4q35 5 50 10l-68 -176q-63 -13 -117 -13q-47 0 -100 17q-44 14 -82 47q-34 27 -53 72q-21 41 -21 90q0 91 52 149q50 59 114 86z" />
    <glyph glyph-name="Idotaccent" unicode="&#x130;" horiz-adv-x="606" 
d="M436 0h-266v1434h266v-1434zM176 1577v225h254v-225h-254z" />
    <glyph glyph-name="dotlessi" unicode="&#x131;" horiz-adv-x="528" 
d="M137 0v1065h254v-1065h-254z" />
    <glyph glyph-name="IJ" unicode="&#x132;" horiz-adv-x="1400" 
d="M604 0h129q132 0 185 68q51 63 51 188v1178h266v-1178q0 -123 -35 -213t-100 -149q-67 -64 -158 -91q-98 -28 -209 -28h-129v225zM436 0h-266v1434h266v-1434z" />
    <glyph glyph-name="ij" unicode="&#x133;" horiz-adv-x="1048" 
d="M137 0v1065h254v-1065h-254zM137 1208v226h254v-226h-254zM657 1208v226h254v-226h-254zM657 -61v1126h254v-1126q0 -152 -96 -230q-101 -78 -260 -78h-164v199h154q59 0 88 29q24 27 24 80z" />
    <glyph glyph-name="Jcircumflex" unicode="&#x134;" horiz-adv-x="997" 
d="M788 1556l-81 134l-82 -134h-308l246 246h287l246 -246h-308zM45 225h293q131 0 184 68q51 63 51 188v953h267v-953q0 -123 -35 -213t-100 -149q-66 -63 -158 -90q-101 -29 -209 -29h-293v225z" />
    <glyph glyph-name="jcircumflex" unicode="&#x135;" horiz-adv-x="536" 
d="M354 1188l-82 133l-82 -133h-307l246 246h287l246 -246h-308zM145 -61v1126h254v-1126q0 -152 -96 -230q-101 -78 -260 -78h-113v199h103q59 0 88 29q24 27 24 80z" />
    <glyph glyph-name="uni0136" unicode="&#x136;" horiz-adv-x="1390" 
d="M436 0h-266v1434h266v-605l594 605h338l-696 -697l737 -737h-358l-615 635v-635zM565 -317v215h254v-215l-143 -215h-101l93 215h-103z" />
    <glyph glyph-name="uni0137" unicode="&#x137;" horiz-adv-x="1142" 
d="M391 453v-453h-254v1434h254v-791l412 422h325l-512 -512l553 -553h-346zM479 -317v215h254v-215l-143 -215h-101l93 215h-103z" />
    <glyph glyph-name="kgreenlandic" unicode="&#x138;" horiz-adv-x="1142" 
d="M391 453v-453h-254v1065h254v-422l412 422h325l-512 -512l553 -553h-346z" />
    <glyph glyph-name="Lacute" unicode="&#x139;" horiz-adv-x="1198" 
d="M170 0v1434h266v-1209h738v-225h-1004zM98 1556l164 246h328l-246 -246h-246z" />
    <glyph glyph-name="lacute" unicode="&#x13a;" horiz-adv-x="528" 
d="M137 0v1434h254v-1434h-254zM80 1556l164 246h327l-245 -246h-246z" />
    <glyph glyph-name="uni013B" unicode="&#x13b;" horiz-adv-x="1198" 
d="M170 0v1434h266v-1209h738v-225h-1004zM545 -317v215h254v-215l-144 -215h-100l92 215h-102z" />
    <glyph glyph-name="uni013C" unicode="&#x13c;" horiz-adv-x="528" 
d="M137 0v1434h254v-1434h-254zM137 -317v215h254v-215l-143 -215h-101l93 215h-103z" />
    <glyph glyph-name="Lcaron" unicode="&#x13d;" horiz-adv-x="1198" 
d="M170 0v1434h266v-1209h738v-225h-1004zM621 1024l61 410h256l-123 -410h-194z" />
    <glyph glyph-name="lcaron" unicode="&#x13e;" horiz-adv-x="649" 
d="M137 0v1434h254v-1434h-254zM461 1024l61 410h256l-123 -410h-194z" />
    <glyph glyph-name="Ldot" unicode="&#x13f;" horiz-adv-x="1200" 
d="M170 0v1434h266v-1209h738v-225h-1004zM780 627v225h254v-225h-254z" />
    <glyph glyph-name="ldot" unicode="&#x140;" horiz-adv-x="765" 
d="M137 0v1434h254v-1434h-254zM518 606v225h254v-225h-254z" />
    <glyph glyph-name="Lslash" unicode="&#x141;" horiz-adv-x="1304" 
d="M72 287v256l204 135v756h267v-578l358 240v-256l-358 -240v-375h737v-225h-1004v422z" />
    <glyph glyph-name="lslash" unicode="&#x142;" horiz-adv-x="825" 
d="M61 625l211 141v668h254v-500l242 162v-267l-242 -161v-668h-254v500l-211 -142v267z" />
    <glyph glyph-name="Nacute" unicode="&#x143;" horiz-adv-x="1589" 
d="M1153 829v605h266v-1434h-286l-431 625q-56 79 -100 149q-47 69 -74 117q-33 47 -55 90q-37 62 -43 74h-8q1 -17 4 -48t4 -46q1 -16 2 -48t2 -49q0 -71 2 -112v-148v-604h-266v1434h287l430 -625q23 -32 58.5 -86.5t41.5 -63.5q12 -17 37.5 -56.5t38.5 -57.5
q11 -20 30 -50t25 -40q7 -14 21 -39.5t20 -36.5h8q-1 16 -6 94q-4 62 -4 96q-2 35 -2 115q-2 41 -2 145zM590 1556l164 246h327l-245 -246h-246z" />
    <glyph glyph-name="nacute" unicode="&#x144;" horiz-adv-x="1265" 
d="M391 1065v-133q53 77 139 121q85 43 195 43q192 0 303 -111t111 -319v-666h-254v645q0 119 -51 176q-54 60 -170 60q-55 0 -107 -19q-52 -21 -88 -57t-57 -92q-21 -55 -21 -129v-584h-254v1065h254zM428 1188l164 246h328l-246 -246h-246z" />
    <glyph glyph-name="uni0145" unicode="&#x145;" horiz-adv-x="1589" 
d="M1153 829v605h266v-1434h-286l-431 625q-56 79 -100 149q-47 69 -74 117q-33 47 -55 90q-37 62 -43 74h-8q1 -17 4 -48t4 -46q1 -16 2 -48t2 -49q0 -71 2 -112v-148v-604h-266v1434h287l430 -625q23 -32 58.5 -86.5t41.5 -63.5q12 -17 37.5 -56.5t38.5 -57.5
q11 -20 30 -50t25 -40q7 -14 21 -39.5t20 -36.5h8q-1 16 -6 94q-4 62 -4 96q-2 35 -2 115q-2 41 -2 145zM668 -317v215h254v-215l-144 -215h-100l92 215h-102z" />
    <glyph glyph-name="uni0146" unicode="&#x146;" horiz-adv-x="1265" 
d="M391 1065v-133q53 77 139 121q85 43 195 43q192 0 303 -111t111 -319v-666h-254v645q0 119 -51 176q-54 60 -170 60q-55 0 -107 -19q-52 -21 -88 -57t-57 -92q-21 -55 -21 -129v-584h-254v1065h254zM514 -317v215h254v-215l-143 -215h-101l92 215h-102z" />
    <glyph glyph-name="Ncaron" unicode="&#x147;" horiz-adv-x="1589" 
d="M1153 829v605h266v-1434h-286l-431 625q-56 79 -100 149q-47 69 -74 117q-33 47 -55 90q-37 62 -43 74h-8q1 -17 4 -48t4 -46q1 -16 2 -48t2 -49q0 -71 2 -112v-148v-604h-266v1434h287l430 -625q23 -32 58.5 -86.5t41.5 -63.5q12 -17 37.5 -56.5t38.5 -57.5
q11 -20 30 -50t25 -40q7 -14 21 -39.5t20 -36.5h8q-1 16 -6 94q-4 62 -4 96q-2 35 -2 115q-2 41 -2 145zM713 1802l82 -133l82 133h307l-246 -246h-287l-245 246h307z" />
    <glyph glyph-name="ncaron" unicode="&#x148;" horiz-adv-x="1265" 
d="M391 1065v-133q53 77 139 121q85 43 195 43q192 0 303 -111t111 -319v-666h-254v645q0 119 -51 176q-54 60 -170 60q-55 0 -107 -19q-52 -21 -88 -57t-57 -92q-21 -55 -21 -129v-584h-254v1065h254zM551 1434l82 -134l82 134h307l-246 -246h-287l-245 246h307z" />
    <glyph glyph-name="napostrophe" unicode="&#x149;" horiz-adv-x="1431" 
d="M557 1065v-133q53 77 139 121q85 43 195 43q192 0 303 -111t111 -319v-666h-254v645q0 118 -52 176q-54 60 -170 60q-54 0 -106 -19q-52 -21 -88 -57t-57 -92q-21 -55 -21 -129v-584h-254v1065h254zM49 1219v215h254v-215l-143 -215h-101l93 215h-103z" />
    <glyph glyph-name="Eng" unicode="&#x14a;" horiz-adv-x="1589" 
d="M1153 829v605h266v-1444q0 -110 -30 -183q-29 -70 -89 -118q-59 -47 -135 -68q-76 -20 -176 -20h-211v225h211q92 0 129 37q35 35 35 127v10l-442 625q-16 22 -52 73.5t-53 75.5q-27 38 -78 115q-46 69 -59 92q-37 62 -43 74h-4q4 -34 8 -94q1 -16 2 -48t2 -49
q2 -35 2 -112v-148v-604h-266v1434h287l438 -625q59 -85 102 -147q8 -13 34.5 -52t37.5 -57q7 -11 18.5 -28.5t20 -30.5t14.5 -23q21 -37 39 -72h4q-1 15 -6 88q-4 54 -4 91q-2 31 -2 108v143z" />
    <glyph glyph-name="eng" unicode="&#x14b;" horiz-adv-x="1265" 
d="M885 -61v706q0 119 -51 176q-54 60 -170 60q-55 0 -107 -19q-52 -21 -88 -57t-57 -92q-21 -55 -21 -129v-584h-254v1065h254v-133q53 77 139 121q85 43 195 43q192 0 303 -111t111 -319v-727q0 -151 -97 -230q-101 -78 -260 -78h-112v199h102q59 0 88 29q25 28 25 80z
" />
    <glyph glyph-name="Omacron" unicode="&#x14c;" horiz-adv-x="1601" 
d="M350 717q0 -101 31 -199q26 -91 88 -166q59 -70 141 -114q82 -43 191 -43q108 0 190 43q88 46 144 114q57 69 88 166q28 98 28 199q0 100 -28 198q-31 97 -88 166q-58 69 -144 115q-82 43 -190 43q-109 0 -191 -43q-81 -43 -141 -115q-62 -75 -88 -166q-31 -98 -31 -198z
M1518 717q0 -162 -52 -299q-53 -140 -145 -236q-92 -99 -225 -155q-131 -58 -295 -58q-162 0 -293 58q-137 57 -227 155q-93 98 -146 236q-51 134 -51 299t51 299q52 133 146 235q90 97 227 158q131 55 293 55q164 0 295 -55q133 -59 225 -158q92 -100 145 -235
q52 -137 52 -299zM442 1597v185h717v-185h-717z" />
    <glyph glyph-name="omacron" unicode="&#x14d;" 
d="M328 532q0 -64 18 -129q15 -64 53 -114q38 -53 95 -82q56 -33 137 -33t137 33q56 29 94 82q38 51 56 114q16 69 16 129q0 63 -16 132q-16 58 -56 114q-36 48 -94 82q-60 31 -137 31t-137 -31q-59 -35 -95 -82q-39 -55 -53 -114q-18 -64 -18 -132zM1188 532
q0 -123 -39 -221q-38 -99 -113 -180q-72 -74 -176 -119q-101 -43 -229 -43q-129 0 -230 43q-106 45 -174 119q-71 74 -112 180q-41 103 -41 221t41 224q42 105 112 178q68 74 174 119q101 43 230 43q128 0 229 -43q104 -45 176 -119q74 -81 113 -178q39 -101 39 -224z
M272 1229v184h717v-184h-717z" />
    <glyph glyph-name="Obreve" unicode="&#x14e;" horiz-adv-x="1601" 
d="M350 717q0 -101 31 -199q26 -91 88 -166q59 -70 141 -114q82 -43 191 -43q108 0 190 43q88 46 144 114q57 69 88 166q28 98 28 199q0 100 -28 198q-31 97 -88 166q-58 69 -144 115q-82 43 -190 43q-109 0 -191 -43q-81 -43 -141 -115q-62 -75 -88 -166q-31 -98 -31 -198z
M1518 717q0 -162 -52 -299q-53 -140 -145 -236q-92 -99 -225 -155q-131 -58 -295 -58q-162 0 -293 58q-137 57 -227 155q-93 98 -146 236q-51 134 -51 299t51 299q52 133 146 235q90 97 227 158q131 55 293 55q164 0 295 -55q133 -59 225 -158q92 -100 145 -235
q52 -137 52 -299zM801 1720q70 0 114 33q46 34 60 90h178q-9 -66 -35 -119q-29 -59 -71 -96q-46 -43 -107 -67q-67 -25 -139 -25q-75 0 -139 25q-61 24 -107 67q-44 38 -72 96q-24 50 -34 119h178q15 -57 59 -90t115 -33z" />
    <glyph glyph-name="obreve" unicode="&#x14f;" 
d="M328 532q0 -64 18 -129q15 -64 53 -114q38 -53 95 -82q56 -33 137 -33t137 33q56 29 94 82q38 51 56 114q16 69 16 129q0 63 -16 132q-16 58 -56 114q-36 48 -94 82q-60 31 -137 31t-137 -31q-59 -35 -95 -82q-39 -55 -53 -114q-18 -64 -18 -132zM1188 532
q0 -123 -39 -221q-38 -99 -113 -180q-72 -74 -176 -119q-101 -43 -229 -43q-129 0 -230 43q-106 45 -174 119q-71 74 -112 180q-41 103 -41 221t41 224q42 105 112 178q68 74 174 119q101 43 230 43q128 0 229 -43q104 -45 176 -119q74 -81 113 -178q39 -101 39 -224z
M631 1352q71 0 114 32q45 34 60 91h178q-9 -66 -35 -119q-29 -59 -71 -96q-48 -45 -107 -68q-67 -25 -139 -25q-75 0 -139 25q-59 23 -107 68q-44 38 -72 96q-24 50 -34 119h178q15 -58 59 -91q43 -32 115 -32z" />
    <glyph glyph-name="Ohungarumlaut" unicode="&#x150;" horiz-adv-x="1601" 
d="M350 717q0 -101 31 -199q26 -91 88 -166q59 -70 141 -114q82 -43 191 -43q108 0 190 43q88 46 144 114q57 69 88 166q28 98 28 199q0 100 -28 198q-31 97 -88 166q-58 69 -144 115q-82 43 -190 43q-109 0 -191 -43q-81 -43 -141 -115q-62 -75 -88 -166q-31 -98 -31 -198z
M1518 717q0 -162 -52 -299q-53 -140 -145 -236q-92 -99 -225 -155q-131 -58 -295 -58q-162 0 -293 58q-137 57 -227 155q-93 98 -146 236q-51 134 -51 299t51 299q52 133 146 235q90 97 227 158q131 55 293 55q164 0 295 -55q133 -59 225 -158q92 -100 145 -235
q52 -137 52 -299zM453 1556l133 246h276l-184 -246h-225zM821 1556l133 246h277l-184 -246h-226z" />
    <glyph glyph-name="ohungarumlaut" unicode="&#x151;" 
d="M328 532q0 -64 18 -129q15 -64 53 -114q38 -53 95 -82q56 -33 137 -33t137 33q56 29 94 82q38 51 56 114q16 69 16 129q0 63 -16 132q-16 58 -56 114q-36 48 -94 82q-60 31 -137 31t-137 -31q-59 -35 -95 -82q-39 -55 -53 -114q-18 -64 -18 -132zM1188 532
q0 -123 -39 -221q-38 -99 -113 -180q-72 -74 -176 -119q-101 -43 -229 -43q-129 0 -230 43q-106 45 -174 119q-71 74 -112 180q-41 103 -41 221t41 224q42 105 112 178q68 74 174 119q101 43 230 43q128 0 229 -43q104 -45 176 -119q74 -81 113 -178q39 -101 39 -224z
M283 1188l133 246h276l-184 -246h-225zM651 1188l133 246h277l-184 -246h-226z" />
    <glyph glyph-name="OE" unicode="&#x152;" horiz-adv-x="2316" 
d="M1202 0v123q-21 -19 -72 -53q-50 -33 -92 -50q-51 -20 -118 -36q-68 -15 -148 -15q-160 0 -285 58q-130 57 -215 155q-92 103 -137 236q-49 137 -49 299t49 299q44 128 137 235q85 97 215 158q125 55 285 55q85 0 148 -14q73 -17 118 -35q46 -19 92 -49q42 -28 72 -55
v123h1004v-226h-738v-358h697v-225h-697v-400h738v-225h-1004zM352 717q0 -105 27 -199q28 -97 82 -166q52 -70 133 -114q79 -43 188 -43q107 0 189 43q79 44 135 114q53 71 80 166q26 91 26 199q0 107 -26 198q-27 95 -80 166q-57 72 -135 115q-82 43 -189 43
q-109 0 -188 -43q-80 -44 -133 -115q-54 -69 -82 -166q-27 -95 -27 -198z" />
    <glyph glyph-name="oe" unicode="&#x153;" horiz-adv-x="2088" 
d="M1722 307h275q-19 -65 -66 -131q-43 -60 -106 -106t-150 -74q-83 -27 -188 -27q-143 0 -248 51q-110 54 -180 144q-70 -90 -180 -144q-105 -51 -248 -51q-129 0 -230 43q-106 45 -174 119q-71 74 -112 180q-41 103 -41 221t41 224q42 105 112 178q68 74 174 119
q101 43 230 43q143 0 250 -52q112 -54 180 -143q70 90 178 143q104 52 242 52q204 0 327 -99q121 -97 174 -258q17 -57 27 -125q8 -57 8 -133v-41h-819q3 -51 23 -98q20 -50 57 -90q33 -39 88 -64q52 -24 121 -24q103 0 162 47q55 46 73 96zM328 532q0 -64 18 -129
q15 -64 53 -114q38 -53 95 -82q56 -33 137 -33t137 33q56 29 94 82q38 51 56 114q16 69 16 129q0 63 -16 132q-16 58 -56 114q-36 48 -94 82q-60 31 -137 31t-137 -31q-59 -35 -95 -82q-39 -55 -53 -114q-18 -64 -18 -132zM1481 901q-64 0 -111 -20q-45 -19 -86 -60
q-35 -35 -57 -84q-24 -56 -29 -102h555q-3 56 -20 102q-22 50 -54 84q-37 40 -84 60q-50 20 -114 20z" />
    <glyph glyph-name="Racute" unicode="&#x154;" horiz-adv-x="1462" 
d="M436 573v-573h-266v1434h737q104 0 195 -31q86 -30 147 -88q63 -60 97 -135q32 -74 32 -176q0 -104 -32 -175q-33 -76 -97 -137q-61 -58 -147 -88q-91 -31 -195 -31h-61l573 -573h-358l-563 573h-62zM436 799h471q93 0 150 57q55 55 55 148q0 91 -55 149q-58 55 -150 55
h-471v-409zM528 1556l164 246h328l-246 -246h-246z" />
    <glyph glyph-name="racute" unicode="&#x155;" horiz-adv-x="784" 
d="M752 860h-125q-109 0 -172 -57q-64 -58 -64 -199v-604h-254v1065h254v-123q40 70 107 107q65 36 190 36h64v-225zM207 1188l164 246h327l-245 -246h-246z" />
    <glyph glyph-name="uni0156" unicode="&#x156;" horiz-adv-x="1462" 
d="M436 573v-573h-266v1434h737q104 0 195 -31q86 -30 147 -88q63 -60 97 -135q32 -74 32 -176q0 -104 -32 -175q-33 -76 -97 -137q-61 -58 -147 -88q-91 -31 -195 -31h-61l573 -573h-358l-563 573h-62zM436 799h471q93 0 150 57q55 55 55 148q0 91 -55 149q-58 55 -150 55
h-471v-409zM627 -317v215h254v-215l-144 -215h-100l92 215h-102z" />
    <glyph glyph-name="uni0157" unicode="&#x157;" horiz-adv-x="784" 
d="M752 860h-125q-109 0 -172 -57q-64 -58 -64 -199v-604h-254v1065h254v-123q40 70 107 107q65 36 190 36h64v-225zM137 -317v215h254v-215l-143 -215h-101l93 215h-103z" />
    <glyph glyph-name="Rcaron" unicode="&#x158;" horiz-adv-x="1462" 
d="M436 573v-573h-266v1434h737q104 0 195 -31q86 -30 147 -88q63 -60 97 -135q32 -74 32 -176q0 -104 -32 -175q-33 -76 -97 -137q-61 -58 -147 -88q-91 -31 -195 -31h-61l573 -573h-358l-563 573h-62zM436 799h471q93 0 150 57q55 55 55 148q0 91 -55 149q-58 55 -150 55
h-471v-409zM641 1802l82 -133l82 133h307l-246 -246h-286l-246 246h307z" />
    <glyph glyph-name="rcaron" unicode="&#x159;" horiz-adv-x="784" 
d="M752 860h-125q-109 0 -172 -57q-64 -58 -64 -199v-604h-254v1065h254v-123q40 70 107 107q65 36 190 36h64v-225zM340 1434l82 -134l82 134h307l-246 -246h-286l-246 246h307z" />
    <glyph glyph-name="Sacute" unicode="&#x15a;" horiz-adv-x="1345" 
d="M72 399h270q3 -106 88 -166q83 -59 246 -59q162 0 248 62t86 153q0 55 -21 90q-19 31 -61 53q-41 21 -92 33q-13 2 -54 10t-65 11l-123 18q-117 15 -203 49q-91 35 -153 86q-68 55 -101 129q-35 75 -35 176q0 91 37 166q33 72 109 133q67 53 180 89q100 32 248 32
q147 0 250 -34q106 -38 172 -95q68 -59 102 -129q33 -67 39 -141h-270q-3 35 -19 76q-17 33 -53 61q-36 29 -90 43q-55 15 -131 15q-84 0 -154 -17q-62 -18 -96 -45q-34 -25 -51 -63q-17 -39 -17 -70q0 -51 21 -86q23 -39 59 -57q38 -24 90 -39q59 -17 117 -25l123 -18
q101 -14 199 -43q93 -27 159 -76q66 -48 107 -123q37 -75 37 -188q0 -100 -39 -177q-39 -79 -117 -139q-75 -58 -186 -92q-106 -33 -252 -33t-252 33q-116 35 -188 90q-81 62 -119 137q-42 79 -45 170zM469 1556l164 246h328l-246 -246h-246z" />
    <glyph glyph-name="sacute" unicode="&#x15b;" horiz-adv-x="1089" 
d="M569 412l-71 8q-76 8 -158 35q-76 24 -131 67q-52 38 -88 105q-33 59 -33 147q0 148 123 236q124 86 338 86q109 0 192 -27q80 -26 140 -74q59 -49 86 -102q29 -64 32 -115h-256q-3 57 -51 99q-44 38 -147 38q-113 0 -158 -36t-45 -82q0 -65 53 -92q57 -32 144 -41l71 -9
q71 -8 156 -28q75 -22 131 -60q55 -41 90 -102q33 -62 33 -158q0 -80 -33 -139q-35 -62 -94 -107q-60 -45 -148 -67q-92 -25 -196 -25q-223 0 -348 94q-127 92 -133 244h258q3 -82 61 -119q56 -36 162 -36q114 0 164 36q53 38 53 97q0 39 -14 59q-16 23 -39 37
q-27 12 -64 18q-4 1 -33.5 6t-46.5 7zM346 1188l164 246h328l-246 -246h-246z" />
    <glyph glyph-name="Scircumflex" unicode="&#x15c;" horiz-adv-x="1345" 
d="M72 399h270q3 -106 88 -166q83 -59 246 -59q162 0 248 62t86 153q0 55 -21 90q-19 31 -61 53q-41 21 -92 33q-13 2 -54 10t-65 11l-123 18q-117 15 -203 49q-91 35 -153 86q-68 55 -101 129q-35 75 -35 176q0 91 37 166q33 72 109 133q67 53 180 89q100 32 248 32
q147 0 250 -34q106 -38 172 -95q68 -59 102 -129q33 -67 39 -141h-270q-3 35 -19 76q-17 33 -53 61q-36 29 -90 43q-55 15 -131 15q-84 0 -154 -17q-62 -18 -96 -45q-34 -25 -51 -63q-17 -39 -17 -70q0 -51 21 -86q23 -39 59 -57q38 -24 90 -39q59 -17 117 -25l123 -18
q101 -14 199 -43q93 -27 159 -76q66 -48 107 -123q37 -75 37 -188q0 -100 -39 -177q-39 -79 -117 -139q-75 -58 -186 -92q-106 -33 -252 -33t-252 33q-116 35 -188 90q-81 62 -119 137q-42 79 -45 170zM756 1556l-82 134l-82 -134h-307l245 246h287l246 -246h-307z" />
    <glyph glyph-name="scircumflex" unicode="&#x15d;" horiz-adv-x="1089" 
d="M569 412l-71 8q-76 8 -158 35q-76 24 -131 67q-52 38 -88 105q-33 59 -33 147q0 148 123 236q124 86 338 86q109 0 192 -27q80 -26 140 -74q59 -49 86 -102q29 -64 32 -115h-256q-3 57 -51 99q-44 38 -147 38q-113 0 -158 -36t-45 -82q0 -65 53 -92q57 -32 144 -41l71 -9
q71 -8 156 -28q75 -22 131 -60q55 -41 90 -102q33 -62 33 -158q0 -80 -33 -139q-35 -62 -94 -107q-60 -45 -148 -67q-92 -25 -196 -25q-223 0 -348 94q-127 92 -133 244h258q3 -82 61 -119q56 -36 162 -36q114 0 164 36q53 38 53 97q0 39 -14 59q-16 23 -39 37
q-27 12 -64 18q-4 1 -33.5 6t-46.5 7zM633 1188l-82 133l-82 -133h-307l246 246h286l246 -246h-307z" />
    <glyph glyph-name="Scedilla" unicode="&#x15e;" horiz-adv-x="1345" 
d="M72 399h270q3 -106 88 -166q83 -59 246 -59q162 0 248 62t86 153q0 55 -21 90q-19 31 -61 53q-41 21 -92 33q-13 2 -54 10t-65 11l-123 18q-117 15 -203 49q-91 35 -153 86q-68 55 -101 129q-35 75 -35 176q0 91 37 166q33 72 109 133q67 53 180 89q100 32 248 32
q147 0 250 -34q106 -38 172 -95q68 -59 102 -129q33 -67 39 -141h-270q-3 35 -19 76q-17 33 -53 61q-36 29 -90 43q-55 15 -131 15q-84 0 -154 -17q-62 -18 -96 -45q-34 -25 -51 -63q-17 -39 -17 -70q0 -51 21 -86q23 -39 59 -57q38 -24 90 -39q59 -17 117 -25l123 -18
q101 -14 199 -43q93 -27 159 -76q66 -48 107 -123q37 -75 37 -188q0 -171 -121 -289q-126 -120 -352 -146l-68 -67q71 -3 111 -49q41 -47 41 -115q0 -37 -17 -76q-15 -29 -47 -61q-26 -26 -67 -41q-46 -17 -84 -17q-82 0 -142 48q-58 46 -73 116h147q15 -41 68 -41
q30 0 53 23q18 21 18 49q0 30 -18 51q-21 21 -53 21q-29 0 -52 -23l-94 94l84 84q-128 9 -223 45q-98 34 -166 93q-67 55 -104 131q-36 70 -39 159z" />
    <glyph glyph-name="scedilla" unicode="&#x15f;" horiz-adv-x="1089" 
d="M569 412l-71 8q-76 8 -158 35q-76 24 -131 67q-52 38 -88 105q-33 59 -33 147q0 148 123 236q124 86 338 86q109 0 192 -27q80 -26 140 -74q59 -49 86 -102q29 -64 32 -115h-256q-3 57 -51 99q-44 38 -147 38q-113 0 -158 -36t-45 -82q0 -65 53 -92q57 -32 144 -41l71 -9
q71 -8 156 -28q75 -22 131 -60q55 -41 90 -102q33 -62 33 -158q0 -130 -90 -217q-92 -86 -254 -110l-72 -72q71 -3 111 -49q41 -47 41 -115q0 -37 -17 -76q-15 -29 -47 -61q-26 -26 -67 -41q-46 -17 -84 -17q-82 0 -142 48q-58 46 -73 116h147q15 -41 68 -41q30 0 53 23
q18 21 18 49q0 30 -18 51q-21 21 -53 21q-29 0 -52 -23l-94 94l84 84q-184 15 -297 107q-111 88 -114 229h258q3 -82 61 -119q56 -36 162 -36q114 0 164 36q53 38 53 97q0 39 -14 59q-16 23 -39 37q-27 12 -64 18q-4 1 -33.5 6t-46.5 7z" />
    <glyph glyph-name="Scaron" unicode="&#x160;" horiz-adv-x="1345" 
d="M72 399h270q3 -106 88 -166q83 -59 246 -59q162 0 248 62t86 153q0 55 -21 90q-19 31 -61 53q-41 21 -92 33q-13 2 -54 10t-65 11l-123 18q-117 15 -203 49q-91 35 -153 86q-68 55 -101 129q-35 75 -35 176q0 91 37 166q33 72 109 133q67 53 180 89q100 32 248 32
q147 0 250 -34q106 -38 172 -95q68 -59 102 -129q33 -67 39 -141h-270q-3 35 -19 76q-17 33 -53 61q-36 29 -90 43q-55 15 -131 15q-84 0 -154 -17q-62 -18 -96 -45q-34 -25 -51 -63q-17 -39 -17 -70q0 -51 21 -86q23 -39 59 -57q38 -24 90 -39q59 -17 117 -25l123 -18
q101 -14 199 -43q93 -27 159 -76q66 -48 107 -123q37 -75 37 -188q0 -100 -39 -177q-39 -79 -117 -139q-75 -58 -186 -92q-106 -33 -252 -33t-252 33q-116 35 -188 90q-81 62 -119 137q-42 79 -45 170zM592 1802l82 -133l82 133h307l-246 -246h-287l-245 246h307z" />
    <glyph glyph-name="scaron" unicode="&#x161;" horiz-adv-x="1089" 
d="M569 412l-71 8q-76 8 -158 35q-76 24 -131 67q-52 38 -88 105q-33 59 -33 147q0 148 123 236q124 86 338 86q109 0 192 -27q80 -26 140 -74q59 -49 86 -102q29 -64 32 -115h-256q-3 57 -51 99q-44 38 -147 38q-113 0 -158 -36t-45 -82q0 -65 53 -92q57 -32 144 -41l71 -9
q71 -8 156 -28q75 -22 131 -60q55 -41 90 -102q33 -62 33 -158q0 -80 -33 -139q-35 -62 -94 -107q-60 -45 -148 -67q-92 -25 -196 -25q-223 0 -348 94q-127 92 -133 244h258q3 -82 61 -119q56 -36 162 -36q114 0 164 36q53 38 53 97q0 39 -14 59q-16 23 -39 37
q-27 12 -64 18q-4 1 -33.5 6t-46.5 7zM469 1434l82 -134l82 134h307l-246 -246h-286l-246 246h307z" />
    <glyph glyph-name="uni0162" unicode="&#x162;" horiz-adv-x="1257" 
d="M391 -287h148q15 -41 67 -41q30 0 53 23q19 22 19 49q0 29 -19 51q-21 21 -53 21q-28 0 -51 -23l-94 94l112 113h-77v1208h-471v226h1208v-226h-471v-1208l-92 -92q70 -3 110 -49q41 -47 41 -115q0 -39 -16 -76q-15 -29 -47 -61q-25 -25 -68 -41q-46 -17 -84 -17
q-81 0 -141 48q-59 47 -74 116z" />
    <glyph glyph-name="uni0163" unicode="&#x163;" horiz-adv-x="876" 
d="M264 -287h148q15 -41 67 -41q30 0 53 23q19 22 19 49q0 29 -19 51q-21 21 -53 21q-28 0 -51 -23l-94 94l123 123q-93 21 -135 90q-41 68 -41 187v573h-256v205h256v246h254v-246h286v-205h-286v-573q0 -47 18 -68q14 -20 63 -20h205v-199h-186l-92 -92q70 -3 110 -49
q41 -47 41 -115q0 -39 -16 -76q-15 -29 -47 -61q-25 -25 -68 -41q-46 -17 -84 -17q-81 0 -141 48q-59 47 -74 116z" />
    <glyph glyph-name="Tcaron" unicode="&#x164;" horiz-adv-x="1257" 
d="M1233 1434v-226h-471v-1208h-266v1208h-471v226h1208zM547 1802l82 -133l82 133h307l-246 -246h-287l-245 246h307z" />
    <glyph glyph-name="tcaron" unicode="&#x165;" horiz-adv-x="876" 
d="M623 1188l61 409h256l-123 -409h-194zM281 287v573h-256v205h256v246h254v-246h286v-205h-286v-573q0 -47 18 -68q14 -20 63 -20h205v-199h-266q-147 0 -211 70q-63 69 -63 217z" />
    <glyph glyph-name="Tbar" unicode="&#x166;" horiz-adv-x="1290" 
d="M205 635v215h307v358h-471v226h1208v-226h-471v-358h307v-215h-307v-635h-266v635h-307z" />
    <glyph glyph-name="tbar" unicode="&#x167;" horiz-adv-x="876" 
d="M90 707h191v153h-256v205h256v246h254v-246h286v-205h-286v-153h221v-185h-221v-235q0 -47 18 -68q14 -20 63 -20h205v-199h-266q-147 0 -211 70q-63 69 -63 217v235h-191v185z" />
    <glyph glyph-name="Utilde" unicode="&#x168;" horiz-adv-x="1499" 
d="M750 -31q-141 0 -248 43q-112 44 -187 119q-78 75 -118 176q-41 103 -41 215v912h266v-912q0 -78 24 -137q20 -59 66 -102q46 -46 104 -66q61 -22 134 -22q71 0 135 22q56 20 102 66q44 41 68 102q22 61 22 137v912h266v-912q0 -114 -40 -215q-41 -103 -117 -176
q-74 -74 -189 -119q-110 -43 -247 -43zM524 1567h-164q0 124 70 194q69 72 176 72q52 0 99 -18q22 -10 81 -43q10 -6 33.5 -20t36.5 -21q30 -21 57 -21q62 0 62 82h164q0 -124 -68 -195q-71 -71 -178 -71q-54 0 -98 20q-28 11 -82 41q-33 18 -68 43q-36 19 -59 19
q-62 0 -62 -82z" />
    <glyph glyph-name="utilde" unicode="&#x169;" horiz-adv-x="1255" 
d="M864 0v123q-47 -77 -131 -115q-79 -39 -192 -39q-192 0 -303 111t-111 319v666h254v-645q0 -117 53 -176q54 -60 168 -60q118 0 191 76q71 74 71 221v584h254v-1065h-254zM395 1198h-164q0 125 70 195q68 71 176 71q51 0 98 -18q27 -12 82 -43q10 -6 33.5 -20t36.5 -21
q30 -21 57 -21q62 0 62 82h164q0 -123 -68 -194q-72 -72 -178 -72q-52 0 -98 21q-28 11 -82 41q-33 18 -68 43q-35 18 -59 18q-62 0 -62 -82z" />
    <glyph glyph-name="Umacron" unicode="&#x16a;" horiz-adv-x="1499" 
d="M750 -31q-141 0 -248 43q-112 44 -187 119q-78 75 -118 176q-41 103 -41 215v912h266v-912q0 -78 24 -137q20 -59 66 -102q46 -46 104 -66q61 -22 134 -22q71 0 135 22q56 20 102 66q44 41 68 102q22 61 22 137v912h266v-912q0 -114 -40 -215q-41 -103 -117 -176
q-74 -74 -189 -119q-110 -43 -247 -43zM391 1597v185h717v-185h-717z" />
    <glyph glyph-name="umacron" unicode="&#x16b;" horiz-adv-x="1255" 
d="M864 0v123q-47 -77 -131 -115q-79 -39 -192 -39q-192 0 -303 111t-111 319v666h254v-645q0 -117 53 -176q54 -60 168 -60q118 0 191 76q71 74 71 221v584h254v-1065h-254zM264 1229v184h717v-184h-717z" />
    <glyph glyph-name="Ubreve" unicode="&#x16c;" horiz-adv-x="1499" 
d="M750 -31q-141 0 -248 43q-112 44 -187 119q-78 75 -118 176q-41 103 -41 215v912h266v-912q0 -78 24 -137q20 -59 66 -102q46 -46 104 -66q61 -22 134 -22q71 0 135 22q56 20 102 66q44 41 68 102q22 61 22 137v912h266v-912q0 -114 -40 -215q-41 -103 -117 -176
q-74 -74 -189 -119q-110 -43 -247 -43zM750 1720q70 0 114 33q46 34 60 90h178q-9 -66 -35 -119q-28 -58 -72 -96q-47 -44 -106 -67q-67 -25 -139 -25q-76 0 -140 25q-59 23 -106 67q-44 38 -72 96q-26 53 -35 119h178q14 -56 60 -90q44 -33 115 -33z" />
    <glyph glyph-name="ubreve" unicode="&#x16d;" horiz-adv-x="1255" 
d="M864 0v123q-47 -77 -131 -115q-79 -39 -192 -39q-192 0 -303 111t-111 319v666h254v-645q0 -117 53 -176q54 -60 168 -60q118 0 191 76q71 74 71 221v584h254v-1065h-254zM623 1352q71 0 114 32q45 34 60 91h178q-9 -66 -35 -119q-28 -58 -72 -96q-49 -46 -106 -68
q-67 -25 -139 -25q-76 0 -140 25q-57 22 -106 68q-44 38 -72 96q-26 53 -35 119h179q15 -58 59 -91q43 -32 115 -32z" />
    <glyph glyph-name="Uring" unicode="&#x16e;" horiz-adv-x="1499" 
d="M750 -31q-141 0 -248 43q-112 44 -187 119q-78 75 -118 176q-41 103 -41 215v912h266v-912q0 -78 24 -137q20 -59 66 -102q46 -46 104 -66q61 -22 134 -22q71 0 135 22q56 20 102 66q44 41 68 102q22 61 22 137v912h266v-912q0 -114 -40 -215q-41 -103 -117 -176
q-74 -74 -189 -119q-110 -43 -247 -43zM872 1651q0 54 -34 88q-35 35 -88 35t-88 -35t-35 -88t35 -88t88 -35t88 35q34 34 34 88zM473 1651q0 51 23 102q21 47 57 80q38 35 88 55q52 19 109 19q55 0 110 -19q49 -21 86 -55q41 -38 60 -80q20 -44 20 -102q0 -57 -20 -101
q-21 -46 -60 -82t-86 -53q-50 -20 -110 -20q-62 0 -109 20q-48 17 -88 53q-34 31 -57 82t-23 101z" />
    <glyph glyph-name="uring" unicode="&#x16f;" horiz-adv-x="1255" 
d="M864 0v123q-47 -77 -131 -115q-79 -39 -192 -39q-192 0 -303 111t-111 319v666h254v-645q0 -117 53 -176q54 -60 168 -60q118 0 191 76q71 74 71 221v584h254v-1065h-254zM745 1403q0 54 -34 88q-35 35 -88 35t-88 -35t-35 -88t35 -88t88 -35t88 35q34 34 34 88z
M346 1403q0 51 23 102q21 47 57 80q38 35 88 55q52 19 109 19q55 0 110 -19q49 -21 86 -55q41 -38 60 -80q20 -44 20 -102q0 -56 -20 -100q-21 -46 -60 -82q-41 -38 -86 -54q-50 -20 -110 -20q-62 0 -109 20q-47 16 -88 54q-34 31 -57 82t-23 100z" />
    <glyph glyph-name="Uhungarumlaut" unicode="&#x170;" horiz-adv-x="1499" 
d="M750 -31q-141 0 -248 43q-112 44 -187 119q-78 75 -118 176q-41 103 -41 215v912h266v-912q0 -78 24 -137q20 -59 66 -102q46 -46 104 -66q61 -22 134 -22q71 0 135 22q56 20 102 66q44 41 68 102q22 61 22 137v912h266v-912q0 -114 -40 -215q-41 -103 -117 -176
q-74 -74 -189 -119q-110 -43 -247 -43zM401 1556l134 246h276l-184 -246h-226zM770 1556l133 246h277l-185 -246h-225z" />
    <glyph glyph-name="uhungarumlaut" unicode="&#x171;" horiz-adv-x="1255" 
d="M864 0v123q-47 -77 -131 -115q-79 -39 -192 -39q-192 0 -303 111t-111 319v666h254v-645q0 -117 53 -176q54 -60 168 -60q118 0 191 76q71 74 71 221v584h254v-1065h-254zM274 1188l134 246h276l-184 -246h-226zM643 1188l133 246h277l-185 -246h-225z" />
    <glyph glyph-name="Uogonek" unicode="&#x172;" horiz-adv-x="1499" 
d="M799 -29q-10 -2 -25 -2h-24q-141 0 -248 43q-112 44 -187 119q-78 75 -118 176q-41 103 -41 215v912h266v-912q0 -78 24 -137q20 -59 66 -102q46 -46 104 -66q61 -22 134 -22q71 0 135 22q56 20 102 66q44 41 68 102q22 61 22 137v912h266v-912q0 -113 -30 -196
q-29 -81 -78 -150q-47 -65 -100 -115q-14 -12 -103 -90q-56 -52 -78 -80q-30 -40 -30 -81q0 -49 32 -66q33 -20 80 -20q26 0 54 4q33 5 49 10l-68 -176q-63 -13 -117 -13q-47 0 -100 17q-44 14 -82 47q-34 27 -53 72q-21 41 -21 90q0 68 31 119q26 44 70 77z" />
    <glyph glyph-name="uogonek" unicode="&#x173;" horiz-adv-x="1255" 
d="M864 10v113q-47 -77 -131 -115q-79 -39 -192 -39q-192 0 -303 111t-111 319v666h254v-645q0 -117 53 -176q54 -60 168 -60q118 0 191 76q71 74 71 221v584h254v-1065q-92 -47 -143 -92t-51 -98q0 -49 32 -66q33 -20 80 -20q26 0 54 4q33 5 49 10l-68 -176
q-63 -13 -117 -13q-47 0 -100 17q-44 14 -82 47q-34 27 -53 72q-21 41 -21 90q0 91 52 149q50 59 114 86z" />
    <glyph glyph-name="Wcircumflex" unicode="&#x174;" horiz-adv-x="1970" 
d="M989 1085h-8q-18 -100 -39 -196q-14 -68 -47 -184l-197 -705h-266l-409 1434h266l182 -680q42 -160 53 -213q26 -128 37 -193h8q7 33 21 98.5t20 94.5q24 114 54 215l188 678h266l189 -678q34 -111 55 -215q23 -113 39 -193h8q3 18 39 193q18 88 51 213l182 680h267
l-410 -1434h-266l-197 705q-24 87 -45 184q-31 140 -41 196zM1067 1556l-82 134l-82 -134h-307l246 246h286l246 -246h-307z" />
    <glyph glyph-name="wcircumflex" unicode="&#x175;" horiz-adv-x="1609" 
d="M809 778h-8q0 -1 -39 -184q-16 -66 -53 -193l-125 -401h-244l-317 1065h260l104 -418q28 -114 43 -201q25 -141 31 -180h8q1 6 37 180q10 49 51 199l125 420h246l125 -420q41 -150 51 -199q36 -174 37 -180h8q6 39 31 180q15 87 43 201l104 418h260l-317 -1065h-244
l-125 401q-37 126 -51 193q-32 130 -41 184zM887 1188l-82 133l-82 -133h-307l246 246h286l246 -246h-307z" />
    <glyph glyph-name="Ycircumflex" unicode="&#x176;" 
d="M498 0v563l-482 871h287l328 -635l327 635h287l-481 -871v-563h-266zM713 1556l-82 134l-82 -134h-307l245 246h287l246 -246h-307z" />
    <glyph glyph-name="ycircumflex" unicode="&#x177;" horiz-adv-x="1085" 
d="M627 1188l-82 133l-82 -133h-307l245 246h287l246 -246h-307zM414 -29l10 29l-399 1065h268l149 -410q39 -106 60 -190q6 -24 15 -59.5t15.5 -61.5t10.5 -47h8q3 14 45 168q23 80 63 190l146 410h262l-430 -1161q-19 -50 -53 -113q-29 -51 -76 -86q-44 -36 -113 -55
q-71 -19 -164 -19h-143v199h123q77 0 127 29q46 27 76 112z" />
    <glyph glyph-name="Ydieresis" unicode="&#x178;" 
d="M498 0v563l-482 871h287l328 -635l327 635h287l-481 -871v-563h-266zM279 1577v225h253v-225h-253zM729 1577v225h254v-225h-254z" />
    <glyph glyph-name="Zacute" unicode="&#x179;" horiz-adv-x="1269" 
d="M1202 225v-225h-1126v225l768 983h-748v226h1075v-226l-768 -983h799zM434 1556l164 246h328l-246 -246h-246z" />
    <glyph glyph-name="zacute" unicode="&#x17a;" horiz-adv-x="1085" 
d="M399 205h617v-205h-942v205l596 655h-576v205h901v-205zM340 1188l164 246h327l-245 -246h-246z" />
    <glyph glyph-name="Zdotaccent" unicode="&#x17b;" horiz-adv-x="1269" 
d="M1202 225v-225h-1126v225l768 983h-748v226h1075v-226l-768 -983h799zM512 1577v225h254v-225h-254z" />
    <glyph glyph-name="zdotaccent" unicode="&#x17c;" horiz-adv-x="1085" 
d="M399 205h617v-205h-942v205l596 655h-576v205h901v-205zM418 1208v226h254v-226h-254z" />
    <glyph glyph-name="Zcaron" unicode="&#x17d;" horiz-adv-x="1269" 
d="M1202 225v-225h-1126v225l768 983h-748v226h1075v-226l-768 -983h799zM557 1802l82 -133l82 133h307l-246 -246h-286l-246 246h307z" />
    <glyph glyph-name="zcaron" unicode="&#x17e;" horiz-adv-x="1085" 
d="M399 205h617v-205h-942v205l596 655h-576v205h901v-205zM463 1434l82 -134l82 134h307l-246 -246h-287l-245 246h307z" />
    <glyph glyph-name="longs" unicode="&#x17f;" horiz-adv-x="675" 
d="M29 860v205h215v82q0 147 82 217q79 70 229 70h188v-199h-163q-49 0 -64 -21q-18 -21 -18 -67v-1147h-254v860h-215z" />
    <glyph glyph-name="uni018F" unicode="&#x18f;" horiz-adv-x="1554" 
d="M414 1065h-297q36 87 90 158q56 71 133 127q80 55 182 84q102 30 234 30q162 0 293 -55q130 -55 225 -154q91 -99 143 -235q51 -134 51 -303q0 -162 -49 -299q-53 -138 -143 -236q-88 -98 -221 -155q-131 -58 -293 -58q-170 0 -297 62q-130 59 -215 166q-86 109 -129 254
q-45 139 -45 317v51h1120q-9 89 -43 164q-35 77 -88 133q-55 55 -133 90q-73 33 -176 33q-143 0 -226 -51q-86 -53 -116 -123zM762 195q98 0 166 32q71 29 129 84q55 52 90 127q36 74 45 156h-840q12 -82 43 -158t82 -127q55 -55 123 -84q70 -30 162 -30z" />
    <glyph glyph-name="uni0190" unicode="&#x190;" horiz-adv-x="1359" 
d="M858 846v-215h-184q-84 0 -154 -17q-55 -16 -98 -47q-35 -28 -51 -71q-17 -46 -17 -88q0 -44 21 -84q19 -42 59 -72q44 -32 103 -49q65 -19 147 -19q91 0 164 17q59 14 104 47q39 26 60 67q21 47 28 84h269q-10 -88 -47 -159q-44 -83 -113 -138q-76 -58 -191 -96
q-112 -37 -274 -37q-133 0 -248 31q-108 26 -186 86q-80 58 -119 135q-43 79 -43 180q0 110 59 199q56 85 179 145q-101 58 -144 140q-43 79 -43 172q0 82 37 155q32 69 107 131q69 55 174 89q97 32 241 32q143 0 238 -32q107 -36 174 -89q70 -55 111 -126q37 -65 47 -152
h-269q-2 27 -22 65q-16 31 -53 60q-36 29 -90 43q-59 16 -136 16q-152 0 -223 -53q-69 -54 -69 -147q0 -92 71 -148q70 -55 207 -55h174z" />
    <glyph glyph-name="florin" unicode="&#x192;" horiz-adv-x="952" 
d="M147 -92l168 952h-247v205h282l17 92q27 152 118 215q89 62 228 62h194v-195h-184q-46 0 -68 -16q-18 -16 -28 -66l-17 -92h297v-205h-332l-167 -952q-27 -155 -117 -215q-89 -62 -230 -62h-147v195h137q47 0 68 18q18 13 28 64z" />
    <glyph glyph-name="uni0194" unicode="&#x194;" horiz-adv-x="1288" 
d="M924 -121q0 -105 -74 -176q-78 -72 -205 -72q-128 0 -203 72q-75 69 -75 174q0 42 8 78q6 37 24 84q12 36 43 111q26 59 68 151l-506 1133h277l223 -529q3 -7 78 -184q34 -87 59 -170h6q22 71 60 170q39 100 75 184l226 529h276l-506 -1131l70 -153q27 -64 45 -111
q19 -59 25 -84q6 -38 6 -76zM645 90q-29 -68 -43 -113q-16 -53 -16 -86q0 -35 16 -57t43 -22q29 0 45 22q15 21 15 57q0 37 -15 86q-8 24 -45 113z" />
    <glyph glyph-name="uni0197" unicode="&#x197;" horiz-adv-x="667" 
d="M27 649v215h170v570h266v-570h170v-215h-170v-649h-266v649h-170z" />
    <glyph glyph-name="uni019D" unicode="&#x19d;" horiz-adv-x="1589" 
d="M430 1055h-8q1 -17 4 -48t4 -46q1 -16 2 -48t2 -49q0 -71 2 -112v-148v-665q0 -152 -96 -230q-101 -78 -260 -78h-105v205h82q59 0 88 29q25 28 25 80v1489h287l430 -625q23 -32 58.5 -86.5t41.5 -63.5q12 -17 37.5 -56.5t38.5 -57.5q11 -20 30 -50t25 -40
q7 -14 21 -39.5t20 -36.5h8q-1 16 -6 94q-4 62 -4 96q-2 35 -2 115q-2 41 -2 145v605h266v-1434h-286l-431 625q-56 79 -100 149q-47 69 -74 117q-33 47 -55 90q-37 62 -43 74z" />
    <glyph glyph-name="uni01B5" unicode="&#x1b5;" horiz-adv-x="1290" 
d="M147 625v215h418l289 368h-748v226h1076v-226l-289 -368h258v-215h-426l-311 -400h798v-225h-1126v225l311 400h-250z" />
    <glyph glyph-name="uni01B6" unicode="&#x1b6;" horiz-adv-x="1099" 
d="M406 205h616v-205h-942v205l223 246h-172v184h340l205 225h-576v205h901v-205l-204 -225h184v-184h-352z" />
    <glyph glyph-name="uni01CD" unicode="&#x1cd;" horiz-adv-x="1437" 
d="M1159 0l-125 317h-631l-124 -317h-277l584 1434h266l584 -1434h-277zM588 782l-94 -239h450l-94 239q-46 120 -72 201q-29 80 -55 174h-8q-20 -72 -56 -176q-50 -147 -71 -199zM637 1802l82 -133l82 133h307l-246 -246h-287l-245 246h307z" />
    <glyph glyph-name="uni01CE" unicode="&#x1ce;" horiz-adv-x="1193" 
d="M379 778h-262q24 146 145 232t330 86q130 0 233 -35q102 -34 162 -107q80 -92 80 -247v-707h-254v123q-18 -25 -53 -57q-34 -31 -74 -50q-48 -23 -98 -34q-60 -13 -129 -13q-75 0 -152 23q-76 23 -125 63q-56 44 -86 109q-30 64 -30 153q0 155 108 238q112 85 295 100
l344 31v21q0 91 -49 143q-48 51 -172 51q-99 0 -150 -31q-51 -34 -63 -92zM500 164q67 0 123 20q54 17 100 56q42 39 65 92q25 58 25 129v41l-334 -31q-72 -6 -114 -45q-46 -40 -46 -109q0 -77 52 -114q48 -39 129 -39zM510 1434l82 -134l82 134h307l-246 -246h-286
l-246 246h307z" />
    <glyph glyph-name="uni01CF" unicode="&#x1cf;" horiz-adv-x="606" 
d="M436 0h-266v1434h266v-1434zM221 1802l82 -133l82 133h307l-246 -246h-286l-246 246h307z" />
    <glyph glyph-name="uni01D0" unicode="&#x1d0;" horiz-adv-x="528" 
d="M137 0v1065h254v-1065h-254zM182 1434l82 -134l82 134h307l-245 -246h-287l-246 246h307z" />
    <glyph glyph-name="uni01D1" unicode="&#x1d1;" horiz-adv-x="1601" 
d="M350 717q0 -101 31 -199q26 -91 88 -166q59 -70 141 -114q82 -43 191 -43q108 0 190 43q88 46 144 114q57 69 88 166q28 98 28 199q0 100 -28 198q-31 97 -88 166q-58 69 -144 115q-82 43 -190 43q-109 0 -191 -43q-81 -43 -141 -115q-62 -75 -88 -166q-31 -98 -31 -198z
M1518 717q0 -162 -52 -299q-53 -140 -145 -236q-92 -99 -225 -155q-131 -58 -295 -58q-162 0 -293 58q-137 57 -227 155q-93 98 -146 236q-51 134 -51 299t51 299q52 133 146 235q90 97 227 158q131 55 293 55q164 0 295 -55q133 -59 225 -158q92 -100 145 -235
q52 -137 52 -299zM719 1802l82 -133l82 133h307l-246 -246h-287l-245 246h307z" />
    <glyph glyph-name="uni01D2" unicode="&#x1d2;" 
d="M328 532q0 -64 18 -129q15 -64 53 -114q38 -53 95 -82q56 -33 137 -33t137 33q56 29 94 82q38 51 56 114q16 69 16 129q0 63 -16 132q-16 58 -56 114q-36 48 -94 82q-60 31 -137 31t-137 -31q-59 -35 -95 -82q-39 -55 -53 -114q-18 -64 -18 -132zM1188 532
q0 -123 -39 -221q-38 -99 -113 -180q-72 -74 -176 -119q-101 -43 -229 -43q-129 0 -230 43q-106 45 -174 119q-71 74 -112 180q-41 103 -41 221t41 224q42 105 112 178q68 74 174 119q101 43 230 43q128 0 229 -43q104 -45 176 -119q74 -81 113 -178q39 -101 39 -224z
M549 1434l82 -134l82 134h307l-246 -246h-287l-245 246h307z" />
    <glyph glyph-name="uni01D3" unicode="&#x1d3;" horiz-adv-x="1499" 
d="M750 -31q-141 0 -248 43q-112 44 -187 119q-78 75 -118 176q-41 103 -41 215v912h266v-912q0 -78 24 -137q20 -59 66 -102q46 -46 104 -66q61 -22 134 -22q71 0 135 22q56 20 102 66q44 41 68 102q22 61 22 137v912h266v-912q0 -114 -40 -215q-41 -103 -117 -176
q-74 -74 -189 -119q-110 -43 -247 -43zM668 1802l82 -133l81 133h308l-246 -246h-287l-246 246h308z" />
    <glyph glyph-name="uni01D4" unicode="&#x1d4;" horiz-adv-x="1255" 
d="M864 0v123q-47 -77 -131 -115q-79 -39 -192 -39q-192 0 -303 111t-111 319v666h254v-645q0 -117 53 -176q54 -60 168 -60q118 0 191 76q71 74 71 221v584h254v-1065h-254zM532 1434l82 -134l82 134h308l-246 -246h-287l-246 246h307z" />
    <glyph glyph-name="Gcaron" unicode="&#x1e6;" horiz-adv-x="1548" 
d="M803 1239q-113 0 -195 -43q-84 -43 -141 -115q-59 -71 -86 -166q-29 -102 -29 -198q0 -97 29 -199q27 -95 86 -166q55 -70 141 -114q82 -43 195 -43q159 0 266 90q104 88 113 268h-379v225h635v-778h-205l-21 143q-64 -80 -163 -125q-101 -49 -256 -49q-163 0 -291 58
q-135 57 -223 155q-94 101 -142 236q-51 134 -51 299t51 299q48 132 144 235q87 97 225 158q131 55 297 55q119 0 225 -28q92 -28 174 -84q75 -54 129 -127q49 -69 86 -160h-293q-41 75 -114 125q-76 49 -207 49zM737 1802l82 -133l82 133h307l-245 -246h-287l-246 246h307z
" />
    <glyph glyph-name="gcaron" unicode="&#x1e7;" horiz-adv-x="1286" 
d="M905 563q0 76 -20 135q-21 57 -60 103q-40 43 -92 67q-61 23 -121 23q-54 0 -112 -23q-53 -24 -90 -67q-36 -42 -58 -103q-22 -64 -22 -135q0 -72 22 -133q21 -61 58 -104q39 -46 90 -66q52 -24 112 -24q66 0 121 24q49 19 92 66q41 47 60 104q20 56 20 133zM571 31
q-109 0 -202 41q-91 40 -156 114q-66 72 -100 170q-37 93 -37 207q0 111 37 209q35 96 100 170q68 74 156 113q93 41 202 41q67 0 119 -15q50 -14 94 -37q36 -19 68 -47q33 -33 43 -45v113h254v-942q0 -127 -41 -223q-41 -100 -111 -164q-67 -64 -168 -101q-93 -34 -206 -34
q-193 0 -318 82q-128 84 -158 235h261q23 -68 77 -96q53 -27 138 -27q130 0 202 84q70 82 70 244v51q-15 -18 -43 -43q-24 -24 -68 -47t-94 -37q-56 -16 -119 -16zM584 1434l82 -134l82 134h307l-246 -246h-287l-246 246h308z" />
    <glyph glyph-name="uni01E8" unicode="&#x1e8;" horiz-adv-x="1390" 
d="M436 0h-266v1434h266v-605l594 605h338l-696 -697l737 -737h-358l-615 635v-635zM625 1802l82 -133l81 133h308l-246 -246h-287l-246 246h308z" />
    <glyph glyph-name="uni01E9" unicode="&#x1e9;" horiz-adv-x="1142" 
d="M391 453v-453h-254v1434h254v-791l412 422h325l-512 -512l553 -553h-346zM532 1802l82 -133l82 133h308l-246 -246h-287l-246 246h307z" />
    <glyph glyph-name="uni01EA" unicode="&#x1ea;" horiz-adv-x="1601" 
d="M965 -276q25 0 53 4q33 5 49 10l-68 -176q-63 -13 -116 -13q-48 0 -101 17q-44 14 -82 47q-34 27 -53 72q-20 39 -20 90q0 68 28 119q22 38 70 79q-144 12 -262 74q-120 59 -203 158q-84 100 -129 229q-47 133 -47 283q0 165 51 299q52 133 146 235q90 97 227 158
q131 55 293 55q164 0 295 -55q133 -59 225 -158q92 -100 145 -235q52 -137 52 -299q0 -217 -88 -383q-86 -165 -242 -260q-65 -40 -131 -74q-57 -32 -107 -61q-40 -23 -71 -58q-27 -30 -27 -71q0 -49 33 -66q33 -20 80 -20zM350 717q0 -101 31 -199q26 -91 88 -166
q59 -70 141 -114q82 -43 191 -43q108 0 190 43q88 46 144 114q57 69 88 166q28 98 28 199q0 100 -28 198q-31 97 -88 166q-58 69 -144 115q-82 43 -190 43q-109 0 -191 -43q-81 -43 -141 -115q-62 -75 -88 -166q-31 -98 -31 -198z" />
    <glyph glyph-name="uni01EB" unicode="&#x1eb;" 
d="M750 -276q25 0 53 4q33 5 49 10l-68 -176q-63 -13 -116 -13q-48 0 -101 17q-44 14 -82 47q-34 27 -53 72q-20 39 -20 90q0 74 32 123q27 45 74 82q-102 18 -184 67q-79 47 -139 123q-62 75 -91 166q-30 92 -30 196q0 118 41 224q42 105 112 178q68 74 174 119
q101 43 230 43q128 0 229 -43q104 -45 176 -119q74 -81 113 -178q39 -101 39 -224q0 -147 -60 -270q-63 -123 -163 -192q-48 -36 -105 -62q-34 -15 -106 -55q-44 -24 -82 -62q-35 -35 -35 -81q0 -49 33 -66q33 -20 80 -20zM328 532q0 -64 18 -129q15 -64 53 -114
q38 -53 95 -82q56 -33 137 -33t137 33q56 29 94 82q38 51 56 114q16 69 16 129q0 63 -16 132q-16 58 -56 114q-36 48 -94 82q-60 31 -137 31t-137 -31q-59 -35 -95 -82q-39 -55 -53 -114q-18 -64 -18 -132z" />
    <glyph glyph-name="uni01F8" unicode="&#x1f8;" horiz-adv-x="1589" 
d="M1153 829v605h266v-1434h-286l-431 625q-56 79 -100 149q-47 69 -74 117q-33 47 -55 90q-37 62 -43 74h-8q1 -17 4 -48t4 -46q1 -16 2 -48t2 -49q0 -71 2 -112v-148v-604h-266v1434h287l430 -625q23 -32 58.5 -86.5t41.5 -63.5q12 -17 37.5 -56.5t38.5 -57.5
q11 -20 30 -50t25 -40q7 -14 21 -39.5t20 -36.5h8q-1 16 -6 94q-4 62 -4 96q-2 35 -2 115q-2 41 -2 145zM836 1802l163 -246h-245l-246 246h328z" />
    <glyph glyph-name="uni01F9" unicode="&#x1f9;" horiz-adv-x="1265" 
d="M391 1065v-133q53 77 139 121q85 43 195 43q192 0 303 -111t111 -319v-666h-254v645q0 119 -51 176q-54 60 -170 60q-55 0 -107 -19q-52 -21 -88 -57t-57 -92q-21 -55 -21 -129v-584h-254v1065h254zM676 1434l164 -246h-246l-246 246h328z" />
    <glyph glyph-name="Aringacute" unicode="&#x1fa;" horiz-adv-x="1441" 
d="M444 1352q0 51 23 102q21 47 57 80q38 35 88 55q52 19 109 19q55 0 110 -19q51 -21 87 -55q39 -36 59 -80t20 -102q0 -86 -49 -150l490 -1202h-277l-125 317h-630l-125 -317h-277l490 1202q-50 65 -50 150zM741 1096h-41q-8 -27 -27 -83t-24 -71q-19 -58 -59 -160
l-94 -239h450l-94 239q-25 62 -61 164q-34 97 -50 150zM514 1659l164 246h328l-246 -246h-246zM844 1352q0 53 -35 88t-88 35t-88 -35t-35 -88t35 -88t88 -35t88 35t35 88z" />
    <glyph glyph-name="aringacute" unicode="&#x1fb;" horiz-adv-x="1193" 
d="M305 1239q0 59 25 111q21 50 61 84q42 36 92 53q52 18 109 18q58 0 110 -18q48 -17 91 -53q38 -32 63 -84q23 -54 23 -111q0 -50 -19 -96q-14 -36 -47 -78q109 -37 174 -111q80 -92 80 -247v-707h-254v123q-18 -25 -53 -57q-34 -31 -74 -50q-48 -23 -98 -34
q-60 -13 -129 -13q-75 0 -152 23q-76 23 -125 63q-56 44 -86 109q-30 64 -30 153q0 155 108 238q112 85 295 100l344 31v21q0 91 -49 143q-48 51 -172 51q-99 0 -150 -31q-51 -34 -63 -92h-262q15 102 80 176q66 73 174 109q-66 72 -66 176zM500 164q67 0 123 20
q54 17 100 56q42 39 65 92q25 58 25 129v41l-334 -31q-72 -6 -114 -45q-46 -40 -46 -109q0 -77 52 -114q48 -39 129 -39zM387 1556l164 246h328l-246 -246h-246zM459 1239q0 -55 39 -94q36 -39 94 -39q57 0 96 39q37 37 37 94q0 56 -37 96q-40 37 -96 37q-57 0 -94 -37
q-39 -39 -39 -96z" />
    <glyph glyph-name="AEacute" unicode="&#x1fc;" horiz-adv-x="2185" 
d="M1071 0v317h-590l-209 -317h-307l963 1434h1147v-226h-738v-358h697v-225h-697v-400h738v-225h-1004zM840 860l-209 -317h440v665h-10q-3 -5 -34 -55.5t-52 -83.5q-64 -100 -135 -209zM1255 1556l164 246h328l-246 -246h-246z" />
    <glyph glyph-name="aeacute" unicode="&#x1fd;" horiz-adv-x="1955" 
d="M500 164q67 0 123 20q54 17 100 56q42 39 65 92q25 58 25 129v41l-334 -31q-72 -6 -114 -45q-46 -40 -46 -109q0 -77 52 -114q48 -39 129 -39zM1348 901q-64 0 -111 -20q-45 -19 -86 -60q-35 -35 -57 -84q-24 -56 -29 -102h555q-3 53 -21 102q-23 52 -53 84
q-37 40 -84 60q-50 20 -114 20zM1354 -31q-140 0 -244 49q-106 49 -178 136q-77 -86 -189 -136q-110 -49 -274 -49q-77 0 -158 23q-78 22 -127 63q-56 44 -86 109q-32 60 -32 153q0 155 108 238q112 85 295 100l344 31v21q0 91 -49 143q-48 51 -172 51q-99 0 -150 -31
q-51 -34 -63 -92h-262q24 146 145 232t330 86q131 0 229 -33q98 -34 160 -105q72 66 162 103q90 35 205 35q204 0 327 -99q121 -97 174 -258q17 -57 27 -125q8 -57 8 -133v-41h-819q3 -54 22 -98q19 -48 58 -90q33 -39 88 -64q53 -24 121 -24q103 0 162 47q55 46 73 96h275
q-19 -65 -66 -131q-43 -60 -106 -106t-150 -74q-82 -27 -188 -27zM776 1188l164 246h328l-246 -246h-246z" />
    <glyph glyph-name="Oslashacute" unicode="&#x1fe;" horiz-adv-x="1609" 
d="M600 1556l164 246h328l-246 -246h-246zM57 -31l201 242q-81 98 -125 227q-45 122 -45 279q0 165 51 299q52 133 146 235q90 97 227 158q131 55 293 55q113 0 219 -28q98 -29 186 -86l97 114h245l-202 -241q82 -99 129 -228q43 -128 43 -278q0 -162 -52 -299
q-53 -140 -145 -236q-92 -99 -225 -155q-131 -58 -295 -58q-114 0 -219 31q-102 27 -187 84l-96 -115h-246zM1255 717q0 172 -75 301l-625 -746q50 -36 115 -57q59 -20 135 -20q108 0 190 43q88 46 144 114q57 69 88 166q28 98 28 199zM354 717q0 -79 19 -160t55 -143
l625 747q-52 37 -113 58q-61 20 -135 20q-109 0 -191 -43q-81 -43 -141 -115q-62 -75 -88 -166q-31 -98 -31 -198z" />
    <glyph glyph-name="oslashacute" unicode="&#x1ff;" horiz-adv-x="1265" 
d="M1190 532q0 -123 -39 -221q-38 -99 -113 -180q-72 -74 -176 -119q-101 -43 -229 -43q-82 0 -166 23q-86 24 -137 59l-70 -82h-201l152 181q-66 76 -100 172q-35 100 -35 210q0 118 41 224q42 105 112 178q68 74 174 119q101 43 230 43q174 0 305 -82l68 82h200l-151 -181
q66 -78 100 -172q35 -100 35 -211zM330 532q0 -46 10 -98q8 -42 31 -94l424 506q-65 45 -162 45q-77 0 -137 -31q-59 -35 -95 -82q-39 -55 -53 -114q-18 -64 -18 -132zM936 532q0 55 -8 99q-6 35 -33 94l-424 -506q65 -45 162 -45q81 0 137 33q56 29 94 82q38 51 56 114
q16 69 16 129zM430 1188l164 246h328l-246 -246h-246z" />
    <glyph glyph-name="uni0218" unicode="&#x218;" horiz-adv-x="1345" 
d="M72 399h270q3 -106 88 -166q83 -59 246 -59q162 0 248 62t86 153q0 55 -21 90q-19 31 -61 53q-41 21 -92 33q-13 2 -54 10t-65 11l-123 18q-117 15 -203 49q-91 35 -153 86q-68 55 -101 129q-35 75 -35 176q0 91 37 166q33 72 109 133q67 53 180 89q100 32 248 32
q147 0 250 -34q106 -38 172 -95q68 -59 102 -129q33 -67 39 -141h-270q-3 35 -19 76q-17 33 -53 61q-36 29 -90 43q-55 15 -131 15q-84 0 -154 -17q-62 -18 -96 -45q-34 -25 -51 -63q-17 -39 -17 -70q0 -51 21 -86q23 -39 59 -57q38 -24 90 -39q59 -17 117 -25l123 -18
q101 -14 199 -43q93 -27 159 -76q66 -48 107 -123q37 -75 37 -188q0 -100 -39 -177q-39 -79 -117 -139q-75 -58 -186 -92q-106 -33 -252 -33t-252 33q-116 35 -188 90q-81 62 -119 137q-42 79 -45 170zM557 -317v215h254v-215l-143 -215h-101l92 215h-102z" />
    <glyph glyph-name="uni0219" unicode="&#x219;" horiz-adv-x="1089" 
d="M569 412l-71 8q-76 8 -158 35q-76 24 -131 67q-52 38 -88 105q-33 59 -33 147q0 148 123 236q124 86 338 86q109 0 192 -27q80 -26 140 -74q59 -49 86 -102q29 -64 32 -115h-256q-3 57 -51 99q-44 38 -147 38q-113 0 -158 -36t-45 -82q0 -65 53 -92q57 -32 144 -41l71 -9
q71 -8 156 -28q75 -22 131 -60q55 -41 90 -102q33 -62 33 -158q0 -80 -33 -139q-35 -62 -94 -107q-60 -45 -148 -67q-92 -25 -196 -25q-223 0 -348 94q-127 92 -133 244h258q3 -82 61 -119q56 -36 162 -36q114 0 164 36q53 38 53 97q0 39 -14 59q-16 23 -39 37
q-27 12 -64 18q-4 1 -33.5 6t-46.5 7zM434 -317v215h254v-215l-143 -215h-101l93 215h-103z" />
    <glyph glyph-name="uni021A" unicode="&#x21a;" horiz-adv-x="1257" 
d="M1233 1434v-226h-471v-1208h-266v1208h-471v226h1208zM502 -317v215h254v-215l-144 -215h-100l92 215h-102z" />
    <glyph glyph-name="uni021B" unicode="&#x21b;" horiz-adv-x="876" 
d="M383 -317v215h254v-215l-143 -215h-101l92 215h-102zM281 287v573h-256v205h256v246h254v-246h286v-205h-286v-573q0 -47 18 -68q14 -20 63 -20h205v-199h-266q-147 0 -211 70q-63 69 -63 217z" />
    <glyph glyph-name="uni021E" unicode="&#x21e;" horiz-adv-x="1568" 
d="M1399 1434v-1434h-266v625h-697v-625h-266v1434h266v-584h697v584h266zM702 1802l82 -133l82 133h308l-246 -246h-287l-246 246h307z" />
    <glyph glyph-name="uni021F" unicode="&#x21f;" horiz-adv-x="1265" 
d="M391 1434v-502q53 77 139 121q85 43 195 43q192 0 303 -111t111 -319v-666h-254v645q0 119 -51 176q-54 60 -170 60q-55 0 -107 -19q-52 -21 -88 -57t-57 -92q-21 -55 -21 -129v-584h-254v1434h254zM563 1802l82 -133l82 133h307l-246 -246h-286l-246 246h307z" />
    <glyph glyph-name="uni022E" unicode="&#x22e;" horiz-adv-x="1601" 
d="M350 717q0 -101 31 -199q26 -91 88 -166q59 -70 141 -114q82 -43 191 -43q108 0 190 43q88 46 144 114q57 69 88 166q28 98 28 199q0 100 -28 198q-31 97 -88 166q-58 69 -144 115q-82 43 -190 43q-109 0 -191 -43q-81 -43 -141 -115q-62 -75 -88 -166q-31 -98 -31 -198z
M1518 717q0 -162 -52 -299q-53 -140 -145 -236q-92 -99 -225 -155q-131 -58 -295 -58q-162 0 -293 58q-137 57 -227 155q-93 98 -146 236q-51 134 -51 299t51 299q52 133 146 235q90 97 227 158q131 55 293 55q164 0 295 -55q133 -59 225 -158q92 -100 145 -235
q52 -137 52 -299zM674 1577v225h254v-225h-254z" />
    <glyph glyph-name="uni022F" unicode="&#x22f;" 
d="M328 532q0 -64 18 -129q15 -64 53 -114q38 -53 95 -82q56 -33 137 -33t137 33q56 29 94 82q38 51 56 114q16 69 16 129q0 63 -16 132q-16 58 -56 114q-36 48 -94 82q-60 31 -137 31t-137 -31q-59 -35 -95 -82q-39 -55 -53 -114q-18 -64 -18 -132zM1188 532
q0 -123 -39 -221q-38 -99 -113 -180q-72 -74 -176 -119q-101 -43 -229 -43q-129 0 -230 43q-106 45 -174 119q-71 74 -112 180q-41 103 -41 221t41 224q42 105 112 178q68 74 174 119q101 43 230 43q128 0 229 -43q104 -45 176 -119q74 -81 113 -178q39 -101 39 -224z
M504 1208v226h254v-226h-254z" />
    <glyph glyph-name="uni0232" unicode="&#x232;" 
d="M498 0v563l-482 871h287l328 -635l327 635h287l-481 -871v-563h-266zM272 1597v185h717v-185h-717z" />
    <glyph glyph-name="uni0233" unicode="&#x233;" horiz-adv-x="1085" 
d="M414 -29l10 29l-399 1065h268l149 -410q39 -106 60 -190q6 -24 15 -59.5t15.5 -61.5t10.5 -47h8q3 14 45 168q23 80 63 190l146 410h262l-430 -1161q-19 -50 -53 -113q-29 -51 -76 -86q-44 -36 -113 -55q-71 -19 -164 -19h-143v199h123q77 0 127 29q46 27 76 112z
M186 1229v184h717v-184h-717z" />
    <glyph glyph-name="uni0237" unicode="&#x237;" horiz-adv-x="536" 
d="M145 -61v1126h254v-1126q0 -152 -96 -230q-101 -78 -260 -78h-113v199h103q59 0 88 29q24 27 24 80z" />
    <glyph glyph-name="uni0244" unicode="&#x244;" horiz-adv-x="1576" 
d="M41 649v215h154v570h266v-570h655v570h266v-570h154v-215h-154v-127q0 -112 -41 -215q-41 -104 -116 -176q-74 -74 -189 -119q-110 -43 -248 -43q-140 0 -247 43q-112 44 -187 119q-78 75 -118 176q-41 103 -41 215v127h-154zM788 195q72 0 136 22q56 20 102 66
q44 41 68 102q22 61 22 137v127h-655v-127q0 -78 24 -137q20 -59 66 -102q46 -46 104 -66q61 -22 133 -22z" />
  </font>
</defs>
</svg>
